<svg xmlns="http://www.w3.org/2000/svg" id="Layer_1" viewBox="0 0 309.6 172.8">
  <g fill="#FFF">
    <path d="M66.1 14.5h2.2c1.2 0 2.5 0 3.4.9.6.5.9 1.3.9 2.1 0 1.4-.9 1.9-1.3 2.1.7.3 1.9.9 1.9 2.8 0 1.3-.7 2.2-1.4 2.7-.8.6-2.2.7-2.9.7h-3V14.5zm2.1 4.3h.7c.5 0 1.8 0 1.8-1.2 0-.7-.4-1.2-1.6-1.2h-.9v2.4zm0 4.9h1c.4 0 2.1 0 2.1-1.5 0-.5-.2-1.5-2-1.5h-1.1v3z"/>
    <path d="M74.7 14.5h6v1.9h-3.9v2.7h3.8V21h-3.8v2.6h3.9v1.9h-6v-11z"/>
    <path d="M84 22.4c.1 1.1.8 1.5 1.5 1.5.8 0 1.5-.6 1.5-1.4 0-1.1-.7-1.4-2.1-1.9-.9-.3-2.7-.9-2.7-3.2 0-1.8 1.4-3.2 3.3-3.2 1.3 0 3.2.9 3.3 3.2h-2.1c-.1-1-.7-1.3-1.3-1.3-.6 0-1.1.5-1.1 1.1 0 1 .7 1.2 1.9 1.6.9.3 2.9 1 2.9 3.4s-1.9 3.6-3.6 3.6c-1.4 0-3.5-1-3.6-3.4H84z"/>
    <path d="M91.6 16.4h-2.1v-1.9h6.2v1.9h-2.1v9.2h-2.1v-9.2z"/>
    <path d="M101 14.5h2.5c2.7 0 3.9.7 4.6 1.3 1.1.9 1.8 2.6 1.8 4.3 0 2-1 3.9-2.7 4.8-1 .6-2.5.7-3.7.7H101V14.5zm2.1 9.2h.4c1.1 0 1.8-.1 2.7-.5 1.1-.6 1.7-1.9 1.7-3.1 0-1.1-.5-2.1-1.2-2.7-.9-.8-1.9-.9-3.2-.9h-.4v7.2z"/>
    <path d="M111.6 14.5h3.4c1.3 0 2.1.2 2.7.8s1.3 1.4 1.3 2.7c0 .7-.3 1.9-1.1 2.7-.7.6-1.3.8-1.9.9l3 4.1h-2.5l-3-4.3v4.3h-2.1V14.5zm2 5.3h1.3c1.7 0 2-1.1 2-1.7 0-.6-.4-1.7-2-1.7h-1.3v3.4z"/>
    <path d="M120.4 14.5h2.1v11.2h-2.1V14.5z"/>
    <path d="M124.6 14.5h2.4l4.6 8.1v-8.1h2.1v11.2h-2.3l-4.7-8.1v8.1h-2.1V14.5z"/>
    <path d="M136.1 14.5h2.1v4.8l3.5-4.8h2.4l-4.2 5.5 4.2 5.7h-2.4l-3.5-4.9v4.9h-2.1V14.5z"/>
    <path d="M146.4 22.4c.1 1.1.8 1.5 1.5 1.5.8 0 1.5-.6 1.5-1.4 0-1.1-.7-1.4-2.1-1.9-.9-.3-2.7-.9-2.7-3.2 0-1.8 1.4-3.2 3.3-3.2 1.3 0 3.2.9 3.3 3.2h-2.1c-.1-1-.7-1.3-1.3-1.3-.6 0-1.1.5-1.1 1.1 0 1 .7 1.2 1.9 1.6.9.3 2.9 1 2.9 3.4s-1.9 3.6-3.6 3.6c-1.4 0-3.5-1-3.6-3.4h2.1z"/>
    <path d="M157.9 16.4h-2.1v-1.9h6.2v1.9h-2v9.2h-2.1v-9.2z"/>
    <path d="M168.2 14.2c3.2 0 5.8 2.5 5.8 5.8 0 3.2-2.6 5.8-5.8 5.8-3.2 0-5.8-2.6-5.8-5.8 0-3.2 2.6-5.8 5.8-5.8zm0 9.7c2.1 0 3.8-1.8 3.8-3.9 0-2.1-1.7-3.9-3.8-3.9-2.1 0-3.8 1.7-3.8 3.9 0 2.1 1.7 3.9 3.8 3.9z"/>
    <path d="M185.1 14.2c3.2 0 5.8 2.5 5.8 5.8 0 3.2-2.6 5.8-5.8 5.8-3.2 0-5.8-2.6-5.8-5.8 0-3.2 2.6-5.8 5.8-5.8zm0 9.7c2.1 0 3.8-1.8 3.8-3.9 0-2.1-1.7-3.9-3.8-3.9-2.1 0-3.8 1.7-3.8 3.9 0 2.1 1.7 3.9 3.8 3.9z"/>
    <path d="M192.4 14.5h3.4c1.3 0 2.1.2 2.7.8s1.3 1.4 1.3 2.7c0 .7-.3 1.9-1.1 2.7-.7.6-1.3.8-1.9.9l3 4.1h-2.5l-3-4.3v4.3h-2.1V14.5zm2.1 5.3h1.3c1.7 0 2-1.1 2-1.7 0-.6-.4-1.7-2-1.7h-1.3v3.4z"/>
    <path d="M201.1 14.5h2.5c2.7 0 3.9.7 4.6 1.3 1.1.9 1.8 2.6 1.8 4.3 0 2-1 3.9-2.7 4.8-1 .6-2.5.7-3.7.7H201V14.5zm2.1 9.2h.4c1.1 0 1.8-.1 2.7-.5 1.1-.6 1.7-1.9 1.7-3.1 0-1.1-.5-2.1-1.2-2.7-.9-.8-1.9-.9-3.2-.9h-.4v7.2z"/>
    <path d="M211.7 14.5h6v1.9h-3.9v2.7h3.8V21h-3.8v2.6h3.9v1.9h-6v-11z"/>
    <path d="M219.6 14.5h3.4c1.3 0 2.1.2 2.7.8s1.3 1.4 1.3 2.7c0 .7-.3 1.9-1.1 2.7-.7.6-1.3.8-1.9.9l3 4.1h-2.5l-3-4.3v4.3h-2.1V14.5zm2 5.3h1.3c1.7 0 2-1.1 2-1.7 0-.6-.4-1.7-2-1.7h-1.3v3.4z"/>
  </g>
  <path id="Soda" fill="#C4D82E" stroke="#C4D82E" stroke-width=".01" stroke-miterlimit="10" d="M8.3 49.6H2.6s-2.2-5.4 2-8.2c0 0 2.5-2.9 9-1.7 0 0 3.1.7 3.9 1.8 0 0 8.7-2.1 17.7-.1 0 0 7.1 1 8.6 5 0 0 .3.7 0 2.5L37.6 85s.2.5-1.8 1.6l-4 2.5s-.5.5-2.9.3h-6.4s-1.6-.3-2.7-1-4.4-3-4.4-3-.4-.3-.5-1.4c0 0-2.7-17.3-3.3-18.3L8.3 49.6z"/>
  <path fill="none" d="M55.3 55.2H150v18.4H55.3z"/>
  <path fill="#FFF" d="M55.3 55.2H57l2.3 6.6 2.3-6.6h1.7L60 63.8h-1.3l-3.4-8.6z"/>
  <path fill="#FFF" d="M67.9 55c2.5 0 4.5 2 4.5 4.5s-2 4.5-4.5 4.5-4.5-2-4.5-4.5c-.1-2.5 2-4.5 4.5-4.5zm0 7.5c1.7 0 2.9-1.4 2.9-3 0-1.7-1.3-3-2.9-3s-2.9 1.4-2.9 3c-.1 1.6 1.2 3 2.9 3z"/>
  <path fill="#FFF" d="M73.5 55.2h2c2.1 0 3.1.6 3.6 1 .8.7 1.4 2 1.4 3.4 0 1.6-.8 3.1-2.1 3.8-.8.4-1.9.6-2.9.6h-2v-8.8zm1.6 7.1h.3c.9 0 1.4-.1 2.1-.4.9-.5 1.3-1.5 1.3-2.4 0-.8-.4-1.6-.9-2.1-.7-.6-1.5-.7-2.5-.7h-.3v5.6z"/>
  <path fill="#FFF" d="M82 55.2h1.6V59l2.7-3.8h1.9L85 59.4l3.3 4.4h-1.9L83.7 60v3.8H82v-8.6z"/>
  <path fill="#FFF" d="M92 55.2h1.3l3.6 8.7h-1.8l-.9-2.2h-3.1l-.9 2.2h-1.8l3.6-8.7zm-.4 4.9h2l-1-2.7-1 2.7z"/>
  <path fill="#FFF" d="M108 58.7l-1.5 2.6L108 63l-1.1 1-1.2-1.3c-.3.4-1 1.3-2.2 1.3-1.3 0-2.9-1-2.9-2.8 0-1.5 1.1-2.1 1.6-2.5-.4-.5-.7-.9-.7-1.6 0-1.4 1.1-2.2 2.2-2.2 1.2 0 2.2.9 2.2 2.1 0 1.3-1 1.9-1.4 2.1l.8.9.8-1.4h1.9zm-4.7 1.4c-.3.2-1.1.5-1.1 1.3s.6 1.2 1.2 1.2c.7 0 1-.6 1.2-1l-1.3-1.5zm1.2-2.9c0-.3-.2-.7-.8-.7-.4 0-.7.3-.7.7 0 .4.3.7.6 1 .5-.2.9-.5.9-1z"/>
  <path fill="#FFF" d="M113.3 61.4c.1.9.7 1.2 1.1 1.2.6 0 1.2-.4 1.2-1.1 0-.9-.6-1.1-1.7-1.5-.7-.3-2.1-.7-2.1-2.5 0-1.4 1.1-2.5 2.5-2.5 1 0 2.5.7 2.6 2.5h-1.6c-.1-.8-.5-1-1-1s-.9.4-.9.9c0 .8.6.9 1.4 1.2.7.2 2.3.8 2.3 2.7 0 1.9-1.5 2.8-2.8 2.8-1.1 0-2.7-.8-2.8-2.7h1.8z"/>
  <path fill="#FFF" d="M122.5 55c2.5 0 4.5 2 4.5 4.5s-2 4.5-4.5 4.5-4.5-2-4.5-4.5 2.1-4.5 4.5-4.5zm0 7.5c1.7 0 2.9-1.4 2.9-3 0-1.7-1.3-3-2.9-3s-2.9 1.4-2.9 3 1.3 3 2.9 3z"/>
  <path fill="#FFF" d="M128.2 55.2h2c2.1 0 3.1.6 3.6 1 .8.7 1.4 2 1.4 3.4 0 1.6-.8 3.1-2.1 3.8-.8.4-1.9.6-2.9.6h-2v-8.8zm1.6 7.1h.3c.9 0 1.4-.1 2.1-.4.9-.5 1.3-1.5 1.3-2.4 0-.8-.4-1.6-.9-2.1-.7-.6-1.5-.7-2.5-.7h-.3v5.6z"/>
  <path fill="#FFF" d="M138.8 55.2h1.3l3.6 8.7h-1.8l-.9-2.2h-3.1l-.9 2.2h-1.8l3.6-8.7zm-.4 4.9h2l-1-2.7-1 2.7z"/>
  <path fill="#FFF" d="M55.3 68.8h1.1l.8 2.6.7-2.6h.8l.7 2.6.8-2.6h1.1L59.7 73h-.6l-.8-2.8-.8 2.8h-.6l-1.6-4.2z"/>
  <path fill="#FFF" d="M61.8 67.4h1v.9h-1v-.9zm0 1.4h1V73h-1v-4.2z"/>
  <path fill="#FFF" d="M63.9 69.7h-.5v-.9h.5v-1.4h1v1.4h.6v.9h-.6V73h-1v-3.3z"/>
  <path fill="#FFF" d="M65.9 67.4h1v1.7c.1-.1.5-.4 1.1-.4.5 0 1 .3 1.3.6.3.4.3 1 .3 1.3V73h-1v-2.2c0-.5 0-1.3-.9-1.3s-.9.9-.9 1.3V73h-1v-5.6z"/>
  <path fill="#FFF" d="M72.6 67.4h1V73h-1v-5.6z"/>
  <path fill="#FFF" d="M75.4 71.3c0 .3.4.9 1.2.9.5 0 .8-.2 1-.5h1.1c-.2.8-1.1 1.5-2 1.5-1.3 0-2.2-1-2.2-2.2 0-1.2.9-2.3 2.2-2.3 1.3 0 2.2 1.2 2.2 2.2 0 .2 0 .4-.1.5h-3.4zm2.3-.8c-.1-.7-.6-1-1.1-1-.4 0-1 .2-1.2 1h2.3z"/>
  <path fill="#FFF" d="M79.4 68.8h.9v.4c.1-.1.4-.5 1.1-.5.2 0 .8.1 1.2.7.4-.6 1.1-.7 1.4-.7.8 0 1.2.4 1.4.7.2.2.3.6.3 1.3V73h-1v-2.4c0-.2 0-1.1-.8-1.1-.3 0-.6.2-.7.4-.2.3-.2.7-.2 1V73h-1v-2.4c0-.6-.2-1.1-.8-1.1-.8 0-.8.9-.8 1.3V73h-1v-4.2z"/>
  <path fill="#FFF" d="M86.3 70.9c0-1.3 1-2.3 2.3-2.3 1.2 0 2.2 1 2.2 2.3 0 1.4-1.1 2.3-2.2 2.3-1.3 0-2.3-1.1-2.3-2.3zm3.5 0c0-.8-.6-1.3-1.2-1.3-.5 0-1.2.5-1.2 1.3s.6 1.3 1.2 1.3c.7 0 1.2-.6 1.2-1.3z"/>
  <path fill="#FFF" d="M91.4 68.8h.9v.4c.2-.2.5-.5 1.2-.5.4 0 .9.2 1.3.6.4.5.4 1.2.4 1.5V73h-1v-2.1c0-.4 0-1.4-.9-1.4-.2 0-.5.1-.7.4-.2.3-.2.7-.2 1.1v2h-1v-4.2z"/>
  <path id="Beer" fill="#C4D82E" stroke="#C4D82E" stroke-width=".2" stroke-miterlimit="10" d="M224.9 53.5s-.6-2.9-4-3.4h-4.7s-1.2-.3-1.1-1.5V45h-.2c0-.1-.1-.5-.3-.7 0 0 0-.7-.3-1 0 0-.7-1.4-2.2-2.3 0 0-.2-.5-.4-.3 0 0-2-1.5-2.8-1.5 0 0-1.2-.8-1.5-.6l-2.7-.7s-1.9-.6-4.8.4c0 0-2.4-1-2.6-.6 0 0-2.1.2-3 .8l-.6.2s-.2-.4-2.3 1c0 0-1.3.8-1.3 1 0 0-1 .5-1 .9l-.2.3s-.5.4-.4.8c0 0-.5.9-.4 1.2 0 0-.2.9.2 1.4-.1.4-.1.9-.2 1.2V72s-.4 8.3-.7 8.6l-1.1 6.4s0 1.6 2.9 2.4c0 0 12.1 3.6 24.2 0 0 0 3.1-.9 3.5-2.1 0 0 .3-.5-.3-2.4 0 0-.8-3.3 0-3.6 0 0 3.3-2.3 7.6-4.6 0 0 2.3-1.6 2.3-4 0 0 1.5-12.6-1.6-19.2zm-2.2 18.6s-.1.9-.9 1.6l-4.2 2.2s-1.3.6-2.2-.5c0 0-.7-18.7-.3-20.8 0 0 .2-.9 1.4-1.1h3.6s1.2.1 1.7 1.6c0 .1 2.4 8.8.9 17z"/>
  <path fill="none" d="M239 60.1h68v10.4h-68z"/>
  <path fill="#FFF" d="M239.8 60.1h1.6v7.2h2.7v1.5h-4.3v-8.7z"/>
  <path fill="#FFF" d="M245 60.1h1.6v8.7H245v-8.7z"/>
  <path fill="#FFF" d="M251.3 64.3h5.7v.2c0 2.5-2.2 4.4-4.6 4.4-2.5 0-4.7-1.9-4.7-4.5s2.2-4.5 4.6-4.5c2.2 0 3.8 1.5 4.2 2.7h-1.9c-.4-.6-1.2-1.2-2.3-1.2-2 0-3 1.7-3 3s1 3 3.1 3c1.1 0 2.1-.6 2.6-1.6h-3.6v-1.5z"/>
  <path fill="#FFF" d="M258.1 60.1h1.6v3.5h3.1v-3.5h1.6v8.7h-1.6v-3.6h-3.1v3.6h-1.6v-8.7z"/>
  <path fill="#FFF" d="M266.9 61.6h-1.6v-1.5h4.8v1.5h-1.6v7.2h-1.6v-7.2z"/>
  <path fill="#FFF" d="M274.3 60.1h1.7c1 0 1.9 0 2.7.7.4.4.7 1 .7 1.6 0 1.1-.7 1.5-1 1.7.6.2 1.5.7 1.5 2.2 0 1-.6 1.7-1.1 2.1-.7.5-1.7.5-2.2.5h-2.3v-8.8zm1.6 3.3h.5c.4 0 1.4 0 1.4-.9 0-.5-.3-.9-1.2-.9h-.7v1.8zm0 3.8h.8c.3 0 1.6 0 1.6-1.1 0-.4-.2-1.2-1.6-1.2h-.8v2.3z"/>
  <path fill="#FFF" d="M281 60.1h4.7v1.5h-3.1v2.1h2.9v1.5h-2.9v2.1h3.1v1.5H281v-8.7z"/>
  <path fill="#FFF" d="M287.1 60.1h4.7v1.5h-3.1v2.1h2.9v1.5h-2.9v2.1h3.1v1.5h-4.7v-8.7z"/>
  <path fill="#FFF" d="M293.2 60.1h2.7c1 0 1.6.2 2.1.6.5.4 1 1.1 1 2.1 0 .6-.2 1.5-.8 2.1-.5.5-1 .6-1.4.7l2.4 3.2h-1.9l-2.3-3.3v3.3h-1.6v-8.7zm1.6 4.1h1c1.3 0 1.5-.9 1.5-1.3 0-.5-.3-1.3-1.5-1.3h-1v2.6z"/>
  <path id="Wine" fill="#C4D82E" stroke="#C4D82E" stroke-width=".01" stroke-miterlimit="10" d="M212.4 101.7h-22.6c-.5 0-.9.3-1.1.7-1.1 2.3-4.4 10.1-.5 17.3 0 0 0 .1.1.1.2.6 2.6 6.2 10 8.9.3.1.5.3.6.5.4.6 1.1 1.9 1.1 3l-.1 17.9c0 .9-.3 1.9-.8 2.7-.2.3-.5.7-.9 1.1-.2.2-.5.3-.7.3-1.6.2-7.2 1-7 3v.1c0 .4.4 2.6 10.6 3 10.3-.3 10.6-2.7 10.6-3v-.1c.2-2-5.4-2.8-7-3-.3 0-.5-.1-.7-.3-.5-.5-.8-1-1.1-1.4-.4-.7-.7-1.5-.7-2.3l-.1-18.1c0-1.1.7-2.4 1.1-3 .1-.2.4-.4.6-.5 7.3-2.7 9.7-8.3 10-8.9 0 0 0-.1.1-.1 3.8-7.2.6-15-.5-17.3-.2-.4-.7-.7-1.1-.7h-22.6"/>
  <path fill="none" d="M239 126.2h58.4v9.5H239z"/>
  <path fill="#FFF" d="M239.7 126.2h2.7c1 0 1.6.2 2.1.6.5.4 1 1.1 1 2.1 0 .6-.2 1.5-.8 2.1-.5.5-1 .6-1.4.7l2.4 3.2h-1.9l-2.3-3.3v3.3h-1.6v-8.7zm1.6 4.2h1c1.3 0 1.5-.9 1.5-1.3 0-.5-.3-1.3-1.5-1.3h-1v2.6z"/>
  <path fill="#FFF" d="M246.5 126.2h4.7v1.5h-3.1v2.1h2.9v1.5h-2.9v2.1h3.1v1.5h-4.7v-8.7z"/>
  <path fill="#FFF" d="M252.6 126.2h2c2.1 0 3.1.6 3.6 1 .8.7 1.4 2 1.4 3.4 0 1.6-.8 3.1-2.1 3.8-.8.4-1.9.6-2.9.6h-2v-8.8zm1.6 7.2h.3c.9 0 1.4-.1 2.1-.4.9-.5 1.3-1.5 1.3-2.4 0-.8-.4-1.6-.9-2.1-.7-.6-1.5-.7-2.5-.7h-.3v5.6z"/>
  <path fill="#FFF" d="M263.2 126.2h1.6l1.5 6.1 1.5-6.1h1.2l1.5 6.1 1.5-6.1h1.6l-2.5 8.7h-1.3l-1.4-5.7-1.4 5.7h-1.3l-2.5-8.7z"/>
  <path fill="#FFF" d="M274.5 126.2h1.6v8.7h-1.6v-8.7z"/>
  <path fill="#FFF" d="M277.7 126.2h1.8l3.6 6.3v-6.3h1.6v8.7H283l-3.6-6.3v6.3h-1.6v-8.7z"/>
  <path fill="#FFF" d="M286.3 126.2h4.7v1.5h-3.1v2.1h2.9v1.5h-2.9v2.1h3.1v1.5h-4.7v-8.7z"/>
  <path id="Gintonic" fill="#C4D82E" stroke="#C4D82E" stroke-width=".01" stroke-miterlimit="10" d="M11.4 114.7l2.4 43.8s-.1 1 .9 1.4c0 0 10.6 1.8 16.1-.3 0 0 .8-.3.8-1.6l1.7-43.1s-.4-.1-.6-.2c0 0 .4-1.9.1-2.1 0 0 .1-.2-.3-.3l2.1-11.2s-.7-.6-1.6-.3l-1.7 9.8 1.1-12.9s-.9-.5-1.6 0l-1.2 14.6s-.9.1-1.3.5l-1-.1-.5.1-.1-.1.4-.6s.3-.8 0-1.2c0 0-.7-1.4-2.7-2.9 0 0-.6-.5-1.9.8 0 0-2.6-1.5-5.3.1 0 0-2.8 1.7-3.5 4.4 0 0-1.1.2-1.5.5 0 0-.1.2.1.6-.3.1-.8.1-.9.3z"/>
  <path fill="none" d="M55.3 125.6h77.1v10.2H55.3z"/>
  <path fill="#FFF" d="M59.2 129.8h5.7v.2c0 2.5-2.2 4.4-4.6 4.4-2.5 0-4.7-1.9-4.7-4.5s2.2-4.5 4.6-4.5c2.2 0 3.8 1.5 4.2 2.7h-1.9c-.4-.6-1.2-1.2-2.3-1.2-2 0-3 1.7-3 3s1 3 3.1 3c1.1 0 2.1-.6 2.6-1.6h-3.6v-1.5z"/>
  <path fill="#FFF" d="M66 125.6h1.6v8.7H66v-8.7z"/>
  <path fill="#FFF" d="M69.2 125.6H71l3.6 6.3v-6.3h1.6v8.7h-1.8l-3.6-6.3v6.3h-1.6v-8.7z"/>
  <path fill="#FFF" d="M88.1 129.1l-1.5 2.6 1.5 1.7-1.1 1-1.2-1.3c-.3.4-1 1.3-2.2 1.3-1.3 0-2.9-1-2.9-2.8 0-1.5 1.1-2.1 1.6-2.5-.4-.5-.7-.9-.7-1.6 0-1.4 1.1-2.2 2.2-2.2 1.2 0 2.2.9 2.2 2.1 0 1.3-1 1.9-1.4 2.1l.8.9.8-1.4h1.9zm-4.7 1.4c-.3.2-1.1.5-1.1 1.3s.6 1.2 1.2 1.2c.7 0 1-.6 1.2-1l-1.3-1.5zm1.2-2.9c0-.3-.2-.7-.8-.7-.4 0-.7.3-.7.7 0 .4.3.7.6 1 .5-.2.9-.5.9-1z"/>
  <path fill="#FFF" d="M93 127.1h-1.6v-1.5h4.8v1.5h-1.6v7.2H93v-7.2z"/>
  <path fill="#FFF" d="M101 125.4c2.5 0 4.5 2 4.5 4.5s-2 4.5-4.5 4.5-4.5-2-4.5-4.5 2-4.5 4.5-4.5zm0 7.5c1.7 0 2.9-1.4 2.9-3 0-1.7-1.3-3-2.9-3s-2.9 1.4-2.9 3 1.3 3 2.9 3z"/>
  <path fill="#FFF" d="M106.8 125.6h1.8l3.6 6.3v-6.3h1.6v8.7H112l-3.6-6.3v6.3h-1.6v-8.7z"/>
  <path fill="#FFF" d="M115.5 125.6h1.6v8.7h-1.6v-8.7z"/>
  <path fill="#FFF" d="M126.8 131.8c-.7 1.6-2.3 2.6-4 2.6-2.5 0-4.5-2.1-4.5-4.6 0-2.4 2-4.5 4.5-4.5 1.4 0 3.3.8 4.1 2.7h-1.8c-.6-.7-1.4-1.1-2.3-1.1-1.4 0-2.8 1.3-2.8 3 0 1.6 1.3 3 2.9 3 1.2 0 1.8-.7 2.2-1.1h1.7z"/>
</svg>
