<svg xmlns="http://www.w3.org/2000/svg" id="Layer_1" viewBox="0 0 264.7 507.1">
  <g id="Calories" fill="#FFF">
    <path d="M34.1 7.3h2.5v5.4h4.8V7.3h2.5v13.3h-2.5V15h-4.8v5.6h-2.5V7.3z"/>
    <path d="M52.6 7.1c3.8 0 7 3 7 7 0 3.8-3.1 6.9-7 6.9s-7-3.1-7-6.9c0-4 3.2-7 7-7zm0 11.5c2.5 0 4.5-2.1 4.5-4.6 0-2.6-2-4.6-4.5-4.6s-4.5 2.1-4.5 4.6c0 2.5 1.9 4.6 4.5 4.6z"/>
    <path d="M59.9 7.3h2.5l2.3 9.3L67 7.3h1.8l2.2 9.3 2.3-9.3H76l-3.9 13.3h-2L68 11.9l-2.2 8.8h-1.9l-4-13.4z"/>
    <path d="M82.2 7.3h3.4l3.5 10.1 3.5-10.1H96v13.3h-2.5v-10l-3.4 10H88l-3.4-10v10h-2.5V7.3z"/>
    <path d="M102.9 7.3h1.9l5.6 13.3h-2.7l-1.4-3.4h-4.8l-1.4 3.4h-2.7l5.5-13.3zm-.6 7.6h3.1l-1.5-4.1-1.6 4.1z"/>
    <path d="M111.8 7.3h2.8l5.5 9.7V7.3h2.5v13.3h-2.8l-5.6-9.7v9.7h-2.5V7.3z"/>
    <path d="M128.2 15.8l-4.4-8.4h2.7l2.9 6.1 2.9-6.1h2.7l-4.4 8.4v4.9h-2.5v-4.9z"/>
    <path d="M153.8 17c-1 2.4-3.6 4-6.2 4-3.9 0-7-3.2-7-7 0-3.7 3-6.9 6.9-6.9 2.2 0 5 1.2 6.3 4.1H151c-1-1.1-2.1-1.8-3.6-1.8-2.2 0-4.3 1.9-4.3 4.6 0 2.5 2.1 4.6 4.4 4.6 1.8 0 2.8-1 3.3-1.7h3z"/>
    <path d="M159.1 7.3h1.9l5.6 13.3h-2.7l-1.4-3.4h-4.8l-1.4 3.4h-2.7l5.5-13.3zm-.6 7.6h3.1l-1.5-4.1-1.6 4.1z"/>
    <path d="M168 7.3h2.5v11h4.1v2.3H168V7.3z"/>
    <path d="M182.2 7.1c3.8 0 7 3 7 7 0 3.8-3.1 6.9-7 6.9s-7-3.1-7-6.9c0-4 3.2-7 7-7zm0 11.5c2.5 0 4.5-2.1 4.5-4.6 0-2.6-2-4.6-4.5-4.6s-4.5 2.1-4.5 4.6c0 2.5 1.9 4.6 4.5 4.6z"/>
    <path d="M190.9 7.3h4.1c1.5 0 2.5.3 3.2.9s1.6 1.7 1.6 3.2c0 .9-.3 2.3-1.3 3.2-.8.8-1.5.9-2.2 1.1l3.6 4.9h-3l-3.5-5.1v5.1h-2.5V7.3zm2.5 6.4h1.6c2 0 2.4-1.4 2.4-2.1 0-.7-.5-2-2.4-2h-1.6v4.1z"/>
    <path d="M201.5 7.3h2.5v13.3h-2.5V7.3z"/>
    <path d="M206.3 7.3h7.2v2.3h-4.7v3.3h4.5v2.3h-4.5v3.2h4.7v2.3h-7.2V7.3z"/>
    <path d="M217.4 16.9c.1 1.3 1 1.8 1.8 1.8 1 0 1.8-.7 1.8-1.7 0-1.4-.9-1.6-2.5-2.3-1-.4-3.2-1-3.2-3.8 0-2.1 1.7-3.8 3.9-3.8 1.5 0 3.8 1.1 3.9 3.8h-2.5c-.1-1.2-.8-1.5-1.5-1.5-.8 0-1.4.6-1.4 1.4 0 1.2.9 1.4 2.2 1.9 1.1.4 3.5 1.2 3.5 4.1 0 2.9-2.2 4.2-4.3 4.2-1.7 0-4.2-1.2-4.3-4.1h2.6z"/>
    <path d="M48.8 28.9h1.9l5.6 13.3h-2.7l-1.4-3.4h-4.8L46 42.3h-2.7l5.5-13.4zm-.6 7.6h3.1l-1.5-4.1-1.6 4.1z"/>
    <path d="M57.6 28.9h4.1c1.5 0 2.5.3 3.2.9.8.6 1.6 1.7 1.6 3.2 0 .9-.3 2.3-1.3 3.2-.8.8-1.5.9-2.2 1.1l3.6 4.9h-3l-3.5-5.1v5.1h-2.5V28.9zm2.5 6.4h1.6c2 0 2.4-1.4 2.4-2.1 0-.7-.5-2-2.4-2h-1.6v4.1z"/>
    <path d="M68 28.9h7.2v2.3h-4.7v3.3H75v2.3h-4.5V40h4.7v2.3H68V28.9z"/>
    <path d="M84.5 37.4L80.1 29h2.7l2.9 6.1 2.9-6.1h2.7L87 37.4v4.9h-2.5v-4.9z"/>
    <path d="M98.4 28.7c3.8 0 7 3 7 7 0 3.8-3.1 6.9-7 6.9s-7-3.1-7-6.9c0-4 3.2-7 7-7zm0 11.5c2.5 0 4.5-2.1 4.5-4.6 0-2.6-2-4.6-4.5-4.6s-4.5 2.1-4.5 4.6c0 2.5 2 4.6 4.5 4.6z"/>
    <path d="M109.4 28.9v8.5c0 .7 0 2.8 2.3 2.8s2.3-2.2 2.3-2.8v-8.5h2.5v8.5c0 1.1-.1 2.3-.8 3.2-.8 1.1-2.2 2-4 2-2 0-3.4-1.1-4-1.9-.4-.6-.8-1.6-.8-3.2V29h2.5z"/>
    <path d="M123.6 28.9h3c3.3 0 4.7.9 5.5 1.5 1.3 1.1 2.2 3.1 2.2 5.1 0 2.4-1.2 4.7-3.2 5.8-1.2.7-2.9.9-4.4.9h-3.1V28.9zm2.5 11.1h.5c1.3 0 2.2-.1 3.2-.6 1.3-.7 2-2.3 2-3.7 0-1.3-.6-2.5-1.4-3.3-1-.9-2.3-1.1-3.9-1.1h-.5V40z"/>
    <path d="M136.3 28.9h4.1c1.5 0 2.5.3 3.2.9.8.6 1.6 1.7 1.6 3.2 0 .9-.3 2.3-1.3 3.2-.8.8-1.5.9-2.2 1.1l3.6 4.9h-3l-3.5-5.1v5.1h-2.5V28.9zm2.4 6.4h1.6c2 0 2.4-1.4 2.4-2.1 0-.7-.5-2-2.4-2h-1.6v4.1z"/>
    <path d="M146.8 28.9h2.5v13.3h-2.5V28.9z"/>
    <path d="M151.8 28.9h2.8l5.5 9.7v-9.7h2.5v13.3h-2.8l-5.6-9.7v9.7h-2.5V28.9z"/>
    <path d="M165.5 28.9h2.5v5.8l4.2-5.8h2.9l-5 6.6 5 6.8h-2.9l-4.2-5.9v5.9h-2.5V28.9z"/>
    <path d="M176.4 28.9h2.5v13.3h-2.5V28.9z"/>
    <path d="M181.4 28.9h2.8l5.5 9.7v-9.7h2.5v13.3h-2.8l-5.6-9.7v9.7h-2.5V28.9z"/>
    <path d="M199.4 35.5h8.7v.3c0 3.8-3.3 6.8-7.1 6.8s-7.2-2.9-7.2-6.9c0-3.9 3.3-6.9 7.1-6.9 3.3 0 5.8 2.3 6.5 4.2h-3c-.6-.9-1.8-1.9-3.6-1.9-3 0-4.6 2.6-4.6 4.6 0 2 1.5 4.6 4.7 4.6 1.6 0 3.2-.9 3.9-2.4h-5.6v-2.4z"/>
    <path d="M212 38.9v-.5c0-1.3.4-2.6 1.6-3.6.8-.7 1.4-1.2 1.4-2 0-1.4-1-1.7-1.7-1.7-1.4 0-1.6 1-1.7 1.8h-2.4c.3-4.2 3.9-4.2 4.1-4.2 2.1 0 4 1.5 4 4.1 0 .8-.2 1.8-1.8 3.3-.6.5-1.2 1-1.2 2.2v.6H212zm0 1h2.4v2.4H212v-2.4z"/>
  </g>
  <path fill="none" d="M179 149.4h80.5v25.8H179z"/>
  <path fill="#FFF" d="M181.5 149.4h.9l2.5 5.9h-1.2l-.6-1.5H181l-.6 1.5h-1.2l2.3-5.9zm-.2 3.3h1.4l-.7-1.8-.7 1.8z"/>
  <path fill="#FFF" d="M187.5 150.9h1v.5c.5-.7 1.2-.7 1.4-.7 1.5 0 2.2 1.3 2.2 2.4 0 1.3-1 2.4-2.2 2.4-.8 0-1.1-.3-1.4-.6v1.9h-1.1v-5.9zm2.3 3.6c.6 0 1.3-.5 1.3-1.4 0-.8-.6-1.4-1.3-1.4-.7 0-1.3.5-1.3 1.4 0 .9.8 1.4 1.3 1.4z"/>
  <path fill="#FFF" d="M192.9 149.4h1.1v1h-1.1v-1zm0 1.5h1.1v4.4h-1.1v-4.4z"/>
  <path fill="#FFF" d="M194.8 150.9h1v.4c.2-.2.5-.5 1.2-.5.4 0 1 .2 1.3.6.4.5.4 1.2.4 1.6v2.4h-1.1v-2.2c0-.4 0-1.4-.9-1.4-.2 0-.5.1-.7.4-.2.3-.2.7-.2 1.1v2.1h-1.1v-4.5z"/>
  <path fill="#FFF" d="M204.1 155.3h-1v-.6c-.3.4-1 .7-1.6.7-1.1 0-2.2-.9-2.2-2.4 0-1.4 1-2.3 2.2-2.3.9 0 1.4.6 1.5.7v-.6h1v4.5zm-2.3-3.6c-.9 0-1.3.8-1.3 1.4 0 .8.6 1.4 1.3 1.4.7 0 1.3-.6 1.3-1.4 0-1-.7-1.4-1.3-1.4z"/>
  <path fill="#FFF" d="M211.6 153.8c-.4 1-1.2 1.6-2.2 1.6-1.1 0-2.4-.9-2.4-2.4 0-1.4 1.1-2.4 2.4-2.4.6 0 1.8.3 2.2 1.6h-1.2c-.1-.2-.4-.6-1-.6s-1.3.5-1.3 1.4c0 .8.5 1.4 1.3 1.4.4 0 .7-.2 1-.6h1.2z"/>
  <path fill="#FFF" d="M212 153.1c0-1.3 1.1-2.4 2.4-2.4 1.3 0 2.4 1 2.4 2.4 0 1.5-1.1 2.4-2.4 2.4-1.3-.1-2.4-1.2-2.4-2.4zm3.7 0c0-.8-.6-1.4-1.3-1.4-.6 0-1.3.5-1.3 1.4 0 .8.6 1.4 1.3 1.4.8 0 1.3-.7 1.3-1.4z"/>
  <path fill="#FFF" d="M217.4 149.4h1.1v5.9h-1.1v-5.9z"/>
  <path fill="#FFF" d="M223.7 155.3h-1v-.6c-.3.4-1 .7-1.6.7-1.1 0-2.2-.9-2.2-2.4 0-1.4 1-2.3 2.2-2.3.9 0 1.4.6 1.5.7v-.6h1v4.5zm-2.3-3.6c-.9 0-1.3.8-1.3 1.4 0 .8.6 1.4 1.3 1.4.7 0 1.3-.6 1.3-1.4 0-1-.6-1.4-1.3-1.4z"/>
  <path fill="#FFF" d="M229.1 155.3h-1v-.5c-.2.3-.7.7-1.4.7-1.1 0-2.3-.9-2.3-2.4s1.2-2.4 2.3-2.4c.6 0 1 .2 1.3.5v-1.9h1.1v6zm-2.3-.8c.8 0 1.3-.7 1.3-1.4s-.6-1.4-1.3-1.4c-.8 0-1.3.7-1.3 1.4 0 .8.6 1.4 1.3 1.4z"/>
  <path fill="#FFF" d="M234.3 155.3h-1v-.6c-.3.4-1 .7-1.6.7-1.1 0-2.2-.9-2.2-2.4 0-1.4 1-2.3 2.2-2.3.9 0 1.4.6 1.5.7v-.6h1v4.5zm-2.3-3.6c-.9 0-1.3.8-1.3 1.4 0 .8.6 1.4 1.3 1.4.7 0 1.3-.6 1.3-1.4 0-1-.7-1.4-1.3-1.4z"/>
  <path fill="#FFF" d="M237.4 149.4h1.1v1.8c.1-.1.5-.5 1.2-.5.5 0 1 .3 1.4.7.4.4.4 1.1.4 1.4v2.5h-1.1V153c0-.5 0-1.3-.9-1.3s-.9 1-.9 1.4v2.3h-1.1v-6z"/>
  <path fill="#FFF" d="M246.6 155.3h-1v-.6c-.3.4-1 .7-1.6.7-1.1 0-2.2-.9-2.2-2.4 0-1.4 1-2.3 2.2-2.3.9 0 1.4.6 1.5.7v-.6h1v4.5zm-2.3-3.6c-.9 0-1.3.8-1.3 1.4 0 .8.6 1.4 1.3 1.4.7 0 1.3-.6 1.3-1.4 0-1-.6-1.4-1.3-1.4z"/>
  <path fill="#FFF" d="M249.2 152.1c-.1-.4-.3-.4-.4-.4-.3 0-.4.2-.4.4 0 .3.2.3.8.5.6.2 1.2.4 1.2 1.3 0 1-.8 1.6-1.6 1.6-.4 0-1-.2-1.3-.6-.3-.3-.3-.7-.3-1h1.1c0 .2.1.6.6.6.3 0 .5-.3.5-.4 0-.3-.2-.4-1-.7-.5-.2-1-.5-1-1.3 0-.9.8-1.4 1.5-1.4s1.4.5 1.4 1.4h-1.1z"/>
  <path fill="#FFF" d="M181.2 161.7c-.1-.4-.3-.4-.4-.4-.3 0-.4.2-.4.4 0 .3.2.3.8.5.6.2 1.2.4 1.2 1.3 0 1-.8 1.6-1.6 1.6-.4 0-1-.2-1.3-.6-.3-.3-.3-.7-.3-1h1.1c0 .2.1.6.6.6.3 0 .5-.3.5-.4 0-.3-.2-.4-1-.7-.5-.2-1-.5-1-1.3 0-.9.8-1.4 1.5-1.4s1.4.5 1.4 1.4h-1.1z"/>
  <path fill="#FFF" d="M183 159h1.1v1H183v-1zm0 1.5h1.1v4.4H183v-4.4z"/>
  <path fill="#FFF" d="M184.9 160.5h1v.4c.1-.1.4-.5 1.2-.5.2 0 .9.1 1.3.7.5-.7 1.1-.7 1.4-.7.9 0 1.3.5 1.5.7.2.2.3.7.3 1.3v2.6h-1.1v-2.5c0-.3 0-1.2-.8-1.2-.3 0-.6.2-.7.4-.2.3-.2.7-.2 1v2.2h-1.1v-2.5c0-.6-.2-1.2-.9-1.2-.8 0-.8.9-.8 1.4v2.2h-1.1v-4.3z"/>
  <path fill="#FFF" d="M192.4 159h1.1v1h-1.1v-1zm0 1.5h1.1v4.4h-1.1v-4.4z"/>
  <path fill="#FFF" d="M194.3 159h1.1v5.9h-1.1V159z"/>
  <path fill="#FFF" d="M200.7 164.9h-1v-.6c-.3.4-1 .7-1.6.7-1.1 0-2.2-.9-2.2-2.4 0-1.4 1-2.3 2.2-2.3.9 0 1.4.6 1.5.7v-.6h1v4.5zm-2.3-3.6c-.9 0-1.3.8-1.3 1.4 0 .8.6 1.4 1.3 1.4.7 0 1.3-.6 1.3-1.4 0-1-.7-1.4-1.3-1.4z"/>
  <path fill="#FFF" d="M201.6 160.5h1v.4c.2-.3.4-.5 1-.5h.1v1c-1 0-1 .8-1 1.1v2.5h-1.1v-4.5z"/>
  <path fill="#FFF" d="M210.8 163.4c-.4 1-1.2 1.6-2.2 1.6-1.1 0-2.4-.9-2.4-2.4 0-1.4 1.1-2.4 2.4-2.4.6 0 1.8.3 2.2 1.6h-1.2c-.1-.2-.4-.6-1-.6s-1.3.5-1.3 1.4c0 .8.5 1.4 1.3 1.4.4 0 .7-.2 1-.6h1.2z"/>
  <path fill="#FFF" d="M215.9 164.9h-1v-.6c-.3.4-1 .7-1.6.7-1.1 0-2.2-.9-2.2-2.4 0-1.4 1-2.3 2.2-2.3.9 0 1.4.6 1.5.7v-.6h1v4.5zm-2.3-3.6c-.9 0-1.3.8-1.3 1.4 0 .8.6 1.4 1.3 1.4.7 0 1.3-.6 1.3-1.4 0-1-.7-1.4-1.3-1.4z"/>
  <path fill="#FFF" d="M216.7 159h1.1v5.9h-1.1V159z"/>
  <path fill="#FFF" d="M218.4 162.7c0-1.3 1.1-2.4 2.4-2.4 1.3 0 2.4 1 2.4 2.4 0 1.5-1.1 2.4-2.4 2.4-1.3-.1-2.4-1.2-2.4-2.4zm3.7 0c0-.8-.6-1.4-1.3-1.4-.6 0-1.3.5-1.3 1.4 0 .8.6 1.4 1.3 1.4.7 0 1.3-.7 1.3-1.4z"/>
  <path fill="#FFF" d="M223.8 160.5h1v.4c.2-.3.4-.5 1-.5h.1v1c-1 0-1 .8-1 1.1v2.5h-1.1v-4.5z"/>
  <path fill="#FFF" d="M226.5 159h1.1v1h-1.1v-1zm0 1.5h1.1v4.4h-1.1v-4.4z"/>
  <path fill="#FFF" d="M229.3 163.1c0 .3.5.9 1.2.9.5 0 .8-.2 1-.6h1.1c-.3.8-1.1 1.5-2.1 1.5-1.3 0-2.3-1.1-2.3-2.4 0-1.3 1-2.4 2.3-2.4 1.4 0 2.3 1.2 2.3 2.3 0 .2 0 .4-.1.5h-3.4zm2.5-.8c-.1-.7-.7-1-1.2-1-.4 0-1.1.2-1.3 1h2.5z"/>
  <path fill="#FFF" d="M235.3 161.7c-.1-.4-.3-.4-.4-.4-.3 0-.4.2-.4.4 0 .3.2.3.8.5.6.2 1.2.4 1.2 1.3 0 1-.8 1.6-1.6 1.6-.4 0-1-.2-1.3-.6-.3-.3-.3-.7-.3-1h1.1c0 .2.1.6.6.6.3 0 .5-.3.5-.4 0-.3-.2-.4-1-.7-.5-.2-1-.5-1-1.3 0-.9.8-1.4 1.5-1.4s1.4.5 1.4 1.4h-1.1z"/>
  <path fill="#FFF" d="M239.5 161.4h-.5v-.9h.5V159h1.1v1.5h.6v.9h-.6v3.5h-1.1v-3.5z"/>
  <path fill="#FFF" d="M241.4 162.7c0-1.3 1.1-2.4 2.4-2.4 1.3 0 2.4 1 2.4 2.4 0 1.5-1.1 2.4-2.4 2.4-1.3-.1-2.4-1.2-2.4-2.4zm3.7 0c0-.8-.6-1.4-1.3-1.4-.6 0-1.3.5-1.3 1.4 0 .8.6 1.4 1.3 1.4.8 0 1.3-.7 1.3-1.4z"/>
  <path fill="#FFF" d="M253.5 164.9h-1v-.6c-.3.4-1 .7-1.6.7-1.1 0-2.2-.9-2.2-2.4 0-1.4 1-2.3 2.2-2.3.9 0 1.4.6 1.5.7v-.6h1v4.5zm-2.3-3.6c-.9 0-1.3.8-1.3 1.4 0 .8.6 1.4 1.3 1.4.7 0 1.3-.6 1.3-1.4 0-1-.7-1.4-1.3-1.4z"/>
  <path fill="#FFF" d="M179.5 168.6h1.3c1.5 0 2.1.4 2.4.7.6.5 1 1.4 1 2.3 0 1.1-.6 2.1-1.4 2.6-.5.3-1.3.4-2 .4h-1.4v-6zm1.1 4.9h.2c.6 0 1 0 1.4-.3.6-.3.9-1 .9-1.6 0-.6-.2-1.1-.6-1.5-.5-.4-1-.5-1.7-.5h-.2v3.9z"/>
  <path fill="#FFF" d="M188 168.5c1.7 0 3.1 1.3 3.1 3.1 0 1.7-1.4 3.1-3.1 3.1-1.7 0-3.1-1.4-3.1-3.1 0-1.8 1.4-3.1 3.1-3.1zm0 5.1c1.1 0 2-1 2-2 0-1.1-.9-2.1-2-2.1s-2 .9-2 2.1c0 1 .8 2 2 2z"/>
  <path fill="#FFF" d="M192.9 168.6v3.8c0 .3 0 1.3 1 1.3s1-1 1-1.3v-3.8h1.1v3.8c0 .5-.1 1-.3 1.4-.3.5-1 .9-1.8.9-.9 0-1.5-.5-1.8-.8-.2-.3-.4-.7-.4-1.4v-3.8h1.2z"/>
  <path fill="#FFF" d="M199.1 171.5h3.9v.1c0 1.7-1.5 3-3.1 3-1.7 0-3.2-1.3-3.2-3.1 0-1.7 1.5-3.1 3.2-3.1 1.5 0 2.6 1 2.9 1.9h-1.3c-.3-.4-.8-.8-1.6-.8-1.3 0-2 1.1-2 2.1 0 .9.7 2 2.1 2 .7 0 1.4-.4 1.8-1.1h-2.5v-1z"/>
  <path fill="#FFF" d="M203.7 168.6h1.1v2.4h2.1v-2.4h1.1v5.9h-1.1V172h-2.1v2.5h-1.1v-5.9z"/>
  <path fill="#FFF" d="M209.2 168.6h1.2l2.4 4.3v-4.3h1.1v5.9h-1.2l-2.5-4.3v4.3h-1.1v-5.9z"/>
  <path fill="#FFF" d="M216.1 168.6v3.8c0 .3 0 1.3 1 1.3s1-1 1-1.3v-3.8h1.1v3.8c0 .5-.1 1-.3 1.4-.3.5-1 .9-1.8.9-.9 0-1.5-.5-1.8-.8-.2-.3-.4-.7-.4-1.4v-3.8h1.2z"/>
  <path fill="#FFF" d="M220.8 169.6h-1.1v-1h3.3v1h-1.1v4.9h-1.1v-4.9z"/>
  <g id="Cocktail_Donut">
    <g fill="#51BA83">
      <path d="M93.5 158.1h12.6v2.8H93.5z"/>
      <path d="M93.5 163.7h12.6v2.8H93.5z"/>
    </g>
    <path fill="#C4D82E" d="M61.5 190.4s-5.2.8-5 1.8c0 0-1 1.5 4.7 1.9 0 0 6.2.5 13.5-.1 0 0 2.9-.3 2.7-1.5 0 0 .7-1.3-5.1-2.1 0 0-.6-.2-1.8-1.4 0 0-1-1-1.2-1.5 0 0-.9-1.1-.8-5.5 0 0-.1-3.5 1.2-5.6 0 0 1.8-2.2 2.2-2.2 0 0 2.8-1.5 3.5-2.4 0 0 2.1-1.8 3.3-4.7 0 0 .9-1.9.8-4.9 0 0-1-5.5-2.6-11.6 0 0-.2-2.1-.2-2.5l.4.2s.2-.3.4-.2c0 0 0 .3.5.2 0 0 .2.4.5.3 0 0 .5.7.5.9h.3s.1.3.9.3c0 0 .5.1.4.8h.2s-.1.4.5.3c0 0 .2.1.1.4h.3s.2.4.7.2l.4.7h.4s.3.4.5.4c0 0 1.3-5.5-.8-8.4 0 0-3.2-4.5-5.2-5.4v-.4l.9-.6.1-.7-.5-.1.2-.9-.9-.3s0-.6-.4-.5l-.5-.2s1.4-4.4 1-4.8c0 0-.2-.4-.7.3 0 0-.3-.1-.9 4.2 0 0-1 0-1.3-.1 0 0-1.6-1-2-.9 0 0-1.2-.6-1.5-.4 0 0-.1.1.1.2h-.1s-.4-.3-.8-.2c0 0-.1.1.1.3 0 0-.8-.2-1 .4h-1.4s0 .7 1 .8h.4s.6.6 3.4.6c0 0-2.9 1.6-4.1 2.1h-.6s-.1-.5-.6-.4c0 0-.5.1-.9.6h-.2l-.6-.5s-.1-.1-.2 0c0 0-.2.2-.3.2 0 0-.6-.9-1.1-1.1 0 0-.3-.1-.5 0 0 0-.4.2-.4.6v1s0 .1.1.2l-.4.1s-.1 0-.2.2l-.2.3s-.3 0-.5.1c0 0-1.9.1-2.4.6 0 0-.3.1-.2.7 0 0-.8.1-.9.5h-1.8s-.3.1-.2.4c0 0 1.1 3.4 1.1 4 0 0 .4 3.4-.2 5.7v.1c-.7 2.3-2.6 9.1-2.7 11 0 0-.7 5.9 4.6 10.3 0 0 1.4 1 2.5 1.6 0 0 2.6 2 3.2 3.8 0 0 .1.4.4 4.9 0 0 .2 2.6-1.1 5.2-.3.2-2.2 2.3-3 2.7z"/>
    <g stroke="#C4D82E" stroke-miterlimit="10">
      <path fill="#C4D82E" d="M127.4 147.1s5.9-5.6 12.2-5.2c0 0 2.6-1.3 6.2-.4 0 0 6.2-.6 8.7 2 0 0 .6-.1 1.4.6 0 0 1.1 1.1 1.6 1.2 0 0 .5-.1 1.6 1.4 0 0 1.8.4 1.8 1.2 0 0 .4.9.8 1.2 0 0 .8.4 1.2 1.6 0 0 1.3 1.3 2.3 3.7 0 0 1.4 3.2 1.4 3.9 0 0 .7 3.9.3 5 0 0-.3 4.9-.9 5.9 0 0 .1.6-2.9 5.5 0 0-2.3 3.7-6.9 5.2 0 0-2.4.9-2.6 1.2 0 0-5.8 3.1-12 2.1 0 0-.3-.2-.7-.2 0 0-3.8.5-6.1-1 0 0-.1-.2-.3-.2 0 0-1.8.1-4.1-2.3 0 0-1.4-1.3-1.7-1.5 0 0-.6 0-.5-.3 0 0-.6 0-.5-.6 0 0-3.2-2.4-3.3-3.2 0 0-1.7-1.7-1.7-2.8 0 0-.1-1.2-.4-1.4 0 0-1-2-1.3-2.3 0 0-1.2-1.9-.6-3.1 0 0 0-1.3.5-1.9 0 0 .1-1.7-.2-2 0 0-.1-.3-.1-.9 0 0-.6-1.1.8-2.7 0 0 .7-.7.9-1.2 0 0-.1-.7.5-1.3 0 0-.8-.5 0-.8 0 0 .9-2.3 1.5-2.3 0 0-.2-.8.6-1.8.1.3 1.7-1.6 2.5-2.3z"/>
      <path fill="#0D526A" d="M137.9 156.9s2.1-2 4.3-1.9c0 0 .9-.5 2.2-.1 0 0 2.2-.2 3.1.7 0 0 .2 0 .5.2 0 0 .4.4.6.4 0 0 .2 0 .6.5 0 0 .6.1.6.4 0 0 .2.3.3.4 0 0 .3.1.4.6 0 0 .5.5.8 1.3 0 0 .5 1.1.5 1.4 0 0 .2 1.4.1 1.8 0 0-.1 1.7-.3 2.1 0 0 .1.2-1 1.9 0 0-.8 1.3-2.4 1.8 0 0-.9.3-.9.4 0 0-2 1.1-4.3.7 0 0-.1-.1-.2-.1 0 0-1.3.2-2.2-.4l-.1-.1s-.7 0-1.4-.8c0 0-.5-.5-.6-.5 0 0-.2 0-.2-.1 0 0-.2 0-.2-.2 0 0-1.1-.8-1.2-1.1 0 0-.6-.6-.6-1 0 0 0-.4-.1-.5 0 0-.3-.7-.5-.8 0 0-.4-.7-.2-1.1 0 0 0-.5.2-.7 0 0 0-.6-.1-.7 0 0-.1-.1 0-.3 0 0-.2-.4.3-.9 0 0 .3-.2.3-.4 0 0 0-.2.2-.4 0 0-.3-.2 0-.3 0 0 .3-.8.5-.8 0 0-.1-.3.2-.6 0 .1.5-.5.8-.8z"/>
    </g>
  </g>
  <path fill="none" d="M179 228.1h80.5v25.3H179z"/>
  <path fill="#FFF" d="M181.5 228.1h.9l2.5 5.9h-1.2l-.6-1.5H181l-.6 1.5h-1.2l2.3-5.9zm-.2 3.3h1.4l-.7-1.8-.7 1.8z"/>
  <path fill="#FFF" d="M192.1 229.6v3.6c0 2.1-1.6 2.6-2.4 2.6-.9 0-1.8-.5-2.2-1.5h1.2c.4.5.9.5 1.1.5.6 0 1.3-.4 1.4-1.4-.1.2-.6.7-1.5.7-1.1 0-2.3-.9-2.3-2.4 0-1.4 1.1-2.3 2.3-2.3.9 0 1.3.5 1.4.7v-.5h1zm-2.3.8c-.6 0-1.3.5-1.3 1.4 0 .9.7 1.4 1.3 1.4.6 0 1.3-.5 1.3-1.4 0-.7-.5-1.4-1.3-1.4z"/>
  <path fill="#FFF" d="M192.9 228.1h1.1v5.9h-1.1v-5.9z"/>
  <path fill="#FFF" d="M199.3 234h-1v-.6c-.3.4-1 .7-1.6.7-1.1 0-2.2-.9-2.2-2.4 0-1.4 1-2.3 2.2-2.3.9 0 1.4.6 1.5.7v-.6h1v4.5zm-2.3-3.6c-.9 0-1.3.8-1.3 1.4 0 .8.6 1.4 1.3 1.4.7 0 1.3-.6 1.3-1.4 0-.9-.7-1.4-1.3-1.4z"/>
  <path fill="#FFF" d="M201.9 230.8c-.1-.4-.3-.4-.4-.4-.3 0-.4.2-.4.4 0 .3.2.3.8.5.6.2 1.2.4 1.2 1.3 0 1-.8 1.6-1.6 1.6-.4 0-1-.2-1.3-.6-.3-.3-.3-.7-.3-1h1.1c0 .2.1.6.6.6.3 0 .5-.3.5-.4 0-.3-.2-.4-1-.7-.5-.2-1-.5-1-1.3 0-.9.8-1.4 1.5-1.4s1.4.5 1.4 1.4h-1.1z"/>
  <path fill="#FFF" d="M205.4 230.8c-.1-.4-.3-.4-.4-.4-.3 0-.4.2-.4.4 0 .3.2.3.8.5.6.2 1.2.4 1.2 1.3 0 1-.8 1.6-1.6 1.6-.4 0-1-.2-1.3-.6-.3-.3-.3-.7-.3-1h1.1c0 .2.1.6.6.6.3 0 .5-.3.5-.4 0-.3-.2-.4-1-.7-.5-.2-1-.5-1-1.3 0-.9.8-1.4 1.5-1.4s1.4.5 1.4 1.4h-1.1z"/>
  <path fill="#FFF" d="M209.1 231.8c0-1.3 1.1-2.4 2.4-2.4 1.3 0 2.4 1 2.4 2.4 0 1.5-1.1 2.4-2.4 2.4-1.3 0-2.4-1.1-2.4-2.4zm3.7 0c0-.8-.6-1.4-1.3-1.4-.6 0-1.3.5-1.3 1.4 0 .8.6 1.4 1.3 1.4.8 0 1.3-.7 1.3-1.4z"/>
  <path fill="#FFF" d="M214.5 230.5h-.4v-.9h.4c0-.3.1-.8.5-1.2.2-.2.6-.4.9-.4h.3v1c-.4 0-.6 0-.7.6h.6v.9h-.6v3.5h-1.1v-3.5z"/>
  <path fill="#FFF" d="M218.6 229.6h1.1l.8 2.7.7-2.7h.8l.7 2.7.8-2.7h1.1L223 234h-.7l-.8-2.9-.8 2.9h-.7l-1.4-4.4z"/>
  <path fill="#FFF" d="M225.4 228.1h1.1v1h-1.1v-1zm0 1.5h1.1v4.4h-1.1v-4.4z"/>
  <path fill="#FFF" d="M227.3 229.6h1v.4c.2-.2.5-.5 1.2-.5.4 0 1 .2 1.3.6.4.5.4 1.2.4 1.6v2.4h-1.1v-2.2c0-.4 0-1.4-.9-1.4-.2 0-.5.1-.7.4-.2.3-.2.7-.2 1.1v2.1h-1.1v-4.5z"/>
  <path fill="#FFF" d="M233 232.3c0 .3.5.9 1.2.9.5 0 .8-.2 1-.6h1.1c-.3.8-1.1 1.5-2.1 1.5-1.3 0-2.3-1.1-2.3-2.4 0-1.3 1-2.4 2.3-2.4 1.4 0 2.3 1.2 2.3 2.3 0 .2 0 .4-.1.5H233zm2.4-.9c-.1-.7-.7-1-1.2-1-.4 0-1.1.2-1.3 1h2.5z"/>
  <path fill="#FFF" d="M239.4 228.1h1.1v1.8c.1-.1.5-.5 1.2-.5.5 0 1 .3 1.4.7.4.4.4 1.1.4 1.4v2.5h-1.1v-2.3c0-.5 0-1.3-.9-1.3s-.9 1-.9 1.4v2.3h-1.1v-6z"/>
  <path fill="#FFF" d="M248.7 234h-1v-.6c-.3.4-1 .7-1.6.7-1.1 0-2.2-.9-2.2-2.4 0-1.4 1-2.3 2.2-2.3.9 0 1.4.6 1.5.7v-.6h1v4.5zm-2.3-3.6c-.9 0-1.3.8-1.3 1.4 0 .8.6 1.4 1.3 1.4.7 0 1.3-.6 1.3-1.4 0-.9-.7-1.4-1.3-1.4z"/>
  <path fill="#FFF" d="M251.3 230.8c-.1-.4-.3-.4-.4-.4-.3 0-.4.2-.4.4 0 .3.2.3.8.5.6.2 1.2.4 1.2 1.3 0 1-.8 1.6-1.6 1.6-.4 0-1-.2-1.3-.6-.3-.3-.3-.7-.3-1h1.1c0 .2.1.6.6.6.3 0 .5-.3.5-.4 0-.3-.2-.4-1-.7-.5-.2-1-.5-1-1.3 0-.9.8-1.4 1.5-1.4s1.4.5 1.4 1.4h-1.1z"/>
  <path fill="#FFF" d="M181.2 240.4c-.1-.4-.3-.4-.4-.4-.3 0-.4.2-.4.4 0 .3.2.3.8.5.6.2 1.2.4 1.2 1.3 0 1-.8 1.6-1.6 1.6-.4 0-1-.2-1.3-.6-.3-.3-.3-.7-.3-1h1.1c0 .2.1.6.6.6.3 0 .5-.3.5-.4 0-.3-.2-.4-1-.7-.5-.2-1-.5-1-1.3 0-.9.8-1.4 1.5-1.4s1.4.5 1.4 1.4h-1.1z"/>
  <path fill="#FFF" d="M183 237.7h1.1v1H183v-1zm0 1.5h1.1v4.4H183v-4.4z"/>
  <path fill="#FFF" d="M184.9 239.2h1v.4c.1-.1.4-.5 1.2-.5.2 0 .9.1 1.3.7.5-.7 1.1-.7 1.4-.7.9 0 1.3.5 1.5.7.2.2.3.7.3 1.3v2.6h-1.1v-2.5c0-.3 0-1.2-.8-1.2-.3 0-.6.2-.7.4-.2.3-.2.7-.2 1v2.2h-1.1v-2.5c0-.6-.2-1.2-.9-1.2-.8 0-.8.9-.8 1.4v2.2h-1.1v-4.3z"/>
  <path fill="#FFF" d="M192.4 237.7h1.1v1h-1.1v-1zm0 1.5h1.1v4.4h-1.1v-4.4z"/>
  <path fill="#FFF" d="M194.3 237.7h1.1v5.9h-1.1v-5.9z"/>
  <path fill="#FFF" d="M200.7 243.6h-1v-.6c-.3.4-1 .7-1.6.7-1.1 0-2.2-.9-2.2-2.4 0-1.4 1-2.3 2.2-2.3.9 0 1.4.6 1.5.7v-.6h1v4.5zm-2.3-3.6c-.9 0-1.3.8-1.3 1.4 0 .8.6 1.4 1.3 1.4.7 0 1.3-.6 1.3-1.4 0-.9-.7-1.4-1.3-1.4z"/>
  <path fill="#FFF" d="M201.6 239.2h1v.4c.2-.3.4-.5 1-.5h.1v1c-1 0-1 .8-1 1.1v2.5h-1.1v-4.5z"/>
  <path fill="#FFF" d="M210.8 242.2c-.4 1-1.2 1.6-2.2 1.6-1.1 0-2.4-.9-2.4-2.4 0-1.4 1.1-2.4 2.4-2.4.6 0 1.8.3 2.2 1.6h-1.2c-.1-.2-.4-.6-1-.6s-1.3.5-1.3 1.4c0 .8.5 1.4 1.3 1.4.4 0 .7-.2 1-.6h1.2z"/>
  <path fill="#FFF" d="M215.9 243.6h-1v-.6c-.3.4-1 .7-1.6.7-1.1 0-2.2-.9-2.2-2.4 0-1.4 1-2.3 2.2-2.3.9 0 1.4.6 1.5.7v-.6h1v4.5zm-2.3-3.6c-.9 0-1.3.8-1.3 1.4 0 .8.6 1.4 1.3 1.4.7 0 1.3-.6 1.3-1.4 0-.9-.7-1.4-1.3-1.4z"/>
  <path fill="#FFF" d="M216.7 237.7h1.1v5.9h-1.1v-5.9z"/>
  <path fill="#FFF" d="M218.4 241.4c0-1.3 1.1-2.4 2.4-2.4 1.3 0 2.4 1 2.4 2.4 0 1.5-1.1 2.4-2.4 2.4-1.3 0-2.4-1.1-2.4-2.4zm3.7 0c0-.8-.6-1.4-1.3-1.4-.6 0-1.3.5-1.3 1.4 0 .8.6 1.4 1.3 1.4.7 0 1.3-.7 1.3-1.4z"/>
  <path fill="#FFF" d="M223.8 239.2h1v.4c.2-.3.4-.5 1-.5h.1v1c-1 0-1 .8-1 1.1v2.5h-1.1v-4.5z"/>
  <path fill="#FFF" d="M226.5 237.7h1.1v1h-1.1v-1zm0 1.5h1.1v4.4h-1.1v-4.4z"/>
  <path fill="#FFF" d="M229.3 241.9c0 .3.5.9 1.2.9.5 0 .8-.2 1-.6h1.1c-.3.8-1.1 1.5-2.1 1.5-1.3 0-2.3-1.1-2.3-2.4 0-1.3 1-2.4 2.3-2.4 1.4 0 2.3 1.2 2.3 2.3 0 .2 0 .4-.1.5h-3.4zm2.5-.9c-.1-.7-.7-1-1.2-1-.4 0-1.1.2-1.3 1h2.5z"/>
  <path fill="#FFF" d="M235.3 240.4c-.1-.4-.3-.4-.4-.4-.3 0-.4.2-.4.4 0 .3.2.3.8.5.6.2 1.2.4 1.2 1.3 0 1-.8 1.6-1.6 1.6-.4 0-1-.2-1.3-.6-.3-.3-.3-.7-.3-1h1.1c0 .2.1.6.6.6.3 0 .5-.3.5-.4 0-.3-.2-.4-1-.7-.5-.2-1-.5-1-1.3 0-.9.8-1.4 1.5-1.4s1.4.5 1.4 1.4h-1.1z"/>
  <path fill="#FFF" d="M239.5 240.1h-.5v-.9h.5v-1.5h1.1v1.5h.6v.9h-.6v3.5h-1.1v-3.5z"/>
  <path fill="#FFF" d="M241.4 241.4c0-1.3 1.1-2.4 2.4-2.4 1.3 0 2.4 1 2.4 2.4 0 1.5-1.1 2.4-2.4 2.4-1.3 0-2.4-1.1-2.4-2.4zm3.7 0c0-.8-.6-1.4-1.3-1.4-.6 0-1.3.5-1.3 1.4 0 .8.6 1.4 1.3 1.4.8 0 1.3-.7 1.3-1.4z"/>
  <path fill="#FFF" d="M253.5 243.6h-1v-.6c-.3.4-1 .7-1.6.7-1.1 0-2.2-.9-2.2-2.4 0-1.4 1-2.3 2.2-2.3.9 0 1.4.6 1.5.7v-.6h1v4.5zm-2.3-3.6c-.9 0-1.3.8-1.3 1.4 0 .8.6 1.4 1.3 1.4.7 0 1.3-.6 1.3-1.4 0-.9-.7-1.4-1.3-1.4z"/>
  <path fill="#FFF" d="M180.3 251.5c.1.6.4.8.8.8s.8-.3.8-.7c0-.6-.4-.7-1.1-1-.5-.2-1.4-.5-1.4-1.7 0-.9.7-1.7 1.7-1.7.7 0 1.7.5 1.8 1.7h-1.1c0-.5-.4-.7-.7-.7-.3 0-.6.2-.6.6 0 .5.4.6 1 .8.5.2 1.6.5 1.6 1.8s-1 1.9-1.9 1.9c-.8 0-1.9-.5-1.9-1.8h1z"/>
  <path fill="#FFF" d="M183.7 247.3h1.1v4.9h1.8v1h-2.9v-5.9z"/>
  <path fill="#FFF" d="M187.3 247.3h1.1v5.9h-1.1v-5.9z"/>
  <path fill="#FFF" d="M195 251.6c-.5 1.1-1.6 1.8-2.7 1.8-1.7 0-3.1-1.4-3.1-3.1 0-1.6 1.4-3.1 3.1-3.1 1 0 2.2.5 2.8 1.8h-1.2c-.4-.5-.9-.8-1.6-.8-1 0-1.9.9-1.9 2s.9 2.1 2 2.1c.8 0 1.2-.5 1.5-.7h1.1z"/>
  <path fill="#FFF" d="M195.7 247.3h3.2v1h-2.1v1.4h2v1h-2v1.4h2.1v1h-3.2v-5.8z"/>
  <path fill="#FFF" d="M204.9 247.2c1.7 0 3.1 1.3 3.1 3.1 0 1.7-1.4 3.1-3.1 3.1-1.7 0-3.1-1.4-3.1-3.1 0-1.8 1.4-3.1 3.1-3.1zm0 5.1c1.1 0 2-1 2-2 0-1.1-.9-2.1-2-2.1s-2 .9-2 2.1c0 1.1.9 2 2 2z"/>
  <path fill="#FFF" d="M208.8 247.3h3v1h-1.9v1.4h1.8v1h-1.8v2.4h-1.1v-5.8z"/>
  <path fill="#FFF" d="M220.5 251.6c-.5 1.1-1.6 1.8-2.7 1.8-1.7 0-3.1-1.4-3.1-3.1 0-1.6 1.4-3.1 3.1-3.1 1 0 2.2.5 2.8 1.8h-1.2c-.4-.5-.9-.8-1.6-.8-1 0-1.9.9-1.9 2s.9 2.1 2 2.1c.8 0 1.2-.5 1.5-.7h1.1z"/>
  <path fill="#FFF" d="M222.8 247.3h.9l2.5 5.9H225l-.6-1.5h-2.1l-.6 1.5h-1.2l2.3-5.9zm-.2 3.3h1.4l-.7-1.8-.7 1.8z"/>
  <path fill="#FFF" d="M226.9 247.3h1.1v2.6l1.8-2.6h1.3l-2.2 2.9 2.2 3h-1.3l-1.8-2.6v2.6h-1.1v-5.9z"/>
  <path fill="#FFF" d="M231.7 247.3h3.2v1h-2.1v1.4h2v1h-2v1.4h2.1v1h-3.2v-5.8z"/>
  <g id="Wine_Cheesecake">
    <g fill="#51BA83">
      <path d="M93.1 236.5h12.8v2.8H93.1z"/>
      <path d="M93.1 242.1h12.8v2.8H93.1z"/>
    </g>
    <path fill="#C4D82E" stroke="#C4D82E" stroke-width=".01" stroke-miterlimit="10" d="M80.2 208.4H55.4c-.5 0-1 .3-1.2.8-1.3 2.6-4.8 11.1-.6 19 0 0 0 .1.1.1.3.7 2.9 6.8 10.9 9.8.3.1.5.3.7.6.4.7 1.2 2.1 1.2 3.3l-.2 19.7c0 1-.3 2.1-.9 2.9-.3.4-.6.8-1 1.3-.2.2-.5.3-.8.4-1.7.2-7.9 1.1-7.7 3.3v.1c0 .5.4 2.9 11.6 3.3 11.3-.4 11.7-3 11.6-3.3v-.1c.2-2.2-6-3.1-7.7-3.3-.3 0-.6-.2-.8-.4-.5-.6-.9-1.1-1.2-1.5-.5-.7-.7-1.6-.7-2.5l-.2-19.9c0-1.2.8-2.6 1.2-3.3.2-.3.4-.5.7-.6 8.1-3 10.7-9.1 10.9-9.8 0 0 0-.1.1-.1 4.2-7.9.7-16.5-.6-19-.2-.5-.7-.8-1.2-.8H54.7"/>
    <path fill="#C4D82E" d="M121.3 241.4s.6-1.1.5-1.7c0 0 12-13 23.8-23 0 0 .8-.3 2.2.5 0 0 .2.2.7.3 0 0 .9 0 1.7.9 0 0 .3.3.8.4 0 0 .5.2.5.3 0 0 .5-.1 1.1.4 0 0 .3.1.6.1 0 0 1.2.2 1.6.9 0 0 .1.2.4.3 0 0 1.8-.7 4.8 2.9 0 0 3 1.8 4.2 3.1 0 0 1.5-.1 2.9 2.1 0 0-.3.4 0 .8 0 0 1.3 1 1.7 2.1 0 0 .5.8.5 1.8v19s.5 0 .1.4c0 0-.8 1-.8 1.2 0 0 .8.1.6.5 0 0-.2.3-.4.3 0 0-.1-.6-.6-.3 0 0-.3.4-.1.6 0 0 .1.7-1.2.9 0 0-.3.1-.7.1 0 0 .3.3-.1.3h-.7s-.2.2-.1.4l-1.4-.2s0 .5-.8.3c0 0-.1.3-1.3.2 0 0 0 .7-.4.7 0 0-.6 0-.6-.7 0 0-.5 0-.8-.2 0 0-.3-.1-.4 0 0 0-.5.7-1.3.7l-10.7 2.2s-.9.9-1.2.2l-2.6.4s-.5.7-2.9.5h-.2s-.1.4-1 .3l-6.5 1.1s-.4-.2-.9.3c0 0-.2.2-1.2 0 0 0 0 .5-.3.5 0 0-.2.1-.1-.4 0 0-.4.5-1.5.3 0 0-.6 0-.7.4 0 0-.1.7-.4.1 0 0-.5-.3-.9 0 0 0-1 0-1.4.7 0 0-.2.1-.6 0 0 0 0 .4-.2.4 0 0-.4 0-.2-.5 0 0-1-.2-1.3 0 0 0-.3.2-.9.1 0 0-.6.1-1.1.5 0 0-.4.1-.6-.2 0 0-1.1-.7-.9-1.9 0 0 .4-1-.2-1.3 0 0-.2-.6.2-1.2 0 0-.5-.4-.3-1.6 0 0-.8-.2-.6-.5 0 0 .2-.1.3-.3 0 0-.5-2.2.5-2.6v-2.4s-.8 0-.9-.2c0 0 .4-.3.5-.7 0 0 .2-.6.8-.8 0 0 0-1.4.6-1.4v-1.3s-.8-.4-.3-1.1c0 0 0-1.4-.2-1.6 0 0-.4-.3-.3-.8 0 0-.8-.5-.2-.9 0 0 .1-.6 0-.7 0 0-.7-.2 0-.8.1 0 1.3-1.1 1.4-1.2z"/>
  </g>
  <path fill="none" d="M179 384.3h80.5v26.6H179z"/>
  <path fill="#FFF" d="M181.5 384.3h.9l2.5 5.9h-1.2l-.6-1.5H181l-.6 1.5h-1.2l2.3-5.9zm-.2 3.4h1.4l-.7-1.8-.7 1.8z"/>
  <path fill="#FFF" d="M187.5 385.8h1v.5c.5-.7 1.2-.7 1.4-.7 1.5 0 2.2 1.3 2.2 2.4 0 1.3-1 2.4-2.2 2.4-.8 0-1.1-.3-1.4-.6v1.9h-1.1v-5.9zm2.3 3.6c.6 0 1.3-.5 1.3-1.4 0-.8-.6-1.4-1.3-1.4-.7 0-1.3.5-1.3 1.4 0 1 .8 1.4 1.3 1.4z"/>
  <path fill="#FFF" d="M192.9 384.3h1.1v1h-1.1v-1zm0 1.5h1.1v4.4h-1.1v-4.4z"/>
  <path fill="#FFF" d="M194.8 385.8h1v.4c.2-.2.5-.5 1.2-.5.4 0 1 .2 1.3.6.4.5.4 1.2.4 1.6v2.4h-1.1V388c0-.4 0-1.4-.9-1.4-.2 0-.5.1-.7.4-.2.3-.2.7-.2 1.1v2.1h-1.1v-4.4z"/>
  <path fill="#FFF" d="M199.9 386.7h-.5v-.9h.5v-1.5h1.1v1.5h.6v.9h-.6v3.5h-1.1v-3.5z"/>
  <path fill="#FFF" d="M204 388c0-1.3 1.1-2.4 2.4-2.4 1.3 0 2.4 1 2.4 2.4 0 1.5-1.1 2.4-2.4 2.4-1.3 0-2.4-1.1-2.4-2.4zm3.7 0c0-.8-.6-1.4-1.3-1.4-.6 0-1.3.5-1.3 1.4 0 .8.6 1.4 1.3 1.4.7 0 1.3-.7 1.3-1.4z"/>
  <path fill="#FFF" d="M209.4 386.7h-.4v-.9h.4c0-.3.1-.8.5-1.2.2-.2.6-.4.9-.4h.3v1c-.4 0-.6 0-.7.6h.6v.9h-.6v3.5h-1.1v-3.5z"/>
  <path fill="#FFF" d="M213.8 384.3h1.1v5.9h-1.1v-5.9z"/>
  <path fill="#FFF" d="M220.2 390.2h-1v-.6c-.3.4-1 .7-1.6.7-1.1 0-2.2-.9-2.2-2.4 0-1.4 1-2.3 2.2-2.3.9 0 1.4.6 1.5.7v-.6h1v4.5zm-2.3-3.6c-.9 0-1.3.8-1.3 1.4 0 .8.6 1.4 1.3 1.4.7 0 1.3-.6 1.3-1.4 0-.9-.6-1.4-1.3-1.4z"/>
  <path fill="#FFF" d="M225.6 385.8v3.6c0 2.1-1.6 2.6-2.4 2.6-.9 0-1.8-.5-2.2-1.5h1.2c.4.5.9.5 1.1.5.6 0 1.3-.4 1.4-1.4-.1.2-.6.7-1.5.7-1.1 0-2.3-.9-2.3-2.4 0-1.4 1.1-2.3 2.3-2.3.9 0 1.3.5 1.4.7v-.5h1zm-2.4.8c-.6 0-1.3.5-1.3 1.4 0 .9.7 1.4 1.3 1.4.6 0 1.3-.5 1.3-1.4 0-.7-.5-1.4-1.3-1.4z"/>
  <path fill="#FFF" d="M227.3 388.5c0 .3.5.9 1.2.9.5 0 .8-.2 1-.6h1.1c-.3.8-1.1 1.5-2.1 1.5-1.3 0-2.3-1.1-2.3-2.4 0-1.3 1-2.4 2.3-2.4 1.4 0 2.3 1.2 2.3 2.3 0 .2 0 .4-.1.5h-3.4zm2.4-.9c-.1-.7-.7-1-1.2-1-.4 0-1.1.2-1.3 1h2.5z"/>
  <path fill="#FFF" d="M231.5 385.8h1v.4c.2-.3.4-.5 1-.5h.1v1c-1 0-1 .8-1 1.1v2.5h-1.1v-4.5z"/>
  <path fill="#FFF" d="M236.2 384.3h1.1v1.8c.1-.1.5-.5 1.2-.5.5 0 1 .3 1.4.7.4.4.4 1.1.4 1.4v2.5h-1.1V388c0-.5 0-1.3-.9-1.3s-.9 1-.9 1.4v2.3h-1.1v-6.1z"/>
  <path fill="#FFF" d="M245.5 390.2h-1v-.6c-.3.4-1 .7-1.6.7-1.1 0-2.2-.9-2.2-2.4 0-1.4 1-2.3 2.2-2.3.9 0 1.4.6 1.5.7v-.6h1v4.5zm-2.3-3.6c-.9 0-1.3.8-1.3 1.4 0 .8.6 1.4 1.3 1.4.7 0 1.3-.6 1.3-1.4 0-.9-.7-1.4-1.3-1.4z"/>
  <path fill="#FFF" d="M248.1 387c-.1-.4-.3-.4-.4-.4-.3 0-.4.2-.4.4 0 .3.2.3.8.5.6.2 1.2.4 1.2 1.3 0 1-.8 1.6-1.6 1.6-.4 0-1-.2-1.3-.6-.3-.3-.3-.7-.3-1h1.1c0 .2.1.6.6.6.3 0 .5-.3.5-.4 0-.3-.2-.4-1-.7-.5-.2-1-.5-1-1.3 0-.9.8-1.4 1.5-1.4s1.4.5 1.4 1.4h-1.1z"/>
  <path fill="#FFF" d="M181.2 396.6c-.1-.4-.3-.4-.4-.4-.3 0-.4.2-.4.4 0 .3.2.3.8.5.6.2 1.2.4 1.2 1.3 0 1-.8 1.6-1.6 1.6-.4 0-1-.2-1.3-.6-.3-.3-.3-.7-.3-1h1.1c0 .2.1.6.6.6.3 0 .5-.3.5-.4 0-.3-.2-.4-1-.7-.5-.2-1-.5-1-1.3 0-.9.8-1.4 1.5-1.4s1.4.5 1.4 1.4h-1.1z"/>
  <path fill="#FFF" d="M183 393.9h1.1v1H183v-1zm0 1.5h1.1v4.4H183v-4.4z"/>
  <path fill="#FFF" d="M184.9 395.4h1v.4c.1-.1.4-.5 1.2-.5.2 0 .9.1 1.3.7.5-.7 1.1-.7 1.4-.7.9 0 1.3.5 1.5.7.2.2.3.7.3 1.3v2.6h-1.1v-2.5c0-.3 0-1.2-.8-1.2-.3 0-.6.2-.7.4-.2.3-.2.7-.2 1v2.2h-1.1v-2.5c0-.6-.2-1.2-.9-1.2-.8 0-.8.9-.8 1.4v2.2h-1.1v-4.3z"/>
  <path fill="#FFF" d="M192.4 393.9h1.1v1h-1.1v-1zm0 1.5h1.1v4.4h-1.1v-4.4z"/>
  <path fill="#FFF" d="M194.3 393.9h1.1v5.9h-1.1v-5.9z"/>
  <path fill="#FFF" d="M200.7 399.8h-1v-.6c-.3.4-1 .7-1.6.7-1.1 0-2.2-.9-2.2-2.4 0-1.4 1-2.3 2.2-2.3.9 0 1.4.6 1.5.7v-.6h1v4.5zm-2.3-3.6c-.9 0-1.3.8-1.3 1.4 0 .8.6 1.4 1.3 1.4.7 0 1.3-.6 1.3-1.4 0-.9-.7-1.4-1.3-1.4z"/>
  <path fill="#FFF" d="M201.6 395.4h1v.4c.2-.3.4-.5 1-.5h.1v1c-1 0-1 .8-1 1.1v2.5h-1.1v-4.5z"/>
  <path fill="#FFF" d="M210.8 398.4c-.4 1-1.2 1.6-2.2 1.6-1.1 0-2.4-.9-2.4-2.4 0-1.4 1.1-2.4 2.4-2.4.6 0 1.8.3 2.2 1.6h-1.2c-.1-.2-.4-.6-1-.6s-1.3.5-1.3 1.4c0 .8.5 1.4 1.3 1.4.4 0 .7-.2 1-.6h1.2z"/>
  <path fill="#FFF" d="M215.9 399.8h-1v-.6c-.3.4-1 .7-1.6.7-1.1 0-2.2-.9-2.2-2.4 0-1.4 1-2.3 2.2-2.3.9 0 1.4.6 1.5.7v-.6h1v4.5zm-2.3-3.6c-.9 0-1.3.8-1.3 1.4 0 .8.6 1.4 1.3 1.4.7 0 1.3-.6 1.3-1.4 0-.9-.7-1.4-1.3-1.4z"/>
  <path fill="#FFF" d="M216.7 393.9h1.1v5.9h-1.1v-5.9z"/>
  <path fill="#FFF" d="M218.4 397.6c0-1.3 1.1-2.4 2.4-2.4 1.3 0 2.4 1 2.4 2.4 0 1.5-1.1 2.4-2.4 2.4-1.3 0-2.4-1.1-2.4-2.4zm3.7 0c0-.8-.6-1.4-1.3-1.4-.6 0-1.3.5-1.3 1.4 0 .8.6 1.4 1.3 1.4.7 0 1.3-.7 1.3-1.4z"/>
  <path fill="#FFF" d="M223.8 395.4h1v.4c.2-.3.4-.5 1-.5h.1v1c-1 0-1 .8-1 1.1v2.5h-1.1v-4.5z"/>
  <path fill="#FFF" d="M226.5 393.9h1.1v1h-1.1v-1zm0 1.5h1.1v4.4h-1.1v-4.4z"/>
  <path fill="#FFF" d="M229.3 398.1c0 .3.5.9 1.2.9.5 0 .8-.2 1-.6h1.1c-.3.8-1.1 1.5-2.1 1.5-1.3 0-2.3-1.1-2.3-2.4 0-1.3 1-2.4 2.3-2.4 1.4 0 2.3 1.2 2.3 2.3 0 .2 0 .4-.1.5h-3.4zm2.5-.9c-.1-.7-.7-1-1.2-1-.4 0-1.1.2-1.3 1h2.5z"/>
  <path fill="#FFF" d="M235.3 396.6c-.1-.4-.3-.4-.4-.4-.3 0-.4.2-.4.4 0 .3.2.3.8.5.6.2 1.2.4 1.2 1.3 0 1-.8 1.6-1.6 1.6-.4 0-1-.2-1.3-.6-.3-.3-.3-.7-.3-1h1.1c0 .2.1.6.6.6.3 0 .5-.3.5-.4 0-.3-.2-.4-1-.7-.5-.2-1-.5-1-1.3 0-.9.8-1.4 1.5-1.4s1.4.5 1.4 1.4h-1.1z"/>
  <path fill="#FFF" d="M239.5 396.3h-.5v-.9h.5v-1.5h1.1v1.5h.6v.9h-.6v3.5h-1.1v-3.5z"/>
  <path fill="#FFF" d="M241.4 397.6c0-1.3 1.1-2.4 2.4-2.4 1.3 0 2.4 1 2.4 2.4 0 1.5-1.1 2.4-2.4 2.4-1.3 0-2.4-1.1-2.4-2.4zm3.7 0c0-.8-.6-1.4-1.3-1.4-.6 0-1.3.5-1.3 1.4 0 .8.6 1.4 1.3 1.4.8 0 1.3-.7 1.3-1.4z"/>
  <path fill="#FFF" d="M253.5 399.8h-1v-.6c-.3.4-1 .7-1.6.7-1.1 0-2.2-.9-2.2-2.4 0-1.4 1-2.3 2.2-2.3.9 0 1.4.6 1.5.7v-.6h1v4.5zm-2.3-3.6c-.9 0-1.3.8-1.3 1.4 0 .8.6 1.4 1.3 1.4.7 0 1.3-.6 1.3-1.4 0-.9-.7-1.4-1.3-1.4z"/>
  <path fill="#FFF" d="M180.3 407.7c.1.6.4.8.8.8s.8-.3.8-.7c0-.6-.4-.7-1.1-1-.5-.2-1.4-.5-1.4-1.7 0-.9.7-1.7 1.7-1.7.7 0 1.7.5 1.8 1.7h-1.1c0-.5-.4-.7-.7-.7-.3 0-.6.2-.6.6 0 .5.4.6 1 .8.5.2 1.6.5 1.6 1.8s-1 1.9-1.9 1.9c-.8 0-1.9-.5-1.9-1.8h1z"/>
  <path fill="#FFF" d="M183.7 403.5h1.1v4.9h1.8v1h-2.9v-5.9z"/>
  <path fill="#FFF" d="M187.3 403.5h1.1v5.9h-1.1v-5.9z"/>
  <path fill="#FFF" d="M195 407.8c-.5 1.1-1.6 1.8-2.7 1.8-1.7 0-3.1-1.4-3.1-3.1 0-1.6 1.4-3.1 3.1-3.1 1 0 2.2.5 2.8 1.8h-1.2c-.4-.5-.9-.8-1.6-.8-1 0-1.9.9-1.9 2s.9 2.1 2 2.1c.8 0 1.2-.5 1.5-.7h1.1z"/>
  <path fill="#FFF" d="M195.7 403.5h3.2v1h-2.1v1.4h2v1h-2v1.4h2.1v1h-3.2v-5.8z"/>
  <path fill="#FFF" d="M204.9 403.4c1.7 0 3.1 1.3 3.1 3.1 0 1.7-1.4 3.1-3.1 3.1-1.7 0-3.1-1.4-3.1-3.1 0-1.8 1.4-3.1 3.1-3.1zm0 5.1c1.1 0 2-1 2-2 0-1.1-.9-2.1-2-2.1s-2 .9-2 2.1c0 1.1.9 2 2 2z"/>
  <path fill="#FFF" d="M208.8 403.5h3v1h-1.9v1.4h1.8v1h-1.8v2.4h-1.1v-5.8z"/>
  <path fill="#FFF" d="M214.9 403.5h1.5c.6 0 1.2 0 1.7.5.4.4.6.8.6 1.4s-.2 1-.6 1.4c-.6.5-1.1.5-1.7.5h-.4v2.3h-1.1v-6.1zm1.1 2.7h.4c.5 0 1.2 0 1.2-.8s-.8-.8-1.2-.8h-.4v1.6z"/>
  <path fill="#FFF" d="M219.4 403.5h1.1v5.9h-1.1v-5.9z"/>
  <path fill="#FFF" d="M223.5 404.5h-2.1v-1h3.4v1l-2.2 3.9h2.4v1h-3.7v-.9l2.2-4z"/>
  <path fill="#FFF" d="M227.5 404.5h-2.1v-1h3.4v1l-2.2 3.9h2.4v1h-3.7v-.9l2.2-4z"/>
  <path fill="#FFF" d="M231.6 403.5h.9l2.5 5.9h-1.2l-.6-1.5H231l-.6 1.5h-1.2l2.4-5.9zm-.2 3.4h1.4l-.7-1.8-.7 1.8z"/>
  <g id="Soda_Pizza">
    <g fill="#51BA83">
      <path d="M94 393.7h11.9v2.6H94z"/>
      <path d="M94 398.9h11.9v2.6H94z"/>
    </g>
    <g fill="#C4D82E" stroke="#C4D82E" stroke-miterlimit="10">
      <path d="M121.1 409.7s-1.2-.2-.9-.8c0 0-.8-.9-.7-1.3 0 0-.3-.4 1.4-3.7l2.7-5.1s0-1.3 1.4-2.3c0 0 .5-1.8 2-5.1 0 0 3.4-7.8 4.1-7.9 0 0 0-3 1.4-2.5 0 0 19.5 3.8 30.2 10.3.7.4.9 1.2.6 1.9-.3.8-.9 1.9-1.7 2.6-.2.2-.4.3-.6.4-2.6 1-23.3 9-24.2 8.8 0 0-3 1.1-3.8.9 0 0-2.6 1.4-2.8 1.1 0 0-.9.9-2.1.7 0 0-2.3.9-2.8.5 0 0-3.9 1.6-4.2 1.5z"/>
      <path d="M120.2 409s.2 1.7 0 2.9c0 0-.8 2 .7 2.4 0 0 1-1.1 0-2.3 0 0-.5-3.1 0-3.1.5.1-.7.1-.7.1z"/>
    </g>
    <path fill="#C4D82E" stroke="#C4D82E" stroke-miterlimit="10" d="M64 375.4c8.8.1 12.2 1.1 12.2 1.1-.3.6-.3 6.1-.3 6.1.9 5.3-.9 7-.9 7l-2 25.8c0 1.6-.5 1.8-.5 1.8-2.9 2-5.8 2.7-8.5 2.6h.2c-2.6 0-5.6-.6-8.5-2.6 0 0-.5-.3-.5-1.8l-2-25.8s-1.8-1.7-.9-7c0 0 0-5.5-.3-6.1 0 0 3.4-1 12.2-1.1"/>
  </g>
  <path fill="none" d="M179 463.5h80.5v25.2H179z"/>
  <path fill="#FFF" d="M181.5 463.5h.9l2.5 5.9h-1.2l-.6-1.5H181l-.6 1.5h-1.2l2.3-5.9zm-.2 3.4h1.4l-.7-1.8-.7 1.8z"/>
  <path fill="#FFF" d="M187.7 465.9h-.4v-.9h.4c0-.3.1-.8.5-1.2.2-.2.6-.4.9-.4h.3v1c-.4 0-.6 0-.7.6h.6v.9h-.6v3.5h-1.1v-3.5z"/>
  <path fill="#FFF" d="M189.9 465h1v.4c.2-.3.4-.5 1-.5h.1v1c-1 0-1 .8-1 1.1v2.5h-1.1V465z"/>
  <path fill="#FFF" d="M192 467.2c0-1.3 1.1-2.4 2.4-2.4 1.3 0 2.4 1 2.4 2.4 0 1.5-1.1 2.4-2.4 2.4-1.3 0-2.4-1.1-2.4-2.4zm3.7 0c0-.8-.6-1.4-1.3-1.4-.6 0-1.3.5-1.3 1.4 0 .8.6 1.4 1.3 1.4.8 0 1.3-.7 1.3-1.4z"/>
  <path fill="#FFF" d="M197.1 468.5l2-2.5h-1.7v-1h3v1l-2 2.5h2.1v1h-3.4v-1z"/>
  <path fill="#FFF" d="M202 467.7c0 .3.5.9 1.2.9.5 0 .8-.2 1-.6h1.1c-.3.8-1.1 1.5-2.1 1.5-1.3 0-2.3-1.1-2.3-2.4 0-1.3 1-2.4 2.3-2.4 1.4 0 2.3 1.2 2.3 2.3 0 .2 0 .4-.1.5H202zm2.4-.9c-.1-.7-.7-1-1.2-1-.4 0-1.1.2-1.3 1h2.5z"/>
  <path fill="#FFF" d="M206.2 465h1v.4c.2-.2.5-.5 1.2-.5.4 0 1 .2 1.3.6.4.5.4 1.2.4 1.6v2.4H209v-2.2c0-.4 0-1.4-.9-1.4-.2 0-.5.1-.7.4-.2.3-.2.7-.2 1.1v2.1h-1.1V465z"/>
  <path fill="#FFF" d="M213.2 465h1v.4c.1-.1.4-.5 1.2-.5.2 0 .9.1 1.3.7.5-.7 1.1-.7 1.4-.7.9 0 1.3.5 1.5.7.2.2.3.7.3 1.3v2.6h-1.1V467c0-.3 0-1.2-.8-1.2-.3 0-.6.2-.7.4-.2.3-.2.7-.2 1v2.2H216V467c0-.6-.2-1.2-.9-1.2-.8 0-.8.9-.8 1.4v2.2h-1.1V465z"/>
  <path fill="#FFF" d="M225.2 469.4h-1v-.6c-.3.4-1 .7-1.6.7-1.1 0-2.2-.9-2.2-2.4 0-1.4 1-2.3 2.2-2.3.9 0 1.4.6 1.5.7v-.5h1v4.4zm-2.3-3.6c-.9 0-1.3.8-1.3 1.4 0 .8.6 1.4 1.3 1.4.7 0 1.3-.6 1.3-1.4 0-.9-.6-1.4-1.3-1.4z"/>
  <path fill="#FFF" d="M226.1 465h1v.4c.2-.3.4-.5 1-.5h.1v1c-1 0-1 .8-1 1.1v2.5h-1.1V465z"/>
  <path fill="#FFF" d="M233.2 465v3.6c0 2.1-1.6 2.6-2.4 2.6-.9 0-1.8-.5-2.2-1.5h1.2c.4.5.9.5 1.1.5.6 0 1.3-.4 1.4-1.4-.1.2-.6.7-1.5.7-1.1 0-2.3-.9-2.3-2.4 0-1.4 1.1-2.3 2.3-2.3.9 0 1.3.5 1.4.7v-.5h1zm-2.4.8c-.6 0-1.3.5-1.3 1.4 0 .9.7 1.4 1.3 1.4.6 0 1.3-.5 1.3-1.4 0-.7-.5-1.4-1.3-1.4z"/>
  <path fill="#FFF" d="M238.5 469.4h-1v-.6c-.3.4-1 .7-1.6.7-1.1 0-2.2-.9-2.2-2.4 0-1.4 1-2.3 2.2-2.3.9 0 1.4.6 1.5.7v-.5h1v4.4zm-2.3-3.6c-.9 0-1.3.8-1.3 1.4 0 .8.6 1.4 1.3 1.4.7 0 1.3-.6 1.3-1.4 0-.9-.7-1.4-1.3-1.4z"/>
  <path fill="#FFF" d="M239.4 465h1v.4c.2-.3.4-.5 1-.5h.1v1c-1 0-1 .8-1 1.1v2.5h-1.1V465z"/>
  <path fill="#FFF" d="M242 463.5h1.1v1H242v-1zm0 1.5h1.1v4.4H242V465z"/>
  <path fill="#FFF" d="M244.2 465.9h-.5v-.9h.5v-1.5h1.1v1.5h.6v.9h-.6v3.5h-1.1v-3.5z"/>
  <path fill="#FFF" d="M250.8 469.4h-1v-.6c-.3.4-1 .7-1.6.7-1.1 0-2.2-.9-2.2-2.4 0-1.4 1-2.3 2.2-2.3.9 0 1.4.6 1.5.7v-.5h1v4.4zm-2.3-3.6c-.9 0-1.3.8-1.3 1.4 0 .8.6 1.4 1.3 1.4.7 0 1.3-.6 1.3-1.4 0-.9-.7-1.4-1.3-1.4z"/>
  <path fill="#FFF" d="M179.4 473.1h1.1v1.8c.1-.1.5-.5 1.2-.5.5 0 1 .3 1.4.7.4.4.4 1.1.4 1.4v2.5h-1.1v-2.3c0-.5 0-1.3-.9-1.3s-.9 1-.9 1.4v2.3h-1.1v-6z"/>
  <path fill="#FFF" d="M188.7 479h-1v-.6c-.3.4-1 .7-1.6.7-1.1 0-2.2-.9-2.2-2.4 0-1.4 1-2.3 2.2-2.3.9 0 1.4.6 1.5.7v-.6h1v4.5zm-2.3-3.6c-.9 0-1.3.8-1.3 1.4 0 .8.6 1.4 1.3 1.4.7 0 1.3-.6 1.3-1.4 0-.9-.7-1.4-1.3-1.4z"/>
  <path fill="#FFF" d="M191.3 475.8c-.1-.4-.3-.4-.4-.4-.3 0-.4.2-.4.4 0 .3.2.3.8.5.6.2 1.2.4 1.2 1.3 0 1-.8 1.6-1.6 1.6-.4 0-1-.2-1.3-.6-.3-.3-.3-.7-.3-1h1.1c0 .2.1.6.6.6.3 0 .5-.3.5-.4 0-.3-.2-.4-1-.7-.5-.2-1-.5-1-1.3 0-.9.8-1.4 1.5-1.4s1.4.5 1.4 1.4h-1.1z"/>
  <path fill="#FFF" d="M197.1 475.8c-.1-.4-.3-.4-.4-.4-.3 0-.4.2-.4.4 0 .3.2.3.8.5.6.2 1.2.4 1.2 1.3 0 1-.8 1.6-1.6 1.6-.4 0-1-.2-1.3-.6-.3-.3-.3-.7-.3-1h1.1c0 .2.1.6.6.6.3 0 .5-.3.5-.4 0-.3-.2-.4-1-.7-.5-.2-1-.5-1-1.3 0-.9.8-1.4 1.5-1.4s1.4.5 1.4 1.4h-1.1z"/>
  <path fill="#FFF" d="M198.8 473.1h1.1v1h-1.1v-1zm0 1.5h1.1v4.4h-1.1v-4.4z"/>
  <path fill="#FFF" d="M200.7 474.6h1v.4c.1-.1.4-.5 1.2-.5.2 0 .9.1 1.3.7.5-.7 1.1-.7 1.4-.7.9 0 1.3.5 1.5.7.2.2.3.7.3 1.3v2.6h-1.1v-2.5c0-.3 0-1.2-.8-1.2-.3 0-.6.2-.7.4-.2.3-.2.7-.2 1v2.2h-1.1v-2.5c0-.6-.2-1.2-.9-1.2-.8 0-.8.9-.8 1.4v2.2h-1.1v-4.3z"/>
  <path fill="#FFF" d="M208.2 473.1h1.1v1h-1.1v-1zm0 1.5h1.1v4.4h-1.1v-4.4z"/>
  <path fill="#FFF" d="M210.2 473.1h1.1v5.9h-1.1v-5.9z"/>
  <path fill="#FFF" d="M216.5 479h-1v-.6c-.3.4-1 .7-1.6.7-1.1 0-2.2-.9-2.2-2.4 0-1.4 1-2.3 2.2-2.3.9 0 1.4.6 1.5.7v-.6h1v4.5zm-2.3-3.6c-.9 0-1.3.8-1.3 1.4 0 .8.6 1.4 1.3 1.4.7 0 1.3-.6 1.3-1.4 0-.9-.6-1.4-1.3-1.4z"/>
  <path fill="#FFF" d="M217.4 474.6h1v.4c.2-.3.4-.5 1-.5h.1v1c-1 0-1 .8-1 1.1v2.5h-1.1v-4.5z"/>
  <path fill="#FFF" d="M226.6 477.6c-.4 1-1.2 1.6-2.2 1.6-1.1 0-2.4-.9-2.4-2.4 0-1.4 1.1-2.4 2.4-2.4.6 0 1.8.3 2.2 1.6h-1.2c-.1-.2-.4-.6-1-.6s-1.3.5-1.3 1.4c0 .8.5 1.4 1.3 1.4.4 0 .7-.2 1-.6h1.2z"/>
  <path fill="#FFF" d="M231.7 479h-1v-.6c-.3.4-1 .7-1.6.7-1.1 0-2.2-.9-2.2-2.4 0-1.4 1-2.3 2.2-2.3.9 0 1.4.6 1.5.7v-.6h1v4.5zm-2.3-3.6c-.9 0-1.3.8-1.3 1.4 0 .8.6 1.4 1.3 1.4.7 0 1.3-.6 1.3-1.4 0-.9-.6-1.4-1.3-1.4z"/>
  <path fill="#FFF" d="M232.6 473.1h1.1v5.9h-1.1v-5.9z"/>
  <path fill="#FFF" d="M234.2 476.8c0-1.3 1.1-2.4 2.4-2.4 1.3 0 2.4 1 2.4 2.4 0 1.5-1.1 2.4-2.4 2.4-1.3 0-2.4-1.1-2.4-2.4zm3.7 0c0-.8-.6-1.4-1.3-1.4-.6 0-1.3.5-1.3 1.4 0 .8.6 1.4 1.3 1.4.8 0 1.3-.7 1.3-1.4z"/>
  <path fill="#FFF" d="M239.7 474.6h1v.4c.2-.3.4-.5 1-.5h.1v1c-1 0-1 .8-1 1.1v2.5h-1.1v-4.5z"/>
  <path fill="#FFF" d="M242.3 473.1h1.1v1h-1.1v-1zm0 1.5h1.1v4.4h-1.1v-4.4z"/>
  <path fill="#FFF" d="M245.2 477.3c0 .3.5.9 1.2.9.5 0 .8-.2 1-.6h1.1c-.3.8-1.1 1.5-2.1 1.5-1.3 0-2.3-1.1-2.3-2.4 0-1.3 1-2.4 2.3-2.4 1.4 0 2.3 1.2 2.3 2.3 0 .2 0 .4-.1.5h-3.4zm2.4-.9c-.1-.7-.7-1-1.2-1-.4 0-1.1.2-1.3 1h2.5z"/>
  <path fill="#FFF" d="M251.1 475.8c-.1-.4-.3-.4-.4-.4-.3 0-.4.2-.4.4 0 .3.2.3.8.5.6.2 1.2.4 1.2 1.3 0 1-.8 1.6-1.6 1.6-.4 0-1-.2-1.3-.6-.3-.3-.3-.7-.3-1h1.1c0 .2.1.6.6.6.3 0 .5-.3.5-.4 0-.3-.2-.4-1-.7-.5-.2-1-.5-1-1.3 0-.9.8-1.4 1.5-1.4s1.4.5 1.4 1.4h-1.1z"/>
  <path fill="#FFF" d="M179.7 485.1h-.5v-.9h.5v-1.5h1.1v1.5h.6v.9h-.6v3.5h-1.1v-3.5z"/>
  <path fill="#FFF" d="M181.6 486.4c0-1.3 1.1-2.4 2.4-2.4 1.3 0 2.4 1 2.4 2.4 0 1.5-1.1 2.4-2.4 2.4-1.3 0-2.4-1.1-2.4-2.4zm3.7 0c0-.8-.6-1.4-1.3-1.4-.6 0-1.3.5-1.3 1.4 0 .8.6 1.4 1.3 1.4.7 0 1.3-.7 1.3-1.4z"/>
  <path fill="#FFF" d="M193.7 488.6h-1v-.6c-.3.4-1 .7-1.6.7-1.1 0-2.2-.9-2.2-2.4 0-1.4 1-2.3 2.2-2.3.9 0 1.4.6 1.5.7v-.6h1v4.5zm-2.3-3.6c-.9 0-1.3.8-1.3 1.4 0 .8.6 1.4 1.3 1.4.7 0 1.3-.6 1.3-1.4 0-.9-.7-1.4-1.3-1.4z"/>
  <path fill="#FFF" d="M202.4 487c-.5 1.1-1.6 1.8-2.7 1.8-1.7 0-3.1-1.4-3.1-3.1 0-1.6 1.4-3.1 3.1-3.1 1 0 2.2.5 2.8 1.8h-1.2c-.4-.5-.9-.8-1.6-.8-1 0-1.9.9-1.9 2s.9 2.1 2 2.1c.8 0 1.2-.5 1.5-.7h1.1z"/>
  <path fill="#FFF" d="M203.1 482.7h1.1v2.4h2.1v-2.4h1.1v5.9h-1.1v-2.5h-2.1v2.5h-1.1v-5.9z"/>
  <path fill="#FFF" d="M208.5 482.7h3.2v1h-2.1v1.4h2v1h-2v1.4h2.1v1h-3.2v-5.8z"/>
  <path fill="#FFF" d="M212.6 482.7h3.2v1h-2.1v1.4h2v1h-2v1.4h2.1v1h-3.2v-5.8z"/>
  <path fill="#FFF" d="M217.5 486.9c.1.6.4.8.8.8s.8-.3.8-.7c0-.6-.4-.7-1.1-1-.5-.2-1.4-.5-1.4-1.7 0-.9.7-1.7 1.7-1.7.7 0 1.7.5 1.8 1.7H219c0-.5-.4-.7-.7-.7-.3 0-.6.2-.6.6 0 .5.4.6 1 .8.5.2 1.6.5 1.6 1.8s-1 1.9-1.9 1.9c-.8 0-1.9-.5-1.9-1.8h1z"/>
  <path fill="#FFF" d="M220.9 482.7h3.2v1H222v1.4h2v1h-2v1.4h2.1v1h-3.2v-5.8z"/>
  <path fill="#FFF" d="M225.2 482.7h1.2c.7 0 1.3 0 1.8.5.3.3.5.7.5 1.1 0 .7-.5 1-.7 1.1.4.1 1 .5 1 1.5 0 .7-.4 1.2-.7 1.4-.4.3-1.1.4-1.5.4h-1.6v-6zm1.1 2.3h.4c.3 0 .9 0 .9-.6 0-.4-.2-.6-.8-.6h-.5v1.2zm0 2.6h.6c.2 0 1.1 0 1.1-.8 0-.2-.1-.8-1.1-.8h-.6v1.6z"/>
  <path fill="#FFF" d="M230.8 482.7v3.8c0 .3 0 1.3 1 1.3s1-1 1-1.3v-3.8h1.1v3.8c0 .5-.1 1-.3 1.4-.3.5-1 .9-1.8.9-.9 0-1.5-.5-1.8-.8-.2-.3-.4-.7-.4-1.4v-3.8h1.2z"/>
  <path fill="#FFF" d="M234.9 482.7h1.8c.7 0 1.1.1 1.4.4.3.3.7.8.7 1.4 0 .4-.1 1-.6 1.4-.4.3-.7.4-1 .5l1.6 2.2h-1.3l-1.6-2.3v2.3h-1.1v-5.9zm1.1 2.8h.7c.9 0 1.1-.6 1.1-.9 0-.3-.2-.9-1.1-.9h-.7v1.8z"/>
  <path fill="#FFF" d="M241.7 485.6h3.9v.1c0 1.7-1.5 3-3.1 3-1.7 0-3.2-1.3-3.2-3.1 0-1.7 1.5-3.1 3.2-3.1 1.5 0 2.6 1 2.9 1.9h-1.3c-.3-.4-.8-.8-1.6-.8-1.3 0-2 1.1-2 2.1 0 .9.7 2 2.1 2 .7 0 1.4-.4 1.8-1.1h-2.5v-1z"/>
  <path fill="#FFF" d="M246.2 482.7h3.2v1h-2.1v1.4h2v1h-2v1.4h2.1v1h-3.2v-5.8z"/>
  <path fill="#FFF" d="M250.4 482.7h1.8c.7 0 1.1.1 1.4.4.3.3.7.8.7 1.4 0 .4-.1 1-.6 1.4-.4.3-.7.4-1 .5l1.6 2.2H253l-1.6-2.3v2.3h-1.1v-5.9zm1.1 2.8h.7c.9 0 1.1-.6 1.1-.9 0-.3-.2-.9-1.1-.9h-.7v1.8z"/>
  <g id="Martini_Burger">
    <g fill="#51BA83">
      <path d="M93.5 472h12.4v2.7H93.5z"/>
      <path d="M93.5 477.5h12.4v2.7H93.5z"/>
    </g>
    <path fill="#C4D82E" d="M119.8 482.5s-1.1 5.6 0 7.3c0 0 1.6 3.6 7.5 6.2 0 0 8.4 3.8 18.6 2.8 0 0 11.4-1.1 14.6-3.6 3.2-2.6 7-3.9 6.1-8.5 0 0 1-.2.3-.6 0 0 0-.6.7-.4 0 0 .2-.1 0-.5 0 0 .6-.7.1-1.3 0 0 0-.6-.6-.8 0 0 0-.3.2-.3 0 0 .6-.2.3-.4 0 0 .5-.4.3-.6 0 0 .5-.6.2-.9 0 0-.1-.2-.4-.2 0 0-.2-.5-.3-.5-.1 0-.2-.5-.3-.5 0 0 0-.2.4-.1 0 0 .4-.7-.2-1.4 0 0-.2-.6-.8-1 0 0 .2.1.2-2.4 0 0 .1-.6-1.5-1.6 0 0 .1-.3.4-.6 0 0 0-1.1-.3-1.4 0 0 2.5-1.7 2.3-4 0 0 .3-4.9-4.5-8 0 0-3.5-4.1-16.9-5.6 0 0-7.3-1-18.3 2.9 0 0-6.7 2.3-8.2 6.2 0 0-1.5 1.1-1 4.8 0 0 .2 1.2 1.6 2.6 0 0-.3.5 0 .5 0 0 .2-.1.2 0v.3s-.7.4-.2.7c0 0 .1.1-.6.5 0 0-.2 0 0 .3 0 0-.2.2 0 .4 0 0 .3.3.3.4 0 0 0 .3.4.7 0 0 0 .2.6.7 0 0 .4-.2.6.1l.1-.3s.8-.2.9-.2c0 0 .3.2.8.3v.6l-.2.1h-.3s-1.1-.2-1.6.6c0 0-.6.2-.4.8 0 0-.1.2-.2.3 0 0-.1.2 0 .3 0 0-.2.3-.3.3s-.1 0-.1.4c0 0-.4-.3-.6.1 0 0-.7.3-.1 1 0 0 .5.3.1.6 0 0-.2.1-.2.2 0 0-.3-.1-.3.2 0 0-.1.3.2.6 0 0 .3.1.4.4l-.4.6s-.2.1.2.6c-.2-.2.2.1.2.3z"/>
    <path fill="#C4D82E" d="M63.1 476.4s2.8 1.4 2.9 7.5v8.9s-.6 3.1-1.4 4.5c0 0-6.5.5-7.6 2.1 0 0-1.5 2.6 8.5 3.2 0 0 11 .6 12-2.3 0 0 1-2.1-7.6-2.9 0 0-1.3-3-1.4-4.5 0 0-.5-3.9-.3-8.9 0 0 .2-5.4 2-7.1 0 0 2.9-2.3 3.4-5.5 0 0 .3-5.7 1.9-6.1 0 0 5.3-1.1 6.7-6.9 0 0 3.5 4.2 4.8 6.8 0 0 .2.1.2-.5 0 0 .1-1.3.2-1.5 0 0 1.3-2 .9-4 0 0-.5-6.6-6.6-9.3 0 0-3.2-1.1-4.8.6 0 0-.2.1.3.6 0 0 2.1 2.6 2.2 2.9 0 0 .3.6.1.8 0 0-.4-.1-.6 0 0 0-.4-.6-.9-.4 0 0-.4.2-.5.2h-.1c-.1-.1.2-.7-1-.5 0 0-.6.1-.6 0 0 0 .1-.6-.7-.4 0 0-.3-.3-.7-.6 0 0-.8-1-.9-1 0 0-.2-.4-1.2 0 0 0-.4-1.2-1.4-.6 0 0-.5.2-.9.1 0 0-.2-.3-.6-.2 0 0-.2-1.3-1.7-.7 0 0-1.9-.1-2.7 1.4 0 0-.6 0-.8.4 0 0-.6 0-.8.5 0 0-.3 0-.5.4 0 0-.7 0-.7-.1 0 0-.3-.2-.7.1 0 0-.5.1-.5-.3 0 0-.5-.4-1 .2 0 0-.3.2-.5.6 0 0-.5-.1-.8.4 0 0-.4-.5-1.1-.1 0 0-.6-.3-.8 0 0 0-3.5-.1-5.2.6 0 0-1.2.4-.4 1.6 0 0 .8 7.5 7.4 9.1 0 0 1.2.4 1.4 3.4-.4 0-.1 5.2 3.1 7.5z"/>
  </g>
  <path fill="none" d="M179 306.6h80.5v25.2H179z"/>
  <path fill="#FFF" d="M181.5 306.6h.9l2.5 5.9h-1.2l-.7-1.5h-2.1l-.6 1.5h-1.2l2.4-5.9zm-.2 3.3h1.4l-.7-1.8-.7 1.8z"/>
  <path fill="#FFF" d="M188.2 306.6h2.7v1H189l-.2 1.1c.2-.1.5-.2.8-.2 1.1 0 1.9 1 1.9 2 0 1.1-.8 2.1-2.1 2.1-1 0-2-.8-2-1.9h1.1c.1.7.6.9.9.9.7 0 1-.6 1-1.1s-.4-1-1-1c-.4 0-.7.3-.8.4l-1-.3.6-3z"/>
  <path fill="#FFF" d="M195.9 310.6c0 1.3-.9 2-2 2-.6 0-1-.2-1.5-.6-.3-.3-.5-.7-.5-1.4v-2.1c0-1.4 1.1-2 2-2 .9 0 2 .6 2 2v2.1zm-1.1-2.1c0-.6-.4-1-.9-1s-.9.4-.9 1v2c0 .9.6 1.1.9 1.1.3 0 .9-.1.9-1.1v-2z"/>
  <path fill="#FFF" d="M196.6 308.1h1v.4c.1-.1.4-.5 1.2-.5.2 0 .9.1 1.3.7.5-.7 1.1-.7 1.4-.7.9 0 1.3.5 1.5.7.2.2.3.7.3 1.3v2.6h-1.1V310c0-.3 0-1.2-.8-1.2-.3 0-.6.2-.7.4-.2.3-.2.7-.2 1v2.2h-1.1V310c0-.6-.2-1.2-.9-1.2-.8 0-.8.9-.8 1.4v2.2h-1.1v-4.3z"/>
  <path fill="#FFF" d="M204.1 306.6h1.1v5.9h-1.1v-5.9z"/>
  <path fill="#FFF" d="M208.2 306.6h1.1v5.9h-1.1v-5.9z"/>
  <path fill="#FFF" d="M210.2 306.6h1.1v1h-1.1v-1zm0 1.5h1.1v4.4h-1.1v-4.4z"/>
  <path fill="#FFF" d="M216.5 308.1v5.9h-1.1v-1.9c-.5.6-1.2.6-1.4.6-1.3 0-2.2-1.2-2.2-2.4 0-1.3 1-2.3 2.2-2.3.9 0 1.3.5 1.4.7v-.6h1.1zm-2.2 3.6c.8 0 1.3-.7 1.3-1.4s-.5-1.4-1.3-1.4-1.3.6-1.3 1.4c0 .8.6 1.4 1.3 1.4z"/>
  <path fill="#FFF" d="M221.3 308.1v4.4h-1v-.5c-.2.2-.5.6-1.1.6-.8 0-1.3-.4-1.5-.7-.3-.5-.3-1.2-.3-1.6V308h1.1v2.3c0 .4 0 1.3.9 1.3.7 0 .9-.6.9-1.3V308h1z"/>
  <path fill="#FFF" d="M223.1 310.7c0 .3.5.9 1.2.9.5 0 .8-.2 1-.6h1.1c-.3.8-1.1 1.5-2.1 1.5-1.3 0-2.3-1.1-2.3-2.4 0-1.3 1-2.4 2.3-2.4 1.4 0 2.3 1.2 2.3 2.3 0 .2 0 .4-.1.5h-3.4zm2.4-.8c-.1-.7-.7-1-1.2-1-.4 0-1.1.2-1.3 1h2.5z"/>
  <path fill="#FFF" d="M227.4 308.1h1v.4c.2-.3.4-.5 1-.5h.1v1c-1 0-1 .8-1 1.1v2.5h-1.1v-4.5z"/>
  <path fill="#FFF" d="M232.1 306.6h1.1v1.8c.1-.1.5-.5 1.2-.5.5 0 1 .3 1.4.7.4.4.4 1.1.4 1.4v2.5h-1.1v-2.3c0-.5 0-1.3-.9-1.3s-.9 1-.9 1.4v2.3h-1.1v-6z"/>
  <path fill="#FFF" d="M241.3 312.5h-1v-.6c-.3.4-1 .7-1.6.7-1.1 0-2.2-.9-2.2-2.4 0-1.4 1-2.3 2.2-2.3.9 0 1.4.6 1.5.7v-.6h1v4.5zm-2.3-3.6c-.9 0-1.3.8-1.3 1.4 0 .8.6 1.4 1.3 1.4.7 0 1.3-.6 1.3-1.4 0-1-.6-1.4-1.3-1.4z"/>
  <path fill="#FFF" d="M243.9 309.3c-.1-.4-.3-.4-.4-.4-.3 0-.4.2-.4.4 0 .3.2.3.8.5.6.2 1.2.4 1.2 1.3 0 1-.8 1.6-1.6 1.6-.4 0-1-.2-1.3-.6-.3-.3-.3-.7-.3-1h1.1c0 .2.1.6.6.6.3 0 .5-.3.5-.4 0-.3-.2-.4-1-.7-.5-.2-1-.5-1-1.3 0-.9.8-1.4 1.5-1.4s1.4.5 1.4 1.4h-1.1z"/>
  <path fill="#FFF" d="M181.2 318.9c-.1-.4-.3-.4-.4-.4-.3 0-.4.2-.4.4 0 .3.2.3.8.5.6.2 1.2.4 1.2 1.3 0 1-.8 1.6-1.6 1.6-.4 0-1-.2-1.3-.6-.3-.3-.3-.7-.3-1h1.1c0 .2.1.6.6.6.3 0 .5-.3.5-.4 0-.3-.2-.4-1-.7-.5-.2-1-.5-1-1.3 0-.9.8-1.4 1.5-1.4s1.4.5 1.4 1.4h-1.1z"/>
  <path fill="#FFF" d="M183 316.2h1.1v1H183v-1zm0 1.5h1.1v4.4H183v-4.4z"/>
  <path fill="#FFF" d="M184.9 317.7h1v.4c.1-.1.4-.5 1.2-.5.2 0 .9.1 1.3.7.5-.7 1.1-.7 1.4-.7.9 0 1.3.5 1.5.7.2.2.3.7.3 1.3v2.6h-1.1v-2.5c0-.3 0-1.2-.8-1.2-.3 0-.6.2-.7.4-.2.3-.2.7-.2 1v2.2h-1.1v-2.5c0-.6-.2-1.2-.9-1.2-.8 0-.8.9-.8 1.4v2.2h-1.1v-4.3z"/>
  <path fill="#FFF" d="M192.4 316.2h1.1v1h-1.1v-1zm0 1.5h1.1v4.4h-1.1v-4.4z"/>
  <path fill="#FFF" d="M194.3 316.2h1.1v5.9h-1.1v-5.9z"/>
  <path fill="#FFF" d="M200.7 322.1h-1v-.6c-.3.4-1 .7-1.6.7-1.1 0-2.2-.9-2.2-2.4 0-1.4 1-2.3 2.2-2.3.9 0 1.4.6 1.5.7v-.6h1v4.5zm-2.3-3.6c-.9 0-1.3.8-1.3 1.4 0 .8.6 1.4 1.3 1.4.7 0 1.3-.6 1.3-1.4 0-1-.7-1.4-1.3-1.4z"/>
  <path fill="#FFF" d="M201.6 317.7h1v.4c.2-.3.4-.5 1-.5h.1v1c-1 0-1 .8-1 1.1v2.5h-1.1v-4.5z"/>
  <path fill="#FFF" d="M210.8 320.6c-.4 1-1.2 1.6-2.2 1.6-1.1 0-2.4-.9-2.4-2.4 0-1.4 1.1-2.4 2.4-2.4.6 0 1.8.3 2.2 1.6h-1.2c-.1-.2-.4-.6-1-.6s-1.3.5-1.3 1.4c0 .8.5 1.4 1.3 1.4.4 0 .7-.2 1-.6h1.2z"/>
  <path fill="#FFF" d="M215.9 322.1h-1v-.6c-.3.4-1 .7-1.6.7-1.1 0-2.2-.9-2.2-2.4 0-1.4 1-2.3 2.2-2.3.9 0 1.4.6 1.5.7v-.6h1v4.5zm-2.3-3.6c-.9 0-1.3.8-1.3 1.4 0 .8.6 1.4 1.3 1.4.7 0 1.3-.6 1.3-1.4 0-1-.7-1.4-1.3-1.4z"/>
  <path fill="#FFF" d="M216.7 316.2h1.1v5.9h-1.1v-5.9z"/>
  <path fill="#FFF" d="M218.4 319.9c0-1.3 1.1-2.4 2.4-2.4 1.3 0 2.4 1 2.4 2.4 0 1.5-1.1 2.4-2.4 2.4-1.3-.1-2.4-1.2-2.4-2.4zm3.7 0c0-.8-.6-1.4-1.3-1.4-.6 0-1.3.5-1.3 1.4 0 .8.6 1.4 1.3 1.4.7 0 1.3-.7 1.3-1.4z"/>
  <path fill="#FFF" d="M223.8 317.7h1v.4c.2-.3.4-.5 1-.5h.1v1c-1 0-1 .8-1 1.1v2.5h-1.1v-4.5z"/>
  <path fill="#FFF" d="M226.5 316.2h1.1v1h-1.1v-1zm0 1.5h1.1v4.4h-1.1v-4.4z"/>
  <path fill="#FFF" d="M229.3 320.3c0 .3.5.9 1.2.9.5 0 .8-.2 1-.6h1.1c-.3.8-1.1 1.5-2.1 1.5-1.3 0-2.3-1.1-2.3-2.4 0-1.3 1-2.4 2.3-2.4 1.4 0 2.3 1.2 2.3 2.3 0 .2 0 .4-.1.5h-3.4zm2.5-.8c-.1-.7-.7-1-1.2-1-.4 0-1.1.2-1.3 1h2.5z"/>
  <path fill="#FFF" d="M235.3 318.9c-.1-.4-.3-.4-.4-.4-.3 0-.4.2-.4.4 0 .3.2.3.8.5.6.2 1.2.4 1.2 1.3 0 1-.8 1.6-1.6 1.6-.4 0-1-.2-1.3-.6-.3-.3-.3-.7-.3-1h1.1c0 .2.1.6.6.6.3 0 .5-.3.5-.4 0-.3-.2-.4-1-.7-.5-.2-1-.5-1-1.3 0-.9.8-1.4 1.5-1.4s1.4.5 1.4 1.4h-1.1z"/>
  <path fill="#FFF" d="M239.5 318.6h-.5v-.9h.5v-1.5h1.1v1.5h.6v.9h-.6v3.5h-1.1v-3.5z"/>
  <path fill="#FFF" d="M241.4 319.9c0-1.3 1.1-2.4 2.4-2.4 1.3 0 2.4 1 2.4 2.4 0 1.5-1.1 2.4-2.4 2.4-1.3-.1-2.4-1.2-2.4-2.4zm3.7 0c0-.8-.6-1.4-1.3-1.4-.6 0-1.3.5-1.3 1.4 0 .8.6 1.4 1.3 1.4.8 0 1.3-.7 1.3-1.4z"/>
  <path fill="#FFF" d="M180.2 326.8h-1.1v-1h3.3v1h-1.1v4.9h-1.1v-4.9z"/>
  <path fill="#FFF" d="M182.4 325.8h1.1l1 4.1 1-4.1h.8l1 4.1 1-4.1h1.1l-1.7 5.9h-.7l-1-3.9-1 3.9h-.9l-1.7-5.9z"/>
  <path fill="#FFF" d="M192.8 325.7c1.7 0 3.1 1.3 3.1 3.1 0 1.7-1.4 3.1-3.1 3.1-1.7 0-3.1-1.4-3.1-3.1 0-1.8 1.4-3.1 3.1-3.1zm0 5.1c1.1 0 2-1 2-2 0-1.1-.9-2.1-2-2.1s-2 .9-2 2.1c0 1 .8 2 2 2z"/>
  <path fill="#FFF" d="M199.6 330c.1.6.4.8.8.8s.8-.3.8-.7c0-.6-.4-.7-1.1-1-.5-.2-1.4-.5-1.4-1.7 0-.9.7-1.7 1.7-1.7.7 0 1.7.5 1.8 1.7H201c0-.5-.4-.7-.7-.7-.3 0-.6.2-.6.6 0 .5.4.6 1 .8.5.2 1.6.5 1.6 1.8s-1 1.9-1.9 1.9c-.8 0-1.9-.5-1.9-1.8h1.1z"/>
  <path fill="#FFF" d="M205 325.8h.9l2.5 5.9h-1.2l-.6-1.5h-2.1l-.6 1.5h-1.2l2.3-5.9zm-.2 3.3h1.4l-.7-1.8-.7 1.8z"/>
  <path fill="#FFF" d="M209.7 325.8v3.8c0 .3 0 1.3 1 1.3s1-1 1-1.3v-3.8h1.1v3.8c0 .5-.1 1-.3 1.4-.3.5-1 .9-1.8.9-.9 0-1.5-.5-1.8-.8-.2-.3-.4-.7-.4-1.4v-3.8h1.2z"/>
  <path fill="#FFF" d="M214.5 330c.1.6.4.8.8.8s.8-.3.8-.7c0-.6-.4-.7-1.1-1-.5-.2-1.4-.5-1.4-1.7 0-.9.7-1.7 1.7-1.7.7 0 1.7.5 1.8 1.7H216c0-.5-.4-.7-.7-.7-.3 0-.6.2-.6.6 0 .5.4.6 1 .8.5.2 1.6.5 1.6 1.8s-1 1.9-1.9 1.9c-.8 0-1.9-.5-1.9-1.8h1z"/>
  <path fill="#FFF" d="M219.9 325.8h.9l2.5 5.9h-1.2l-.6-1.5h-2.1l-.6 1.5h-1.2l2.3-5.9zm-.2 3.3h1.4l-.7-1.8-.7 1.8z"/>
  <path fill="#FFF" d="M225.7 328.7h3.9v.1c0 1.7-1.5 3-3.1 3-1.7 0-3.2-1.3-3.2-3.1 0-1.7 1.5-3.1 3.2-3.1 1.5 0 2.6 1 2.9 1.9h-1.3c-.3-.4-.8-.8-1.6-.8-1.3 0-2 1.1-2 2.1 0 .9.7 2 2.1 2 .7 0 1.4-.4 1.8-1.1h-2.5v-1z"/>
  <path fill="#FFF" d="M230.2 325.8h3.2v1h-2.1v1.4h2v1h-2v1.4h2.1v1h-3.2v-5.8z"/>
  <path fill="#FFF" d="M235.1 330c.1.6.4.8.8.8s.8-.3.8-.7c0-.6-.4-.7-1.1-1-.5-.2-1.4-.5-1.4-1.7 0-.9.7-1.7 1.7-1.7.7 0 1.7.5 1.8 1.7h-1.1c0-.5-.4-.7-.7-.7-.3 0-.6.2-.6.6 0 .5.4.6 1 .8.5.2 1.6.5 1.6 1.8s-1 1.9-1.9 1.9c-.8 0-1.9-.5-1.9-1.8h1z"/>
  <g id="Beer_Hotdog">
    <g fill="#51BA83">
      <path d="M93.4 315H106v2.8H93.4z"/>
      <path d="M93.4 320.6H106v2.8H93.4z"/>
    </g>
    <g fill="#C4D82E">
      <path d="M116.8 314.8s-1-5.8 9.1-4c0 0 2.9.7 6.1.9 0 0 29.7 6.1 38.8 21.5 0 0 1.5 5.3-3.2 6.6 0 0-4.4.4-7.1-4 0 0-6-6.4-13.4-9.3 0 0-16.4-7.1-22-6.8-.1 0-8.6 1-8.3-4.9z"/>
      <path d="M114.1 303.5s.4-3.8 6.3-3.9c0 0 6.2-.9 16.9 2.4 0 0 26.5 7 32.3 13.3 0 0 7.5 7 1.8 10 0 0-4 2.2-6.4-1.7 0 0-5.1-5.4-9.3-6.5 0 0-6.3-2.6-6.6-2.8 0 0-9.8-2.9-11.8-4 0 0-12.1-3.4-12.7-3.4 0 0-3.9-.2-4.7 0 .1-.1-5.6.5-5.8-3.4z"/>
    </g>
    <path fill="#C4D82E" d="M47.3 345.5s-.1 1.9 1.4 2.1l19.9.8s.6 0 1.1-.4l1.2-.9s1-1.3 1.2-2.6c0 0 .3-1.8.2-3.8l.2-30.1s-.1-3-3.8-5.3c0 0-3.2-1.8-3.3-3.5l-.1-3.1s1.1-.6.9-1c0 0 .3-.3 0-.6v-.3s.5-.4.1-.7c0 0 .2-1-.4-1.3v-.3s.5-.4.1-.7v-.5s.1-.6.3-.5c0 0 .2-.2.1-.3v-.9s-.2-1.4-5.9-1.5c0 0-5.6-.3-6.2 1v1.3s.1.3.6.3c0 0-.7.3-.5.8 0 0 0 .2.3.3 0 0-.9.5-.2 1 0 0-.3.4-.2 1 0 0-.6.6 0 1 0 0-.4.7.1 1.1 0 0-.5.5.7.9l-.1 2.6s0 1.5-1.5 2.3c0 0-6.3 3-6 6.3l-.5 33.5s-.1 1.3.3 2z"/>
  </g>
  <path fill="none" d="M177 70.2h87.7v27.3H177z"/>
  <path fill="#FFF" d="M179.5 70.2h.9l2.5 5.9h-1.2l-.6-1.5H179l-.6 1.5h-1.2l2.3-5.9zm-.2 3.3h1.4l-.7-1.8-.7 1.8z"/>
  <path fill="#FFF" d="M187.4 72.8c-.1-.4-.3-.4-.4-.4-.3 0-.4.2-.4.4 0 .3.2.3.8.5.6.2 1.2.4 1.2 1.3 0 1-.8 1.6-1.6 1.6-.4 0-1-.2-1.3-.6-.3-.3-.3-.7-.3-1h1.1c0 .2.1.6.6.6.3 0 .5-.3.5-.4 0-.3-.2-.4-1-.7-.5-.2-1-.5-1-1.3 0-.9.8-1.4 1.5-1.4s1.4.5 1.4 1.4h-1.1z"/>
  <path fill="#FFF" d="M189.1 71.6h1v.5c.5-.7 1.2-.7 1.4-.7 1.5 0 2.2 1.3 2.2 2.4 0 1.3-1 2.4-2.2 2.4-.8 0-1.1-.3-1.4-.6v1.9H189v-5.9zm2.3 3.6c.6 0 1.3-.5 1.3-1.4 0-.8-.6-1.4-1.3-1.4-.7 0-1.3.5-1.3 1.4 0 1 .8 1.4 1.3 1.4z"/>
  <path fill="#FFF" d="M194.4 70.2h1.1v1h-1.1v-1zm0 1.4h1.1V76h-1.1v-4.4z"/>
  <path fill="#FFF" d="M196.4 71.6h1v.4c.2-.3.4-.5 1-.5h.1v1c-1 0-1 .8-1 1.1v2.5h-1.1v-4.5z"/>
  <path fill="#FFF" d="M199 70.2h1.1v1H199v-1zm0 1.4h1.1V76H199v-4.4z"/>
  <path fill="#FFF" d="M201.2 72.6h-.5v-.9h.5v-1.5h1.1v1.5h.6v.9h-.6v3.5h-1.1v-3.5z"/>
  <path fill="#FFF" d="M210.1 76.1h-1v-.6c-.3.4-1 .7-1.6.7-1.1 0-2.2-.9-2.2-2.4 0-1.4 1-2.3 2.2-2.3.9 0 1.4.6 1.5.7v-.6h1v4.5zm-2.3-3.6c-.9 0-1.3.8-1.3 1.4 0 .8.6 1.4 1.3 1.4.7 0 1.3-.6 1.3-1.4 0-1-.7-1.4-1.3-1.4z"/>
  <path fill="#FFF" d="M210.9 71.6h1v.4c.2-.2.5-.5 1.2-.5.4 0 1 .2 1.3.6.4.5.4 1.2.4 1.6v2.4h-1.1v-2.2c0-.4 0-1.4-.9-1.4-.2 0-.5.1-.7.4-.2.3-.2.7-.2 1.1v2.1h-1.1v-4.5z"/>
  <path fill="#FFF" d="M220.2 76.1h-1v-.5c-.2.3-.7.7-1.4.7-1.1 0-2.3-.9-2.3-2.4s1.2-2.4 2.3-2.4c.6 0 1 .2 1.3.5v-1.9h1.1v6zm-2.3-.9c.8 0 1.3-.7 1.3-1.4s-.6-1.4-1.3-1.4c-.8 0-1.3.7-1.3 1.4 0 .8.6 1.4 1.3 1.4z"/>
  <path fill="#FFF" d="M227.6 74.6c-.4 1-1.2 1.6-2.2 1.6-1.1 0-2.4-.9-2.4-2.4 0-1.4 1.1-2.4 2.4-2.4.6 0 1.8.3 2.2 1.6h-1.2c-.1-.2-.4-.6-1-.6s-1.3.5-1.3 1.4c0 .8.5 1.4 1.3 1.4.4 0 .7-.2 1-.6h1.2z"/>
  <path fill="#FFF" d="M228.1 73.9c0-1.3 1.1-2.4 2.4-2.4 1.3 0 2.4 1 2.4 2.4 0 1.5-1.1 2.4-2.4 2.4-1.4-.1-2.4-1.2-2.4-2.4zm3.6 0c0-.8-.6-1.4-1.3-1.4-.6 0-1.3.5-1.3 1.4 0 .8.6 1.4 1.3 1.4.8-.1 1.3-.7 1.3-1.4z"/>
  <path fill="#FFF" d="M233.6 70.2h1.1v3.6l1.4-2.1h1.2l-1.6 2.2 1.8 2.3h-1.3l-1.5-2.1v2.1h-1.1v-6z"/>
  <path fill="#FFF" d="M238.7 74.3c0 .3.5.9 1.2.9.5 0 .8-.2 1-.6h1.1c-.3.8-1.1 1.5-2.1 1.5-1.3 0-2.3-1.1-2.3-2.4 0-1.3 1-2.4 2.3-2.4 1.4 0 2.3 1.2 2.3 2.3 0 .2 0 .4-.1.5h-3.4zm2.4-.8c-.1-.7-.7-1-1.2-1-.4 0-1.1.2-1.3 1h2.5z"/>
  <path fill="#FFF" d="M245.1 70.2h1.1V72c.1-.1.5-.5 1.2-.5.5 0 1 .3 1.4.7.4.4.4 1.1.4 1.4v2.5H248v-2.3c0-.5 0-1.3-.9-1.3s-.9 1-.9 1.4v2.3h-1.1v-6z"/>
  <path fill="#FFF" d="M254.4 76.1h-1v-.6c-.3.4-1 .7-1.6.7-1.1 0-2.2-.9-2.2-2.4 0-1.4 1-2.3 2.2-2.3.9 0 1.4.6 1.5.7v-.6h1v4.5zm-2.3-3.6c-.9 0-1.3.8-1.3 1.4 0 .8.6 1.4 1.3 1.4.7 0 1.3-.6 1.3-1.4 0-1-.7-1.4-1.3-1.4z"/>
  <path fill="#FFF" d="M257 72.8c-.1-.4-.3-.4-.4-.4-.3 0-.4.2-.4.4 0 .3.2.3.8.5.6.2 1.2.4 1.2 1.3 0 1-.8 1.6-1.6 1.6-.4 0-1-.2-1.3-.6-.3-.3-.3-.7-.3-1h1.1c0 .2.1.6.6.6.3 0 .5-.3.5-.4 0-.3-.2-.4-1-.7-.5-.2-1-.5-1-1.3 0-.9.8-1.4 1.5-1.4s1.4.5 1.4 1.4H257z"/>
  <path fill="#FFF" d="M179.2 82.4c-.1-.4-.3-.4-.4-.4-.3 0-.4.2-.4.4 0 .3.2.3.8.5.6.2 1.2.4 1.2 1.3 0 1-.8 1.6-1.6 1.6-.4 0-1-.2-1.3-.6-.3-.3-.3-.7-.3-1h1.1c0 .2.1.6.6.6.3 0 .5-.3.5-.4 0-.3-.2-.4-1-.7-.5-.2-1-.5-1-1.3 0-.9.8-1.4 1.5-1.4s1.4.5 1.4 1.4h-1.1z"/>
  <path fill="#FFF" d="M181 79.8h1.1v1H181v-1zm0 1.4h1.1v4.4H181v-4.4z"/>
  <path fill="#FFF" d="M182.9 81.2h1v.4c.1-.1.4-.5 1.2-.5.2 0 .9.1 1.3.7.5-.7 1.1-.7 1.4-.7.9 0 1.3.5 1.5.7.2.2.3.7.3 1.3v2.6h-1.1v-2.5c0-.3 0-1.2-.8-1.2-.3 0-.6.2-.7.4-.2.3-.2.7-.2 1v2.2h-1.1v-2.5c0-.6-.2-1.2-.9-1.2-.8 0-.8.9-.8 1.4v2.2h-1.1v-4.3z"/>
  <path fill="#FFF" d="M190.4 79.8h1.1v1h-1.1v-1zm0 1.4h1.1v4.4h-1.1v-4.4z"/>
  <path fill="#FFF" d="M192.3 79.8h1.1v5.9h-1.1v-5.9z"/>
  <path fill="#FFF" d="M198.7 85.7h-1v-.6c-.3.4-1 .7-1.6.7-1.1 0-2.2-.9-2.2-2.4 0-1.4 1-2.3 2.2-2.3.9 0 1.4.6 1.5.7v-.6h1v4.5zm-2.3-3.6c-.9 0-1.3.8-1.3 1.4 0 .8.6 1.4 1.3 1.4.7 0 1.3-.6 1.3-1.4 0-1-.7-1.4-1.3-1.4z"/>
  <path fill="#FFF" d="M199.6 81.2h1v.4c.2-.3.4-.5 1-.5h.1v1c-1 0-1 .8-1 1.1v2.5h-1.1v-4.5z"/>
  <path fill="#FFF" d="M208.8 84.2c-.4 1-1.2 1.6-2.2 1.6-1.1 0-2.4-.9-2.4-2.4 0-1.4 1.1-2.4 2.4-2.4.6 0 1.8.3 2.2 1.6h-1.2c-.1-.2-.4-.6-1-.6s-1.3.5-1.3 1.4c0 .8.5 1.4 1.3 1.4.4 0 .7-.2 1-.6h1.2z"/>
  <path fill="#FFF" d="M213.9 85.7h-1v-.6c-.3.4-1 .7-1.6.7-1.1 0-2.2-.9-2.2-2.4 0-1.4 1-2.3 2.2-2.3.9 0 1.4.6 1.5.7v-.6h1v4.5zm-2.3-3.6c-.9 0-1.3.8-1.3 1.4 0 .8.6 1.4 1.3 1.4.7 0 1.3-.6 1.3-1.4 0-1-.7-1.4-1.3-1.4z"/>
  <path fill="#FFF" d="M214.7 79.8h1.1v5.9h-1.1v-5.9z"/>
  <path fill="#FFF" d="M216.4 83.5c0-1.3 1.1-2.4 2.4-2.4 1.3 0 2.4 1 2.4 2.4 0 1.5-1.1 2.4-2.4 2.4-1.3-.1-2.4-1.2-2.4-2.4zm3.7 0c0-.8-.6-1.4-1.3-1.4-.6 0-1.3.5-1.3 1.4 0 .8.6 1.4 1.3 1.4.7-.1 1.3-.7 1.3-1.4z"/>
  <path fill="#FFF" d="M221.8 81.2h1v.4c.2-.3.4-.5 1-.5h.1v1c-1 0-1 .8-1 1.1v2.5h-1.1v-4.5z"/>
  <path fill="#FFF" d="M224.5 79.8h1.1v1h-1.1v-1zm0 1.4h1.1v4.4h-1.1v-4.4z"/>
  <path fill="#FFF" d="M227.3 83.9c0 .3.5.9 1.2.9.5 0 .8-.2 1-.6h1.1c-.3.8-1.1 1.5-2.1 1.5-1.3 0-2.3-1.1-2.3-2.4 0-1.3 1-2.4 2.3-2.4 1.4 0 2.3 1.2 2.3 2.3 0 .2 0 .4-.1.5h-3.4zm2.5-.8c-.1-.7-.7-1-1.2-1-.4 0-1.1.2-1.3 1h2.5z"/>
  <path fill="#FFF" d="M233.3 82.4c-.1-.4-.3-.4-.4-.4-.3 0-.4.2-.4.4 0 .3.2.3.8.5.6.2 1.2.4 1.2 1.3 0 1-.8 1.6-1.6 1.6-.4 0-1-.2-1.3-.6-.3-.3-.3-.7-.3-1h1.1c0 .2.1.6.6.6.3 0 .5-.3.5-.4 0-.3-.2-.4-1-.7-.5-.2-1-.5-1-1.3 0-.9.8-1.4 1.5-1.4s1.4.5 1.4 1.4h-1.1z"/>
  <path fill="#FFF" d="M237.5 82.2h-.5v-.9h.5v-1.5h1.1v1.5h.6v.9h-.6v3.5h-1.1v-3.5z"/>
  <path fill="#FFF" d="M239.4 83.5c0-1.3 1.1-2.4 2.4-2.4 1.3 0 2.4 1 2.4 2.4 0 1.5-1.1 2.4-2.4 2.4-1.3-.1-2.4-1.2-2.4-2.4zm3.7 0c0-.8-.6-1.4-1.3-1.4-.6 0-1.3.5-1.3 1.4 0 .8.6 1.4 1.3 1.4.8-.1 1.3-.7 1.3-1.4z"/>
  <path fill="#FFF" d="M251.5 85.7h-1v-.6c-.3.4-1 .7-1.6.7-1.1 0-2.2-.9-2.2-2.4 0-1.4 1-2.3 2.2-2.3.9 0 1.4.6 1.5.7v-.6h1v4.5zm-2.3-3.6c-.9 0-1.3.8-1.3 1.4 0 .8.6 1.4 1.3 1.4.7 0 1.3-.6 1.3-1.4 0-1-.7-1.4-1.3-1.4z"/>
  <path fill="#FFF" d="M177.6 89.4h1.2c.7 0 1.3 0 1.8.5.3.3.5.7.5 1.1 0 .7-.5 1-.7 1.1.4.1 1 .5 1 1.5 0 .7-.4 1.2-.7 1.4-.4.3-1.1.4-1.5.4h-1.6v-6zm1.1 2.3h.4c.3 0 .9 0 .9-.6 0-.4-.2-.6-.8-.6h-.5v1.2zm0 2.6h.6c.2 0 1.1 0 1.1-.8 0-.2-.1-.8-1.1-.8h-.6v1.6z"/>
  <path fill="#FFF" d="M182.2 89.4h1.1v4.9h1.8v1h-2.9v-5.9z"/>
  <path fill="#FFF" d="M186.7 89.4v3.8c0 .3 0 1.3 1 1.3s1-1 1-1.3v-3.8h1.1v3.8c0 .5-.1 1-.3 1.4-.3.5-1 .9-1.8.9-.9 0-1.5-.5-1.8-.8-.2-.3-.4-.7-.4-1.4v-3.8h1.2z"/>
  <path fill="#FFF" d="M190.8 89.4h3.2v1h-2.1v1.4h2v1h-2v1.4h2.1v1h-3.2v-5.8z"/>
  <path fill="#FFF" d="M195 89.4h1.2c.7 0 1.3 0 1.8.5.3.3.5.7.5 1.1 0 .7-.5 1-.7 1.1.4.1 1 .5 1 1.5 0 .7-.4 1.2-.7 1.4-.4.3-1.1.4-1.5.4H195v-6zm1.1 2.3h.4c.3 0 .9 0 .9-.6 0-.4-.2-.6-.8-.6h-.5v1.2zm0 2.6h.6c.2 0 1.1 0 1.1-.8 0-.2-.1-.8-1.1-.8h-.6v1.6z"/>
  <path fill="#FFF" d="M199.6 89.4h3.2v1h-2.1v1.4h2v1h-2v1.4h2.1v1h-3.2v-5.8z"/>
  <path fill="#FFF" d="M203.8 89.4h1.8c.7 0 1.1.1 1.4.4.3.3.7.8.7 1.4 0 .4-.1 1-.6 1.4-.4.3-.7.4-1 .5l1.6 2.2h-1.3l-1.6-2.3v2.3h-1.1v-5.9zm1.1 2.8h.7c.9 0 1.1-.6 1.1-.9 0-.3-.2-.9-1.1-.9h-.7v1.8z"/>
  <path fill="#FFF" d="M208.4 89.4h1.8c.7 0 1.1.1 1.4.4.3.3.7.8.7 1.4 0 .4-.1 1-.6 1.4-.4.3-.7.4-1 .5l1.6 2.2H211l-1.6-2.3v2.3h-1.1v-5.9zm1.1 2.8h.7c.9 0 1.1-.6 1.1-.9 0-.3-.2-.9-1.1-.9h-.7v1.8z"/>
  <path fill="#FFF" d="M214.5 93.1l-1.9-3.7h1.2l1.3 2.7 1.3-2.7h1.2l-2 3.7v2.2h-1.1v-2.2z"/>
  <path fill="#FFF" d="M220.2 89.4h1.5l1.6 4.5 1.6-4.5h1.5v5.9h-1.1v-4.4l-1.5 4.4h-.9l-1.5-4.4v4.4h-1.1v-5.9z"/>
  <path fill="#FFF" d="M228.5 89.4v3.8c0 .3 0 1.3 1 1.3s1-1 1-1.3v-3.8h1.1v3.8c0 .5-.1 1-.3 1.4-.3.5-1 .9-1.8.9-.9 0-1.5-.5-1.8-.8-.2-.3-.4-.7-.4-1.4v-3.8h1.2z"/>
  <path fill="#FFF" d="M232.5 89.4h3v1h-1.9v1.4h1.8v1h-1.8v2.4h-1.1v-5.8z"/>
  <path fill="#FFF" d="M236.4 89.4h3v1h-1.9v1.4h1.8v1h-1.8v2.4h-1.1v-5.8z"/>
  <path fill="#FFF" d="M240.3 89.4h1.1v5.9h-1.1v-5.9z"/>
  <path fill="#FFF" d="M242.5 89.4h1.2l2.4 4.3v-4.3h1.1v5.9H246l-2.5-4.3v4.3h-1.1v-5.9z"/>
  <path id="Cup" fill="#C4D82E" stroke="#C4D82E" stroke-miterlimit="10" d="M11 72.9s3-.7 8.6-.7c0 0 7.5 0 8.3.7L25.1 94s-4.6 2.6-10.7 0L11 72.9z"/>
  <g id="Plus" fill="#51BA83">
    <path d="M43.5 77.4v12.5h-2.8V77.4z"/>
    <path d="M35.9 82.3h12.5v2.8H35.9z"/>
  </g>
  <path fill="#009B9B" stroke="#009B9B" stroke-miterlimit="10" d="M137.9 63.6s-.8-.4-.8-.7c0 0-.5-.4-.3-.5l1-.2s.7-.8 1-.7c0 0 .3-.6 1.2-.4l.4.1s.7-.4.9.5c0 0 .5.4.1.8 0 0-.2.5-1 .5 0 0-.8.1-1 .3-.1 0-1-.2-1.5.3z"/>
  <g id="Pepsi_Muffin">
    <g fill="#51BA83">
      <path d="M91.1 79.5h12.5v2.8H91.1z"/>
      <path d="M91.1 85h12.5v2.8H91.1z"/>
    </g>
    <path fill="#C4D82E" d="M56.2 101.6s.8 1.3 2.1 2c0 0 .9.7 1 .9 0 0 .2.7 2.5 1.1 0 0 8 1.5 12.9 0 0 0 2.1-.6 2.3-.7 0 0 .6-.4.8-.6l.3-.3c.5-.4 1.8-1.5 2.1-1.6 0 0 .5-.2.6-.8l.1-35.2s-.3-1.3-.8-2l-1.4-2.5s-.2-.4-.2-.7c0 0 .2-.2.2-.6 0 0 0-.5-.1-.6 0 0-.4-1-4.9-1.3 0 0-6-.5-9.3 0 0 0-3.7.1-5.9 1.1 0 0-.4.1-.3.7 0 0 .1.6.2.7 0 0-.2 1-.8 1.7 0 0-1.5 2.5-1.6 3l.2 35.7z"/>
    <path fill="#FFF" d="M69.2 104.5s3.7.1 6.2-.3c0 0 3.6-5.3 2.6-15.6 0 0-.8-6.6-1.1-7 0 0-.8-4.6-1-4.7 0 0-1.4-6.4-1.3-8 0 0-.5-7.6.8-8.8h-3.1s-.2 5.3 1.5 9.2c0 0 2.3 9 2.2 12.1 0 0 0 9.6-1.5 12.8.1 0-2.4 6.9-5.3 10.3z"/>
    <path fill="#C4D82E" stroke="#C4D82E" stroke-miterlimit="10" d="M115.4 82.3s-1.1-2.4.4-4c0 0 1.5-3.5 2.3-3.7 0 0 1.7-2.9 2.4-3.2 0 0 1.2-1.8 2.6-1.9 0 0 1.8-1.6 2.6-1.5 0 0 .4-.6.8-.5l.5-.2s.2-.3.3-.3c0 0 2.1-1.7 2.2-2h.3s3.4-3 4.5-3.1c0 0 .4.2.4.3l1.2.1s.3-1 .8.1l4.9-.4s1.6-1.4 4-.3l1-.1s.4-.5 1.1-.4c0 0 1.4-1.4 3.5 1.2 0 0 .6.3.9.6 0 0 1.2.1 2 1.2 0 0 4.6 4.8 6.2 5.8 0 0 2.3 2.2 3.5 4.5 0 0 .1.2 0 .4 0 0 .5.7 1.2 2.6 0 0 2 2.7 2 4.1l.3.3s.1.2-.2.6c0 0 .4.9-.1 1.4l-7.5 16.9s-.8 2.5-1.9 3.3c0 0-3.9 5.5-18.2 5.3 0 0-12.4-.3-15.7-6.2 0 0-.8-1.2-2.1-5L115 82.4s0-.2.4-.1z"/>
  </g>
  <path fill="#009B9B" stroke="#009B9B" stroke-miterlimit="10" d="M145.7 72.7s1.2.2 1.5-1c0 0-.1-1.1-.5-1.4 0 0-.9-1-1.9-.8 0 0-1.5-.4-1.3 1.3 0 0 0 1 1.4 1.4 0-.1.9.4.8.5z"/>
  <path fill="#009B9B" stroke="#009B9B" stroke-miterlimit="10" d="M156 66.4s.3-.2.6-.1c0 0 .1-.5.5-.3 0 0 .2 0 .3.4 0 0 .2.2.4.2 0 0 .9.2 1.4 1.4 0 0 .3.6.7.7 0 0 .1.2-.2.2 0 0 .2.5.1.9 0 0-.8-.8-1.1-.7 0 0-.5-.6-.8-.5 0 0-1-1.1-1.2-1l-.6-1c-.1 0-.2-.1-.1-.2z"/>
  <path fill="#009B9B" stroke="#009B9B" stroke-miterlimit="10" d="M124.6 73.8s-.2-.2-.4-.2c0 0-.2-.7-.8-.6 0 0-.6-.1-.8.2 0 0-1.4.3-1 1.8 0 0-.2.6-.1.7 0 0-.6.4-.4.8 0 0-.1 1.1 1 .7 0 0 .9-.4.8-.7 0 0 .7-.3 1.1-.9 0 0 .2-.5.1-.8 0 .2 1-.1.5-1z"/>
</svg>
