<?xml version="1.0" encoding="utf-8"?>
<!-- Generator: Adobe Illustrator 19.2.1, SVG Export Plug-In . SVG Version: 6.00 Build 0)  -->
<svg version="1.1" id="Layer_1" xmlns="http://www.w3.org/2000/svg" xmlns:xlink="http://www.w3.org/1999/xlink" x="0px" y="0px"
	 width="309.6px" height="172.8px" viewBox="0 0 309.6 172.8" enable-background="new 0 0 309.6 172.8" xml:space="preserve">
<g id="Calories">
	<path fill="#FFFFFF" d="M15,10.4c-1,2.4-3.6,4-6.2,4c-3.9,0-7-3.2-7-7c0-3.7,3-6.9,6.9-6.9c2.2,0,5,1.2,6.3,4.1h-2.8
		c-1-1.1-2.1-1.8-3.6-1.8c-2.2,0-4.3,1.9-4.3,4.6c0,2.5,2.1,4.6,4.4,4.6c1.8,0,2.8-1,3.3-1.7H15z"/>
	<path fill="#FFFFFF" d="M20.3,0.8h1.9l5.6,13.3h-2.7l-1.4-3.4h-4.8l-1.4,3.4h-2.7L20.3,0.8z M19.7,8.4h3.1l-1.5-4.1h0L19.7,8.4z"/>
	<path fill="#FFFFFF" d="M29.3,0.8h2.5v11h4.1v2.3h-6.5V0.8z"/>
	<path fill="#FFFFFF" d="M43.4,0.5c3.8,0,7,3,7,7c0,3.8-3.1,6.9-7,6.9s-7-3.1-7-6.9C36.5,3.6,39.7,0.5,43.4,0.5z M43.4,12.1
		c2.5,0,4.5-2.1,4.5-4.6c0-2.6-2-4.6-4.5-4.6s-4.5,2.1-4.5,4.6C38.9,9.9,40.9,12.1,43.4,12.1z"/>
	<path fill="#FFFFFF" d="M52.2,0.8h4.1c1.5,0,2.5,0.3,3.2,0.9S61,3.4,61,4.9c0,0.9-0.3,2.3-1.3,3.2C59,8.9,58.2,9,57.6,9.2l3.6,4.9
		h-3L54.7,9h0v5.1h-2.5V0.8z M54.6,7.2h1.6c2,0,2.4-1.4,2.4-2.1c0-0.7-0.5-2-2.4-2h-1.6V7.2z"/>
	<path fill="#FFFFFF" d="M62.7,0.8h2.5v13.3h-2.5V0.8z"/>
	<path fill="#FFFFFF" d="M67.6,0.8h7.2v2.3H70v3.3h4.5v2.3H70v3.2h4.7v2.3h-7.2V0.8z"/>
	<path fill="#FFFFFF" d="M78.6,10.3c0.1,1.3,1,1.8,1.8,1.8c1,0,1.8-0.7,1.8-1.7c0-1.4-0.9-1.6-2.5-2.3c-1-0.4-3.2-1-3.2-3.8
		c0-2.1,1.7-3.8,3.9-3.8c1.5,0,3.8,1.1,3.9,3.8h-2.5c-0.1-1.2-0.8-1.5-1.5-1.5c-0.8,0-1.4,0.6-1.4,1.4c0,1.2,0.9,1.4,2.2,1.9
		c1.1,0.4,3.5,1.2,3.5,4.1c0,2.9-2.2,4.2-4.3,4.2c-1.7,0-4.2-1.2-4.3-4.1H78.6z"/>
</g>
<g id="Alcoholmeasurements">
	<path fill="#FFFFFF" d="M11.3,30.6h1.2l3.4,8.1h-1.7l-0.9-2.1h-2.9l-0.9,2.1H7.9L11.3,30.6z M10.9,35.2h1.9l-0.9-2.5h0L10.9,35.2z"
		/>
	<path fill="#FFFFFF" d="M16.8,30.6h1.5v6.7h2.5v1.4h-4V30.6z"/>
	<path fill="#FFFFFF" d="M29.2,36.4c-0.6,1.5-2.2,2.4-3.8,2.4c-2.4,0-4.2-2-4.2-4.3c0-2.2,1.9-4.2,4.2-4.2c1.4,0,3.1,0.7,3.8,2.5
		h-1.7c-0.6-0.7-1.3-1.1-2.2-1.1c-1.3,0-2.7,1.2-2.7,2.8c0,1.5,1.3,2.8,2.7,2.8c1.1,0,1.7-0.6,2-1H29.2z"/>
	<path fill="#FFFFFF" d="M34,30.4c2.3,0,4.3,1.8,4.3,4.3c0,2.3-1.9,4.2-4.3,4.2c-2.3,0-4.3-1.9-4.3-4.2C29.8,32.3,31.7,30.4,34,30.4
		z M34,37.5c1.6,0,2.8-1.3,2.8-2.8c0-1.6-1.2-2.8-2.8-2.8c-1.5,0-2.8,1.3-2.8,2.8C31.3,36.2,32.5,37.5,34,37.5z"/>
	<path fill="#FFFFFF" d="M39.4,30.6h1.5v3.3h2.9v-3.3h1.5v8.1h-1.5v-3.4h-2.9v3.4h-1.5V30.6z"/>
	<path fill="#FFFFFF" d="M50.7,30.4c2.3,0,4.3,1.8,4.3,4.3c0,2.3-1.9,4.2-4.3,4.2c-2.3,0-4.3-1.9-4.3-4.2
		C46.5,32.3,48.4,30.4,50.7,30.4z M50.7,37.5c1.6,0,2.8-1.3,2.8-2.8c0-1.6-1.2-2.8-2.8-2.8c-1.5,0-2.8,1.3-2.8,2.8
		C48,36.2,49.2,37.5,50.7,37.5z"/>
	<path fill="#FFFFFF" d="M56.1,30.6h1.5v6.7h2.5v1.4h-4V30.6z"/>
	<path fill="#A0CF6B" d="M69.7,27.7h-5.3v-2.3h7.9v2.3l-4.8,11.1h-2.7L69.7,27.7z"/>
	<path fill="#FFFFFF" d="M80.1,36.7c-0.5,1.4-1.6,2.2-3.1,2.2c-1.6,0-3.2-1.3-3.2-3.3c0-1.9,1.6-3.2,3.2-3.2c0.8,0,2.4,0.4,3.1,2.2
		h-1.7c-0.2-0.3-0.5-0.9-1.4-0.9c-0.9,0-1.8,0.7-1.8,1.9c0,1,0.7,1.9,1.8,1.9c0.5,0,1-0.2,1.4-0.8H80.1z"/>
	<path fill="#FFFFFF" d="M87.1,38.7h-1.3V38c-0.5,0.6-1.4,1-2.1,1c-1.6,0-3-1.3-3-3.3c0-1.9,1.4-3.2,3.1-3.2c1.2,0,2,0.9,2,1h0v-0.8
		h1.3V38.7z M84,33.7c-1.2,0-1.8,1-1.8,1.9c0,1,0.8,1.9,1.8,1.9c1,0,1.8-0.8,1.8-1.9C85.8,34.4,84.8,33.7,84,33.7z"/>
	<path fill="#FFFFFF" d="M88.2,30.6h1.5v8.1h-1.5V30.6z"/>
	<path fill="#FFFFFF" d="M93.9,32.6h1.3v0.7h0c0.7-0.9,1.7-0.9,2-0.9c2,0,3.1,1.7,3.1,3.2c0,1.8-1.3,3.3-3.1,3.3
		c-1,0-1.5-0.4-1.9-0.8v2.6h-1.5V32.6z M97,37.6c0.8,0,1.8-0.7,1.8-1.9c0-1.1-0.9-1.9-1.8-1.9c-0.9,0-1.8,0.7-1.8,1.9
		C95.3,37,96.4,37.6,97,37.6z"/>
	<path fill="#FFFFFF" d="M102.5,36.3c0.1,0.4,0.6,1.3,1.7,1.3c0.6,0,1.1-0.3,1.4-0.8h1.5c-0.4,1.1-1.5,2.1-2.9,2.1
		c-1.8,0-3.2-1.5-3.2-3.2c0-1.7,1.3-3.3,3.2-3.3c1.9,0,3.2,1.7,3.2,3.2c0,0.3,0,0.5-0.1,0.7H102.5z M105.8,35.1
		c-0.2-1-0.9-1.4-1.7-1.4c-0.5,0-1.5,0.3-1.7,1.4H105.8z"/>
	<path fill="#FFFFFF" d="M108.4,32.6h1.3v0.5h0c0.3-0.4,0.5-0.7,1.3-0.7h0.1v1.4c-1.3,0.1-1.3,1.1-1.3,1.5v3.4h-1.5V32.6z"/>
	<path fill="#FFFFFF" d="M121.1,32.6v5c0,2.9-2.2,3.6-3.3,3.6c-1.3,0-2.5-0.7-3.1-2h1.7c0.6,0.7,1.3,0.7,1.5,0.7
		c0.8,0,1.8-0.6,1.9-1.9l0,0c-0.2,0.3-0.8,1-2,1c-1.5,0-3.1-1.3-3.1-3.3c0-1.9,1.6-3.2,3.1-3.2c1.3,0,1.8,0.7,1.9,1h0v-0.7H121.1z
		 M117.9,33.7c-0.9,0-1.8,0.7-1.8,1.9c0,1.2,0.9,2,1.8,2c0.9,0,1.7-0.7,1.7-2C119.7,34.7,119,33.7,117.9,33.7z"/>
	<path fill="#FFFFFF" d="M122.2,32.6h1.3v0.5h0c0.3-0.4,0.5-0.7,1.3-0.7h0.1v1.4c-1.3,0.1-1.3,1.1-1.3,1.5v3.4h-1.5V32.6z"/>
	<path fill="#FFFFFF" d="M131.8,38.7h-1.3V38c-0.5,0.6-1.4,1-2.1,1c-1.6,0-3-1.3-3-3.3c0-1.9,1.4-3.2,3.1-3.2c1.2,0,2,0.9,2,1h0
		v-0.8h1.3V38.7z M128.6,33.7c-1.2,0-1.8,1-1.8,1.9c0,1,0.8,1.9,1.8,1.9c1,0,1.8-0.8,1.8-1.9C130.4,34.4,129.5,33.7,128.6,33.7z"/>
	<path fill="#FFFFFF" d="M132.9,32.6h1.3v0.5h0c0.1-0.2,0.5-0.7,1.6-0.7c0.3,0,1.2,0.1,1.8,1c0.6-0.9,1.5-1,2-1c1.2,0,1.8,0.6,2,0.9
		c0.2,0.3,0.5,0.9,0.5,1.8v3.6h-1.5v-3.4c0-0.4,0-1.6-1.2-1.6c-0.4,0-0.8,0.2-1,0.6c-0.2,0.4-0.2,1-0.2,1.4v3h-1.5v-3.4
		c0-0.8-0.3-1.6-1.2-1.6c-1.2,0-1.2,1.3-1.2,1.9v3h-1.5V32.6z"/>
	<path fill="#FFFFFF" d="M143,34.9h10.2v1.3H143V34.9z"/>
	<path fill="#FFFFFF" d="M14.6,51.9h-1.3v-0.8c-0.5,0.6-1.4,1-2.1,1c-1.6,0-3-1.3-3-3.3c0-1.9,1.4-3.2,3.1-3.2c1.2,0,2,0.9,2,1h0
		v-0.8h1.3V51.9z M11.4,46.9c-1.2,0-1.8,1-1.8,1.9c0,1,0.8,1.9,1.8,1.9c1,0,1.8-0.8,1.8-1.9C13.2,47.6,12.3,46.9,11.4,46.9z"/>
	<path fill="#FFFFFF" d="M15.7,43.8h1.5v8.1h-1.5V43.8z"/>
	<path fill="#FFFFFF" d="M18.3,45.8h1.3v0.5h0c0.1-0.2,0.5-0.7,1.6-0.7c0.3,0,1.2,0.1,1.8,1c0.6-0.9,1.5-1,2-1c1.2,0,1.8,0.6,2,0.9
		c0.2,0.3,0.5,0.9,0.5,1.8v3.6H26v-3.4c0-0.4,0-1.6-1.2-1.6c-0.4,0-0.8,0.2-1,0.6c-0.2,0.4-0.2,1-0.2,1.4v3h-1.5v-3.4
		c0-0.8-0.3-1.6-1.2-1.6c-1.2,0-1.2,1.3-1.2,1.9v3h-1.5V45.8z"/>
	<path fill="#FFFFFF" d="M28.3,48.9c0-1.8,1.5-3.3,3.3-3.3c1.7,0,3.2,1.4,3.2,3.2c0,2-1.5,3.3-3.2,3.3
		C29.8,52.1,28.3,50.6,28.3,48.9z M33.4,48.9c0-1.1-0.9-1.9-1.8-1.9c-0.8,0-1.8,0.6-1.8,1.9c0,1.2,0.9,1.9,1.8,1.9
		C32.7,50.8,33.4,49.8,33.4,48.9z"/>
	<path fill="#FFFFFF" d="M38.1,47.5c-0.1-0.5-0.4-0.5-0.6-0.5c-0.4,0-0.6,0.3-0.6,0.5c0,0.4,0.3,0.4,1,0.7c0.8,0.2,1.7,0.6,1.7,1.8
		c0,1.4-1.1,2.1-2.1,2.1c-0.6,0-1.4-0.2-1.8-0.8c-0.4-0.5-0.4-0.9-0.5-1.3h1.5c0.1,0.3,0.2,0.8,0.8,0.8c0.5,0,0.7-0.4,0.7-0.6
		c0-0.5-0.3-0.6-1.4-0.9c-0.7-0.2-1.4-0.7-1.4-1.7c0-1.2,1.1-1.9,2-1.9c0.9,0,1.9,0.7,2,1.9H38.1z"/>
	<path fill="#FFFFFF" d="M40.9,47.1h-0.7v-1.3h0.7v-2h1.5v2h0.9v1.3h-0.9v4.8h-1.5V47.1z"/>
	<path fill="#FFFFFF" d="M47.3,47.1h-0.7v-1.3h0.7v-2h1.5v2h0.9v1.3h-0.9v4.8h-1.5V47.1z"/>
	<path fill="#FFFFFF" d="M50.2,43.8h1.5v2.5c0.2-0.2,0.7-0.6,1.6-0.6c0.7,0,1.4,0.4,1.9,0.9c0.5,0.6,0.5,1.5,0.5,1.9v3.4h-1.5v-3.1
		c0-0.7,0-1.8-1.3-1.8c-1.2,0-1.2,1.4-1.2,1.9v3.1h-1.5V43.8z"/>
	<path fill="#FFFFFF" d="M58.1,49.5c0.1,0.4,0.6,1.3,1.7,1.3c0.6,0,1.1-0.3,1.4-0.8h1.5c-0.4,1.1-1.5,2.1-2.9,2.1
		c-1.8,0-3.2-1.5-3.2-3.2c0-1.7,1.3-3.3,3.2-3.3c1.9,0,3.2,1.7,3.2,3.2c0,0.3,0,0.5-0.1,0.7H58.1z M61.4,48.3
		c-0.2-1-0.9-1.4-1.7-1.4c-0.5,0-1.5,0.3-1.7,1.4H61.4z"/>
	<path fill="#FFFFFF" d="M69.4,47.5c-0.1-0.5-0.4-0.5-0.6-0.5c-0.4,0-0.6,0.3-0.6,0.5c0,0.4,0.3,0.4,1,0.7C70,48.4,71,48.7,71,50
		c0,1.4-1.1,2.1-2.1,2.1c-0.6,0-1.4-0.2-1.8-0.8c-0.4-0.5-0.4-0.9-0.5-1.3h1.5c0.1,0.3,0.2,0.8,0.8,0.8c0.5,0,0.7-0.4,0.7-0.6
		c0-0.5-0.3-0.6-1.4-0.9c-0.7-0.2-1.4-0.7-1.4-1.7c0-1.2,1.1-1.9,2-1.9c0.9,0,1.9,0.7,2,1.9H69.4z"/>
	<path fill="#FFFFFF" d="M77.9,51.9h-1.3v-0.8c-0.5,0.6-1.4,1-2.1,1c-1.6,0-3-1.3-3-3.3c0-1.9,1.4-3.2,3.1-3.2c1.2,0,2,0.9,2,1h0
		v-0.8h1.3V51.9z M74.8,46.9c-1.2,0-1.8,1-1.8,1.9c0,1,0.8,1.9,1.8,1.9c1,0,1.8-0.8,1.8-1.9C76.6,47.6,75.6,46.9,74.8,46.9z"/>
	<path fill="#FFFFFF" d="M79,45.8h1.3v0.5h0c0.1-0.2,0.5-0.7,1.6-0.7c0.3,0,1.2,0.1,1.8,1c0.6-0.9,1.5-1,2-1c1.2,0,1.8,0.6,2,0.9
		c0.2,0.3,0.5,0.9,0.5,1.8v3.6h-1.5v-3.4c0-0.4,0-1.6-1.2-1.6c-0.4,0-0.8,0.2-1,0.6c-0.2,0.4-0.2,1-0.2,1.4v3h-1.5v-3.4
		c0-0.8-0.3-1.6-1.2-1.6c-1.2,0-1.2,1.3-1.2,1.9v3H79V45.8z"/>
	<path fill="#FFFFFF" d="M90.7,49.5c0.1,0.4,0.6,1.3,1.7,1.3c0.6,0,1.1-0.3,1.4-0.8h1.5c-0.4,1.1-1.5,2.1-2.9,2.1
		c-1.8,0-3.2-1.5-3.2-3.2c0-1.7,1.3-3.3,3.2-3.3c1.9,0,3.2,1.7,3.2,3.2c0,0.3,0,0.5-0.1,0.7H90.7z M94,48.3c-0.2-1-0.9-1.4-1.7-1.4
		c-0.5,0-1.5,0.3-1.7,1.4H94z"/>
	<path fill="#FFFFFF" d="M105.7,51.9h-1.3v-0.8c-0.5,0.6-1.4,1-2.1,1c-1.6,0-3-1.3-3-3.3c0-1.9,1.4-3.2,3.1-3.2c1.2,0,2,0.9,2,1h0
		v-0.8h1.3V51.9z M102.5,46.9c-1.2,0-1.8,1-1.8,1.9c0,1,0.8,1.9,1.8,1.9c1,0,1.8-0.8,1.8-1.9C104.3,47.6,103.4,46.9,102.5,46.9z"/>
	<path fill="#FFFFFF" d="M109.2,47.5c-0.1-0.5-0.4-0.5-0.6-0.5c-0.4,0-0.6,0.3-0.6,0.5c0,0.4,0.3,0.4,1,0.7c0.8,0.2,1.7,0.6,1.7,1.8
		c0,1.4-1.1,2.1-2.1,2.1c-0.6,0-1.4-0.2-1.8-0.8c-0.4-0.5-0.4-0.9-0.5-1.3h1.5c0.1,0.3,0.2,0.8,0.8,0.8c0.5,0,0.7-0.4,0.7-0.6
		c0-0.5-0.3-0.6-1.4-0.9c-0.7-0.2-1.4-0.7-1.4-1.7c0-1.2,1.1-1.9,2-1.9c0.9,0,1.9,0.7,2,1.9H109.2z"/>
</g>
<g id="Info">
	<path fill="#FFFFFF" d="M184.3,11.8c-0.9,2.2-3.2,3.5-5.5,3.5c-3.4,0-6.2-2.9-6.2-6.2c0-3.3,2.7-6.1,6.1-6.1c2,0,4.4,1,5.6,3.6
		h-2.5c-0.8-1-1.9-1.6-3.2-1.6c-1.9,0-3.9,1.7-3.9,4.1c0,2.2,1.8,4.1,3.9,4.1c1.6,0,2.4-0.9,3-1.5H184.3z"/>
	<path fill="#FFFFFF" d="M185,10.7c0-2.7,2.2-4.8,4.7-4.8c2.5,0,4.7,2,4.7,4.7c0,2.9-2.2,4.8-4.7,4.8C187.1,15.4,185,13.2,185,10.7z
		 M192.3,10.7c0-1.6-1.2-2.8-2.6-2.8c-1.1,0-2.6,0.9-2.6,2.8c0,1.7,1.3,2.8,2.6,2.8C191.3,13.5,192.3,12.1,192.3,10.7z"/>
	<path fill="#FFFFFF" d="M195.7,6.2h2V7h0c0.2-0.3,0.8-1.1,2.3-1.1c0.5,0,1.7,0.1,2.6,1.4c0.9-1.3,2.2-1.4,2.9-1.4
		c1.7,0,2.6,0.9,2.9,1.4c0.4,0.5,0.7,1.3,0.7,2.6v5.2h-2.1v-4.9c0-0.5,0-2.3-1.7-2.3c-0.6,0-1.2,0.3-1.5,0.8c-0.3,0.5-0.3,1.4-0.3,2
		v4.4h-2.1v-4.9c0-1.2-0.5-2.3-1.8-2.3c-1.7,0-1.7,1.9-1.7,2.8v4.4h-2.1V6.2z"/>
	<path fill="#FFFFFF" d="M210.6,6.2h2v1h0c1.1-1.3,2.5-1.3,2.9-1.3c2.9,0,4.5,2.5,4.5,4.7c0,2.6-1.9,4.8-4.5,4.8
		c-1.5,0-2.2-0.6-2.7-1.1v3.8h-2.1V6.2z M215.2,13.5c1.1,0,2.6-1,2.6-2.8c0-1.6-1.2-2.8-2.6-2.8c-1.3,0-2.6,1.1-2.6,2.8
		C212.7,12.6,214.2,13.5,215.2,13.5z"/>
	<path fill="#FFFFFF" d="M230.3,15.1h-2V14c-0.7,0.8-2,1.4-3.1,1.4c-2.3,0-4.3-1.8-4.3-4.8c0-2.7,2-4.7,4.4-4.7
		c1.8,0,2.9,1.3,2.9,1.4h0V6.2h2V15.1z M225.7,7.9c-1.7,0-2.6,1.5-2.6,2.8c0,1.5,1.1,2.7,2.6,2.7c1.5,0,2.6-1.2,2.6-2.8
		C228.3,8.8,226.9,7.9,225.7,7.9z"/>
	<path fill="#FFFFFF" d="M232,6.2h2V7h0c0.4-0.6,0.8-1.1,1.9-1.1h0.2V8c-1.9,0.1-1.9,1.6-1.9,2.1v5H232V6.2z"/>
	<path fill="#FFFFFF" d="M238.8,11.6c0.1,0.6,0.9,1.8,2.4,1.8c0.9,0,1.6-0.4,2-1.1h2.2c-0.5,1.6-2.2,3.1-4.3,3.1
		c-2.6,0-4.7-2.1-4.7-4.7c0-2.5,1.9-4.8,4.7-4.8c2.8,0,4.6,2.4,4.6,4.7c0,0.4-0.1,0.8-0.1,1.1H238.8z M243.7,9.9
		c-0.2-1.4-1.3-2.1-2.4-2.1c-0.8,0-2.1,0.4-2.5,2.1H243.7z"/>
	<path fill="#FFFFFF" d="M256.2,15.1h-2V14h0c-0.4,0.6-1.3,1.4-2.8,1.4c-2.3,0-4.5-1.9-4.5-4.7c0-3,2.4-4.8,4.5-4.8
		c1.3,0,2.1,0.4,2.7,1.1V3.3h2.1V15.1z M251.6,13.5c1.6,0,2.6-1.4,2.6-2.8c0-1.5-1.1-2.8-2.6-2.8c-1.6,0-2.6,1.5-2.6,2.7
		C249,12.3,250.2,13.5,251.6,13.5z"/>
	<path fill="#FFFFFF" d="M262.7,8.1h-1V6.2h1v-3h2.1v3h1.3v1.9h-1.3v7h-2.1V8.1z"/>
	<path fill="#FFFFFF" d="M266.6,10.7c0-2.7,2.2-4.8,4.7-4.8c2.5,0,4.7,2,4.7,4.7c0,2.9-2.2,4.8-4.7,4.8
		C268.7,15.4,266.6,13.2,266.6,10.7z M273.9,10.7c0-1.6-1.2-2.8-2.6-2.8c-1.1,0-2.6,0.9-2.6,2.8c0,1.7,1.3,2.8,2.6,2.8
		C272.8,13.5,273.9,12.1,273.9,10.7z"/>
	<path fill="#FFFFFF" d="M172.9,29.8h2c0.9,0,1.6,0,2.4,0.6c0.5,0.5,0.8,1.1,0.8,1.9c0,0.8-0.2,1.4-0.8,1.9
		c-0.8,0.6-1.5,0.6-2.4,0.6h-0.5v3.1h-1.5V29.8z M174.4,33.4h0.5c0.6,0,1.7,0,1.7-1.1c0-1.1-1-1.1-1.6-1.1h-0.5V33.4z"/>
	<path fill="#FFFFFF" d="M179,29.8h2.5c0.9,0,1.5,0.2,2,0.5c0.5,0.4,1,1,1,2c0,0.5-0.2,1.4-0.8,1.9c-0.5,0.5-0.9,0.6-1.4,0.7l2.2,3
		h-1.8l-2.2-3.1h0v3.1H179V29.8z M180.5,33.7h1c1.2,0,1.5-0.8,1.5-1.3c0-0.5-0.3-1.2-1.5-1.2h-1V33.7z"/>
	<path fill="#FFFFFF" d="M189.6,29.6c2.3,0,4.3,1.8,4.3,4.3c0,2.3-1.9,4.2-4.3,4.2c-2.3,0-4.3-1.9-4.3-4.2
		C185.3,31.5,187.3,29.6,189.6,29.6z M189.6,36.7c1.6,0,2.8-1.3,2.8-2.8c0-1.6-1.2-2.8-2.8-2.8c-1.5,0-2.8,1.3-2.8,2.8
		C186.8,35.4,188,36.7,189.6,36.7z"/>
	<path fill="#FFFFFF" d="M195.6,31.2h-1.5v-1.4h4.5v1.4h-1.5v6.7h-1.5V31.2z"/>
	<path fill="#FFFFFF" d="M199.3,29.8h4.4v1.4h-2.9v2h2.8v1.4h-2.8v1.9h2.9v1.4h-4.4V29.8z"/>
	<path fill="#FFFFFF" d="M205.2,29.8h1.5v8.1h-1.5V29.8z"/>
	<path fill="#FFFFFF" d="M208.2,29.8h1.7l3.4,5.9h0v-5.9h1.5v8.1h-1.7l-3.4-5.9h0v5.9h-1.5V29.8z"/>
	<path fill="#A0CF6B" d="M228.1,24.6h2v9.1h1.4v2.3h-1.4v2h-2.4v-2H222v-2L228.1,24.6z M227.8,33.7v-5h0l-3.1,5H227.8z"/>
	<path fill="#FFFFFF" d="M241.6,35.9c-0.5,1.4-1.6,2.2-3.1,2.2c-1.6,0-3.2-1.3-3.2-3.3c0-1.9,1.6-3.2,3.2-3.2c0.8,0,2.4,0.4,3.1,2.2
		H240c-0.2-0.3-0.5-0.9-1.4-0.9c-0.9,0-1.8,0.7-1.8,1.9c0,1,0.7,1.9,1.8,1.9c0.5,0,1-0.2,1.4-0.8H241.6z"/>
	<path fill="#FFFFFF" d="M248.7,37.9h-1.3v-0.8c-0.5,0.6-1.4,1-2.1,1c-1.6,0-3-1.3-3-3.3c0-1.9,1.4-3.2,3.1-3.2c1.2,0,2,0.9,2,1h0
		v-0.8h1.3V37.9z M245.5,33c-1.2,0-1.8,1-1.8,1.9c0,1,0.8,1.9,1.8,1.9c1,0,1.8-0.8,1.8-1.9C247.3,33.6,246.4,33,245.5,33z"/>
	<path fill="#FFFFFF" d="M249.8,29.8h1.5v8.1h-1.5V29.8z"/>
	<path fill="#FFFFFF" d="M254.9,33.5c-0.1-0.5-0.4-0.5-0.6-0.5c-0.4,0-0.6,0.3-0.6,0.5c0,0.4,0.3,0.4,1,0.7c0.8,0.2,1.7,0.6,1.7,1.8
		c0,1.4-1.1,2.1-2.1,2.1c-0.6,0-1.4-0.2-1.8-0.8c-0.4-0.5-0.4-0.9-0.5-1.3h1.5c0.1,0.3,0.2,0.8,0.8,0.8c0.5,0,0.7-0.4,0.7-0.6
		c0-0.5-0.3-0.6-1.4-0.9c-0.7-0.2-1.4-0.7-1.4-1.7c0-1.2,1.1-1.9,2-1.9c0.9,0,1.9,0.7,2,1.9H254.9z"/>
	<path fill="#FFFFFF" d="M260.3,31.8h1.3v0.7h0c0.7-0.9,1.7-0.9,2-0.9c2,0,3.1,1.7,3.1,3.2c0,1.8-1.3,3.3-3.1,3.3
		c-1,0-1.5-0.4-1.9-0.8V40h-1.5V31.8z M263.4,36.8c0.8,0,1.8-0.7,1.8-1.9c0-1.1-0.9-1.9-1.8-1.9c-0.9,0-1.8,0.7-1.8,1.9
		C261.7,36.2,262.7,36.8,263.4,36.8z"/>
	<path fill="#FFFFFF" d="M268.9,35.5c0.1,0.4,0.6,1.3,1.7,1.3c0.6,0,1.1-0.3,1.4-0.8h1.5c-0.4,1.1-1.5,2.1-2.9,2.1
		c-1.8,0-3.2-1.5-3.2-3.2c0-1.7,1.3-3.3,3.2-3.3c1.9,0,3.2,1.7,3.2,3.2c0,0.3,0,0.5-0.1,0.7H268.9z M272.2,34.4
		c-0.2-1-0.9-1.4-1.7-1.4c-0.5,0-1.5,0.3-1.7,1.4H272.2z"/>
	<path fill="#FFFFFF" d="M274.8,31.8h1.3v0.5h0c0.3-0.4,0.5-0.7,1.3-0.7h0.1V33c-1.3,0.1-1.3,1.1-1.3,1.5v3.4h-1.5V31.8z"/>
	<path fill="#FFFFFF" d="M287.5,31.8v5c0,2.9-2.2,3.6-3.3,3.6c-1.3,0-2.5-0.7-3.1-2h1.7c0.6,0.7,1.3,0.7,1.5,0.7
		c0.8,0,1.8-0.6,1.9-1.9l0,0c-0.2,0.3-0.8,1-2,1c-1.5,0-3.1-1.3-3.1-3.3c0-1.9,1.6-3.2,3.1-3.2c1.3,0,1.8,0.7,1.9,1h0v-0.7H287.5z
		 M284.3,33c-0.9,0-1.8,0.7-1.8,1.9c0,1.2,0.9,2,1.8,2c0.9,0,1.7-0.7,1.7-2C286.1,33.9,285.4,33,284.3,33z"/>
	<path fill="#FFFFFF" d="M288.6,31.8h1.3v0.5h0c0.3-0.4,0.5-0.7,1.3-0.7h0.1V33c-1.3,0.1-1.3,1.1-1.3,1.5v3.4h-1.5V31.8z"/>
	<path fill="#FFFFFF" d="M298.2,37.9h-1.3v-0.8c-0.5,0.6-1.4,1-2.1,1c-1.6,0-3-1.3-3-3.3c0-1.9,1.4-3.2,3.1-3.2c1.2,0,2,0.9,2,1h0
		v-0.8h1.3V37.9z M295,33c-1.2,0-1.8,1-1.8,1.9c0,1,0.8,1.9,1.8,1.9c1,0,1.8-0.8,1.8-1.9C296.8,33.6,295.9,33,295,33z"/>
	<path fill="#FFFFFF" d="M299.3,31.8h1.3v0.5h0c0.1-0.2,0.5-0.7,1.6-0.7c0.3,0,1.2,0.1,1.8,1c0.6-0.9,1.5-1,2-1c1.2,0,1.8,0.6,2,0.9
		c0.2,0.3,0.5,0.9,0.5,1.8v3.6H307v-3.4c0-0.4,0-1.6-1.2-1.6c-0.4,0-0.8,0.2-1,0.6c-0.2,0.4-0.2,1-0.2,1.4v3h-1.5v-3.4
		c0-0.8-0.3-1.6-1.2-1.6c-1.2,0-1.2,1.3-1.2,1.9v3h-1.5V31.8z"/>
	<path fill="#FFFFFF" d="M180.5,57.3c-0.6,1.5-2.2,2.4-3.8,2.4c-2.4,0-4.2-2-4.2-4.3c0-2.2,1.9-4.2,4.2-4.2c1.4,0,3.1,0.7,3.8,2.5
		h-1.7c-0.6-0.7-1.3-1.1-2.2-1.1c-1.3,0-2.7,1.2-2.7,2.8c0,1.5,1.3,2.8,2.7,2.8c1.1,0,1.7-0.6,2-1H180.5z"/>
	<path fill="#FFFFFF" d="M183.7,51.4h1.2l3.4,8.1h-1.7l-0.9-2.1h-2.9l-0.9,2.1h-1.7L183.7,51.4z M183.4,56h1.9l-0.9-2.5h0L183.4,56z
		"/>
	<path fill="#FFFFFF" d="M189.1,51.4h2.5c0.9,0,1.5,0.2,2,0.5s1,1,1,2c0,0.5-0.2,1.4-0.8,1.9c-0.5,0.5-0.9,0.6-1.4,0.7l2.2,3h-1.8
		l-2.2-3.1h0v3.1h-1.5V51.4z M190.6,55.3h1c1.2,0,1.5-0.8,1.5-1.3c0-0.5-0.3-1.2-1.5-1.2h-1V55.3z"/>
	<path fill="#FFFFFF" d="M195.6,51.4h1.6c0.9,0,1.8,0,2.5,0.6c0.4,0.4,0.7,1,0.7,1.5c0,1-0.7,1.4-0.9,1.6c0.5,0.2,1.4,0.6,1.4,2
		c0,1-0.5,1.6-1,1.9c-0.6,0.4-1.6,0.5-2.1,0.5h-2.2V51.4z M197.1,54.6h0.5c0.4,0,1.3,0,1.3-0.9c0-0.5-0.3-0.9-1.2-0.9h-0.6V54.6z
		 M197.1,58.1h0.8c0.3,0,1.5,0,1.5-1.1c0-0.3-0.2-1.1-1.5-1.1h-0.8V58.1z"/>
	<path fill="#FFFFFF" d="M202.9,57.2c0.1,0.8,0.6,1.1,1.1,1.1c0.6,0,1.1-0.4,1.1-1c0-0.8-0.5-1-1.6-1.4c-0.6-0.2-1.9-0.6-1.9-2.3
		c0-1.3,1-2.3,2.4-2.3c0.9,0,2.3,0.7,2.4,2.3h-1.5c-0.1-0.7-0.5-0.9-0.9-0.9c-0.5,0-0.8,0.3-0.8,0.8c0,0.7,0.5,0.9,1.4,1.1
		c0.7,0.2,2.1,0.7,2.1,2.5c0,1.8-1.4,2.6-2.6,2.6c-1,0-2.6-0.7-2.7-2.5H202.9z"/>
	<path fill="#A0CF6B" d="M219.5,46.2h2v9.1h1.4v2.3h-1.4v2h-2.4v-2h-5.7v-2L219.5,46.2z M219.1,55.3v-5h0l-3.1,5H219.1z"/>
	<path fill="#FFFFFF" d="M232.9,57.5c-0.5,1.4-1.6,2.2-3.1,2.2c-1.6,0-3.2-1.3-3.2-3.3c0-1.9,1.6-3.2,3.2-3.2c0.8,0,2.4,0.4,3.1,2.2
		h-1.7c-0.2-0.3-0.5-0.9-1.4-0.9c-0.9,0-1.8,0.7-1.8,1.9c0,1,0.7,1.9,1.8,1.9c0.5,0,1-0.2,1.4-0.8H232.9z"/>
	<path fill="#FFFFFF" d="M240,59.5h-1.3v-0.8c-0.5,0.6-1.4,1-2.1,1c-1.6,0-3-1.3-3-3.3c0-1.9,1.4-3.2,3.1-3.2c1.2,0,2,0.9,2,1h0
		v-0.8h1.3V59.5z M236.8,54.6c-1.2,0-1.8,1-1.8,1.9c0,1,0.8,1.9,1.8,1.9c1,0,1.8-0.8,1.8-1.9C238.6,55.2,237.7,54.6,236.8,54.6z"/>
	<path fill="#FFFFFF" d="M241.1,51.4h1.5v8.1h-1.5V51.4z"/>
	<path fill="#FFFFFF" d="M246.2,55.1c-0.1-0.5-0.4-0.5-0.6-0.5c-0.4,0-0.6,0.3-0.6,0.5c0,0.4,0.3,0.4,1,0.7c0.8,0.2,1.7,0.6,1.7,1.8
		c0,1.4-1.1,2.1-2.1,2.1c-0.6,0-1.4-0.2-1.8-0.8c-0.4-0.5-0.4-0.9-0.5-1.3h1.5c0.1,0.3,0.2,0.8,0.8,0.8c0.5,0,0.7-0.4,0.7-0.6
		c0-0.5-0.3-0.6-1.4-0.9c-0.7-0.2-1.4-0.7-1.4-1.7c0-1.2,1.1-1.9,2-1.9c0.9,0,1.9,0.7,2,1.9H246.2z"/>
	<path fill="#FFFFFF" d="M251.6,53.4h1.3v0.7h0c0.7-0.9,1.7-0.9,2-0.9c2,0,3.1,1.7,3.1,3.2c0,1.8-1.3,3.3-3.1,3.3
		c-1,0-1.5-0.4-1.9-0.8v2.6h-1.5V53.4z M254.8,58.4c0.8,0,1.8-0.7,1.8-1.9c0-1.1-0.9-1.9-1.8-1.9c-0.9,0-1.8,0.7-1.8,1.9
		C253,57.8,254.1,58.4,254.8,58.4z"/>
	<path fill="#FFFFFF" d="M260.2,57.1c0.1,0.4,0.6,1.3,1.7,1.3c0.6,0,1.1-0.3,1.4-0.8h1.5c-0.4,1.1-1.5,2.1-2.9,2.1
		c-1.8,0-3.2-1.5-3.2-3.2c0-1.7,1.3-3.3,3.2-3.3c1.9,0,3.2,1.7,3.2,3.2c0,0.3,0,0.5-0.1,0.7H260.2z M263.6,56
		c-0.2-1-0.9-1.4-1.7-1.4c-0.5,0-1.5,0.3-1.7,1.4H263.6z"/>
	<path fill="#FFFFFF" d="M266.1,53.4h1.3V54h0c0.3-0.4,0.5-0.7,1.3-0.7h0.1v1.4c-1.3,0.1-1.3,1.1-1.3,1.5v3.4h-1.5V53.4z"/>
	<path fill="#FFFFFF" d="M278.8,53.4v5c0,2.9-2.2,3.6-3.3,3.6c-1.3,0-2.5-0.7-3.1-2h1.7c0.6,0.7,1.3,0.7,1.5,0.7
		c0.8,0,1.8-0.6,1.9-1.9l0,0c-0.2,0.3-0.8,1-2,1c-1.5,0-3.1-1.3-3.1-3.3c0-1.9,1.6-3.2,3.1-3.2c1.3,0,1.8,0.7,1.9,1h0v-0.7H278.8z
		 M275.6,54.6c-0.9,0-1.8,0.7-1.8,1.9c0,1.2,0.9,2,1.8,2c0.9,0,1.7-0.7,1.7-2C277.4,55.5,276.7,54.6,275.6,54.6z"/>
	<path fill="#FFFFFF" d="M279.9,53.4h1.3V54h0c0.3-0.4,0.5-0.7,1.3-0.7h0.1v1.4c-1.3,0.1-1.3,1.1-1.3,1.5v3.4h-1.5V53.4z"/>
	<path fill="#FFFFFF" d="M289.5,59.5h-1.3v-0.8c-0.5,0.6-1.4,1-2.1,1c-1.6,0-3-1.3-3-3.3c0-1.9,1.4-3.2,3.1-3.2c1.2,0,2,0.9,2,1h0
		v-0.8h1.3V59.5z M286.3,54.6c-1.2,0-1.8,1-1.8,1.9c0,1,0.8,1.9,1.8,1.9c1,0,1.8-0.8,1.8-1.9C288.1,55.2,287.2,54.6,286.3,54.6z"/>
	<path fill="#FFFFFF" d="M290.6,53.4h1.3v0.5h0c0.1-0.2,0.5-0.7,1.6-0.7c0.3,0,1.2,0.1,1.8,1c0.6-0.9,1.5-1,2-1c1.2,0,1.8,0.6,2,0.9
		c0.2,0.3,0.5,0.9,0.5,1.8v3.6h-1.5v-3.4c0-0.4,0-1.6-1.2-1.6c-0.4,0-0.8,0.2-1,0.6c-0.2,0.4-0.2,1-0.2,1.4v3h-1.5v-3.4
		c0-0.8-0.3-1.6-1.2-1.6c-1.2,0-1.2,1.3-1.2,1.9v3h-1.5V53.4z"/>
	<path fill="#FFFFFF" d="M172.8,73h4.1v1.4h-2.6v2h2.5v1.4h-2.5v3.3h-1.5V73z"/>
	<path fill="#FFFFFF" d="M180.1,73h1.2l3.4,8.1H183l-0.9-2.1h-2.9l-0.9,2.1h-1.7L180.1,73z M179.7,77.6h1.9l-0.9-2.5h0L179.7,77.6z"
		/>
	<path fill="#FFFFFF" d="M186,74.4h-1.5V73h4.5v1.4h-1.5v6.7H186V74.4z"/>
	<path fill="#A0CF6B" d="M197.3,81.1l3-4.5c-0.2,0.1-0.4,0.1-0.6,0.1c-1.9,0-3.9-1.7-3.9-4.3c0-2.8,2.2-4.8,4.6-4.8
		c2.4,0,4.6,1.9,4.6,4.8c0,0.5-0.1,1.1-0.3,1.7c-0.2,0.5-0.5,1-0.8,1.5l-3.7,5.7H197.3z M200.3,69.8c-1.5,0-2.2,1.3-2.2,2.3
		c0,1.4,0.9,2.3,2.2,2.3c1.4,0,2.2-1.3,2.2-2.3C202.5,70.9,201.6,69.8,200.3,69.8z"/>
	<path fill="#FFFFFF" d="M215.1,79.1c-0.5,1.4-1.6,2.2-3.1,2.2c-1.6,0-3.2-1.3-3.2-3.3c0-1.9,1.6-3.2,3.2-3.2c0.8,0,2.4,0.4,3.1,2.2
		h-1.7c-0.2-0.3-0.5-0.9-1.4-0.9c-0.9,0-1.8,0.7-1.8,1.9c0,1,0.7,1.9,1.8,1.9c0.5,0,1-0.2,1.4-0.8H215.1z"/>
	<path fill="#FFFFFF" d="M222.2,81.1h-1.3v-0.8c-0.5,0.6-1.4,1-2.1,1c-1.6,0-3-1.3-3-3.3c0-1.9,1.4-3.2,3.1-3.2c1.2,0,2,0.9,2,1h0
		V75h1.3V81.1z M219,76.2c-1.2,0-1.8,1-1.8,1.9c0,1,0.8,1.9,1.8,1.9c1,0,1.8-0.8,1.8-1.9C220.8,76.8,219.9,76.2,219,76.2z"/>
	<path fill="#FFFFFF" d="M223.3,73h1.5v8.1h-1.5V73z"/>
	<path fill="#FFFFFF" d="M228.4,76.7c-0.1-0.5-0.4-0.5-0.6-0.5c-0.4,0-0.6,0.3-0.6,0.5c0,0.4,0.3,0.4,1,0.7c0.8,0.2,1.7,0.6,1.7,1.8
		c0,1.4-1.1,2.1-2.1,2.1c-0.6,0-1.4-0.2-1.8-0.8c-0.4-0.5-0.4-0.9-0.5-1.3h1.5c0.1,0.3,0.2,0.8,0.8,0.8c0.5,0,0.7-0.4,0.7-0.6
		c0-0.5-0.3-0.6-1.4-0.9c-0.7-0.2-1.4-0.7-1.4-1.7c0-1.2,1.1-1.9,2-1.9c0.9,0,1.9,0.7,2,1.9H228.4z"/>
	<path fill="#FFFFFF" d="M233.8,75h1.3v0.7h0c0.7-0.9,1.7-0.9,2-0.9c2,0,3.1,1.7,3.1,3.2c0,1.8-1.3,3.3-3.1,3.3
		c-1,0-1.5-0.4-1.9-0.8v2.6h-1.5V75z M236.9,80c0.8,0,1.8-0.7,1.8-1.9c0-1.1-0.9-1.9-1.8-1.9c-0.9,0-1.8,0.7-1.8,1.9
		C235.2,79.4,236.2,80,236.9,80z"/>
	<path fill="#FFFFFF" d="M242.4,78.7c0.1,0.4,0.6,1.3,1.7,1.3c0.6,0,1.1-0.3,1.4-0.8h1.5c-0.4,1.1-1.5,2.1-2.9,2.1
		c-1.8,0-3.2-1.5-3.2-3.2c0-1.7,1.3-3.3,3.2-3.3c1.9,0,3.2,1.7,3.2,3.2c0,0.3,0,0.5-0.1,0.7H242.4z M245.7,77.6
		c-0.2-1-0.9-1.4-1.7-1.4c-0.5,0-1.5,0.3-1.7,1.4H245.7z"/>
	<path fill="#FFFFFF" d="M248.3,75h1.3v0.5h0c0.3-0.4,0.5-0.7,1.3-0.7h0.1v1.4c-1.3,0.1-1.3,1.1-1.3,1.5v3.4h-1.5V75z"/>
	<path fill="#FFFFFF" d="M261,75v5c0,2.9-2.2,3.6-3.3,3.6c-1.3,0-2.5-0.7-3.1-2h1.7c0.6,0.7,1.3,0.7,1.5,0.7c0.8,0,1.8-0.6,1.9-1.9
		l0,0c-0.2,0.3-0.8,1-2,1c-1.5,0-3.1-1.3-3.1-3.3c0-1.9,1.6-3.2,3.1-3.2c1.3,0,1.8,0.7,1.9,1h0V75H261z M257.8,76.2
		c-0.9,0-1.8,0.7-1.8,1.9c0,1.2,0.9,2,1.8,2c0.9,0,1.7-0.7,1.7-2C259.5,77.1,258.8,76.2,257.8,76.2z"/>
	<path fill="#FFFFFF" d="M262.1,75h1.3v0.5h0c0.3-0.4,0.5-0.7,1.3-0.7h0.1v1.4c-1.3,0.1-1.3,1.1-1.3,1.5v3.4h-1.5V75z"/>
	<path fill="#FFFFFF" d="M271.7,81.1h-1.3v-0.8c-0.5,0.6-1.4,1-2.1,1c-1.6,0-3-1.3-3-3.3c0-1.9,1.4-3.2,3.1-3.2c1.2,0,2,0.9,2,1h0
		V75h1.3V81.1z M268.5,76.2c-1.2,0-1.8,1-1.8,1.9c0,1,0.8,1.9,1.8,1.9c1,0,1.8-0.8,1.8-1.9C270.3,76.8,269.4,76.2,268.5,76.2z"/>
	<path fill="#FFFFFF" d="M272.8,75h1.3v0.5h0c0.1-0.2,0.5-0.7,1.6-0.7c0.3,0,1.2,0.1,1.8,1c0.6-0.9,1.5-1,2-1c1.2,0,1.8,0.6,2,0.9
		c0.2,0.3,0.5,0.9,0.5,1.8v3.6h-1.5v-3.4c0-0.4,0-1.6-1.2-1.6c-0.4,0-0.8,0.2-1,0.6c-0.2,0.4-0.2,1-0.2,1.4v3h-1.5v-3.4
		c0-0.8-0.3-1.6-1.2-1.6c-1.2,0-1.2,1.3-1.2,1.9v3h-1.5V75z"/>
</g>
<g id="PureFat">
	<g>
		<path fill="#006C38" d="M12,59.2h6.1c2.6,0,4.8,0,7.2,1.9c1.6,1.5,2.3,3.3,2.3,5.6c0,2.3-0.7,4.2-2.3,5.6
			c-2.3,1.9-4.6,1.9-7.2,1.9h-1.6v9.3H12V59.2z M16.5,70.1h1.5c1.9,0,5.1-0.1,5.1-3.3c0-3.2-3.1-3.3-4.9-3.3h-1.6V70.1z"/>
		<path fill="#006C38" d="M34.4,59.2l0,15.5c0,1.2,0,5.2,4.2,5.2s4.2-4,4.2-5.2V59.2h4.5v15.5c0,2-0.3,4.2-1.4,5.8
			c-1.4,2-4,3.6-7.3,3.6c-3.7,0-6.2-2.1-7.3-3.5c-0.8-1.1-1.5-2.9-1.5-5.9V59.2H34.4z"/>
		<path fill="#006C38" d="M51.3,59.2h7.5c2.8,0,4.6,0.5,5.9,1.6c1.4,1.1,2.9,3.1,2.9,5.9c0,1.6-0.6,4.2-2.3,5.8
			c-1.5,1.4-2.8,1.7-4.1,2l6.6,9h-5.5l-6.5-9.3h-0.1v9.3h-4.5V59.2z M55.8,70.9h2.9c3.7,0,4.4-2.5,4.4-3.8c0-1.4-0.8-3.7-4.4-3.7
			h-2.9V70.9z"/>
		<path fill="#006C38" d="M70.3,59.2h13.1v4.2h-8.6v6h8.2v4.2h-8.2v5.8h8.6v4.2H70.3V59.2z"/>
		<path fill="#006C38" d="M96.7,59.2h12.4v4.2h-7.9v6h7.6v4.2h-7.6v10h-4.5V59.2z"/>
		<path fill="#006C38" d="M118.5,59.2h3.5l10.2,24.4h-5l-2.6-6.3h-8.7l-2.6,6.3h-5L118.5,59.2z M117.4,73.1h5.6l-2.8-7.5h-0.1
			L117.4,73.1z"/>
		<path fill="#006C38" d="M136.4,63.4h-4.5v-4.2h13.6v4.2h-4.6v20.2h-4.5V63.4z"/>
	</g>
	<g>
		<path fill="#C4D82E" d="M9,59.2h6.1c2.6,0,4.8,0,7.2,1.9c1.6,1.5,2.3,3.3,2.3,5.6c0,2.3-0.7,4.2-2.3,5.6c-2.3,1.9-4.6,1.9-7.2,1.9
			h-1.6v9.3H9V59.2z M13.5,70.1h1.5c1.9,0,5.1-0.1,5.1-3.3c0-3.2-3.1-3.3-4.9-3.3h-1.6V70.1z"/>
		<path fill="#C4D82E" d="M31.4,59.2l0,15.5c0,1.2,0,5.2,4.2,5.2s4.2-4,4.2-5.2V59.2h4.5v15.5c0,2-0.3,4.2-1.4,5.8
			c-1.4,2-4,3.6-7.3,3.6c-3.7,0-6.2-2.1-7.3-3.5c-0.8-1.1-1.5-2.9-1.5-5.9V59.2H31.4z"/>
		<path fill="#C4D82E" d="M48.3,59.2h7.5c2.8,0,4.6,0.5,5.9,1.6s2.9,3.1,2.9,5.9c0,1.6-0.6,4.2-2.3,5.8c-1.5,1.4-2.8,1.7-4.1,2
			l6.6,9h-5.5l-6.5-9.3h-0.1v9.3h-4.5V59.2z M52.8,70.9h2.9c3.7,0,4.4-2.5,4.4-3.8c0-1.4-0.8-3.7-4.4-3.7h-2.9V70.9z"/>
		<path fill="#C4D82E" d="M67.3,59.2h13.1v4.2h-8.6v6h8.2v4.2h-8.2v5.8h8.6v4.2H67.3V59.2z"/>
		<path fill="#C4D82E" d="M93.7,59.2h12.4v4.2h-7.9v6h7.6v4.2h-7.6v10h-4.5V59.2z"/>
		<path fill="#C4D82E" d="M115.5,59.2h3.5l10.2,24.4h-5l-2.6-6.3h-8.7l-2.6,6.3h-5L115.5,59.2z M114.4,73.1h5.6l-2.8-7.5h-0.1
			L114.4,73.1z"/>
		<path fill="#C4D82E" d="M133.4,63.4h-4.5v-4.2h13.6v4.2h-4.6v20.2h-4.5V63.4z"/>
	</g>
</g>
<g id="Words">
	<path fill="#FFFFFF" d="M119.4,115.8h1.1l1,4.1h0l1-4.1h0.8l1,4.1h0l1-4.1h1.1l-1.7,5.9h-0.9l-1-3.9h0l-1,3.9h-0.9L119.4,115.8z"/>
	<path fill="#FFFFFF" d="M127,115.8h1.1v1.8c0.1-0.1,0.5-0.5,1.2-0.5c0.5,0,1,0.3,1.4,0.7c0.4,0.4,0.4,1.1,0.4,1.4v2.5h-1.1v-2.3
		c0-0.5,0-1.3-0.9-1.3c-0.9,0-0.9,1-0.9,1.4v2.3H127V115.8z"/>
	<path fill="#FFFFFF" d="M132.7,120c0,0.3,0.5,0.9,1.2,0.9c0.5,0,0.8-0.2,1-0.6h1.1c-0.3,0.8-1.1,1.5-2.1,1.5
		c-1.3,0-2.3-1.1-2.3-2.4c0-1.3,1-2.4,2.3-2.4c1.4,0,2.3,1.2,2.3,2.3c0,0.2,0,0.4-0.1,0.5H132.7z M135.1,119.1c-0.1-0.7-0.7-1-1.2-1
		c-0.4,0-1.1,0.2-1.3,1H135.1z"/>
	<path fill="#FFFFFF" d="M136.9,117.3h1v0.4c0.2-0.2,0.5-0.5,1.2-0.5c0.4,0,1,0.2,1.3,0.6c0.4,0.5,0.4,1.2,0.4,1.6v2.4h-1.1v-2.2
		c0-0.4,0-1.4-0.9-1.4c-0.2,0-0.5,0.1-0.7,0.4c-0.2,0.3-0.2,0.7-0.2,1.1v2.1h-1.1V117.3z"/>
	<path fill="#FFFFFF" d="M143.9,115.8h1.1v1h-1.1V115.8z M143.9,117.3h1.1v4.4h-1.1V117.3z"/>
	<path fill="#FFFFFF" d="M146.1,118.2h-0.5v-0.9h0.5v-1.5h1.1v1.5h0.6v0.9h-0.6v3.5h-1.1V118.2z"/>
	<path fill="#FFFFFF" d="M154.9,120.3c-0.4,1-1.2,1.6-2.2,1.6c-1.1,0-2.4-0.9-2.4-2.4c0-1.4,1.1-2.4,2.4-2.4c0.6,0,1.8,0.3,2.2,1.6
		h-1.2c-0.1-0.2-0.4-0.6-1-0.6c-0.6,0-1.3,0.5-1.3,1.4c0,0.8,0.5,1.4,1.3,1.4c0.4,0,0.7-0.2,1-0.6H154.9z"/>
	<path fill="#FFFFFF" d="M155.4,119.5c0-1.3,1.1-2.4,2.4-2.4c1.3,0,2.4,1,2.4,2.4c0,1.5-1.1,2.4-2.4,2.4
		C156.4,121.9,155.4,120.8,155.4,119.5z M159,119.5c0-0.8-0.6-1.4-1.3-1.4c-0.6,0-1.3,0.5-1.3,1.4c0,0.8,0.6,1.4,1.3,1.4
		C158.5,120.9,159,120.2,159,119.5z"/>
	<path fill="#FFFFFF" d="M160.7,117.3h1v0.4h0c0.1-0.1,0.4-0.5,1.2-0.5c0.2,0,0.9,0.1,1.3,0.7c0.5-0.7,1.1-0.7,1.4-0.7
		c0.9,0,1.3,0.5,1.5,0.7c0.2,0.2,0.3,0.7,0.3,1.3v2.6h-1.1v-2.5c0-0.3,0-1.2-0.8-1.2c-0.3,0-0.6,0.2-0.7,0.4c-0.2,0.3-0.2,0.7-0.2,1
		v2.2h-1.1v-2.5c0-0.6-0.2-1.2-0.9-1.2c-0.8,0-0.8,0.9-0.8,1.4v2.2h-1.1V117.3z"/>
	<path fill="#FFFFFF" d="M169.2,120c0,0.3,0.5,0.9,1.2,0.9c0.5,0,0.8-0.2,1-0.6h1.1c-0.3,0.8-1.1,1.5-2.1,1.5
		c-1.3,0-2.3-1.1-2.3-2.4c0-1.3,1-2.4,2.3-2.4c1.4,0,2.3,1.2,2.3,2.3c0,0.2,0,0.4-0.1,0.5H169.2z M171.6,119.1c-0.1-0.7-0.7-1-1.2-1
		c-0.4,0-1.1,0.2-1.3,1H171.6z"/>
	<path fill="#FFFFFF" d="M175.1,118.5c-0.1-0.4-0.3-0.4-0.4-0.4c-0.3,0-0.4,0.2-0.4,0.4c0,0.3,0.2,0.3,0.8,0.5
		c0.6,0.2,1.2,0.4,1.2,1.3c0,1-0.8,1.6-1.6,1.6c-0.4,0-1-0.2-1.3-0.6c-0.3-0.3-0.3-0.7-0.3-1h1.1c0,0.2,0.1,0.6,0.6,0.6
		c0.3,0,0.5-0.3,0.5-0.4c0-0.3-0.2-0.4-1-0.7c-0.5-0.2-1-0.5-1-1.3c0-0.9,0.8-1.4,1.5-1.4c0.7,0,1.4,0.5,1.4,1.4H175.1z"/>
	<path fill="#FFFFFF" d="M179.4,118.2h-0.5v-0.9h0.5v-1.5h1.1v1.5h0.6v0.9h-0.6v3.5h-1.1V118.2z"/>
	<path fill="#FFFFFF" d="M181.3,119.5c0-1.3,1.1-2.4,2.4-2.4c1.3,0,2.4,1,2.4,2.4c0,1.5-1.1,2.4-2.4,2.4
		C182.3,121.9,181.3,120.8,181.3,119.5z M184.9,119.5c0-0.8-0.6-1.4-1.3-1.4c-0.6,0-1.3,0.5-1.3,1.4c0,0.8,0.6,1.4,1.3,1.4
		C184.4,120.9,184.9,120.2,184.9,119.5z"/>
	<path fill="#FFFFFF" d="M188.5,117.3h1.1l0.8,2.7h0l0.7-2.7h0.8l0.7,2.7h0l0.8-2.7h1.1l-1.6,4.4h-0.7l-0.8-2.9h0l-0.8,2.9h-0.7
		L188.5,117.3z"/>
	<path fill="#FFFFFF" d="M196.1,120c0,0.3,0.5,0.9,1.2,0.9c0.5,0,0.8-0.2,1-0.6h1.1c-0.3,0.8-1.1,1.5-2.1,1.5
		c-1.3,0-2.3-1.1-2.3-2.4c0-1.3,1-2.4,2.3-2.4c1.4,0,2.3,1.2,2.3,2.3c0,0.2,0,0.4-0.1,0.5H196.1z M198.5,119.1c-0.1-0.7-0.7-1-1.2-1
		c-0.4,0-1.1,0.2-1.3,1H198.5z"/>
	<path fill="#FFFFFF" d="M200.2,115.8h1.1v1h-1.1V115.8z M200.2,117.3h1.1v4.4h-1.1V117.3z"/>
	<path fill="#FFFFFF" d="M206.7,117.3v3.6c0,2.1-1.6,2.6-2.4,2.6c-0.9,0-1.8-0.5-2.2-1.5h1.2c0.4,0.5,0.9,0.5,1.1,0.5
		c0.6,0,1.3-0.4,1.4-1.4l0,0c-0.1,0.2-0.6,0.7-1.5,0.7c-1.1,0-2.3-0.9-2.3-2.4c0-1.4,1.1-2.3,2.3-2.3c0.9,0,1.3,0.5,1.4,0.7h0v-0.5
		H206.7z M204.3,118.1c-0.6,0-1.3,0.5-1.3,1.4c0,0.9,0.7,1.4,1.3,1.4c0.6,0,1.3-0.5,1.3-1.4C205.6,118.8,205.1,118.1,204.3,118.1z"
		/>
	<path fill="#FFFFFF" d="M207.4,115.8h1.1v1.8c0.1-0.1,0.5-0.5,1.2-0.5c0.5,0,1,0.3,1.4,0.7c0.4,0.4,0.4,1.1,0.4,1.4v2.5h-1.1v-2.3
		c0-0.5,0-1.3-0.9-1.3c-0.9,0-0.9,1-0.9,1.4v2.3h-1.1V115.8z"/>
	<path fill="#FFFFFF" d="M212.5,118.2H212v-0.9h0.5v-1.5h1.1v1.5h0.6v0.9h-0.6v3.5h-1.1V118.2z"/>
	<path fill="#FFFFFF" d="M216.9,115.8h1.1v5.9h-1.1V115.8z"/>
	<path fill="#FFFFFF" d="M218.6,119.5c0-1.3,1.1-2.4,2.4-2.4c1.3,0,2.4,1,2.4,2.4c0,1.5-1.1,2.4-2.4,2.4
		C219.6,121.9,218.6,120.8,218.6,119.5z M222.2,119.5c0-0.8-0.6-1.4-1.3-1.4c-0.6,0-1.3,0.5-1.3,1.4c0,0.8,0.6,1.4,1.3,1.4
		C221.7,120.9,222.2,120.2,222.2,119.5z"/>
	<path fill="#FFFFFF" d="M225.7,118.5c-0.1-0.4-0.3-0.4-0.4-0.4c-0.3,0-0.4,0.2-0.4,0.4c0,0.3,0.2,0.3,0.8,0.5
		c0.6,0.2,1.2,0.4,1.2,1.3c0,1-0.8,1.6-1.6,1.6c-0.4,0-1-0.2-1.3-0.6c-0.3-0.3-0.3-0.7-0.3-1h1.1c0,0.2,0.1,0.6,0.6,0.6
		c0.3,0,0.5-0.3,0.5-0.4c0-0.3-0.2-0.4-1-0.7c-0.5-0.2-1-0.5-1-1.3c0-0.9,0.8-1.4,1.5-1.4c0.7,0,1.4,0.5,1.4,1.4H225.7z"/>
	<path fill="#FFFFFF" d="M229.2,118.5c-0.1-0.4-0.3-0.4-0.4-0.4c-0.3,0-0.4,0.2-0.4,0.4c0,0.3,0.2,0.3,0.8,0.5
		c0.6,0.2,1.2,0.4,1.2,1.3c0,1-0.8,1.6-1.6,1.6c-0.4,0-1-0.2-1.3-0.6c-0.3-0.3-0.3-0.7-0.3-1h1.1c0,0.2,0.1,0.6,0.6,0.6
		c0.3,0,0.5-0.3,0.5-0.4c0-0.3-0.2-0.4-1-0.7c-0.5-0.2-1-0.5-1-1.3c0-0.9,0.8-1.4,1.5-1.4c0.7,0,1.4,0.5,1.4,1.4H229.2z"/>
	<path fill="#FFFFFF" d="M235.6,123c-0.3-0.1-0.6-0.2-1.1-0.7c-0.3-0.4-1.1-1.4-1.1-2.9c0-1.2,0.5-2.3,1.2-3c0.4-0.4,0.7-0.5,1-0.7
		v1.2c-0.8,0.6-1.1,1.6-1.1,2.5c0,1.3,0.7,2.2,1.1,2.5V123z"/>
	<path fill="#FFFFFF" d="M236,119.5c0-1.3,1.1-2.4,2.4-2.4c1.3,0,2.4,1,2.4,2.4c0,1.5-1.1,2.4-2.4,2.4
		C237.1,121.9,236,120.8,236,119.5z M239.7,119.5c0-0.8-0.6-1.4-1.3-1.4c-0.6,0-1.3,0.5-1.3,1.4c0,0.8,0.6,1.4,1.3,1.4
		C239.1,120.9,239.7,120.2,239.7,119.5z"/>
	<path fill="#FFFFFF" d="M241.4,117.3h1v0.4h0c0.2-0.3,0.4-0.5,1-0.5h0.1v1c-1,0-1,0.8-1,1.1v2.5h-1.1V117.3z"/>
	<path fill="#FFFFFF" d="M250.7,117.3v3.6c0,2.1-1.6,2.6-2.4,2.6c-0.9,0-1.8-0.5-2.2-1.5h1.2c0.4,0.5,0.9,0.5,1.1,0.5
		c0.6,0,1.3-0.4,1.4-1.4l0,0c-0.1,0.2-0.6,0.7-1.5,0.7c-1.1,0-2.3-0.9-2.3-2.4c0-1.4,1.1-2.3,2.3-2.3c0.9,0,1.3,0.5,1.4,0.7h0v-0.5
		H250.7z M248.3,118.1c-0.6,0-1.3,0.5-1.3,1.4c0,0.9,0.7,1.4,1.3,1.4c0.6,0,1.3-0.5,1.3-1.4C249.6,118.8,249.1,118.1,248.3,118.1z"
		/>
	<path fill="#FFFFFF" d="M256,121.7h-1v-0.6c-0.3,0.4-1,0.7-1.6,0.7c-1.1,0-2.2-0.9-2.2-2.4c0-1.4,1-2.3,2.2-2.3
		c0.9,0,1.4,0.6,1.5,0.7h0v-0.6h1V121.7z M253.7,118.1c-0.9,0-1.3,0.8-1.3,1.4c0,0.8,0.6,1.4,1.3,1.4c0.7,0,1.3-0.6,1.3-1.4
		C255,118.6,254.4,118.1,253.7,118.1z"/>
	<path fill="#FFFFFF" d="M256.8,115.8h1.1v1h-1.1V115.8z M256.8,117.3h1.1v4.4h-1.1V117.3z"/>
	<path fill="#FFFFFF" d="M258.8,117.3h1v0.4c0.2-0.2,0.5-0.5,1.2-0.5c0.4,0,1,0.2,1.3,0.6c0.4,0.5,0.4,1.2,0.4,1.6v2.4h-1.1v-2.2
		c0-0.4,0-1.4-0.9-1.4c-0.2,0-0.5,0.1-0.7,0.4c-0.2,0.3-0.2,0.7-0.2,1.1v2.1h-1.1V117.3z"/>
	<path fill="#FFFFFF" d="M263.4,115.7c0.3,0.1,0.6,0.2,1.1,0.7c0.3,0.4,1.1,1.4,1.1,2.9c0,1.2-0.5,2.3-1.2,3c-0.4,0.4-0.7,0.5-1,0.7
		v-1.2c0.8-0.6,1.1-1.6,1.1-2.5c0-1.3-0.7-2.2-1.1-2.5V115.7z"/>
	<path fill="#FFFFFF" d="M119.8,125.4h1.1v1h-1.1V125.4z M119.8,126.9h1.1v4.4h-1.1V126.9z"/>
	<path fill="#FFFFFF" d="M121.9,127.8h-0.5v-0.9h0.5v-1.5h1.1v1.5h0.6v0.9H123v3.5h-1.1V127.8z"/>
	<path fill="#FFFFFF" d="M130.2,126.9v4.4h-1v-0.4h0c-0.2,0.2-0.5,0.6-1.1,0.6c-0.8,0-1.3-0.4-1.5-0.7c-0.3-0.5-0.3-1.2-0.3-1.6
		v-2.3h1.1v2.3c0,0.4,0,1.3,0.9,1.3c0.7,0,0.9-0.6,0.9-1.3v-2.3H130.2z"/>
	<path fill="#FFFFFF" d="M131.1,125.4h1.1v5.9h-1.1V125.4z"/>
	<path fill="#FFFFFF" d="M133.3,127.8h-0.5v-0.9h0.5v-1.5h1.1v1.5h0.6v0.9h-0.6v3.5h-1.1V127.8z"/>
	<path fill="#FFFFFF" d="M135.4,125.4h1.1v1h-1.1V125.4z M135.4,126.9h1.1v4.4h-1.1V126.9z"/>
	<path fill="#FFFFFF" d="M137.4,126.9h1v0.4h0c0.1-0.1,0.4-0.5,1.2-0.5c0.2,0,0.9,0.1,1.3,0.7c0.5-0.7,1.1-0.7,1.4-0.7
		c0.9,0,1.3,0.5,1.5,0.7c0.2,0.2,0.3,0.7,0.3,1.3v2.6H143v-2.5c0-0.3,0-1.2-0.8-1.2c-0.3,0-0.6,0.2-0.7,0.4c-0.2,0.3-0.2,0.7-0.2,1
		v2.2h-1.1v-2.5c0-0.6-0.2-1.2-0.9-1.2c-0.8,0-0.8,0.9-0.8,1.4v2.2h-1.1V126.9z"/>
	<path fill="#FFFFFF" d="M149.3,131.3h-1v-0.6c-0.3,0.4-1,0.7-1.6,0.7c-1.1,0-2.2-0.9-2.2-2.4c0-1.4,1-2.3,2.2-2.3
		c0.9,0,1.4,0.6,1.5,0.7h0v-0.6h1V131.3z M147,127.7c-0.9,0-1.3,0.8-1.3,1.4c0,0.8,0.6,1.4,1.3,1.4c0.7,0,1.3-0.6,1.3-1.4
		C148.3,128.2,147.7,127.7,147,127.7z"/>
	<path fill="#FFFFFF" d="M150.5,127.8h-0.5v-0.9h0.5v-1.5h1.1v1.5h0.6v0.9h-0.6v3.5h-1.1V127.8z"/>
	<path fill="#FFFFFF" d="M153.5,129.6c0,0.3,0.5,0.9,1.2,0.9c0.5,0,0.8-0.2,1-0.6h1.1c-0.3,0.8-1.1,1.5-2.1,1.5
		c-1.3,0-2.3-1.1-2.3-2.4c0-1.3,1-2.4,2.3-2.4c1.4,0,2.3,1.2,2.3,2.3c0,0.2,0,0.4-0.1,0.5H153.5z M156,128.7c-0.1-0.7-0.7-1-1.2-1
		c-0.4,0-1.1,0.2-1.3,1H156z"/>
	<path fill="#FFFFFF" d="M157.7,125.4h1.1v5.9h-1.1V125.4z"/>
	<path fill="#FFFFFF" d="M160.9,130.9l-1.6-4h1.2l1,2.8l1.1-2.8h1.2l-2.6,5.9h-1.1L160.9,130.9z"/>
	<path fill="#FFFFFF" d="M166.5,125.4h1.1v1.9c0.4-0.4,0.9-0.6,1.4-0.6c1.4,0,2.2,1.2,2.2,2.4c0,0.9-0.6,2.4-2.2,2.4
		c-0.9,0-1.2-0.4-1.5-0.7v0.5h-1V125.4z M168.8,130.5c0.7,0,1.3-0.5,1.3-1.4c0-0.9-0.6-1.4-1.3-1.4c-0.8,0-1.3,0.7-1.3,1.3
		C167.5,130,168.2,130.5,168.8,130.5z"/>
	<path fill="#FFFFFF" d="M171.6,129.1c0-1.3,1.1-2.4,2.4-2.4c1.3,0,2.4,1,2.4,2.4c0,1.5-1.1,2.4-2.4,2.4
		C172.6,131.5,171.6,130.4,171.6,129.1z M175.2,129.1c0-0.8-0.6-1.4-1.3-1.4c-0.6,0-1.3,0.5-1.3,1.4c0,0.8,0.6,1.4,1.3,1.4
		C174.7,130.5,175.2,129.8,175.2,129.1z"/>
	<path fill="#FFFFFF" d="M176.9,125.4h1.1v1h-1.1V125.4z M176.9,126.9h1.1v4.4h-1.1V126.9z"/>
	<path fill="#FFFFFF" d="M178.8,125.4h1.1v5.9h-1.1V125.4z"/>
	<path fill="#FFFFFF" d="M182.5,128.1c-0.1-0.4-0.3-0.4-0.4-0.4c-0.3,0-0.4,0.2-0.4,0.4c0,0.3,0.2,0.3,0.8,0.5
		c0.6,0.2,1.2,0.4,1.2,1.3c0,1-0.8,1.6-1.6,1.6c-0.4,0-1-0.2-1.3-0.6c-0.3-0.3-0.3-0.7-0.3-1h1.1c0,0.2,0.1,0.6,0.6,0.6
		c0.3,0,0.5-0.3,0.5-0.4c0-0.3-0.2-0.4-1-0.7c-0.5-0.2-1-0.5-1-1.3c0-0.9,0.8-1.4,1.5-1.4c0.7,0,1.4,0.5,1.4,1.4H182.5z"/>
	<path fill="#FFFFFF" d="M191,131.3h-1v-0.5h0c-0.2,0.3-0.7,0.7-1.4,0.7c-1.1,0-2.3-0.9-2.3-2.4c0-1.5,1.2-2.4,2.3-2.4
		c0.6,0,1,0.2,1.3,0.5v-1.9h1.1V131.3z M188.7,130.5c0.8,0,1.3-0.7,1.3-1.4c0-0.7-0.6-1.4-1.3-1.4c-0.8,0-1.3,0.7-1.3,1.4
		C187.4,129.9,188,130.5,188.7,130.5z"/>
	<path fill="#FFFFFF" d="M191.6,129.1c0-1.3,1.1-2.4,2.4-2.4c1.3,0,2.4,1,2.4,2.4c0,1.5-1.1,2.4-2.4,2.4
		C192.6,131.5,191.6,130.4,191.6,129.1z M195.2,129.1c0-0.8-0.6-1.4-1.3-1.4c-0.6,0-1.3,0.5-1.3,1.4c0,0.8,0.6,1.4,1.3,1.4
		C194.7,130.5,195.2,129.8,195.2,129.1z"/>
	<path fill="#FFFFFF" d="M196.4,126.9h1.1l0.8,2.7h0l0.7-2.7h0.8l0.7,2.7h0l0.8-2.7h1.1l-1.6,4.4h-0.7l-0.8-2.9h0l-0.8,2.9H198
		L196.4,126.9z"/>
	<path fill="#FFFFFF" d="M203.2,126.9h1v0.4c0.2-0.2,0.5-0.5,1.2-0.5c0.4,0,1,0.2,1.3,0.6c0.4,0.5,0.4,1.2,0.4,1.6v2.4H206v-2.2
		c0-0.4,0-1.4-0.9-1.4c-0.2,0-0.5,0.1-0.7,0.4c-0.2,0.3-0.2,0.7-0.2,1.1v2.1h-1.1V126.9z"/>
	<path fill="#FFFFFF" d="M210.5,127.8h-0.5v-0.9h0.5v-1.5h1.1v1.5h0.6v0.9h-0.6v3.5h-1.1V127.8z"/>
	<path fill="#FFFFFF" d="M212.4,129.1c0-1.3,1.1-2.4,2.4-2.4c1.3,0,2.4,1,2.4,2.4c0,1.5-1.1,2.4-2.4,2.4
		C213.4,131.5,212.4,130.4,212.4,129.1z M216,129.1c0-0.8-0.6-1.4-1.3-1.4c-0.6,0-1.3,0.5-1.3,1.4c0,0.8,0.6,1.4,1.3,1.4
		C215.5,130.5,216,129.8,216,129.1z"/>
	<path fill="#FFFFFF" d="M224.4,129.9c-0.4,1-1.2,1.6-2.2,1.6c-1.1,0-2.4-0.9-2.4-2.4c0-1.4,1.1-2.4,2.4-2.4c0.6,0,1.8,0.3,2.2,1.6
		h-1.2c-0.1-0.2-0.4-0.6-1-0.6c-0.6,0-1.3,0.5-1.3,1.4c0,0.8,0.5,1.4,1.3,1.4c0.4,0,0.7-0.2,1-0.6H224.4z"/>
	<path fill="#FFFFFF" d="M229.5,131.3h-1v-0.6c-0.3,0.4-1,0.7-1.6,0.7c-1.1,0-2.2-0.9-2.2-2.4c0-1.4,1-2.3,2.2-2.3
		c0.9,0,1.4,0.6,1.5,0.7h0v-0.6h1V131.3z M227.2,127.7c-0.9,0-1.3,0.8-1.3,1.4c0,0.8,0.6,1.4,1.3,1.4c0.7,0,1.3-0.6,1.3-1.4
		C228.5,128.2,227.9,127.7,227.2,127.7z"/>
	<path fill="#FFFFFF" d="M230.4,125.4h1.1v5.9h-1.1V125.4z"/>
	<path fill="#FFFFFF" d="M232,129.1c0-1.3,1.1-2.4,2.4-2.4c1.3,0,2.4,1,2.4,2.4c0,1.5-1.1,2.4-2.4,2.4
		C233.1,131.5,232,130.4,232,129.1z M235.7,129.1c0-0.8-0.6-1.4-1.3-1.4c-0.6,0-1.3,0.5-1.3,1.4c0,0.8,0.6,1.4,1.3,1.4
		C235.2,130.5,235.7,129.8,235.7,129.1z"/>
	<path fill="#FFFFFF" d="M237.5,126.9h1v0.4h0c0.2-0.3,0.4-0.5,1-0.5h0.1v1c-1,0-1,0.8-1,1.1v2.5h-1.1V126.9z"/>
	<path fill="#FFFFFF" d="M240.1,125.4h1.1v1h-1.1V125.4z M240.1,126.9h1.1v4.4h-1.1V126.9z"/>
	<path fill="#FFFFFF" d="M243,129.6c0,0.3,0.5,0.9,1.2,0.9c0.5,0,0.8-0.2,1-0.6h1.1c-0.3,0.8-1.1,1.5-2.1,1.5
		c-1.3,0-2.3-1.1-2.3-2.4c0-1.3,1-2.4,2.3-2.4c1.4,0,2.3,1.2,2.3,2.3c0,0.2,0,0.4-0.1,0.5H243z M245.4,128.7c-0.1-0.7-0.7-1-1.2-1
		c-0.4,0-1.1,0.2-1.3,1H245.4z"/>
	<path fill="#FFFFFF" d="M248.9,128.1c-0.1-0.4-0.3-0.4-0.4-0.4c-0.3,0-0.4,0.2-0.4,0.4c0,0.3,0.2,0.3,0.8,0.5
		c0.6,0.2,1.2,0.4,1.2,1.3c0,1-0.8,1.6-1.6,1.6c-0.4,0-1-0.2-1.3-0.6c-0.3-0.3-0.3-0.7-0.3-1h1.1c0,0.2,0.1,0.6,0.6,0.6
		c0.3,0,0.5-0.3,0.5-0.4c0-0.3-0.2-0.4-1-0.7c-0.5-0.2-1-0.5-1-1.3c0-0.9,0.8-1.4,1.5-1.4c0.7,0,1.4,0.5,1.4,1.4H248.9z"/>
	<path fill="#FFFFFF" d="M252.9,125.4h1.1v1h-1.1V125.4z M252.9,126.9h1.1v4.4h-1.1V126.9z"/>
	<path fill="#FFFFFF" d="M254.8,126.9h1v0.4c0.2-0.2,0.5-0.5,1.2-0.5c0.4,0,1,0.2,1.3,0.6c0.4,0.5,0.4,1.2,0.4,1.6v2.4h-1.1v-2.2
		c0-0.4,0-1.4-0.9-1.4c-0.2,0-0.5,0.1-0.7,0.4c-0.2,0.3-0.2,0.7-0.2,1.1v2.1h-1.1V126.9z"/>
	<path fill="#FFFFFF" d="M119.4,136.5h1.2l1.1,2.9h0l1-2.9h1.2l-1.8,4.4h-0.8L119.4,136.5z"/>
	<path fill="#FFFFFF" d="M126,137.7c-0.1-0.4-0.3-0.4-0.4-0.4c-0.3,0-0.4,0.2-0.4,0.4c0,0.3,0.2,0.3,0.8,0.5
		c0.6,0.2,1.2,0.4,1.2,1.3c0,1-0.8,1.6-1.6,1.6c-0.4,0-1-0.2-1.3-0.6c-0.3-0.3-0.3-0.7-0.3-1h1.1c0,0.2,0.1,0.6,0.6,0.6
		c0.3,0,0.5-0.3,0.5-0.4c0-0.3-0.2-0.4-1-0.7c-0.5-0.2-1-0.5-1-1.3c0-0.9,0.8-1.4,1.5-1.4c0.7,0,1.4,0.5,1.4,1.4H126z"/>
	<path fill="#FFFFFF" d="M134.4,139.5c-0.4,1-1.2,1.6-2.2,1.6c-1.1,0-2.4-0.9-2.4-2.4c0-1.4,1.1-2.4,2.4-2.4c0.6,0,1.8,0.3,2.2,1.6
		h-1.2c-0.1-0.2-0.4-0.6-1-0.6c-0.6,0-1.3,0.5-1.3,1.4c0,0.8,0.5,1.4,1.3,1.4c0.4,0,0.7-0.2,1-0.6H134.4z"/>
	<path fill="#FFFFFF" d="M139.6,140.9h-1v-0.6c-0.3,0.4-1,0.7-1.6,0.7c-1.1,0-2.2-0.9-2.2-2.4c0-1.4,1-2.3,2.2-2.3
		c0.9,0,1.4,0.6,1.5,0.7h0v-0.6h1V140.9z M137.3,137.3c-0.9,0-1.3,0.8-1.3,1.4c0,0.8,0.6,1.4,1.3,1.4c0.7,0,1.3-0.6,1.3-1.4
		C138.6,137.8,137.9,137.3,137.3,137.3z"/>
	<path fill="#FFFFFF" d="M140.4,135h1.1v5.9h-1.1V135z"/>
	<path fill="#FFFFFF" d="M142.1,138.7c0-1.3,1.1-2.4,2.4-2.4c1.3,0,2.4,1,2.4,2.4c0,1.5-1.1,2.4-2.4,2.4
		C143.1,141.1,142.1,140,142.1,138.7z M145.7,138.7c0-0.8-0.6-1.4-1.3-1.4c-0.6,0-1.3,0.5-1.3,1.4c0,0.8,0.6,1.4,1.3,1.4
		C145.2,140.1,145.7,139.4,145.7,138.7z"/>
	<path fill="#FFFFFF" d="M147.5,136.5h1v0.4h0c0.2-0.3,0.4-0.5,1-0.5h0.1v1c-1,0-1,0.8-1,1.1v2.5h-1.1V136.5z"/>
	<path fill="#FFFFFF" d="M150.1,135h1.1v1h-1.1V135z M150.1,136.5h1.1v4.4h-1.1V136.5z"/>
	<path fill="#FFFFFF" d="M153,139.2c0,0.3,0.5,0.9,1.2,0.9c0.5,0,0.8-0.2,1-0.6h1.1c-0.3,0.8-1.1,1.5-2.1,1.5
		c-1.3,0-2.3-1.1-2.3-2.4c0-1.3,1-2.4,2.3-2.4c1.4,0,2.3,1.2,2.3,2.3c0,0.2,0,0.4-0.1,0.5H153z M155.4,138.3c-0.1-0.7-0.7-1-1.2-1
		c-0.4,0-1.1,0.2-1.3,1H155.4z"/>
	<path fill="#FFFFFF" d="M159,137.7c-0.1-0.4-0.3-0.4-0.4-0.4c-0.3,0-0.4,0.2-0.4,0.4c0,0.3,0.2,0.3,0.8,0.5
		c0.6,0.2,1.2,0.4,1.2,1.3c0,1-0.8,1.6-1.6,1.6c-0.4,0-1-0.2-1.3-0.6c-0.3-0.3-0.3-0.7-0.3-1h1.1c0,0.2,0.1,0.6,0.6,0.6
		c0.3,0,0.5-0.3,0.5-0.4c0-0.3-0.2-0.4-1-0.7c-0.5-0.2-1-0.5-1-1.3c0-0.9,0.8-1.4,1.5-1.4c0.7,0,1.4,0.5,1.4,1.4H159z"/>
	<path fill="#FFFFFF" d="M162.7,138.7c0-1.3,1.1-2.4,2.4-2.4c1.3,0,2.4,1,2.4,2.4c0,1.5-1.1,2.4-2.4,2.4
		C163.8,141.1,162.7,140,162.7,138.7z M166.4,138.7c0-0.8-0.6-1.4-1.3-1.4c-0.6,0-1.3,0.5-1.3,1.4c0,0.8,0.6,1.4,1.3,1.4
		C165.9,140.1,166.4,139.4,166.4,138.7z"/>
	<path fill="#FFFFFF" d="M172,136.5v4.4h-1v-0.4h0c-0.2,0.2-0.5,0.6-1.1,0.6c-0.8,0-1.3-0.4-1.5-0.7c-0.3-0.5-0.3-1.2-0.3-1.6v-2.3
		h1.1v2.3c0,0.4,0,1.3,0.9,1.3c0.7,0,0.9-0.6,0.9-1.3v-2.3H172z"/>
	<path fill="#FFFFFF" d="M173.1,137.4h-0.5v-0.9h0.5V135h1.1v1.5h0.6v0.9h-0.6v3.5h-1.1V137.4z"/>
	<path fill="#FFFFFF" d="M175.4,139.8h1.1v1.1c0,0.9-0.7,1.1-1.1,1.1v-0.5c0.2,0,0.5-0.1,0.5-0.5v-0.1h-0.5V139.8z"/>
	<path fill="#FFFFFF" d="M183.8,140.9h-1v-0.6c-0.3,0.4-1,0.7-1.6,0.7c-1.1,0-2.2-0.9-2.2-2.4c0-1.4,1-2.3,2.2-2.3
		c0.9,0,1.4,0.6,1.5,0.7h0v-0.6h1V140.9z M181.5,137.3c-0.9,0-1.3,0.8-1.3,1.4c0,0.8,0.6,1.4,1.3,1.4c0.7,0,1.3-0.6,1.3-1.4
		C182.8,137.8,182.2,137.3,181.5,137.3z"/>
	<path fill="#FFFFFF" d="M184.6,136.5h1v0.4c0.2-0.2,0.5-0.5,1.2-0.5c0.4,0,1,0.2,1.3,0.6c0.4,0.5,0.4,1.2,0.4,1.6v2.4h-1.1v-2.2
		c0-0.4,0-1.4-0.9-1.4c-0.2,0-0.5,0.1-0.7,0.4c-0.2,0.3-0.2,0.7-0.2,1.1v2.1h-1.1V136.5z"/>
	<path fill="#FFFFFF" d="M193.9,140.9h-1v-0.5h0c-0.2,0.3-0.7,0.7-1.4,0.7c-1.1,0-2.3-0.9-2.3-2.4c0-1.5,1.2-2.4,2.3-2.4
		c0.6,0,1,0.2,1.3,0.5V135h1.1V140.9z M191.7,140.1c0.8,0,1.3-0.7,1.3-1.4c0-0.7-0.6-1.4-1.3-1.4c-0.8,0-1.3,0.7-1.3,1.4
		C190.3,139.5,191,140.1,191.7,140.1z"/>
	<path fill="#FFFFFF" d="M197.2,137.4h-0.5v-0.9h0.5V135h1.1v1.5h0.6v0.9h-0.6v3.5h-1.1V137.4z"/>
	<path fill="#FFFFFF" d="M199.4,135h1.1v1.8c0.1-0.1,0.5-0.5,1.2-0.5c0.5,0,1,0.3,1.4,0.7c0.4,0.4,0.4,1.1,0.4,1.4v2.5h-1.1v-2.3
		c0-0.5,0-1.3-0.9-1.3c-0.9,0-0.9,1-0.9,1.4v2.3h-1.1V135z"/>
	<path fill="#FFFFFF" d="M205.1,139.2c0,0.3,0.5,0.9,1.2,0.9c0.5,0,0.8-0.2,1-0.6h1.1c-0.3,0.8-1.1,1.5-2.1,1.5
		c-1.3,0-2.3-1.1-2.3-2.4c0-1.3,1-2.4,2.3-2.4c1.4,0,2.3,1.2,2.3,2.3c0,0.2,0,0.4-0.1,0.5H205.1z M207.5,138.3c-0.1-0.7-0.7-1-1.2-1
		c-0.4,0-1.1,0.2-1.3,1H207.5z"/>
	<path fill="#FFFFFF" d="M212.5,139.2c0,0.3,0.5,0.9,1.2,0.9c0.5,0,0.8-0.2,1-0.6h1.1c-0.3,0.8-1.1,1.5-2.1,1.5
		c-1.3,0-2.3-1.1-2.3-2.4c0-1.3,1-2.4,2.3-2.4c1.4,0,2.3,1.2,2.3,2.3c0,0.2,0,0.4-0.1,0.5H212.5z M214.9,138.3c-0.1-0.7-0.7-1-1.2-1
		c-0.4,0-1.1,0.2-1.3,1H214.9z"/>
	<path fill="#FFFFFF" d="M216.6,136.5h1v0.4h0c0.1-0.1,0.4-0.5,1.2-0.5c0.2,0,0.9,0.1,1.3,0.7c0.5-0.7,1.1-0.7,1.4-0.7
		c0.9,0,1.3,0.5,1.5,0.7c0.2,0.2,0.3,0.7,0.3,1.3v2.6h-1.1v-2.5c0-0.3,0-1.2-0.8-1.2c-0.3,0-0.6,0.2-0.7,0.4c-0.2,0.3-0.2,0.7-0.2,1
		v2.2h-1.1v-2.5c0-0.6-0.2-1.2-0.9-1.2c-0.8,0-0.8,0.9-0.8,1.4v2.2h-1.1V136.5z"/>
	<path fill="#FFFFFF" d="M224.1,136.5h1v0.5h0c0.5-0.7,1.2-0.7,1.4-0.7c1.5,0,2.2,1.3,2.2,2.4c0,1.3-1,2.4-2.2,2.4
		c-0.8,0-1.1-0.3-1.4-0.6v1.9h-1.1V136.5z M226.4,140.1c0.6,0,1.3-0.5,1.3-1.4c0-0.8-0.6-1.4-1.3-1.4c-0.7,0-1.3,0.5-1.3,1.4
		C225.1,139.7,225.9,140.1,226.4,140.1z"/>
	<path fill="#FFFFFF" d="M229.7,137.4h-0.5v-0.9h0.5V135h1.1v1.5h0.6v0.9h-0.6v3.5h-1.1V137.4z"/>
	<path fill="#FFFFFF" d="M233.1,140.5l-1.6-4h1.2l1,2.8l1.1-2.8h1.2l-2.6,5.9h-1.1L233.1,140.5z"/>
	<path fill="#FFFFFF" d="M243.2,139.5c-0.4,1-1.2,1.6-2.2,1.6c-1.1,0-2.4-0.9-2.4-2.4c0-1.4,1.1-2.4,2.4-2.4c0.6,0,1.8,0.3,2.2,1.6
		H242c-0.1-0.2-0.4-0.6-1-0.6c-0.6,0-1.3,0.5-1.3,1.4c0,0.8,0.5,1.4,1.3,1.4c0.4,0,0.7-0.2,1-0.6H243.2z"/>
	<path fill="#FFFFFF" d="M248.3,140.9h-1v-0.6c-0.3,0.4-1,0.7-1.6,0.7c-1.1,0-2.2-0.9-2.2-2.4c0-1.4,1-2.3,2.2-2.3
		c0.9,0,1.4,0.6,1.5,0.7h0v-0.6h1V140.9z M246,137.3c-0.9,0-1.3,0.8-1.3,1.4c0,0.8,0.6,1.4,1.3,1.4c0.7,0,1.3-0.6,1.3-1.4
		C247.3,137.8,246.6,137.3,246,137.3z"/>
	<path fill="#FFFFFF" d="M249.1,135h1.1v5.9h-1.1V135z"/>
	<path fill="#FFFFFF" d="M250.8,138.7c0-1.3,1.1-2.4,2.4-2.4c1.3,0,2.4,1,2.4,2.4c0,1.5-1.1,2.4-2.4,2.4
		C251.9,141.1,250.8,140,250.8,138.7z M254.5,138.7c0-0.8-0.6-1.4-1.3-1.4c-0.6,0-1.3,0.5-1.3,1.4c0,0.8,0.6,1.4,1.3,1.4
		C253.9,140.1,254.5,139.4,254.5,138.7z"/>
	<path fill="#FFFFFF" d="M256.2,136.5h1v0.4h0c0.2-0.3,0.4-0.5,1-0.5h0.1v1c-1,0-1,0.8-1,1.1v2.5h-1.1V136.5z"/>
	<path fill="#FFFFFF" d="M258.9,135h1.1v1h-1.1V135z M258.9,136.5h1.1v4.4h-1.1V136.5z"/>
	<path fill="#FFFFFF" d="M261.7,139.2c0,0.3,0.5,0.9,1.2,0.9c0.5,0,0.8-0.2,1-0.6h1.1c-0.3,0.8-1.1,1.5-2.1,1.5
		c-1.3,0-2.3-1.1-2.3-2.4c0-1.3,1-2.4,2.3-2.4c1.4,0,2.3,1.2,2.3,2.3c0,0.2,0,0.4-0.1,0.5H261.7z M264.2,138.3c-0.1-0.7-0.7-1-1.2-1
		c-0.4,0-1.1,0.2-1.3,1H264.2z"/>
	<path fill="#FFFFFF" d="M267.7,137.7c-0.1-0.4-0.3-0.4-0.4-0.4c-0.3,0-0.4,0.2-0.4,0.4c0,0.3,0.2,0.3,0.8,0.5
		c0.6,0.2,1.2,0.4,1.2,1.3c0,1-0.8,1.6-1.6,1.6c-0.4,0-1-0.2-1.3-0.6c-0.3-0.3-0.3-0.7-0.3-1h1.1c0,0.2,0.1,0.6,0.6,0.6
		c0.3,0,0.5-0.3,0.5-0.4c0-0.3-0.2-0.4-1-0.7c-0.5-0.2-1-0.5-1-1.3c0-0.9,0.8-1.4,1.5-1.4c0.7,0,1.4,0.5,1.4,1.4H267.7z"/>
	<path fill="#FFFFFF" d="M119.8,144.6h1.1v1h-1.1V144.6z M119.8,146.1h1.1v4.4h-1.1V146.1z"/>
	<path fill="#FFFFFF" d="M121.7,146.1h1v0.4c0.2-0.2,0.5-0.5,1.2-0.5c0.4,0,1,0.2,1.3,0.6c0.4,0.5,0.4,1.2,0.4,1.6v2.4h-1.1v-2.2
		c0-0.4,0-1.4-0.9-1.4c-0.2,0-0.5,0.1-0.7,0.4c-0.2,0.3-0.2,0.7-0.2,1.1v2.1h-1.1V146.1z"/>
	<path fill="#FFFFFF" d="M133.2,150.5h-1V150c-0.3,0.4-1,0.7-1.6,0.7c-1.1,0-2.2-0.9-2.2-2.4c0-1.4,1-2.3,2.2-2.3
		c0.9,0,1.4,0.6,1.5,0.7h0v-0.6h1V150.5z M130.9,146.9c-0.9,0-1.3,0.8-1.3,1.4c0,0.8,0.6,1.4,1.3,1.4c0.7,0,1.3-0.6,1.3-1.4
		C132.2,147.4,131.5,146.9,130.9,146.9z"/>
	<path fill="#FFFFFF" d="M134,144.6h1.1v5.9H134V144.6z"/>
	<path fill="#FFFFFF" d="M140.4,149.1c-0.4,1-1.2,1.6-2.2,1.6c-1.1,0-2.4-0.9-2.4-2.4c0-1.4,1.1-2.4,2.4-2.4c0.6,0,1.8,0.3,2.2,1.6
		h-1.2c-0.1-0.2-0.4-0.6-1-0.6c-0.6,0-1.3,0.5-1.3,1.4c0,0.8,0.5,1.4,1.3,1.4c0.4,0,0.7-0.2,1-0.6H140.4z"/>
	<path fill="#FFFFFF" d="M140.8,148.3c0-1.3,1.1-2.4,2.4-2.4c1.3,0,2.4,1,2.4,2.4c0,1.5-1.1,2.4-2.4,2.4
		C141.9,150.7,140.8,149.6,140.8,148.3z M144.5,148.3c0-0.8-0.6-1.4-1.3-1.4c-0.6,0-1.3,0.5-1.3,1.4c0,0.8,0.6,1.4,1.3,1.4
		C143.9,149.7,144.5,149,144.5,148.3z"/>
	<path fill="#FFFFFF" d="M146.2,144.6h1.1v1.8c0.1-0.1,0.5-0.5,1.2-0.5c0.5,0,1,0.3,1.4,0.7c0.4,0.4,0.4,1.1,0.4,1.4v2.5H149v-2.3
		c0-0.5,0-1.3-0.9-1.3c-0.9,0-0.9,1-0.9,1.4v2.3h-1.1V144.6z"/>
	<path fill="#FFFFFF" d="M150.7,148.3c0-1.3,1.1-2.4,2.4-2.4c1.3,0,2.4,1,2.4,2.4c0,1.5-1.1,2.4-2.4,2.4
		C151.8,150.7,150.7,149.6,150.7,148.3z M154.4,148.3c0-0.8-0.6-1.4-1.3-1.4c-0.6,0-1.3,0.5-1.3,1.4c0,0.8,0.6,1.4,1.3,1.4
		C153.9,149.7,154.4,149,154.4,148.3z"/>
	<path fill="#FFFFFF" d="M156.1,144.6h1.1v5.9h-1.1V144.6z"/>
	<path fill="#FFFFFF" d="M162.6,151.8c-0.3-0.1-0.6-0.2-1.1-0.7c-0.3-0.4-1.1-1.4-1.1-2.9c0-1.2,0.5-2.3,1.2-3
		c0.4-0.4,0.7-0.5,1-0.7v1.2c-0.8,0.6-1.1,1.6-1.1,2.5c0,1.3,0.7,2.2,1.1,2.5V151.8z"/>
	<path fill="#FFFFFF" d="M162.9,146.1h1.1l0.8,2.7h0l0.7-2.7h0.8l0.7,2.7h0l0.8-2.7h1.1l-1.6,4.4h-0.7l-0.8-2.9h0l-0.8,2.9h-0.7
		L162.9,146.1z"/>
	<path fill="#FFFFFF" d="M169.7,144.6h1.1v1.8c0.1-0.1,0.5-0.5,1.2-0.5c0.5,0,1,0.3,1.4,0.7c0.4,0.4,0.4,1.1,0.4,1.4v2.5h-1.1v-2.3
		c0-0.5,0-1.3-0.9-1.3c-0.9,0-0.9,1-0.9,1.4v2.3h-1.1V144.6z"/>
	<path fill="#FFFFFF" d="M174.5,144.6h1.1v1h-1.1V144.6z M174.5,146.1h1.1v4.4h-1.1V146.1z"/>
	<path fill="#FFFFFF" d="M180.8,149.1c-0.4,1-1.2,1.6-2.2,1.6c-1.1,0-2.4-0.9-2.4-2.4c0-1.4,1.1-2.4,2.4-2.4c0.6,0,1.8,0.3,2.2,1.6
		h-1.2c-0.1-0.2-0.4-0.6-1-0.6c-0.6,0-1.3,0.5-1.3,1.4c0,0.8,0.5,1.4,1.3,1.4c0.4,0,0.7-0.2,1-0.6H180.8z"/>
	<path fill="#FFFFFF" d="M181.5,144.6h1.1v1.8c0.1-0.1,0.5-0.5,1.2-0.5c0.5,0,1,0.3,1.4,0.7c0.4,0.4,0.4,1.1,0.4,1.4v2.5h-1.1v-2.3
		c0-0.5,0-1.3-0.9-1.3c-0.9,0-0.9,1-0.9,1.4v2.3h-1.1V144.6z"/>
	<path fill="#FFFFFF" d="M188.6,144.6h1.1v1.8c0.1-0.1,0.5-0.5,1.2-0.5c0.5,0,1,0.3,1.4,0.7c0.4,0.4,0.4,1.1,0.4,1.4v2.5h-1.1v-2.3
		c0-0.5,0-1.3-0.9-1.3c-0.9,0-0.9,1-0.9,1.4v2.3h-1.1V144.6z"/>
	<path fill="#FFFFFF" d="M197.8,150.5h-1V150c-0.3,0.4-1,0.7-1.6,0.7c-1.1,0-2.2-0.9-2.2-2.4c0-1.4,1-2.3,2.2-2.3
		c0.9,0,1.4,0.6,1.5,0.7h0v-0.6h1V150.5z M195.5,146.9c-0.9,0-1.3,0.8-1.3,1.4c0,0.8,0.6,1.4,1.3,1.4c0.7,0,1.3-0.6,1.3-1.4
		C196.8,147.4,196.2,146.9,195.5,146.9z"/>
	<path fill="#FFFFFF" d="M198.2,146.1h1.2l1.1,2.9h0l1-2.9h1.2l-1.8,4.4H200L198.2,146.1z"/>
	<path fill="#FFFFFF" d="M203.9,148.8c0,0.3,0.5,0.9,1.2,0.9c0.5,0,0.8-0.2,1-0.6h1.1c-0.3,0.8-1.1,1.5-2.1,1.5
		c-1.3,0-2.3-1.1-2.3-2.4c0-1.3,1-2.4,2.3-2.4c1.4,0,2.3,1.2,2.3,2.3c0,0.2,0,0.4-0.1,0.5H203.9z M206.3,147.9c-0.1-0.7-0.7-1-1.2-1
		c-0.4,0-1.1,0.2-1.3,1H206.3z"/>
	<path fill="#FFFFFF" d="M210.3,146.1h1v0.4c0.2-0.2,0.5-0.5,1.2-0.5c0.4,0,1,0.2,1.3,0.6c0.4,0.5,0.4,1.2,0.4,1.6v2.4h-1.1v-2.2
		c0-0.4,0-1.4-0.9-1.4c-0.2,0-0.5,0.1-0.7,0.4c-0.2,0.3-0.2,0.7-0.2,1.1v2.1h-1.1V146.1z"/>
	<path fill="#FFFFFF" d="M214.9,148.3c0-1.3,1.1-2.4,2.4-2.4c1.3,0,2.4,1,2.4,2.4c0,1.5-1.1,2.4-2.4,2.4
		C215.9,150.7,214.9,149.6,214.9,148.3z M218.5,148.3c0-0.8-0.6-1.4-1.3-1.4c-0.6,0-1.3,0.5-1.3,1.4c0,0.8,0.6,1.4,1.3,1.4
		C218,149.7,218.5,149,218.5,148.3z"/>
	<path fill="#FFFFFF" d="M222.5,146.1h1v0.4c0.2-0.2,0.5-0.5,1.2-0.5c0.4,0,1,0.2,1.3,0.6c0.4,0.5,0.4,1.2,0.4,1.6v2.4h-1.1v-2.2
		c0-0.4,0-1.4-0.9-1.4c-0.2,0-0.5,0.1-0.7,0.4c-0.2,0.3-0.2,0.7-0.2,1.1v2.1h-1.1V146.1z"/>
	<path fill="#FFFFFF" d="M231.2,146.1v4.4h-1v-0.4h0c-0.2,0.2-0.5,0.6-1.1,0.6c-0.8,0-1.3-0.4-1.5-0.7c-0.3-0.5-0.3-1.2-0.3-1.6
		v-2.3h1.1v2.3c0,0.4,0,1.3,0.9,1.3c0.7,0,0.9-0.6,0.9-1.3v-2.3H231.2z"/>
	<path fill="#FFFFFF" d="M232.3,147h-0.5v-0.9h0.5v-1.5h1.1v1.5h0.6v0.9h-0.6v3.5h-1.1V147z"/>
	<path fill="#FFFFFF" d="M234.6,146.1h1v0.4h0c0.2-0.3,0.4-0.5,1-0.5h0.1v1c-1,0-1,0.8-1,1.1v2.5h-1.1V146.1z"/>
	<path fill="#FFFFFF" d="M237.2,144.6h1.1v1h-1.1V144.6z M237.2,146.1h1.1v4.4h-1.1V146.1z"/>
	<path fill="#FFFFFF" d="M239.4,147h-0.5v-0.9h0.5v-1.5h1.1v1.5h0.6v0.9h-0.6v3.5h-1.1V147z"/>
	<path fill="#FFFFFF" d="M241.5,144.6h1.1v1h-1.1V144.6z M241.5,146.1h1.1v4.4h-1.1V146.1z"/>
	<path fill="#FFFFFF" d="M243.2,148.3c0-1.3,1.1-2.4,2.4-2.4c1.3,0,2.4,1,2.4,2.4c0,1.5-1.1,2.4-2.4,2.4
		C244.3,150.7,243.2,149.6,243.2,148.3z M246.9,148.3c0-0.8-0.6-1.4-1.3-1.4c-0.6,0-1.3,0.5-1.3,1.4c0,0.8,0.6,1.4,1.3,1.4
		C246.3,149.7,246.9,149,246.9,148.3z"/>
	<path fill="#FFFFFF" d="M248.6,146.1h1v0.4c0.2-0.2,0.5-0.5,1.2-0.5c0.4,0,1,0.2,1.3,0.6c0.4,0.5,0.4,1.2,0.4,1.6v2.4h-1.1v-2.2
		c0-0.4,0-1.4-0.9-1.4c-0.2,0-0.5,0.1-0.7,0.4c-0.2,0.3-0.2,0.7-0.2,1.1v2.1h-1.1V146.1z"/>
	<path fill="#FFFFFF" d="M257.8,150.5h-1V150c-0.3,0.4-1,0.7-1.6,0.7c-1.1,0-2.2-0.9-2.2-2.4c0-1.4,1-2.3,2.2-2.3
		c0.9,0,1.4,0.6,1.5,0.7h0v-0.6h1V150.5z M255.5,146.9c-0.9,0-1.3,0.8-1.3,1.4c0,0.8,0.6,1.4,1.3,1.4c0.7,0,1.3-0.6,1.3-1.4
		C256.8,147.4,256.2,146.9,255.5,146.9z"/>
	<path fill="#FFFFFF" d="M258.6,144.6h1.1v5.9h-1.1V144.6z"/>
	<path fill="#FFFFFF" d="M119.4,155.7h1.2l1.1,2.9h0l1-2.9h1.2l-1.8,4.4h-0.8L119.4,155.7z"/>
	<path fill="#FFFFFF" d="M128.5,160.1h-1v-0.6c-0.3,0.4-1,0.7-1.6,0.7c-1.1,0-2.2-0.9-2.2-2.4c0-1.4,1-2.3,2.2-2.3
		c0.9,0,1.4,0.6,1.5,0.7h0v-0.6h1V160.1z M126.2,156.5c-0.9,0-1.3,0.8-1.3,1.4c0,0.8,0.6,1.4,1.3,1.4c0.7,0,1.3-0.6,1.3-1.4
		C127.5,157,126.8,156.5,126.2,156.5z"/>
	<path fill="#FFFFFF" d="M129.3,154.2h1.1v5.9h-1.1V154.2z"/>
	<path fill="#FFFFFF" d="M135.1,155.7v4.4h-1v-0.4h0c-0.2,0.2-0.5,0.6-1.1,0.6c-0.8,0-1.3-0.4-1.5-0.7c-0.3-0.5-0.3-1.2-0.3-1.6
		v-2.3h1.1v2.3c0,0.4,0,1.3,0.9,1.3c0.7,0,0.9-0.6,0.9-1.3v-2.3H135.1z"/>
	<path fill="#FFFFFF" d="M136.9,158.4c0,0.3,0.5,0.9,1.2,0.9c0.5,0,0.8-0.2,1-0.6h1.1c-0.3,0.8-1.1,1.5-2.1,1.5
		c-1.3,0-2.3-1.1-2.3-2.4c0-1.3,1-2.4,2.3-2.4c1.4,0,2.3,1.2,2.3,2.3c0,0.2,0,0.4-0.1,0.5H136.9z M139.4,157.5c-0.1-0.7-0.7-1-1.2-1
		c-0.4,0-1.1,0.2-1.3,1H139.4z"/>
	<path fill="#FFFFFF" d="M141,154.1c0.3,0.1,0.6,0.2,1.1,0.7c0.3,0.4,1.1,1.4,1.1,2.9c0,1.2-0.5,2.3-1.2,3c-0.4,0.4-0.7,0.5-1,0.7
		v-1.2c0.8-0.6,1.1-1.6,1.1-2.5c0-1.3-0.7-2.2-1.1-2.5V154.1z"/>
	<path fill="#FFFFFF" d="M150.8,158.7c-0.4,1-1.2,1.6-2.2,1.6c-1.1,0-2.4-0.9-2.4-2.4c0-1.4,1.1-2.4,2.4-2.4c0.6,0,1.8,0.3,2.2,1.6
		h-1.2c-0.1-0.2-0.4-0.6-1-0.6c-0.6,0-1.3,0.5-1.3,1.4c0,0.8,0.5,1.4,1.3,1.4c0.4,0,0.7-0.2,1-0.6H150.8z"/>
	<path fill="#FFFFFF" d="M156,160.1h-1v-0.6c-0.3,0.4-1,0.7-1.6,0.7c-1.1,0-2.2-0.9-2.2-2.4c0-1.4,1-2.3,2.2-2.3
		c0.9,0,1.4,0.6,1.5,0.7h0v-0.6h1V160.1z M153.7,156.5c-0.9,0-1.3,0.8-1.3,1.4c0,0.8,0.6,1.4,1.3,1.4c0.7,0,1.3-0.6,1.3-1.4
		C155,157,154.3,156.5,153.7,156.5z"/>
	<path fill="#FFFFFF" d="M156.8,155.7h1v0.4c0.2-0.2,0.5-0.5,1.2-0.5c0.4,0,1,0.2,1.3,0.6c0.4,0.5,0.4,1.2,0.4,1.6v2.4h-1.1v-2.2
		c0-0.4,0-1.4-0.9-1.4c-0.2,0-0.5,0.1-0.7,0.4c-0.2,0.3-0.2,0.7-0.2,1.1v2.1h-1.1V155.7z"/>
	<path fill="#FFFFFF" d="M164.8,158.4c0,0.3,0.5,0.9,1.2,0.9c0.5,0,0.8-0.2,1-0.6h1.1c-0.3,0.8-1.1,1.5-2.1,1.5
		c-1.3,0-2.3-1.1-2.3-2.4c0-1.3,1-2.4,2.3-2.4c1.4,0,2.3,1.2,2.3,2.3c0,0.2,0,0.4-0.1,0.5H164.8z M167.2,157.5c-0.1-0.7-0.7-1-1.2-1
		c-0.4,0-1.1,0.2-1.3,1H167.2z"/>
	<path fill="#FFFFFF" d="M173.4,160.1h-1v-0.6c-0.3,0.4-1,0.7-1.6,0.7c-1.1,0-2.2-0.9-2.2-2.4c0-1.4,1-2.3,2.2-2.3
		c0.9,0,1.4,0.6,1.5,0.7h0v-0.6h1V160.1z M171.1,156.5c-0.9,0-1.3,0.8-1.3,1.4c0,0.8,0.6,1.4,1.3,1.4c0.7,0,1.3-0.6,1.3-1.4
		C172.4,157,171.8,156.5,171.1,156.5z"/>
	<path fill="#FFFFFF" d="M176,156.9c-0.1-0.4-0.3-0.4-0.4-0.4c-0.3,0-0.4,0.2-0.4,0.4c0,0.3,0.2,0.3,0.8,0.5
		c0.6,0.2,1.2,0.4,1.2,1.3c0,1-0.8,1.6-1.6,1.6c-0.4,0-1-0.2-1.3-0.6c-0.3-0.3-0.3-0.7-0.3-1h1.1c0,0.2,0.1,0.6,0.6,0.6
		c0.3,0,0.5-0.3,0.5-0.4c0-0.3-0.2-0.4-1-0.7c-0.5-0.2-1-0.5-1-1.3c0-0.9,0.8-1.4,1.5-1.4c0.7,0,1.4,0.5,1.4,1.4H176z"/>
	<path fill="#FFFFFF" d="M177.8,154.2h1.1v1h-1.1V154.2z M177.8,155.7h1.1v4.4h-1.1V155.7z"/>
	<path fill="#FFFFFF" d="M179.7,154.2h1.1v5.9h-1.1V154.2z"/>
	<path fill="#FFFFFF" d="M182.9,159.7l-1.6-4h1.2l1,2.8l1.1-2.8h1.2l-2.6,5.9H182L182.9,159.7z"/>
	<path fill="#FFFFFF" d="M192.9,160.1h-1v-0.6c-0.3,0.4-1,0.7-1.6,0.7c-1.1,0-2.2-0.9-2.2-2.4c0-1.4,1-2.3,2.2-2.3
		c0.9,0,1.4,0.6,1.5,0.7h0v-0.6h1V160.1z M190.6,156.5c-0.9,0-1.3,0.8-1.3,1.4c0,0.8,0.6,1.4,1.3,1.4c0.7,0,1.3-0.6,1.3-1.4
		C191.9,157,191.3,156.5,190.6,156.5z"/>
	<path fill="#FFFFFF" d="M198.3,160.1h-1v-0.5h0c-0.2,0.3-0.7,0.7-1.4,0.7c-1.1,0-2.3-0.9-2.3-2.4c0-1.5,1.2-2.4,2.3-2.4
		c0.6,0,1,0.2,1.3,0.5v-1.9h1.1V160.1z M196,159.3c0.8,0,1.3-0.7,1.3-1.4c0-0.7-0.6-1.4-1.3-1.4c-0.8,0-1.3,0.7-1.3,1.4
		C194.7,158.7,195.3,159.3,196,159.3z"/>
	<path fill="#FFFFFF" d="M203.5,160.1h-1v-0.5h0c-0.2,0.3-0.7,0.7-1.4,0.7c-1.1,0-2.3-0.9-2.3-2.4c0-1.5,1.2-2.4,2.3-2.4
		c0.6,0,1,0.2,1.3,0.5v-1.9h1.1V160.1z M201.3,159.3c0.8,0,1.3-0.7,1.3-1.4c0-0.7-0.6-1.4-1.3-1.4c-0.8,0-1.3,0.7-1.3,1.4
		C199.9,158.7,200.6,159.3,201.3,159.3z"/>
	<path fill="#FFFFFF" d="M210.5,155.7v4.4h-1v-0.4h0c-0.2,0.2-0.5,0.6-1.1,0.6c-0.8,0-1.3-0.4-1.5-0.7c-0.3-0.5-0.3-1.2-0.3-1.6
		v-2.3h1.1v2.3c0,0.4,0,1.3,0.9,1.3c0.7,0,0.9-0.6,0.9-1.3v-2.3H210.5z"/>
	<path fill="#FFFFFF" d="M211.3,155.7h1v0.5h0c0.5-0.7,1.2-0.7,1.4-0.7c1.5,0,2.2,1.3,2.2,2.4c0,1.3-1,2.4-2.2,2.4
		c-0.8,0-1.1-0.3-1.4-0.6v1.9h-1.1V155.7z M213.6,159.3c0.6,0,1.3-0.5,1.3-1.4c0-0.8-0.6-1.4-1.3-1.4c-0.7,0-1.3,0.5-1.3,1.4
		C212.3,158.9,213.1,159.3,213.6,159.3z"/>
	<path fill="#FFFFFF" d="M216.8,159h1.1v1.1h-1.1V159z"/>
</g>
<g id="Scale">
	<path fill="#C4D82E" stroke="#C4D82E" stroke-miterlimit="10" d="M66.6,112.5v-4.6c0,0-0.7-0.1-0.8-0.5v-0.6c0,0,0.1-0.3,0.6-0.3
		c0,0,0.5-0.4,0.6-1.7c0,0,0.1-1.8-0.2-2.2c0,0-0.2-0.5,0.1-0.7v-1c0,0-0.9-1.1,0-2.4c0,0,1.1-1,2.1,0c0,0,0.8,1.1,0,2.3v0.9
		c0,0,0.3,0.6,0,1.2c0,0-0.2,1.3-0.1,2c0,0,0.2,1.3,0.5,1.6c0,0,0.5,0,0.6,0.2v0.8c0,0-0.1,0.4-0.7,0.4v4.1c0,0,4.8-0.8,4.9-1
		c0,0,1.8-0.4,3.8-1.7c0,0,1.9-1.1,2.6-1.1V108c0,0,1.1-0.8,2.8-0.1c0,0,0.7,0.6,1.5,0.5c0,0,0.3,0.2-0.1,0.6c0,0,0.4,0.9,1.6,0.8
		c0,0,1.5-0.1,2-1.3c0,0,0.2-0.7,0.7-0.8c0,0,0.5-0.1,0.3,0.4l0,1l-0.1,0.1l9.3,40.8H99c0,0,0.3,0.1-0.2,0.5
		c-0.5,0.4-4.3,2.4-9.9,2.2c0,0-6,0.2-9.6-2.3c0,0-0.2-0.4,0.1-0.4l2,0l7.5-40.8c0,0-0.7,1.8-2.6,1.7c0,0-1.6,0.1-2.6-1.4
		c0,0-0.6-1.4-2.6-0.5c0,0-3,1-4,1.9c0,0-3.5,2.6-7.9,3.3v44.7c0,0,0.6,0,0.5,0.6c0,0,0.3-0.1,0.3,0.4c0,0,0.1,0.7-0.8,0.6v0.2
		c0,0,0.7-0.1,0.7,0.5c0,0,0.2,2.5,2.8,4.9c0,0,3.4,1.8,5.3,2.3c0,0,0.3,0,0.3,0.5l1.4,0.7l0.1,1c0,0-16.7,0.7-24,0.2l0.3-1.1
		l1.4-0.7c0,0,0-0.4,0.6-0.6c0,0,4.4-1.4,5.3-2.3c0,0,2-1.3,2.5-4.9c0,0-0.1-0.5,0.6-0.4l0-0.3c0,0-0.9,0.1-0.8-0.6
		c0,0-0.1-0.3,0.2-0.4c0,0-0.2-0.7,0.6-0.7v-44.2c0,0-4.5,1.1-7.7,0.3c0,0-2.1-0.7-4.6-0.2c0,0-1.9,0.3-2.3,1.7c0,0-0.5,2.2-2.5,2.5
		c0,0-1.8,0.3-2.5-0.8l8,41l1.3,0c0,0,0.4,0.1,0,0.5c0,0-3.4,2.4-9.9,2.2c0,0-5.1,0.2-9.3-2.1c0,0-0.5-0.5,0-0.5l1.3,0l8.3-41.5
		c0,0-0.4-0.1-0.5,0c0,0-0.1,0.3-0.4,0.2c0,0-0.2-0.4,0.1-0.9c0,0,0.7-0.3,1.6,0.6c0,0,0.9,0.9,2.5,0.3c0,0,0.8-0.4,1-1.4
		c0,0-0.6-0.1-0.4-0.4c0,0,0.3-0.1,0.7-0.4c0,0,0.7-1.3,1.9-1.6c0,0,1.1-0.5,1.3-0.1c0,0,1.2-0.4,3.9-0.1c0,0,2.4,0.2,5.3-0.6
		C63.7,113.4,66.5,112.6,66.6,112.5z"/>
	<polygon fill="#0D526A" stroke="#C4D82E" stroke-miterlimit="10" points="38.9,159.3 46.3,159.3 46.4,121 	"/>
	<polygon fill="#0D526A" stroke="#C4D82E" stroke-miterlimit="10" points="54.4,159.3 46.9,159.3 46.8,121 	"/>
	<polygon fill="#0D526A" stroke="#C4D82E" stroke-miterlimit="10" points="98.2,149.8 87.3,149.8 89.3,111.6 	"/>
	<polygon fill="#0D526A" stroke="#C4D82E" stroke-miterlimit="10" points="86.7,149.8 81.9,149.8 88.8,112.1 	"/>
</g>
<g>
</g>
<g>
</g>
<g>
</g>
<g>
</g>
<g>
</g>
<g>
</g>
</svg>
