<?xml version="1.0" encoding="utf-8"?>
<!-- Generator: Adobe Illustrator 19.2.1, SVG Export Plug-In . SVG Version: 6.00 Build 0)  -->
<svg version="1.1" id="Layer_1" xmlns="http://www.w3.org/2000/svg" xmlns:xlink="http://www.w3.org/1999/xlink" x="0px" y="0px"
	 width="468px" height="504px" viewBox="0 0 468 504" enable-background="new 0 0 468 504" xml:space="preserve">
<g>
	<path fill="#009B9B" d="M366.2,297.8c0,0,0.6-0.5,1.4-1.3c0.4-0.4,0.9-0.9,1.3-1.4c0.2-0.3,0.4-0.6,0.6-0.9
		c0.2-0.3,0.4-0.6,0.6-0.9c0.4-0.6,0.7-1.3,1-1.9c0.1-0.3,0.3-0.6,0.4-0.9c0.1-0.3,0.2-0.6,0.3-0.9c0.1-0.3,0.2-0.5,0.2-0.7
		c0.1-0.2,0.1-0.4,0.2-0.6c0.1-0.3,0.2-0.5,0.2-0.5s0,0.2,0,0.5c0,0.3,0,0.8,0,1.4c0,0.3,0,0.6-0.1,1c-0.1,0.3-0.2,0.7-0.3,1
		c-0.1,0.3-0.2,0.7-0.4,1.1c-0.2,0.3-0.3,0.7-0.6,1.1c-0.2,0.3-0.4,0.7-0.7,1c-0.2,0.3-0.5,0.6-0.8,0.9c-0.2,0.3-0.5,0.5-0.8,0.7
		c-0.3,0.2-0.5,0.4-0.8,0.6C367,297.7,366.2,297.8,366.2,297.8z"/>
</g>
<g>
	<path fill="#009B9B" d="M367.7,299.8c0,0,0.4-0.4,1.2-0.7c0.2-0.1,0.4-0.1,0.7-0.2c0.2,0,0.5-0.1,0.8-0.1c0.3,0,0.5,0.1,0.8,0.1
		c0.3,0.1,0.6,0.1,0.8,0.3c0.5,0.2,1,0.5,1.4,0.9c0.4,0.3,0.7,0.7,0.9,1c0.2,0.3,0.4,0.6,0.5,0.8c0.1,0.2,0.2,0.3,0.2,0.3
		s-0.1-0.1-0.3-0.2c-0.2-0.1-0.4-0.4-0.8-0.6c-0.2-0.1-0.3-0.2-0.5-0.4c-0.2-0.1-0.4-0.2-0.6-0.4c-0.2-0.1-0.4-0.2-0.6-0.4
		c-0.2-0.1-0.4-0.2-0.6-0.3c-0.2-0.1-0.4-0.2-0.7-0.3c-0.2,0-0.4-0.1-0.7-0.2c-0.2,0-0.4-0.1-0.6-0.1c-0.2,0-0.4,0-0.6,0
		C368.3,299.6,367.7,299.8,367.7,299.8z"/>
</g>
<g id="Burp_Chair">
	<g id="Dude_chair">
		<path fill="#C4D82E" stroke="#C4D82E" stroke-miterlimit="10" d="M242.6,359l32.8-9.7c0,0-2.4-52,7.2-64.8c0,0,17.8-33.2,64.9-30
			c0,0,53.1,2.8,71.8,29.6c1.4,1.9,2,4.3,2,6.6c0,22.2-0.3,147.8-4.5,158.2c0,0-1.2,6.2-15.4,20.9c0,0-1.6,2.7-7.2,1.3
			c0,0-131.1-15.8-154.5-20.6c-2-0.4-3.5-2.3-3.4-4.3l3.1-82C239.5,364.3,239.2,360,242.6,359z"/>
		<path opacity="0.88" fill="#FFFFFF" stroke="#FFFFFF" stroke-miterlimit="10" d="M434.1,353.8l8.5-15.8c0.4-0.7,1.2-1.2,2-1.2
			c3.6,0,13.2,1,16,9.9c0.2,0.6,0.1,1.3-0.2,1.8l-18.1,33.3c-0.4,0.7-1,1.1-1.8,1.2c-0.8,0.1-1.9,0.1-3.4-0.1
			c-0.9-0.1-1.7,0.3-2.2,1.1l-7.9,12.7c-0.2,0.3-0.3,0.7-0.3,1c0,0,0,0.1,0,0.1c-0.2,1.4-1.6,2.3-3,1.9c-1.3-0.4-3.3-1.3-4.2-2.6
			c-0.3-0.4-0.4-0.9-0.4-1.4c0.1-0.7,0.3-1.7,1.2-1.8c0.7-0.1,1.4-0.5,1.7-1.1l5.2-11.1c0.3-0.6,0.3-1.3,0-1.9l-2.2-4.9
			c-0.3-0.6-0.3-1.3,0-2L434.1,353.8z"/>
		<path fill="#009B9B" stroke="#009B9B" stroke-miterlimit="10" d="M266.2,351.3c0,0,2.6-20.8,30.4-23.3c0,0,14.2-1,29.9,3.9
			c0,0,37,2.3,38.5,4.3c0,0,30.8-10.5,56.1,2.2c0,0,14,4.2,15,11.7c0,0,0.8,2.6,6.5,1.4c0,0,4.4,1,0.8,6.3c0,0,4.3,0.3,1.4,7.2
			c0,0-4.4,4.2-13.8,1.8c0,0-0.1,2.6,4.5,6c0,0,3.1,2.1,0.6,5.7c0,0-1.8,2.3-6.8-2.1c0,0-23.3-18.1-30.4-17c0,0-19.7,2.7-21.2,4.2
			l-10.4,46.9c0,0,11.2,20,4.1,62c0,0,8.6,7.8,12.2,16.2c0,0,3.5,2.1,3.1,4.2c0,0-1.5,3.9-5.4,1.2c0,0-2.2,1.4-3.2,0.5
			c0,0-5.9,4.6-11.7,3.8c0,0-7.2,0.1-11.2-3.3c0,0-8.1,2.7-13.2-1.2c0,0-5.3-3-4.5-11.5c0,0,13.8-51.1,1.2-57.3
			c0,0-21.3,7.4-37.1-2.8c0,0-22.1,20.8-27.7,53.3c0,0-1,7.7-7,10.7c0,0-7.3,3.3-15.2-0.7L244,481c0,0-15.3-3.6-16.8-9.3
			c0,0-6.3-1.6-5.4-4.2c0,0-0.2-1.1,1.7-1.5c0,0-0.3-3.7,2-3.3c0,0,2.4-4.6,4.9-3.1c0,0,10.7-2.6,16.7-5.8c0,0,12.3-45.7,35.1-59.2
			c0,0-1.4-31.5,28-33.4l2-4.8c0,0-18.5-9.8-32.2-8.9L266.2,351.3z"/>
		<path fill="#009B9B" stroke="#009B9B" stroke-miterlimit="10" d="M315.9,315.8c0,0-1.5-2.1-0.2-5.1c0,0-0.2-2-2.4-3.7
			c0,0-1.6-2-0.7-3.8c0,0,1-1.8,0.7-2.5c0,0,0.1-1.6,0.6-1.3c0,0,1.9,0.9,1.1,4.2c0,0-0.1,1.2,1.5,2.2c0,0,5.7-0.4,3.3,5.9
			c0,0,0.6,2.3,1.5,2.8c0,0,0.4,0.4,1,0.4c0,0,4.4,0.1,4,2.5c0,0-0.7,3.7,0.7,5.3c0,0,2.2,2,7.1-0.1c0,0,2.4-1,4,1.3
			c0,0,0.4-5.7,2.2-5.7c0,0,3.7-5.7,0.8-7.4c0,0-2.5-1.8-3.6-1.7c0,0-4.5-0.6-4.6-3.4c0,0,1-4.3,0.4-5c0,0-0.3-2-3.2-2.9
			c0,0-6.2-2.1-5.9-4.2c0,0,0.7-4.6,0.1-5.1c0,0-0.5-1.6-1.6-2c0,0-5.5-2.6-5.8-6.2c0,0-0.5-5.1,1.4-6.7c0,0,2-1.7,1.8,1.7
			c0,0-1.8,3.5,5.1,5.9c0,0,2.9-6.1,6.8-2.1c0,0,2-5.6,9.9-3.2c0,0,4.2,2,6,3.1c0,0,17.6,9.2,17.3,23c0,0,0.8,9-4.3,23.1
			c0,0,6.8,9.8,3.5,13.1c0,0-17.2,2-34.5-3.4C329.9,334.5,314,319.9,315.9,315.8z"/>
	</g>
	<path fill="#C4D82E" stroke="#C4D82E" stroke-miterlimit="10" d="M368.1,409.6c0,0-1.3-24.9,1.3-31.8c0,0,9.8-17.7,32-4.2
		L368.1,409.6z"/>
</g>
<g id="Burp_Bubble">
	<path fill="#7FBB42" d="M73.5,53.1c0,0,1.5-17.6,27.3-19.8c0,0,20.8-28.9,57.2-27.2c0,0,30.2,0.3,42.6,14.2
		c0,0,24.4-19.6,58.3-12.2c0,0,26.2,3.7,40.4,25.8c0,0,34.2-4,50.6,32.9c0,0,29.1,12.8,28.8,37.1c0,0,1.5,14.9-16.7,28
		c0,0,14.9,22.4-9.5,44c0,0-23.7,26.1-77.2,15c0,0-7.6,19.6-39.7,15.3c0,0-20.4,24.9-59.3,23.2c0,0-49.9-2.6-55.7-35.2
		c0,0-19.3,19-47,6.8c0,0-25.5-8.5-22.9-33.2c0,0-39.3-8-39.7-36c0,0-2.5-24.6,16.7-34c0,0-16-15.6,3.6-33.7
		C31.3,64.2,47.3,48.6,73.5,53.1z"/>
	<path fill="#7FBB42" d="M250.5,190.6c0,0-3.6,7.2,0.5,15.3c1.6,3.1,4.2,5.7,7.3,7.4c4.4,2.5,13,8.5,15.9,18.3
		c1.1,3.7,3,7.1,5.8,9.7c1.3,1.2,2.8,2.4,4.5,3.4c0,0,11.4,6.3,11.5,15.8c0,4.4,2.5,8.4,6.3,10.5c0.1,0,0.1,0.1,0.2,0.1
		c0,0,11.5,6.8,11.3,19.9c0,0-0.1,0.9-1-0.3c0,0-5-13.5-10.8-15.5c0,0-0.1,0-0.2-0.1c-6.2-2.4-11.1-7.3-13.5-13.5
		c-1.4-3.6-4.7-8.9-12.1-12.4c0,0-11.2-6-15.1-13.7c-0.6-1.3-1-2.6-1.2-4c-0.3-1.8-3.5-8.2-12.7-12.4c0,0-11.9-5.5-13.8-19.4
		c0,0-0.3-5.5,2.5-7.8C236,192,245.6,187,250.5,190.6z"/>
</g>
<g id="Info_1_">
	<g id="Info">
		<g>
			<path fill="#FFFFFF" d="M93.7,43.7h2.6l2.7,7.8h0l2.7-7.8h2.6v10.3h-1.9v-7.7h0h0l-2.6,7.7h-1.6l-2.6-7.7h0v7.7h-1.9V43.7z"/>
			<path fill="#FFFFFF" d="M106.3,43.7h5.6v1.8h-3.6V48h3.5v1.8h-3.5v2.4h3.6v1.8h-5.6V43.7z"/>
			<path fill="#FFFFFF" d="M114.7,45.5h-1.9v-1.8h5.7v1.8h-1.9v8.5h-1.9V45.5z"/>
			<path fill="#FFFFFF" d="M122.6,43.7h1.5l4.3,10.3h-2.1l-1.1-2.7h-3.7l-1.1,2.7h-2.1L122.6,43.7z M122.1,49.6h2.4l-1.2-3.2h0
				L122.1,49.6z"/>
			<path fill="#FFFFFF" d="M129.5,43.7h2c1.1,0,2.3,0,3.2,0.8c0.5,0.5,0.9,1.2,0.9,1.9c0,1.3-0.8,1.8-1.2,2c0.7,0.3,1.8,0.8,1.8,2.6
				c0,1.2-0.7,2-1.3,2.5c-0.8,0.5-2,0.6-2.7,0.6h-2.8V43.7z M131.4,47.7h0.6c0.4,0,1.6,0,1.6-1.1c0-0.6-0.4-1.1-1.5-1.1h-0.8V47.7z
				 M131.4,52.3h1c0.4,0,1.9,0,1.9-1.4c0-0.4-0.2-1.4-1.9-1.4h-1V52.3z"/>
			<path fill="#FFFFFF" d="M142.4,43.5c2.9,0,5.4,2.3,5.4,5.4c0,3-2.4,5.3-5.4,5.3s-5.4-2.4-5.4-5.3
				C137.1,45.9,139.5,43.5,142.4,43.5z M142.4,52.5c2,0,3.5-1.7,3.5-3.6c0-2-1.5-3.6-3.5-3.6s-3.5,1.6-3.5,3.6
				C139,50.8,140.5,52.5,142.4,52.5z"/>
			<path fill="#FFFFFF" d="M149.3,43.7h1.9v8.5h3.2v1.8h-5.1V43.7z"/>
			<path fill="#FFFFFF" d="M155.5,43.7h1.9v10.3h-1.9V43.7z"/>
			<path fill="#FFFFFF" d="M160.5,51.1c0.1,1,0.8,1.4,1.4,1.4c0.8,0,1.4-0.5,1.4-1.3c0-1.1-0.7-1.3-2-1.7c-0.8-0.3-2.5-0.8-2.5-3
				c0-1.6,1.3-2.9,3-2.9c1.2,0,3,0.8,3.1,2.9h-2c-0.1-0.9-0.6-1.2-1.2-1.2c-0.6,0-1.1,0.4-1.1,1c0,0.9,0.7,1.1,1.7,1.4
				c0.9,0.3,2.7,0.9,2.7,3.2c0,2.2-1.7,3.3-3.3,3.3c-1.3,0-3.2-0.9-3.4-3.2H160.5z"/>
			<path fill="#FFFFFF" d="M166.5,43.7h2.6l2.7,7.8h0l2.7-7.8h2.6v10.3h-1.9v-7.7h0h0l-2.6,7.7h-1.6l-2.6-7.7h0v7.7h-1.9V43.7z"/>
		</g>
		<g>
			<path fill="#FFFFFF" d="M241.3,65.7l0,5.1c0,0.4,0,1.7,1.4,1.7s1.4-1.3,1.4-1.7v-5.1h1.5v5.1c0,0.7-0.1,1.4-0.5,1.9
				c-0.5,0.7-1.3,1.2-2.4,1.2c-1.2,0-2-0.7-2.4-1.1c-0.3-0.3-0.5-1-0.5-1.9v-5.1H241.3z"/>
			<path fill="#FFFFFF" d="M246.7,67.7h1.3v0.5c0.2-0.2,0.7-0.7,1.6-0.7c0.5,0,1.3,0.2,1.8,0.8c0.6,0.7,0.6,1.7,0.6,2.1v3.3h-1.4v-3
				c0-0.5,0-1.9-1.2-1.9c-0.3,0-0.7,0.1-1,0.5c-0.3,0.4-0.3,1-0.3,1.5v2.9h-1.4V67.7z"/>
			<path fill="#FFFFFF" d="M259.4,73.8H258V73h0c-0.3,0.4-0.9,0.9-1.9,0.9c-1.5,0-3.1-1.3-3.1-3.2c0-2,1.6-3.2,3.1-3.2
				c0.9,0,1.4,0.3,1.8,0.7v-2.5h1.4V73.8z M256.3,72.6c1.1,0,1.8-1,1.8-1.9c0-1-0.8-1.9-1.8-1.9c-1.1,0-1.8,1-1.8,1.8
				C254.5,71.8,255.3,72.6,256.3,72.6z"/>
			<path fill="#FFFFFF" d="M261.7,71.4c0.1,0.4,0.6,1.2,1.7,1.2c0.6,0,1.1-0.3,1.4-0.8h1.5c-0.3,1.1-1.5,2.1-2.9,2.1
				c-1.8,0-3.2-1.4-3.2-3.2c0-1.7,1.3-3.3,3.2-3.3c1.9,0,3.1,1.6,3.1,3.2c0,0.3,0,0.5-0.1,0.7H261.7z M265,70.2
				c-0.2-1-0.9-1.4-1.6-1.4c-0.5,0-1.4,0.3-1.7,1.4H265z"/>
			<path fill="#FFFFFF" d="M267.5,67.7h1.3v0.5h0c0.3-0.4,0.5-0.7,1.3-0.7h0.1v1.4c-1.3,0.1-1.3,1.1-1.3,1.4v3.4h-1.4V67.7z"/>
			<path fill="#FFFFFF" d="M273.5,69.4c-0.1-0.5-0.4-0.5-0.6-0.5c-0.4,0-0.6,0.3-0.6,0.5c0,0.3,0.2,0.4,1,0.7
				c0.7,0.2,1.7,0.6,1.7,1.8c0,1.4-1.1,2.1-2.1,2.1c-0.6,0-1.3-0.2-1.8-0.8c-0.4-0.5-0.4-0.9-0.5-1.3h1.5c0.1,0.3,0.2,0.8,0.8,0.8
				c0.5,0,0.7-0.4,0.7-0.6c0-0.4-0.3-0.6-1.4-0.9c-0.7-0.2-1.3-0.7-1.3-1.7c0-1.2,1.1-1.9,2-1.9c0.9,0,1.9,0.7,2,1.8H273.5z"/>
			<path fill="#FFFFFF" d="M276.2,69h-0.7v-1.3h0.7v-2h1.4v2h0.9V69h-0.9v4.7h-1.4V69z"/>
			<path fill="#FFFFFF" d="M285.1,73.8h-1.3V73c-0.5,0.5-1.3,0.9-2.1,0.9c-1.6,0-2.9-1.2-2.9-3.2c0-1.8,1.3-3.2,3-3.2
				c1.2,0,2,0.9,2,1h0v-0.8h1.3V73.8z M282,68.8c-1.2,0-1.8,1-1.8,1.9c0,1,0.8,1.9,1.8,1.9c1,0,1.8-0.8,1.8-1.9
				C283.8,69.5,282.9,68.8,282,68.8z"/>
			<path fill="#FFFFFF" d="M286.2,67.7h1.3v0.5c0.2-0.2,0.7-0.7,1.6-0.7c0.5,0,1.3,0.2,1.8,0.8c0.6,0.7,0.6,1.7,0.6,2.1v3.3h-1.4v-3
				c0-0.5,0-1.9-1.2-1.9c-0.3,0-0.7,0.1-1,0.5c-0.3,0.4-0.3,1-0.3,1.5v2.9h-1.4V67.7z"/>
			<path fill="#FFFFFF" d="M298.9,73.8h-1.3V73h0c-0.3,0.4-0.9,0.9-1.9,0.9c-1.5,0-3.1-1.3-3.1-3.2c0-2,1.6-3.2,3.1-3.2
				c0.9,0,1.4,0.3,1.8,0.7v-2.5h1.4V73.8z M295.8,72.6c1.1,0,1.8-1,1.8-1.9c0-1-0.8-1.9-1.8-1.9c-1.1,0-1.8,1-1.8,1.8
				C294,71.8,294.8,72.6,295.8,72.6z"/>
			<path fill="#FFFFFF" d="M299.9,65.7h1.4V67h-1.4V65.7z M299.9,67.7h1.4v6h-1.4V67.7z"/>
			<path fill="#FFFFFF" d="M302.5,67.7h1.3v0.5c0.2-0.2,0.7-0.7,1.6-0.7c0.5,0,1.3,0.2,1.8,0.8c0.6,0.7,0.6,1.7,0.6,2.1v3.3h-1.4v-3
				c0-0.5,0-1.9-1.2-1.9c-0.3,0-0.7,0.1-1,0.5c-0.3,0.4-0.3,1-0.3,1.5v2.9h-1.4V67.7z"/>
			<path fill="#FFFFFF" d="M315.2,67.7v4.9c0,2.9-2.1,3.6-3.3,3.6c-1.2,0-2.5-0.7-3-2h1.6c0.6,0.7,1.3,0.7,1.5,0.7
				c0.8,0,1.8-0.6,1.8-1.9l0,0c-0.2,0.3-0.7,1-2,1c-1.5,0-3.1-1.2-3.1-3.3c0-1.9,1.5-3.2,3.1-3.2c1.2,0,1.8,0.7,1.9,0.9h0v-0.7
				H315.2z M312,68.8c-0.9,0-1.8,0.7-1.8,1.8c0,1.2,0.9,1.9,1.8,1.9c0.9,0,1.7-0.7,1.7-1.9C313.8,69.8,313.1,68.8,312,68.8z"/>
			<path fill="#FFFFFF" d="M319.6,69h-0.7v-1.3h0.7v-2h1.4v2h0.9V69H321v4.7h-1.4V69z"/>
			<path fill="#FFFFFF" d="M322.5,65.7h1.4v2.4c0.2-0.2,0.7-0.6,1.6-0.6c0.7,0,1.4,0.4,1.9,0.9c0.5,0.6,0.5,1.5,0.5,1.9v3.4h-1.4
				v-3.1c0-0.7,0-1.8-1.2-1.8c-1.2,0-1.2,1.3-1.2,1.8v3.1h-1.4V65.7z"/>
			<path fill="#FFFFFF" d="M330.3,71.4c0.1,0.4,0.6,1.2,1.7,1.2c0.6,0,1.1-0.3,1.4-0.8h1.5c-0.3,1.1-1.5,2.1-2.9,2.1
				c-1.8,0-3.2-1.4-3.2-3.2c0-1.7,1.3-3.3,3.2-3.3c1.9,0,3.1,1.6,3.1,3.2c0,0.3,0,0.5-0.1,0.7H330.3z M333.6,70.2
				c-0.2-1-0.9-1.4-1.6-1.4c-0.5,0-1.4,0.3-1.7,1.4H333.6z"/>
			<path fill="#FFFFFF" d="M267.4,80.8h1.3v0.7h0c0.7-0.9,1.7-0.9,2-0.9c2,0,3,1.7,3,3.2c0,1.8-1.3,3.2-3,3.2c-1,0-1.5-0.4-1.9-0.8
				v2.6h-1.4V80.8z M270.5,85.6c0.8,0,1.8-0.7,1.8-1.9c0-1.1-0.8-1.9-1.7-1.9c-0.9,0-1.8,0.7-1.8,1.9
				C268.7,85.1,269.8,85.6,270.5,85.6z"/>
			<path fill="#FFFFFF" d="M274.7,80.8h1.3v0.5h0c0.3-0.4,0.5-0.7,1.3-0.7h0.1v1.4c-1.3,0.1-1.3,1.1-1.3,1.4v3.4h-1.4V80.8z"/>
			<path fill="#FFFFFF" d="M277.6,83.8c0-1.8,1.5-3.2,3.2-3.2c1.7,0,3.2,1.4,3.2,3.2c0,2-1.5,3.2-3.2,3.2
				C279,87,277.6,85.5,277.6,83.8z M282.6,83.8c0-1.1-0.8-1.9-1.7-1.9c-0.7,0-1.8,0.6-1.8,1.9c0,1.1,0.9,1.9,1.8,1.9
				C281.9,85.6,282.6,84.7,282.6,83.8z"/>
			<path fill="#FFFFFF" d="M290.9,84.8c-0.5,1.3-1.6,2.2-3,2.2c-1.5,0-3.2-1.2-3.2-3.2c0-1.8,1.5-3.2,3.2-3.2c0.8,0,2.4,0.3,3,2.2
				h-1.6c-0.2-0.3-0.5-0.9-1.4-0.9c-0.9,0-1.7,0.7-1.7,1.9c0,1,0.7,1.9,1.8,1.9c0.5,0,1-0.2,1.3-0.8H290.9z"/>
			<path fill="#FFFFFF" d="M293.1,84.4c0.1,0.4,0.6,1.2,1.7,1.2c0.6,0,1.1-0.3,1.4-0.8h1.5c-0.3,1.1-1.5,2.1-2.9,2.1
				c-1.8,0-3.2-1.4-3.2-3.2c0-1.7,1.3-3.3,3.2-3.3c1.9,0,3.1,1.6,3.1,3.2c0,0.3,0,0.5-0.1,0.7H293.1z M296.4,83.2
				c-0.2-1-0.9-1.4-1.6-1.4c-0.5,0-1.4,0.3-1.7,1.4H296.4z"/>
			<path fill="#FFFFFF" d="M301.2,82.4c-0.1-0.5-0.4-0.5-0.6-0.5c-0.4,0-0.6,0.3-0.6,0.5c0,0.3,0.2,0.4,1,0.7
				c0.7,0.2,1.7,0.6,1.7,1.8c0,1.4-1.1,2.1-2.1,2.1c-0.6,0-1.3-0.2-1.8-0.8c-0.4-0.5-0.4-0.9-0.5-1.3h1.5c0.1,0.3,0.2,0.8,0.8,0.8
				c0.5,0,0.7-0.4,0.7-0.6c0-0.4-0.3-0.6-1.4-0.9c-0.7-0.2-1.3-0.7-1.3-1.7c0-1.2,1.1-1.9,2-1.9c0.9,0,1.9,0.7,2,1.8H301.2z"/>
			<path fill="#FFFFFF" d="M305.9,82.4c-0.1-0.5-0.4-0.5-0.6-0.5c-0.4,0-0.6,0.3-0.6,0.5c0,0.3,0.2,0.4,1,0.7
				c0.7,0.2,1.7,0.6,1.7,1.8c0,1.4-1.1,2.1-2.1,2.1c-0.6,0-1.3-0.2-1.8-0.8c-0.4-0.5-0.4-0.9-0.5-1.3h1.5c0.1,0.3,0.2,0.8,0.8,0.8
				c0.5,0,0.7-0.4,0.7-0.6c0-0.4-0.3-0.6-1.4-0.9c-0.7-0.2-1.3-0.7-1.3-1.7c0-1.2,1.1-1.9,2-1.9c0.9,0,1.9,0.7,2,1.8H305.9z"/>
		</g>
		<path fill="#FFFFFF" stroke="#FFFFFF" stroke-miterlimit="10" d="M164.9,113.3c0,0-4.7-5.2-5-4.9c0,0-2.1-2.6-2.1-3.7
			c0,0,5.1-7.8,9.6-9.4c0,0,7.8-7.7-2.4-21.3c0,0-3.3-4.6-7.3-4.9c0,0-1.7-0.1-2-1.1c0,0-1,0.2-0.8,1c0,0-0.4-0.2-0.4-0.4
			c0,0-1.5,0.9-1.2,2.1c0,0-1.8,0-2,1.2c0,0-0.3,0.7-0.1,1.5c0,0-0.3,0.1-0.4-0.1c0,0-0.3,0.2,0,0.9c0,0-4,1.7-4.7,4.3
			c0,0-0.1,0.2-0.7,0.4c0,0-4.8,0.4-4.9,2.1c0,0-0.2,0.5,0.5,1.9c0,0,0.2,0.8-0.3,0.9c0,0-1.3-0.2-1.6,0.4l-9.6-1.4
			c0,0-0.9-1.6-3.5-2.2v-1.7c0,0,0.1-1.2-1.2-1.4c0,0-1-0.1-1.4,0.6c0,0-1.5-1.4-2.5-0.5c0,0-2.2-1.6-3.3-0.2c0,0-1.9-0.4-2.8,0.8
			l-1.3,1.1l-2.6-0.1c0,0-0.5-0.2-0.7,0.7c0,0-0.7,2.5-0.5,7.3c0,0,0,0.2,0.2,0.2c0,0-7.5,12.6-9,23.6c0,0-0.3,1,3.5,3.7
			c0,0,5.3,4.8,28.7,5.3c0,0-3.4,8.9-1.6,17.5c0,0-0.1,3.4-1.1,5.8c0,0-11.1,10-7.5,24.4h42C164.9,167.6,174.2,119.4,164.9,113.3z"
			/>
		<g>
			<path fill="#FFFFFF" d="M177.4,82.8h0.7l1.9,4.6H179l-0.5-1.2h-1.6l-0.5,1.2h-0.9L177.4,82.8z M177.2,85.4h1.1l-0.5-1.4h0
				L177.2,85.4z"/>
			<path fill="#FFFFFF" d="M180.4,82.8h0.8v4.6h-0.8V82.8z"/>
			<path fill="#FFFFFF" d="M185.3,86.3c-0.3,0.8-0.9,1.2-1.7,1.2c-0.9,0-1.8-0.7-1.8-1.8c0-1.1,0.9-1.8,1.8-1.8
				c0.4,0,1.4,0.2,1.7,1.3h-0.9c-0.1-0.2-0.3-0.5-0.8-0.5c-0.5,0-1,0.4-1,1.1c0,0.6,0.4,1.1,1,1.1c0.3,0,0.5-0.1,0.8-0.5H185.3z"/>
			<path fill="#FFFFFF" d="M185.6,85.7c0-1,0.8-1.8,1.8-1.8c1,0,1.8,0.8,1.8,1.8c0,1.1-0.9,1.8-1.8,1.8
				C186.5,87.5,185.6,86.7,185.6,85.7z M188.5,85.7c0-0.6-0.5-1.1-1-1.1c-0.4,0-1,0.4-1,1.1c0,0.7,0.5,1.1,1,1.1
				C188.1,86.8,188.5,86.3,188.5,85.7z"/>
			<path fill="#FFFFFF" d="M189.8,82.8h0.8v1.4c0.1-0.1,0.4-0.4,0.9-0.4c0.4,0,0.8,0.2,1.1,0.5c0.3,0.3,0.3,0.8,0.3,1.1v1.9H192
				v-1.8c0-0.4,0-1-0.7-1c-0.7,0-0.7,0.8-0.7,1.1v1.7h-0.8V82.8z"/>
			<path fill="#FFFFFF" d="M193.3,85.7c0-1,0.8-1.8,1.8-1.8c1,0,1.8,0.8,1.8,1.8c0,1.1-0.9,1.8-1.8,1.8
				C194.1,87.5,193.3,86.7,193.3,85.7z M196.2,85.7c0-0.6-0.5-1.1-1-1.1c-0.4,0-1,0.4-1,1.1c0,0.7,0.5,1.1,1,1.1
				C195.8,86.8,196.2,86.3,196.2,85.7z"/>
			<path fill="#FFFFFF" d="M197.5,82.8h0.8v4.6h-0.8V82.8z"/>
			<path fill="#FFFFFF" d="M200.7,82.8h0.8v0.8h-0.8V82.8z M200.7,84h0.8v3.4h-0.8V84z"/>
			<path fill="#FFFFFF" d="M203.6,84.9c-0.1-0.3-0.2-0.3-0.3-0.3c-0.2,0-0.3,0.2-0.3,0.3c0,0.2,0.1,0.2,0.6,0.4c0.4,0.1,1,0.3,1,1
				c0,0.8-0.6,1.2-1.2,1.2c-0.3,0-0.8-0.1-1-0.5c-0.2-0.3-0.2-0.5-0.3-0.7h0.8c0,0.2,0.1,0.4,0.5,0.4c0.3,0,0.4-0.2,0.4-0.3
				c0-0.3-0.2-0.3-0.8-0.5c-0.4-0.1-0.8-0.4-0.8-1c0-0.7,0.6-1.1,1.2-1.1c0.5,0,1.1,0.4,1.1,1.1H203.6z"/>
			<path fill="#FFFFFF" d="M178.3,90.3h0.8V91h-0.8V90.3z M178.3,91.4h0.8v3.4h-0.8V91.4z"/>
			<path fill="#FFFFFF" d="M179.7,91.4h0.8v0.3c0.1-0.1,0.4-0.4,0.9-0.4c0.3,0,0.7,0.1,1,0.5c0.3,0.4,0.3,1,0.3,1.2v1.9H182v-1.7
				c0-0.3,0-1.1-0.7-1.1c-0.1,0-0.4,0.1-0.6,0.3c-0.1,0.2-0.1,0.6-0.1,0.9v1.6h-0.8V91.4z"/>
			<path fill="#FFFFFF" d="M187,91.4v2.8c0,1.7-1.2,2-1.9,2c-0.7,0-1.4-0.4-1.7-1.1h0.9c0.3,0.4,0.7,0.4,0.8,0.4
				c0.5,0,1-0.3,1.1-1.1l0,0c-0.1,0.2-0.4,0.6-1.1,0.6c-0.8,0-1.8-0.7-1.8-1.9c0-1.1,0.9-1.8,1.8-1.8c0.7,0,1,0.4,1.1,0.5h0v-0.4
				H187z M185.2,92.1c-0.5,0-1,0.4-1,1.1c0,0.7,0.5,1.1,1,1.1c0.5,0,1-0.4,1-1.1C186.2,92.6,185.8,92.1,185.2,92.1z"/>
			<path fill="#FFFFFF" d="M188.3,93.5c0,0.2,0.4,0.7,0.9,0.7c0.4,0,0.6-0.2,0.8-0.4h0.9c-0.2,0.6-0.9,1.2-1.7,1.2
				c-1,0-1.8-0.8-1.8-1.8c0-1,0.7-1.9,1.8-1.9c1.1,0,1.8,0.9,1.8,1.8c0,0.2,0,0.3,0,0.4H188.3z M190.2,92.9
				c-0.1-0.6-0.5-0.8-0.9-0.8c-0.3,0-0.8,0.2-1,0.8H190.2z"/>
			<path fill="#FFFFFF" d="M192.9,92.4c-0.1-0.3-0.2-0.3-0.3-0.3c-0.2,0-0.3,0.2-0.3,0.3c0,0.2,0.1,0.2,0.6,0.4c0.4,0.1,1,0.3,1,1
				c0,0.8-0.6,1.2-1.2,1.2c-0.3,0-0.8-0.1-1-0.5c-0.2-0.3-0.2-0.5-0.3-0.7h0.8c0,0.2,0.1,0.4,0.5,0.4c0.3,0,0.4-0.2,0.4-0.3
				c0-0.3-0.2-0.3-0.8-0.5c-0.4-0.1-0.8-0.4-0.8-1c0-0.7,0.6-1.1,1.2-1.1c0.5,0,1.1,0.4,1.1,1.1H192.9z"/>
			<path fill="#FFFFFF" d="M194.5,92.2h-0.4v-0.7h0.4v-1.1h0.8v1.1h0.5v0.7h-0.5v2.7h-0.8V92.2z"/>
			<path fill="#FFFFFF" d="M196.8,93.5c0,0.2,0.4,0.7,0.9,0.7c0.4,0,0.6-0.2,0.8-0.4h0.9c-0.2,0.6-0.9,1.2-1.7,1.2
				c-1,0-1.8-0.8-1.8-1.8c0-1,0.7-1.9,1.8-1.9c1.1,0,1.8,0.9,1.8,1.8c0,0.2,0,0.3,0,0.4H196.8z M198.7,92.9
				c-0.1-0.6-0.5-0.8-0.9-0.8c-0.3,0-0.8,0.2-1,0.8H198.7z"/>
			<path fill="#FFFFFF" d="M203.6,94.9h-0.8v-0.4h0c-0.2,0.2-0.5,0.5-1.1,0.5c-0.9,0-1.8-0.7-1.8-1.8c0-1.2,0.9-1.8,1.8-1.8
				c0.5,0,0.8,0.2,1,0.4v-1.4h0.8V94.9z M201.8,94.2c0.6,0,1-0.6,1-1.1c0-0.6-0.4-1.1-1-1.1c-0.6,0-1,0.6-1,1.1
				C200.8,93.8,201.3,94.2,201.8,94.2z"/>
		</g>
		<g>
			<path fill="#FFFFFF" d="M63.5,104.5h0.7l1.9,4.6h-0.9l-0.5-1.2H63l-0.5,1.2h-0.9L63.5,104.5z M63.3,107.1h1.1l-0.5-1.4h0
				L63.3,107.1z"/>
			<path fill="#FFFFFF" d="M66.5,104.5h0.8v4.6h-0.8V104.5z"/>
			<path fill="#FFFFFF" d="M71.4,108c-0.3,0.8-0.9,1.2-1.7,1.2c-0.9,0-1.8-0.7-1.8-1.8c0-1.1,0.9-1.8,1.8-1.8c0.4,0,1.4,0.2,1.7,1.3
				h-0.9c-0.1-0.2-0.3-0.5-0.8-0.5c-0.5,0-1,0.4-1,1.1c0,0.6,0.4,1.1,1,1.1c0.3,0,0.5-0.1,0.8-0.5H71.4z"/>
			<path fill="#FFFFFF" d="M71.7,107.4c0-1,0.8-1.8,1.8-1.8c1,0,1.8,0.8,1.8,1.8c0,1.1-0.9,1.8-1.8,1.8
				C72.6,109.2,71.7,108.4,71.7,107.4z M74.6,107.4c0-0.6-0.5-1.1-1-1.1c-0.4,0-1,0.4-1,1.1c0,0.7,0.5,1.1,1,1.1
				C74.2,108.5,74.6,107.9,74.6,107.4z"/>
			<path fill="#FFFFFF" d="M75.9,104.5h0.8v1.4c0.1-0.1,0.4-0.4,0.9-0.4c0.4,0,0.8,0.2,1.1,0.5c0.3,0.3,0.3,0.8,0.3,1.1v1.9h-0.8
				v-1.8c0-0.4,0-1-0.7-1c-0.7,0-0.7,0.8-0.7,1.1v1.7h-0.8V104.5z"/>
			<path fill="#FFFFFF" d="M79.4,107.4c0-1,0.8-1.8,1.8-1.8c1,0,1.8,0.8,1.8,1.8c0,1.1-0.9,1.8-1.8,1.8
				C80.2,109.2,79.4,108.4,79.4,107.4z M82.3,107.4c0-0.6-0.5-1.1-1-1.1c-0.4,0-1,0.4-1,1.1c0,0.7,0.5,1.1,1,1.1
				C81.9,108.5,82.3,107.9,82.3,107.4z"/>
			<path fill="#FFFFFF" d="M83.6,104.5h0.8v4.6h-0.8V104.5z"/>
			<path fill="#FFFFFF" d="M86.8,104.5h0.8v0.8h-0.8V104.5z M86.8,105.7h0.8v3.4h-0.8V105.7z"/>
			<path fill="#FFFFFF" d="M89.7,106.6c-0.1-0.3-0.2-0.3-0.3-0.3c-0.2,0-0.3,0.2-0.3,0.3c0,0.2,0.1,0.2,0.6,0.4c0.4,0.1,1,0.3,1,1
				c0,0.8-0.6,1.2-1.2,1.2c-0.3,0-0.8-0.1-1-0.5c-0.2-0.3-0.2-0.5-0.3-0.7h0.8c0,0.2,0.1,0.4,0.5,0.4c0.3,0,0.4-0.2,0.4-0.3
				c0-0.3-0.2-0.3-0.8-0.5c-0.4-0.1-0.8-0.4-0.8-1c0-0.7,0.6-1.1,1.2-1.1c0.5,0,1.1,0.4,1.1,1.1H89.7z"/>
			<path fill="#FFFFFF" d="M58.4,113.1h0.8v0.3h0c0.1-0.1,0.3-0.4,0.9-0.4c0.2,0,0.7,0,1,0.5c0.4-0.5,0.9-0.5,1.1-0.5
				c0.7,0,1,0.4,1.1,0.5c0.1,0.2,0.3,0.5,0.3,1v2h-0.8v-1.9c0-0.2,0-0.9-0.7-0.9c-0.2,0-0.5,0.1-0.6,0.3c-0.1,0.2-0.1,0.5-0.1,0.8
				v1.7h-0.8v-1.9c0-0.5-0.2-0.9-0.7-0.9c-0.7,0-0.7,0.7-0.7,1.1v1.7h-0.8V113.1z"/>
			<path fill="#FFFFFF" d="M65,115.2c0,0.2,0.4,0.7,0.9,0.7c0.4,0,0.6-0.2,0.8-0.4h0.9c-0.2,0.6-0.9,1.2-1.7,1.2
				c-1,0-1.8-0.8-1.8-1.8c0-1,0.8-1.9,1.8-1.9c1.1,0,1.8,0.9,1.8,1.8c0,0.2,0,0.3,0,0.4H65z M66.9,114.5c-0.1-0.6-0.5-0.8-0.9-0.8
				c-0.3,0-0.8,0.2-1,0.8H66.9z"/>
			<path fill="#FFFFFF" d="M68.4,113.8H68v-0.7h0.4V112h0.8v1.1h0.5v0.7h-0.5v2.7h-0.8V113.8z"/>
			<path fill="#FFFFFF" d="M73.6,116.5h-0.8v-0.4c-0.3,0.3-0.8,0.5-1.2,0.5c-0.9,0-1.7-0.7-1.7-1.9c0-1.1,0.8-1.8,1.7-1.8
				c0.7,0,1.1,0.5,1.1,0.6h0v-0.4h0.8V116.5z M71.8,113.7c-0.7,0-1,0.6-1,1.1c0,0.6,0.4,1.1,1,1.1c0.6,0,1-0.4,1-1.1
				C72.8,114.1,72.3,113.7,71.8,113.7z"/>
			<path fill="#FFFFFF" d="M74.2,112H75v1.5c0.3-0.3,0.7-0.4,1.1-0.4c1,0,1.7,0.9,1.7,1.8c0,0.7-0.5,1.8-1.7,1.8
				c-0.7,0-1-0.3-1.2-0.5v0.4h-0.8V112z M76,115.9c0.5,0,1-0.4,1-1.1s-0.5-1.1-1-1.1c-0.6,0-1,0.5-1,1C75,115.5,75.5,115.9,76,115.9
				z"/>
			<path fill="#FFFFFF" d="M78.1,114.8c0-1,0.8-1.8,1.8-1.8c1,0,1.8,0.8,1.8,1.8c0,1.1-0.9,1.8-1.8,1.8
				C79,116.7,78.1,115.8,78.1,114.8z M81,114.8c0-0.6-0.5-1.1-1-1.1c-0.4,0-1,0.4-1,1.1c0,0.7,0.5,1.1,1,1.1
				C80.6,115.9,81,115.4,81,114.8z"/>
			<path fill="#FFFFFF" d="M82.3,112h0.8v4.6h-0.8V112z"/>
			<path fill="#FFFFFF" d="M83.8,112h0.8v0.8h-0.8V112z M83.8,113.1h0.8v3.4h-0.8V113.1z"/>
			<path fill="#FFFFFF" d="M85.1,115.8l1.5-1.9h-1.4v-0.8h2.3v0.8l-1.5,1.9h1.6v0.8h-2.6V115.8z"/>
			<path fill="#FFFFFF" d="M88.8,115.2c0,0.2,0.4,0.7,0.9,0.7c0.4,0,0.6-0.2,0.8-0.4h0.9c-0.2,0.6-0.9,1.2-1.7,1.2
				c-1,0-1.8-0.8-1.8-1.8c0-1,0.7-1.9,1.8-1.9c1.1,0,1.8,0.9,1.8,1.8c0,0.2,0,0.3,0,0.4H88.8z M90.7,114.5c-0.1-0.6-0.5-0.8-0.9-0.8
				c-0.3,0-0.8,0.2-1,0.8H90.7z"/>
			<path fill="#FFFFFF" d="M95.6,116.5h-0.8v-0.4h0c-0.2,0.2-0.5,0.5-1.1,0.5c-0.9,0-1.8-0.7-1.8-1.8c0-1.2,0.9-1.8,1.8-1.8
				c0.5,0,0.8,0.2,1,0.4V112h0.8V116.5z M93.8,115.9c0.6,0,1-0.6,1-1.1c0-0.6-0.4-1.1-1-1.1c-0.6,0-1,0.6-1,1.1
				C92.8,115.4,93.3,115.9,93.8,115.9z"/>
		</g>
		<g>
			<path fill="#FFFFFF" d="M175.4,126.2h2.3v0.8h-1.5v1.1h1.4v0.8h-1.4v1.9h-0.8V126.2z"/>
			<path fill="#FFFFFF" d="M181.7,130.8H181v-0.4c-0.3,0.3-0.8,0.5-1.2,0.5c-0.9,0-1.7-0.7-1.7-1.9c0-1.1,0.8-1.8,1.7-1.8
				c0.7,0,1.1,0.5,1.1,0.6h0v-0.4h0.8V130.8z M179.9,128c-0.7,0-1,0.6-1,1.1c0,0.6,0.4,1.1,1,1.1c0.6,0,1-0.4,1-1.1
				C180.9,128.3,180.4,128,179.9,128z"/>
			<path fill="#FFFFFF" d="M182.6,128.1h-0.4v-0.7h0.4v-1.1h0.8v1.1h0.5v0.7h-0.5v2.7h-0.8V128.1z"/>
			<path fill="#FFFFFF" d="M185.8,129.1c0-1,0.8-1.8,1.8-1.8c1,0,1.8,0.8,1.8,1.8c0,1.1-0.9,1.8-1.8,1.8
				C186.6,130.9,185.8,130,185.8,129.1z M188.6,129.1c0-0.6-0.5-1.1-1-1.1c-0.4,0-1,0.4-1,1.1c0,0.7,0.5,1.1,1,1.1
				C188.2,130.1,188.6,129.6,188.6,129.1z"/>
			<path fill="#FFFFFF" d="M190.7,129l-1.1-1.7h0.9l0.6,1l0.6-1h0.9l-1.1,1.7l1.2,1.8h-1l-0.7-1.2l-0.7,1.2h-1L190.7,129z"/>
			<path fill="#FFFFFF" d="M193.2,126.2h0.8v0.8h-0.8V126.2z M193.2,127.3h0.8v3.4h-0.8V127.3z"/>
			<path fill="#FFFFFF" d="M198.2,130.8h-0.8v-0.4h0c-0.2,0.2-0.5,0.5-1.1,0.5c-0.9,0-1.8-0.7-1.8-1.8c0-1.2,0.9-1.8,1.8-1.8
				c0.5,0,0.8,0.2,1,0.4v-1.4h0.8V130.8z M196.4,130.1c0.6,0,1-0.6,1-1.1c0-0.6-0.4-1.1-1-1.1c-0.6,0-1,0.6-1,1.1
				C195.4,129.7,195.9,130.1,196.4,130.1z"/>
			<path fill="#FFFFFF" d="M198.8,126.2h0.8v0.8h-0.8V126.2z M198.8,127.3h0.8v3.4h-0.8V127.3z"/>
			<path fill="#FFFFFF" d="M200.1,130l1.5-1.9h-1.4v-0.8h2.3v0.8l-1.5,1.9h1.6v0.8h-2.6V130z"/>
			<path fill="#FFFFFF" d="M206.6,130.8h-0.8v-0.4c-0.3,0.3-0.8,0.5-1.2,0.5c-0.9,0-1.7-0.7-1.7-1.9c0-1.1,0.8-1.8,1.7-1.8
				c0.7,0,1.1,0.5,1.1,0.6h0v-0.4h0.8V130.8z M204.8,128c-0.7,0-1,0.6-1,1.1c0,0.6,0.4,1.1,1,1.1c0.6,0,1-0.4,1-1.1
				C205.8,128.3,205.3,128,204.8,128z"/>
			<path fill="#FFFFFF" d="M207.5,128.1h-0.4v-0.7h0.4v-1.1h0.8v1.1h0.5v0.7h-0.5v2.7h-0.8V128.1z"/>
			<path fill="#FFFFFF" d="M209.1,126.2h0.8v0.8h-0.8V126.2z M209.1,127.3h0.8v3.4h-0.8V127.3z"/>
			<path fill="#FFFFFF" d="M210.4,129.1c0-1,0.8-1.8,1.8-1.8c1,0,1.8,0.8,1.8,1.8c0,1.1-0.9,1.8-1.8,1.8
				C211.2,130.9,210.4,130,210.4,129.1z M213.3,129.1c0-0.6-0.5-1.1-1-1.1c-0.4,0-1,0.4-1,1.1c0,0.7,0.5,1.1,1,1.1
				C212.9,130.1,213.3,129.6,213.3,129.1z"/>
			<path fill="#FFFFFF" d="M214.6,127.3h0.8v0.3c0.1-0.1,0.4-0.4,0.9-0.4c0.3,0,0.7,0.1,1,0.5c0.3,0.4,0.3,1,0.3,1.2v1.9h-0.8v-1.7
				c0-0.3,0-1.1-0.7-1.1c-0.1,0-0.4,0.1-0.6,0.3c-0.1,0.2-0.1,0.6-0.1,0.9v1.6h-0.8V127.3z"/>
			<path fill="#FFFFFF" d="M191.4,135.7c-0.1-0.3-0.2-0.3-0.3-0.3c-0.2,0-0.3,0.2-0.3,0.3c0,0.2,0.1,0.2,0.6,0.4c0.4,0.1,1,0.3,1,1
				c0,0.8-0.6,1.2-1.2,1.2c-0.3,0-0.8-0.1-1-0.5c-0.2-0.3-0.2-0.5-0.3-0.7h0.8c0,0.2,0.1,0.4,0.5,0.4c0.3,0,0.4-0.2,0.4-0.3
				c0-0.3-0.2-0.3-0.8-0.5c-0.4-0.1-0.8-0.4-0.8-1c0-0.7,0.6-1.1,1.2-1.1c0.5,0,1.1,0.4,1.1,1.1H191.4z"/>
			<path fill="#FFFFFF" d="M193,135.5h-0.4v-0.7h0.4v-1.1h0.8v1.1h0.5v0.7h-0.5v2.7H193V135.5z"/>
			<path fill="#FFFFFF" d="M194.4,136.5c0-1,0.8-1.8,1.8-1.8c1,0,1.8,0.8,1.8,1.8c0,1.1-0.9,1.8-1.8,1.8
				C195.2,138.3,194.4,137.5,194.4,136.5z M197.3,136.5c0-0.6-0.5-1.1-1-1.1c-0.4,0-1,0.4-1,1.1c0,0.7,0.5,1.1,1,1.1
				C196.9,137.6,197.3,137,197.3,136.5z"/>
			<path fill="#FFFFFF" d="M198.5,134.8h0.8v0.4h0c0.4-0.5,1-0.5,1.1-0.5c1.1,0,1.7,1,1.7,1.8c0,1-0.7,1.8-1.7,1.8
				c-0.6,0-0.8-0.2-1.1-0.4v1.5h-0.8V134.8z M200.3,137.6c0.4,0,1-0.4,1-1.1c0-0.6-0.5-1.1-1-1.1c-0.5,0-1,0.4-1,1.1
				C199.3,137.2,199.9,137.6,200.3,137.6z"/>
			<path fill="#FFFFFF" d="M204.1,135.7c-0.1-0.3-0.2-0.3-0.3-0.3c-0.2,0-0.3,0.2-0.3,0.3c0,0.2,0.1,0.2,0.6,0.4c0.4,0.1,1,0.3,1,1
				c0,0.8-0.6,1.2-1.2,1.2c-0.3,0-0.8-0.1-1-0.5c-0.2-0.3-0.2-0.5-0.3-0.7h0.8c0,0.2,0.1,0.4,0.5,0.4c0.3,0,0.4-0.2,0.4-0.3
				c0-0.3-0.2-0.3-0.8-0.5c-0.4-0.1-0.8-0.4-0.8-1c0-0.7,0.6-1.1,1.2-1.1c0.5,0,1.1,0.4,1.1,1.1H204.1z"/>
		</g>
		<g>
			<path fill="#FFFFFF" d="M56.9,147.8h0.9l0.8,3.2h0l0.8-3.2H60l0.8,3.2h0l0.8-3.2h0.9l-1.3,4.6h-0.7l-0.7-3h0l-0.8,3h-0.7
				L56.9,147.8z"/>
			<path fill="#FFFFFF" d="M63.2,151.1c0,0.2,0.4,0.7,0.9,0.7c0.4,0,0.6-0.2,0.8-0.4h0.9c-0.2,0.6-0.9,1.2-1.7,1.2
				c-1,0-1.8-0.8-1.8-1.8c0-1,0.7-1.9,1.8-1.9c1.1,0,1.8,0.9,1.8,1.8c0,0.2,0,0.3,0,0.4H63.2z M65.1,150.4c-0.1-0.6-0.5-0.8-0.9-0.8
				c-0.3,0-0.8,0.2-1,0.8H65.1z"/>
			<path fill="#FFFFFF" d="M66.4,147.8h0.8v0.8h-0.8V147.8z M66.4,149h0.8v3.4h-0.8V149z"/>
			<path fill="#FFFFFF" d="M71.4,149v2.8c0,1.7-1.2,2-1.9,2c-0.7,0-1.4-0.4-1.7-1.1h0.9c0.3,0.4,0.7,0.4,0.8,0.4
				c0.5,0,1-0.3,1.1-1.1l0,0c-0.1,0.2-0.4,0.6-1.1,0.6c-0.8,0-1.8-0.7-1.8-1.9c0-1.1,0.9-1.8,1.8-1.8c0.7,0,1,0.4,1.1,0.5h0V149
				H71.4z M69.6,149.6c-0.5,0-1,0.4-1,1.1c0,0.7,0.5,1.1,1,1.1c0.5,0,1-0.4,1-1.1C70.6,150.2,70.2,149.6,69.6,149.6z"/>
			<path fill="#FFFFFF" d="M72,147.8h0.8v1.4c0.1-0.1,0.4-0.4,0.9-0.4c0.4,0,0.8,0.2,1.1,0.5c0.3,0.3,0.3,0.8,0.3,1.1v1.9h-0.8v-1.8
				c0-0.4,0-1-0.7-1c-0.7,0-0.7,0.8-0.7,1.1v1.7H72V147.8z"/>
			<path fill="#FFFFFF" d="M75.9,149.7h-0.4V149h0.4v-1.1h0.8v1.1h0.5v0.7h-0.5v2.7h-0.8V149.7z"/>
			<path fill="#FFFFFF" d="M82.8,149v2.8c0,1.7-1.2,2-1.9,2c-0.7,0-1.4-0.4-1.7-1.1h0.9c0.3,0.4,0.7,0.4,0.8,0.4
				c0.5,0,1-0.3,1.1-1.1l0,0c-0.1,0.2-0.4,0.6-1.1,0.6c-0.8,0-1.8-0.7-1.8-1.9c0-1.1,0.9-1.8,1.8-1.8c0.7,0,1,0.4,1.1,0.5h0V149
				H82.8z M81,149.6c-0.5,0-1,0.4-1,1.1c0,0.7,0.5,1.1,1,1.1c0.5,0,1-0.4,1-1.1C82,150.2,81.6,149.6,81,149.6z"/>
			<path fill="#FFFFFF" d="M87,152.4h-0.8V152c-0.3,0.3-0.8,0.5-1.2,0.5c-0.9,0-1.7-0.7-1.7-1.9c0-1.1,0.8-1.8,1.7-1.8
				c0.7,0,1.1,0.5,1.1,0.6h0V149H87V152.4z M85.2,149.6c-0.7,0-1,0.6-1,1.1c0,0.6,0.4,1.1,1,1.1c0.6,0,1-0.4,1-1.1
				C86.2,150,85.7,149.6,85.2,149.6z"/>
			<path fill="#FFFFFF" d="M87.6,147.8h0.8v0.8h-0.8V147.8z M87.6,149h0.8v3.4h-0.8V149z"/>
			<path fill="#FFFFFF" d="M89.1,149h0.8v0.3c0.1-0.1,0.4-0.4,0.9-0.4c0.3,0,0.7,0.1,1,0.5c0.3,0.4,0.3,1,0.3,1.2v1.9h-0.8v-1.7
				c0-0.3,0-1.1-0.7-1.1c-0.1,0-0.4,0.1-0.6,0.3c-0.1,0.2-0.1,0.6-0.1,0.9v1.6h-0.8V149z"/>
			<path fill="#FFFFFF" d="M98,152.4h-0.8V152c-0.3,0.3-0.8,0.5-1.2,0.5c-0.9,0-1.7-0.7-1.7-1.9c0-1.1,0.8-1.8,1.7-1.8
				c0.7,0,1.1,0.5,1.1,0.6h0V149H98V152.4z M96.2,149.6c-0.7,0-1,0.6-1,1.1c0,0.6,0.4,1.1,1,1.1c0.6,0,1-0.4,1-1.1
				C97.2,150,96.7,149.6,96.2,149.6z"/>
			<path fill="#FFFFFF" d="M98.6,149h0.8v0.3c0.1-0.1,0.4-0.4,0.9-0.4c0.3,0,0.7,0.1,1,0.5c0.3,0.4,0.3,1,0.3,1.2v1.9h-0.8v-1.7
				c0-0.3,0-1.1-0.7-1.1c-0.1,0-0.4,0.1-0.6,0.3c-0.1,0.2-0.1,0.6-0.1,0.9v1.6h-0.8V149z"/>
			<path fill="#FFFFFF" d="M105.9,152.4h-0.8V152h0c-0.2,0.2-0.5,0.5-1.1,0.5c-0.9,0-1.8-0.7-1.8-1.8c0-1.2,0.9-1.8,1.8-1.8
				c0.5,0,0.8,0.2,1,0.4v-1.4h0.8V152.4z M104.1,151.8c0.6,0,1-0.6,1-1.1c0-0.6-0.4-1.1-1-1.1c-0.6,0-1,0.6-1,1.1
				C103.1,151.3,103.5,151.8,104.1,151.8z"/>
			<path fill="#FFFFFF" d="M108,150.7c0-1,0.8-1.8,1.8-1.8c1,0,1.8,0.8,1.8,1.8c0,1.1-0.9,1.8-1.8,1.8
				C108.8,152.5,108,151.7,108,150.7z M110.8,150.7c0-0.6-0.5-1.1-1-1.1c-0.4,0-1,0.4-1,1.1c0,0.7,0.5,1.1,1,1.1
				C110.4,151.8,110.8,151.3,110.8,150.7z"/>
			<path fill="#FFFFFF" d="M112.2,149h0.8v0.3h0c0.2-0.2,0.3-0.4,0.7-0.4h0.1v0.8c-0.7,0-0.7,0.6-0.7,0.8v1.9h-0.8V149z"/>
			<path fill="#FFFFFF" d="M58,157.4c-0.1-0.3-0.2-0.3-0.3-0.3c-0.2,0-0.3,0.2-0.3,0.3c0,0.2,0.1,0.2,0.6,0.4c0.4,0.1,1,0.3,1,1
				c0,0.8-0.6,1.2-1.2,1.2c-0.3,0-0.8-0.1-1-0.5c-0.2-0.3-0.2-0.5-0.3-0.7h0.8c0,0.2,0.1,0.4,0.5,0.4c0.3,0,0.4-0.2,0.4-0.3
				c0-0.3-0.2-0.3-0.8-0.5c-0.4-0.1-0.8-0.4-0.8-1c0-0.7,0.6-1.1,1.2-1.1c0.5,0,1.1,0.4,1.1,1.1H58z"/>
			<path fill="#FFFFFF" d="M59.3,155.3h0.8v4.6h-0.8V155.3z"/>
			<path fill="#FFFFFF" d="M60.6,158.2c0-1,0.8-1.8,1.8-1.8c1,0,1.8,0.8,1.8,1.8c0,1.1-0.9,1.8-1.8,1.8
				C61.5,160,60.6,159.1,60.6,158.2z M63.5,158.2c0-0.6-0.5-1.1-1-1.1c-0.4,0-1,0.4-1,1.1c0,0.7,0.5,1.1,1,1.1
				C63.1,159.2,63.5,158.7,63.5,158.2z"/>
			<path fill="#FFFFFF" d="M64.4,156.4h0.9l0.6,2.1h0l0.6-2.1h0.7l0.6,2.1h0l0.6-2.1h0.9l-1.3,3.4h-0.5l-0.6-2.2h0l-0.7,2.2h-0.5
				L64.4,156.4z"/>
			<path fill="#FFFFFF" d="M70.2,158.5c0,0.2,0.4,0.7,0.9,0.7c0.4,0,0.6-0.2,0.8-0.4h0.9c-0.2,0.6-0.9,1.2-1.7,1.2
				c-1,0-1.8-0.8-1.8-1.8c0-1,0.8-1.9,1.8-1.9c1.1,0,1.8,0.9,1.8,1.8c0,0.2,0,0.3,0,0.4H70.2z M72.1,157.9c-0.1-0.6-0.5-0.8-0.9-0.8
				c-0.3,0-0.8,0.2-1,0.8H72.1z"/>
			<path fill="#FFFFFF" d="M77,159.9h-0.8v-0.4h0c-0.2,0.2-0.5,0.5-1.1,0.5c-0.9,0-1.8-0.7-1.8-1.8c0-1.2,0.9-1.8,1.8-1.8
				c0.5,0,0.8,0.2,1,0.4v-1.4H77V159.9z M75.2,159.2c0.6,0,1-0.6,1-1.1c0-0.6-0.4-1.1-1-1.1c-0.6,0-1,0.6-1,1.1
				C74.2,158.8,74.7,159.2,75.2,159.2z"/>
			<path fill="#FFFFFF" d="M79.3,156.4h0.8v0.3h0c0.1-0.1,0.3-0.4,0.9-0.4c0.2,0,0.7,0,1,0.5c0.4-0.5,0.9-0.5,1.1-0.5
				c0.7,0,1,0.4,1.1,0.5c0.1,0.2,0.3,0.5,0.3,1v2h-0.8V158c0-0.2,0-0.9-0.7-0.9c-0.2,0-0.5,0.1-0.6,0.3c-0.1,0.2-0.1,0.5-0.1,0.8
				v1.7h-0.8V158c0-0.5-0.2-0.9-0.7-0.9c-0.7,0-0.7,0.7-0.7,1.1v1.7h-0.8V156.4z"/>
			<path fill="#FFFFFF" d="M85.9,158.5c0,0.2,0.4,0.7,0.9,0.7c0.4,0,0.6-0.2,0.8-0.4h0.9c-0.2,0.6-0.9,1.2-1.7,1.2
				c-1,0-1.8-0.8-1.8-1.8c0-1,0.7-1.9,1.8-1.9c1.1,0,1.8,0.9,1.8,1.8c0,0.2,0,0.3,0,0.4H85.9z M87.7,157.9c-0.1-0.6-0.5-0.8-0.9-0.8
				c-0.3,0-0.8,0.2-1,0.8H87.7z"/>
			<path fill="#FFFFFF" d="M89.3,157.2h-0.4v-0.7h0.4v-1.1h0.8v1.1h0.5v0.7h-0.5v2.7h-0.8V157.2z"/>
			<path fill="#FFFFFF" d="M94.4,159.9h-0.8v-0.4c-0.3,0.3-0.8,0.5-1.2,0.5c-0.9,0-1.7-0.7-1.7-1.9c0-1.1,0.8-1.8,1.7-1.8
				c0.7,0,1.1,0.5,1.1,0.6h0v-0.4h0.8V159.9z M92.6,157.1c-0.7,0-1,0.6-1,1.1c0,0.6,0.4,1.1,1,1.1c0.6,0,1-0.4,1-1.1
				C93.7,157.4,93.1,157.1,92.6,157.1z"/>
			<path fill="#FFFFFF" d="M95.1,155.3h0.8v1.5c0.3-0.3,0.7-0.4,1.1-0.4c1,0,1.7,0.9,1.7,1.8c0,0.7-0.5,1.8-1.7,1.8
				c-0.7,0-1-0.3-1.2-0.5v0.4h-0.8V155.3z M96.9,159.2c0.5,0,1-0.4,1-1.1s-0.5-1.1-1-1.1c-0.6,0-1,0.5-1,1
				C95.8,158.9,96.4,159.2,96.9,159.2z"/>
			<path fill="#FFFFFF" d="M99,158.2c0-1,0.8-1.8,1.8-1.8c1,0,1.8,0.8,1.8,1.8c0,1.1-0.9,1.8-1.8,1.8C99.8,160,99,159.1,99,158.2z
				 M101.8,158.2c0-0.6-0.5-1.1-1-1.1c-0.4,0-1,0.4-1,1.1c0,0.7,0.5,1.1,1,1.1C101.4,159.2,101.8,158.7,101.8,158.2z"/>
			<path fill="#FFFFFF" d="M103.2,155.3h0.8v4.6h-0.8V155.3z"/>
			<path fill="#FFFFFF" d="M104.6,155.3h0.8v0.8h-0.8V155.3z M104.6,156.4h0.8v3.4h-0.8V156.4z"/>
			<path fill="#FFFFFF" d="M107.5,157.4c-0.1-0.3-0.2-0.3-0.3-0.3c-0.2,0-0.3,0.2-0.3,0.3c0,0.2,0.1,0.2,0.6,0.4c0.4,0.1,1,0.3,1,1
				c0,0.8-0.6,1.2-1.2,1.2c-0.3,0-0.8-0.1-1-0.5c-0.2-0.3-0.2-0.5-0.3-0.7h0.8c0,0.2,0.1,0.4,0.5,0.4c0.3,0,0.4-0.2,0.4-0.3
				c0-0.3-0.2-0.3-0.8-0.5c-0.4-0.1-0.8-0.4-0.8-1c0-0.7,0.6-1.1,1.2-1.1c0.5,0,1.1,0.4,1.1,1.1H107.5z"/>
			<path fill="#FFFFFF" d="M108.9,156.4h0.8v0.3h0c0.1-0.1,0.3-0.4,0.9-0.4c0.2,0,0.7,0,1,0.5c0.4-0.5,0.9-0.5,1.1-0.5
				c0.7,0,1,0.4,1.1,0.5c0.1,0.2,0.3,0.5,0.3,1v2h-0.8V158c0-0.2,0-0.9-0.7-0.9c-0.2,0-0.5,0.1-0.6,0.3c-0.1,0.2-0.1,0.5-0.1,0.8
				v1.7H111V158c0-0.5-0.2-0.9-0.7-0.9c-0.7,0-0.7,0.7-0.7,1.1v1.7h-0.8V156.4z"/>
		</g>
		<g>
			<path fill="#FFFFFF" d="M239.6,100.3h-0.8v-0.8h2.6v0.8h-0.9v3.8h-0.8V100.3z"/>
			<path fill="#FFFFFF" d="M241.6,99.6h0.8v1.4c0.1-0.1,0.4-0.4,0.9-0.4c0.4,0,0.8,0.2,1.1,0.5c0.3,0.3,0.3,0.8,0.3,1.1v1.9h-0.8
				v-1.8c0-0.4,0-1-0.7-1c-0.7,0-0.7,0.8-0.7,1.1v1.7h-0.8V99.6z"/>
			<path fill="#FFFFFF" d="M246.1,102.8c0,0.2,0.4,0.7,0.9,0.7c0.4,0,0.6-0.2,0.8-0.4h0.9c-0.2,0.6-0.9,1.2-1.7,1.2
				c-1,0-1.8-0.8-1.8-1.8c0-1,0.7-1.9,1.8-1.9c1.1,0,1.8,0.9,1.8,1.8c0,0.2,0,0.3,0,0.4H246.1z M247.9,102.1
				c-0.1-0.6-0.5-0.8-0.9-0.8c-0.3,0-0.8,0.2-1,0.8H247.9z"/>
			<path fill="#FFFFFF" d="M251,99.6h0.8v1.5c0.3-0.3,0.7-0.4,1.1-0.4c1,0,1.7,0.9,1.7,1.8c0,0.7-0.5,1.8-1.7,1.8
				c-0.7,0-1-0.3-1.2-0.5v0.4H251V99.6z M252.8,103.5c0.5,0,1-0.4,1-1.1s-0.5-1.1-1-1.1c-0.6,0-1,0.5-1,1
				C251.8,103.1,252.3,103.5,252.8,103.5z"/>
			<path fill="#FFFFFF" d="M255,102.4c0-1,0.8-1.8,1.8-1.8c1,0,1.8,0.8,1.8,1.8c0,1.1-0.9,1.8-1.8,1.8
				C255.8,104.3,255,103.4,255,102.4z M257.8,102.4c0-0.6-0.5-1.1-1-1.1c-0.4,0-1,0.4-1,1.1c0,0.7,0.5,1.1,1,1.1
				C257.4,103.5,257.8,103,257.8,102.4z"/>
			<path fill="#FFFFFF" d="M262.6,104.1h-0.8v-0.4h0c-0.2,0.2-0.5,0.5-1.1,0.5c-0.9,0-1.8-0.7-1.8-1.8c0-1.2,0.9-1.8,1.8-1.8
				c0.5,0,0.8,0.2,1,0.4v-1.4h0.8V104.1z M260.8,103.5c0.6,0,1-0.6,1-1.1c0-0.6-0.4-1.1-1-1.1c-0.6,0-1,0.6-1,1.1
				C259.8,103,260.3,103.5,260.8,103.5z"/>
			<path fill="#FFFFFF" d="M264.2,103.8l-1.3-3.1h0.9l0.8,2.2l0.8-2.2h0.9l-2,4.6h-0.9L264.2,103.8z"/>
			<path fill="#FFFFFF" d="M272,103c-0.3,0.8-0.9,1.2-1.7,1.2c-0.9,0-1.8-0.7-1.8-1.8c0-1.1,0.9-1.8,1.8-1.8c0.4,0,1.4,0.2,1.7,1.3
				H271c-0.1-0.2-0.3-0.5-0.8-0.5c-0.5,0-1,0.4-1,1.1c0,0.6,0.4,1.1,1,1.1c0.3,0,0.5-0.1,0.8-0.5H272z"/>
			<path fill="#FFFFFF" d="M276,104.1h-0.8v-0.4c-0.3,0.3-0.8,0.5-1.2,0.5c-0.9,0-1.7-0.7-1.7-1.9c0-1.1,0.8-1.8,1.7-1.8
				c0.7,0,1.1,0.5,1.1,0.6h0v-0.4h0.8V104.1z M274.2,101.3c-0.7,0-1,0.6-1,1.1c0,0.6,0.4,1.1,1,1.1c0.6,0,1-0.4,1-1.1
				C275.2,101.7,274.7,101.3,274.2,101.3z"/>
			<path fill="#FFFFFF" d="M276.6,100.7h0.8v0.3c0.1-0.1,0.4-0.4,0.9-0.4c0.3,0,0.7,0.1,1,0.5c0.3,0.4,0.3,1,0.3,1.2v1.9h-0.8v-1.7
				c0-0.3,0-1.1-0.7-1.1c-0.1,0-0.4,0.1-0.6,0.3c-0.1,0.2-0.1,0.6-0.1,0.9v1.6h-0.8V100.7z"/>
			<path fill="#FFFFFF" d="M280.4,99.6h0.8v0.9c0,0.7-0.5,0.8-0.8,0.8v-0.4c0.1,0,0.4-0.1,0.4-0.4v-0.1h-0.4V99.6z"/>
			<path fill="#FFFFFF" d="M282.3,101.4h-0.4v-0.7h0.4v-1.1h0.8v1.1h0.5v0.7h-0.5v2.7h-0.8V101.4z"/>
			<path fill="#FFFFFF" d="M287.1,101.6c-0.1-0.3-0.2-0.3-0.3-0.3c-0.2,0-0.3,0.2-0.3,0.3c0,0.2,0.1,0.2,0.6,0.4c0.4,0.1,1,0.3,1,1
				c0,0.8-0.6,1.2-1.2,1.2c-0.3,0-0.8-0.1-1-0.5c-0.2-0.3-0.2-0.5-0.3-0.7h0.8c0,0.2,0.1,0.4,0.5,0.4c0.3,0,0.4-0.2,0.4-0.3
				c0-0.3-0.2-0.3-0.8-0.5c-0.4-0.1-0.8-0.4-0.8-1c0-0.7,0.6-1.1,1.2-1.1c0.5,0,1.1,0.4,1.1,1.1H287.1z"/>
			<path fill="#FFFFFF" d="M288.6,101.4h-0.4v-0.7h0.4v-1.1h0.8v1.1h0.5v0.7h-0.5v2.7h-0.8V101.4z"/>
			<path fill="#FFFFFF" d="M290.1,102.4c0-1,0.8-1.8,1.8-1.8c1,0,1.8,0.8,1.8,1.8c0,1.1-0.9,1.8-1.8,1.8
				C290.9,104.3,290.1,103.4,290.1,102.4z M292.9,102.4c0-0.6-0.5-1.1-1-1.1c-0.4,0-1,0.4-1,1.1c0,0.7,0.5,1.1,1,1.1
				C292.5,103.5,292.9,103,292.9,102.4z"/>
			<path fill="#FFFFFF" d="M294.3,100.7h0.8v0.3h0c0.2-0.2,0.3-0.4,0.7-0.4h0.1v0.8c-0.7,0-0.7,0.6-0.7,0.8v1.9h-0.8V100.7z"/>
			<path fill="#FFFFFF" d="M296.9,102.8c0,0.2,0.4,0.7,0.9,0.7c0.4,0,0.6-0.2,0.8-0.4h0.9c-0.2,0.6-0.9,1.2-1.7,1.2
				c-1,0-1.8-0.8-1.8-1.8c0-1,0.8-1.9,1.8-1.9c1.1,0,1.8,0.9,1.8,1.8c0,0.2,0,0.3,0,0.4H296.9z M298.8,102.1
				c-0.1-0.6-0.5-0.8-0.9-0.8c-0.3,0-0.8,0.2-1,0.8H298.8z"/>
			<path fill="#FFFFFF" d="M305.4,104.1h-0.8v-0.4c-0.3,0.3-0.8,0.5-1.2,0.5c-0.9,0-1.7-0.7-1.7-1.9c0-1.1,0.8-1.8,1.7-1.8
				c0.7,0,1.1,0.5,1.1,0.6h0v-0.4h0.8V104.1z M303.6,101.3c-0.7,0-1,0.6-1,1.1c0,0.6,0.4,1.1,1,1.1c0.6,0,1-0.4,1-1.1
				C304.6,101.7,304.1,101.3,303.6,101.3z"/>
			<path fill="#FFFFFF" d="M306,99.6h0.8v4.6H306V99.6z"/>
			<path fill="#FFFFFF" d="M311,103c-0.3,0.8-0.9,1.2-1.7,1.2c-0.9,0-1.8-0.7-1.8-1.8c0-1.1,0.9-1.8,1.8-1.8c0.4,0,1.4,0.2,1.7,1.3
				H310c-0.1-0.2-0.3-0.5-0.8-0.5c-0.5,0-1,0.4-1,1.1c0,0.6,0.4,1.1,1,1.1c0.3,0,0.5-0.1,0.8-0.5H311z"/>
			<path fill="#FFFFFF" d="M311.3,102.4c0-1,0.8-1.8,1.8-1.8c1,0,1.8,0.8,1.8,1.8c0,1.1-0.9,1.8-1.8,1.8
				C312.1,104.3,311.3,103.4,311.3,102.4z M314.1,102.4c0-0.6-0.5-1.1-1-1.1c-0.4,0-1,0.4-1,1.1c0,0.7,0.5,1.1,1,1.1
				C313.7,103.5,314.1,103,314.1,102.4z"/>
			<path fill="#FFFFFF" d="M315.4,99.6h0.8v1.4c0.1-0.1,0.4-0.4,0.9-0.4c0.4,0,0.8,0.2,1.1,0.5c0.3,0.3,0.3,0.8,0.3,1.1v1.9h-0.8
				v-1.8c0-0.4,0-1-0.7-1c-0.7,0-0.7,0.8-0.7,1.1v1.7h-0.8V99.6z"/>
			<path fill="#FFFFFF" d="M319,102.4c0-1,0.8-1.8,1.8-1.8c1,0,1.8,0.8,1.8,1.8c0,1.1-0.9,1.8-1.8,1.8
				C319.8,104.3,319,103.4,319,102.4z M321.8,102.4c0-0.6-0.5-1.1-1-1.1c-0.4,0-1,0.4-1,1.1c0,0.7,0.5,1.1,1,1.1
				C321.4,103.5,321.8,103,321.8,102.4z"/>
			<path fill="#FFFFFF" d="M323.1,99.6h0.8v4.6h-0.8V99.6z"/>
			<path fill="#FFFFFF" d="M324.7,103.3h0.8v0.9c0,0.7-0.5,0.8-0.8,0.8v-0.4c0.1,0,0.4-0.1,0.4-0.4v-0.1h-0.4V103.3z"/>
			<path fill="#FFFFFF" d="M329.2,101.6c-0.1-0.3-0.2-0.3-0.3-0.3c-0.2,0-0.3,0.2-0.3,0.3c0,0.2,0.1,0.2,0.6,0.4c0.4,0.1,1,0.3,1,1
				c0,0.8-0.6,1.2-1.2,1.2c-0.3,0-0.8-0.1-1-0.5c-0.2-0.3-0.2-0.5-0.3-0.7h0.8c0,0.2,0.1,0.4,0.5,0.4c0.3,0,0.4-0.2,0.4-0.3
				c0-0.3-0.2-0.3-0.8-0.5c-0.4-0.1-0.8-0.4-0.8-1c0-0.7,0.6-1.1,1.2-1.1c0.5,0,1.1,0.4,1.1,1.1H329.2z"/>
			<path fill="#FFFFFF" d="M330.3,102.4c0-1,0.8-1.8,1.8-1.8c1,0,1.8,0.8,1.8,1.8c0,1.1-0.9,1.8-1.8,1.8
				C331.1,104.3,330.3,103.4,330.3,102.4z M333.2,102.4c0-0.6-0.5-1.1-1-1.1c-0.4,0-1,0.4-1,1.1c0,0.7,0.5,1.1,1,1.1
				C332.8,103.5,333.2,103,333.2,102.4z"/>
			<path fill="#FFFFFF" d="M237.4,107h0.8v0.8h-0.8V107z M237.4,108.1h0.8v3.4h-0.8V108.1z"/>
			<path fill="#FFFFFF" d="M239.1,108.9h-0.4v-0.7h0.4V107h0.8v1.1h0.5v0.7h-0.5v2.7h-0.8V108.9z"/>
			<path fill="#FFFFFF" d="M242.5,108.1h0.8v0.3h0c0.1-0.1,0.3-0.4,0.9-0.4c0.2,0,0.7,0,1,0.5c0.4-0.5,0.9-0.5,1.1-0.5
				c0.7,0,1,0.4,1.1,0.5c0.1,0.2,0.3,0.5,0.3,1v2h-0.8v-1.9c0-0.2,0-0.9-0.7-0.9c-0.2,0-0.5,0.1-0.6,0.3c-0.1,0.2-0.1,0.5-0.1,0.8
				v1.7h-0.8v-1.9c0-0.5-0.2-0.9-0.7-0.9c-0.7,0-0.7,0.7-0.7,1.1v1.7h-0.8V108.1z"/>
			<path fill="#FFFFFF" d="M249,110.2c0,0.2,0.4,0.7,0.9,0.7c0.4,0,0.6-0.2,0.8-0.4h0.9c-0.2,0.6-0.9,1.2-1.7,1.2
				c-1,0-1.8-0.8-1.8-1.8c0-1,0.7-1.9,1.8-1.9c1.1,0,1.8,0.9,1.8,1.8c0,0.2,0,0.3,0,0.4H249z M250.9,109.6c-0.1-0.6-0.5-0.8-0.9-0.8
				c-0.3,0-0.8,0.2-1,0.8H250.9z"/>
			<path fill="#FFFFFF" d="M252.5,108.9H252v-0.7h0.4V107h0.8v1.1h0.5v0.7h-0.5v2.7h-0.8V108.9z"/>
			<path fill="#FFFFFF" d="M257.6,111.6h-0.8v-0.4c-0.3,0.3-0.8,0.5-1.2,0.5c-0.9,0-1.7-0.7-1.7-1.9c0-1.1,0.8-1.8,1.7-1.8
				c0.7,0,1.1,0.5,1.1,0.6h0v-0.4h0.8V111.6z M255.8,108.8c-0.7,0-1,0.6-1,1.1c0,0.6,0.4,1.1,1,1.1c0.6,0,1-0.4,1-1.1
				C256.8,109.1,256.3,108.8,255.8,108.8z"/>
			<path fill="#FFFFFF" d="M258.2,107h0.8v1.5c0.3-0.3,0.7-0.4,1.1-0.4c1,0,1.7,0.9,1.7,1.8c0,0.7-0.5,1.8-1.7,1.8
				c-0.7,0-1-0.3-1.2-0.5v0.4h-0.8V107z M260,110.9c0.5,0,1-0.4,1-1.1s-0.5-1.1-1-1.1c-0.6,0-1,0.5-1,1
				C259,110.6,259.5,110.9,260,110.9z"/>
			<path fill="#FFFFFF" d="M262.1,109.9c0-1,0.8-1.8,1.8-1.8c1,0,1.8,0.8,1.8,1.8c0,1.1-0.9,1.8-1.8,1.8
				C263,111.7,262.1,110.9,262.1,109.9z M265,109.9c0-0.6-0.5-1.1-1-1.1c-0.4,0-1,0.4-1,1.1c0,0.7,0.5,1.1,1,1.1
				C264.6,110.9,265,110.4,265,109.9z"/>
			<path fill="#FFFFFF" d="M266.3,107h0.8v4.6h-0.8V107z"/>
			<path fill="#FFFFFF" d="M267.8,107h0.8v0.8h-0.8V107z M267.8,108.1h0.8v3.4h-0.8V108.1z"/>
			<path fill="#FFFFFF" d="M269.1,110.8l1.5-1.9h-1.4v-0.8h2.3v0.8l-1.5,1.9h1.6v0.8h-2.6V110.8z"/>
			<path fill="#FFFFFF" d="M272.9,110.2c0,0.2,0.4,0.7,0.9,0.7c0.4,0,0.6-0.2,0.8-0.4h0.9c-0.2,0.6-0.9,1.2-1.7,1.2
				c-1,0-1.8-0.8-1.8-1.8c0-1,0.8-1.9,1.8-1.9c1.1,0,1.8,0.9,1.8,1.8c0,0.2,0,0.3,0,0.4H272.9z M274.7,109.6
				c-0.1-0.6-0.5-0.8-0.9-0.8c-0.3,0-0.8,0.2-1,0.8H274.7z"/>
			<path fill="#FFFFFF" d="M277.5,109.1c-0.1-0.3-0.2-0.3-0.3-0.3c-0.2,0-0.3,0.2-0.3,0.3c0,0.2,0.1,0.2,0.6,0.4c0.4,0.1,1,0.3,1,1
				c0,0.8-0.6,1.2-1.2,1.2c-0.3,0-0.8-0.1-1-0.5c-0.2-0.3-0.2-0.5-0.3-0.7h0.8c0,0.2,0.1,0.4,0.5,0.4c0.3,0,0.4-0.2,0.4-0.3
				c0-0.3-0.2-0.3-0.8-0.5c-0.4-0.1-0.8-0.4-0.8-1c0-0.7,0.6-1.1,1.2-1.1c0.5,0,1.1,0.4,1.1,1.1H277.5z"/>
			<path fill="#FFFFFF" d="M280.6,107h0.8v0.8h-0.8V107z M280.6,108.1h0.8v3.4h-0.8V108.1z"/>
			<path fill="#FFFFFF" d="M282.2,108.9h-0.4v-0.7h0.4V107h0.8v1.1h0.5v0.7h-0.5v2.7h-0.8V108.9z"/>
			<path fill="#FFFFFF" d="M285.7,108.1h0.8v0.3h0c0.2-0.2,0.3-0.4,0.7-0.4h0.1v0.8c-0.7,0-0.7,0.6-0.7,0.8v1.9h-0.8V108.1z"/>
			<path fill="#FFFFFF" d="M287.7,107h0.8v0.8h-0.8V107z M287.7,108.1h0.8v3.4h-0.8V108.1z"/>
			<path fill="#FFFFFF" d="M292.8,108.1v2.8c0,1.7-1.2,2-1.9,2c-0.7,0-1.4-0.4-1.7-1.1h0.9c0.3,0.4,0.7,0.4,0.8,0.4
				c0.5,0,1-0.3,1.1-1.1l0,0c-0.1,0.2-0.4,0.6-1.1,0.6c-0.8,0-1.8-0.7-1.8-1.9c0-1.1,0.9-1.8,1.8-1.8c0.7,0,1,0.4,1.1,0.5h0v-0.4
				H292.8z M290.9,108.8c-0.5,0-1,0.4-1,1.1c0,0.7,0.5,1.1,1,1.1c0.5,0,1-0.4,1-1.1C291.9,109.3,291.5,108.8,290.9,108.8z"/>
			<path fill="#FFFFFF" d="M293.3,107h0.8v1.4c0.1-0.1,0.4-0.4,0.9-0.4c0.4,0,0.8,0.2,1.1,0.5c0.3,0.3,0.3,0.8,0.3,1.1v1.9h-0.8
				v-1.8c0-0.4,0-1-0.7-1c-0.7,0-0.7,0.8-0.7,1.1v1.7h-0.8V107z"/>
			<path fill="#FFFFFF" d="M297.3,108.9h-0.4v-0.7h0.4V107h0.8v1.1h0.5v0.7h-0.5v2.7h-0.8V108.9z"/>
			<path fill="#FFFFFF" d="M304.1,111.6h-0.8v-0.4c-0.3,0.3-0.8,0.5-1.2,0.5c-0.9,0-1.7-0.7-1.7-1.9c0-1.1,0.8-1.8,1.7-1.8
				c0.7,0,1.1,0.5,1.1,0.6h0v-0.4h0.8V111.6z M302.3,108.8c-0.7,0-1,0.6-1,1.1c0,0.6,0.4,1.1,1,1.1c0.6,0,1-0.4,1-1.1
				C303.3,109.1,302.8,108.8,302.3,108.8z"/>
			<path fill="#FFFFFF" d="M304.5,108.1h0.9l0.6,2.1h0l0.6-2.1h0.7l0.6,2.1h0l0.6-2.1h0.9l-1.3,3.4h-0.5l-0.6-2.2h0l-0.7,2.2h-0.5
				L304.5,108.1z"/>
			<path fill="#FFFFFF" d="M313,111.6h-0.8v-0.4c-0.3,0.3-0.8,0.5-1.2,0.5c-0.9,0-1.7-0.7-1.7-1.9c0-1.1,0.8-1.8,1.7-1.8
				c0.7,0,1.1,0.5,1.1,0.6h0v-0.4h0.8V111.6z M311.2,108.8c-0.7,0-1,0.6-1,1.1c0,0.6,0.4,1.1,1,1.1c0.6,0,1-0.4,1-1.1
				C312.2,109.1,311.7,108.8,311.2,108.8z"/>
			<path fill="#FFFFFF" d="M314.6,111.3l-1.3-3.1h0.9l0.8,2.2l0.8-2.2h0.9l-2,4.6H314L314.6,111.3z"/>
			<path fill="#FFFFFF" d="M316.7,110.8h0.8v0.8h-0.8V110.8z"/>
			<path fill="#FFFFFF" d="M320.4,110.3c0,0.5,0.3,0.6,0.6,0.6c0.3,0,0.6-0.2,0.6-0.6c0-0.5-0.3-0.6-0.9-0.8
				c-0.4-0.1-1.1-0.4-1.1-1.3c0-0.7,0.6-1.3,1.3-1.3c0.5,0,1.3,0.4,1.4,1.3h-0.9c0-0.4-0.3-0.5-0.5-0.5c-0.3,0-0.5,0.2-0.5,0.5
				c0,0.4,0.3,0.5,0.8,0.6c0.4,0.1,1.2,0.4,1.2,1.4c0,1-0.8,1.5-1.5,1.5c-0.6,0-1.4-0.4-1.5-1.4H320.4z"/>
			<path fill="#FFFFFF" d="M323,107h0.8v0.8H323V107z M323,108.1h0.8v3.4H323V108.1z"/>
			<path fill="#FFFFFF" d="M324.5,108.1h0.8v0.3c0.1-0.1,0.4-0.4,0.9-0.4c0.3,0,0.7,0.1,1,0.5c0.3,0.4,0.3,1,0.3,1.2v1.9h-0.8v-1.7
				c0-0.3,0-1.1-0.7-1.1c-0.1,0-0.4,0.1-0.6,0.3c-0.1,0.2-0.1,0.6-0.1,0.9v1.6h-0.8V108.1z"/>
			<path fill="#FFFFFF" d="M331.6,110.5c-0.3,0.8-0.9,1.2-1.7,1.2c-0.9,0-1.8-0.7-1.8-1.8c0-1.1,0.9-1.8,1.8-1.8
				c0.4,0,1.4,0.2,1.7,1.3h-0.9c-0.1-0.2-0.3-0.5-0.8-0.5c-0.5,0-1,0.4-1,1.1c0,0.6,0.4,1.1,1,1.1c0.3,0,0.5-0.1,0.8-0.5H331.6z"/>
			<path fill="#FFFFFF" d="M332.9,110.2c0,0.2,0.4,0.7,0.9,0.7c0.4,0,0.6-0.2,0.8-0.4h0.9c-0.2,0.6-0.9,1.2-1.7,1.2
				c-1,0-1.8-0.8-1.8-1.8c0-1,0.8-1.9,1.8-1.9c1.1,0,1.8,0.9,1.8,1.8c0,0.2,0,0.3,0,0.4H332.9z M334.8,109.6
				c-0.1-0.6-0.5-0.8-0.9-0.8c-0.3,0-0.8,0.2-1,0.8H334.8z"/>
			<path fill="#FFFFFF" d="M234.5,116.3h-0.4v-0.7h0.4v-1.1h0.8v1.1h0.5v0.7h-0.5v2.7h-0.8V116.3z"/>
			<path fill="#FFFFFF" d="M236.1,114.4h0.8v1.4c0.1-0.1,0.4-0.4,0.9-0.4c0.4,0,0.8,0.2,1.1,0.5c0.3,0.3,0.3,0.8,0.3,1.1v1.9h-0.8
				v-1.8c0-0.4,0-1-0.7-1c-0.7,0-0.7,0.8-0.7,1.1v1.7h-0.8V114.4z"/>
			<path fill="#FFFFFF" d="M240.6,117.7c0,0.2,0.4,0.7,0.9,0.7c0.4,0,0.6-0.2,0.8-0.4h0.9c-0.2,0.6-0.9,1.2-1.7,1.2
				c-1,0-1.8-0.8-1.8-1.8c0-1,0.7-1.9,1.8-1.9c1.1,0,1.8,0.9,1.8,1.8c0,0.2,0,0.3,0,0.4H240.6z M242.5,117c-0.1-0.6-0.5-0.8-0.9-0.8
				c-0.3,0-0.8,0.2-1,0.8H242.5z"/>
			<path fill="#FFFFFF" d="M249,119h-0.8v-0.4c-0.3,0.3-0.8,0.5-1.2,0.5c-0.9,0-1.7-0.7-1.7-1.9c0-1.1,0.8-1.8,1.7-1.8
				c0.7,0,1.1,0.5,1.1,0.6h0v-0.4h0.8V119z M247.3,116.2c-0.7,0-1,0.6-1,1.1c0,0.6,0.4,1.1,1,1.1c0.6,0,1-0.4,1-1.1
				C248.3,116.6,247.7,116.2,247.3,116.2z"/>
			<path fill="#FFFFFF" d="M249.7,114.4h0.8v4.6h-0.8V114.4z"/>
			<path fill="#FFFFFF" d="M254.6,117.9c-0.3,0.8-0.9,1.2-1.7,1.2c-0.9,0-1.8-0.7-1.8-1.8c0-1.1,0.9-1.8,1.8-1.8
				c0.4,0,1.4,0.2,1.7,1.3h-0.9c-0.1-0.2-0.3-0.5-0.8-0.5c-0.5,0-1,0.4-1,1.1c0,0.6,0.4,1.1,1,1.1c0.3,0,0.5-0.1,0.8-0.5H254.6z"/>
			<path fill="#FFFFFF" d="M254.9,117.3c0-1,0.8-1.8,1.8-1.8c1,0,1.8,0.8,1.8,1.8c0,1.1-0.9,1.8-1.8,1.8
				C255.8,119.1,254.9,118.3,254.9,117.3z M257.8,117.3c0-0.6-0.5-1.1-1-1.1c-0.4,0-1,0.4-1,1.1c0,0.7,0.5,1.1,1,1.1
				C257.4,118.4,257.8,117.9,257.8,117.3z"/>
			<path fill="#FFFFFF" d="M259.1,114.4h0.8v1.4c0.1-0.1,0.4-0.4,0.9-0.4c0.4,0,0.8,0.2,1.1,0.5c0.3,0.3,0.3,0.8,0.3,1.1v1.9h-0.8
				v-1.8c0-0.4,0-1-0.7-1c-0.7,0-0.7,0.8-0.7,1.1v1.7h-0.8V114.4z"/>
			<path fill="#FFFFFF" d="M262.6,117.3c0-1,0.8-1.8,1.8-1.8c1,0,1.8,0.8,1.8,1.8c0,1.1-0.9,1.8-1.8,1.8
				C263.4,119.1,262.6,118.3,262.6,117.3z M265.5,117.3c0-0.6-0.5-1.1-1-1.1c-0.4,0-1,0.4-1,1.1c0,0.7,0.5,1.1,1,1.1
				C265.1,118.4,265.5,117.9,265.5,117.3z"/>
			<path fill="#FFFFFF" d="M266.8,114.4h0.8v4.6h-0.8V114.4z"/>
			<path fill="#FFFFFF" d="M270,114.4h0.8v1.5c0.3-0.3,0.7-0.4,1.1-0.4c1,0,1.7,0.9,1.7,1.8c0,0.7-0.5,1.8-1.7,1.8
				c-0.7,0-1-0.3-1.2-0.5v0.4H270V114.4z M271.8,118.4c0.5,0,1-0.4,1-1.1s-0.5-1.1-1-1.1c-0.6,0-1,0.5-1,1
				C270.7,118,271.3,118.4,271.8,118.4z"/>
			<path fill="#FFFFFF" d="M274.8,117.7c0,0.2,0.4,0.7,0.9,0.7c0.4,0,0.6-0.2,0.8-0.4h0.9c-0.2,0.6-0.9,1.2-1.7,1.2
				c-1,0-1.8-0.8-1.8-1.8c0-1,0.7-1.9,1.8-1.9c1.1,0,1.8,0.9,1.8,1.8c0,0.2,0,0.3,0,0.4H274.8z M276.7,117c-0.1-0.6-0.5-0.8-0.9-0.8
				c-0.3,0-0.8,0.2-1,0.8H276.7z"/>
			<path fill="#FFFFFF" d="M281.5,117.9c-0.3,0.8-0.9,1.2-1.7,1.2c-0.9,0-1.8-0.7-1.8-1.8c0-1.1,0.9-1.8,1.8-1.8
				c0.4,0,1.4,0.2,1.7,1.3h-0.9c-0.1-0.2-0.3-0.5-0.8-0.5c-0.5,0-1,0.4-1,1.1c0,0.6,0.4,1.1,1,1.1c0.3,0,0.5-0.1,0.8-0.5H281.5z"/>
			<path fill="#FFFFFF" d="M281.9,117.3c0-1,0.8-1.8,1.8-1.8c1,0,1.8,0.8,1.8,1.8c0,1.1-0.9,1.8-1.8,1.8
				C282.7,119.1,281.9,118.3,281.9,117.3z M284.7,117.3c0-0.6-0.5-1.1-1-1.1c-0.4,0-1,0.4-1,1.1c0,0.7,0.5,1.1,1,1.1
				C284.3,118.4,284.7,117.9,284.7,117.3z"/>
			<path fill="#FFFFFF" d="M286,115.6h0.8v0.3h0c0.1-0.1,0.3-0.4,0.9-0.4c0.2,0,0.7,0,1,0.5c0.4-0.5,0.9-0.5,1.1-0.5
				c0.7,0,1,0.4,1.1,0.5c0.1,0.2,0.3,0.5,0.3,1v2h-0.8v-1.9c0-0.2,0-0.9-0.7-0.9c-0.2,0-0.5,0.1-0.6,0.3c-0.1,0.2-0.1,0.5-0.1,0.8
				v1.7h-0.8v-1.9c0-0.5-0.2-0.9-0.7-0.9c-0.7,0-0.7,0.7-0.7,1.1v1.7H286V115.6z"/>
			<path fill="#FFFFFF" d="M292.6,117.7c0,0.2,0.4,0.7,0.9,0.7c0.4,0,0.6-0.2,0.8-0.4h0.9c-0.2,0.6-0.9,1.2-1.7,1.2
				c-1,0-1.8-0.8-1.8-1.8c0-1,0.8-1.9,1.8-1.9c1.1,0,1.8,0.9,1.8,1.8c0,0.2,0,0.3,0,0.4H292.6z M294.4,117c-0.1-0.6-0.5-0.8-0.9-0.8
				c-0.3,0-0.8,0.2-1,0.8H294.4z"/>
			<path fill="#FFFFFF" d="M297.2,116.5c-0.1-0.3-0.2-0.3-0.3-0.3c-0.2,0-0.3,0.2-0.3,0.3c0,0.2,0.1,0.2,0.6,0.4c0.4,0.1,1,0.3,1,1
				c0,0.8-0.6,1.2-1.2,1.2c-0.3,0-0.8-0.1-1-0.5c-0.2-0.3-0.2-0.5-0.3-0.7h0.8c0,0.2,0.1,0.4,0.5,0.4c0.3,0,0.4-0.2,0.4-0.3
				c0-0.3-0.2-0.3-0.8-0.5c-0.4-0.1-0.8-0.4-0.8-1c0-0.7,0.6-1.1,1.2-1.1c0.5,0,1.1,0.4,1.1,1.1H297.2z"/>
			<path fill="#FFFFFF" d="M300.2,115.6h0.8v0.4h0c0.4-0.5,1-0.5,1.1-0.5c1.1,0,1.7,1,1.7,1.8c0,1-0.7,1.8-1.7,1.8
				c-0.6,0-0.8-0.2-1.1-0.4v1.5h-0.8V115.6z M302,118.4c0.4,0,1-0.4,1-1.1c0-0.6-0.5-1.1-1-1.1c-0.5,0-1,0.4-1,1.1
				C301,118.1,301.6,118.4,302,118.4z"/>
			<path fill="#FFFFFF" d="M304.4,115.6h0.8v0.3h0c0.2-0.2,0.3-0.4,0.7-0.4h0.1v0.8c-0.7,0-0.7,0.6-0.7,0.8v1.9h-0.8V115.6z"/>
			<path fill="#FFFFFF" d="M306.5,114.4h0.8v0.8h-0.8V114.4z M306.5,115.6h0.8v3.4h-0.8V115.6z"/>
			<path fill="#FFFFFF" d="M307.8,117.3c0-1,0.8-1.8,1.8-1.8c1,0,1.8,0.8,1.8,1.8c0,1.1-0.9,1.8-1.8,1.8
				C308.6,119.1,307.8,118.3,307.8,117.3z M310.6,117.3c0-0.6-0.5-1.1-1-1.1c-0.4,0-1,0.4-1,1.1c0,0.7,0.5,1.1,1,1.1
				C310.2,118.4,310.6,117.9,310.6,117.3z"/>
			<path fill="#FFFFFF" d="M312,115.6h0.8v0.3h0c0.2-0.2,0.3-0.4,0.7-0.4h0.1v0.8c-0.7,0-0.7,0.6-0.7,0.8v1.9H312V115.6z"/>
			<path fill="#FFFFFF" d="M314,114.4h0.8v0.8H314V114.4z M314,115.6h0.8v3.4H314V115.6z"/>
			<path fill="#FFFFFF" d="M315.7,116.3h-0.4v-0.7h0.4v-1.1h0.8v1.1h0.5v0.7h-0.5v2.7h-0.8V116.3z"/>
			<path fill="#FFFFFF" d="M318.4,118.7l-1.3-3.1h0.9l0.8,2.2l0.8-2.2h0.9l-2,4.6h-0.9L318.4,118.7z"/>
			<path fill="#FFFFFF" d="M322.7,114.4h0.8v0.8h-0.8V114.4z M322.7,115.6h0.8v3.4h-0.8V115.6z"/>
			<path fill="#FFFFFF" d="M324.2,115.6h0.8v0.3c0.1-0.1,0.4-0.4,0.9-0.4c0.3,0,0.7,0.1,1,0.5c0.3,0.4,0.3,1,0.3,1.2v1.9h-0.8v-1.7
				c0-0.3,0-1.1-0.7-1.1c-0.1,0-0.4,0.1-0.6,0.3c-0.1,0.2-0.1,0.6-0.1,0.9v1.6h-0.8V115.6z"/>
			<path fill="#FFFFFF" d="M329.9,116.3h-0.4v-0.7h0.4v-1.1h0.8v1.1h0.5v0.7h-0.5v2.7h-0.8V116.3z"/>
			<path fill="#FFFFFF" d="M331.5,114.4h0.8v1.4c0.1-0.1,0.4-0.4,0.9-0.4c0.4,0,0.8,0.2,1.1,0.5c0.3,0.3,0.3,0.8,0.3,1.1v1.9h-0.8
				v-1.8c0-0.4,0-1-0.7-1c-0.7,0-0.7,0.8-0.7,1.1v1.7h-0.8V114.4z"/>
			<path fill="#FFFFFF" d="M336,117.7c0,0.2,0.4,0.7,0.9,0.7c0.4,0,0.6-0.2,0.8-0.4h0.9c-0.2,0.6-0.9,1.2-1.7,1.2
				c-1,0-1.8-0.8-1.8-1.8c0-1,0.7-1.9,1.8-1.9c1.1,0,1.8,0.9,1.8,1.8c0,0.2,0,0.3,0,0.4H336z M337.8,117c-0.1-0.6-0.5-0.8-0.9-0.8
				c-0.3,0-0.8,0.2-1,0.8H337.8z"/>
			<path fill="#FFFFFF" d="M233,123h0.8v0.3h0c0.1-0.1,0.3-0.4,0.9-0.4c0.2,0,0.7,0,1,0.5c0.4-0.5,0.9-0.5,1.1-0.5
				c0.7,0,1,0.4,1.1,0.5c0.1,0.2,0.3,0.5,0.3,1v2h-0.8v-1.9c0-0.2,0-0.9-0.7-0.9c-0.2,0-0.5,0.1-0.6,0.3c-0.1,0.2-0.1,0.5-0.1,0.8
				v1.7h-0.8v-1.9c0-0.5-0.2-0.9-0.7-0.9c-0.7,0-0.7,0.7-0.7,1.1v1.7H233V123z"/>
			<path fill="#FFFFFF" d="M239.5,125.1c0,0.2,0.4,0.7,0.9,0.7c0.4,0,0.6-0.2,0.8-0.4h0.9c-0.2,0.6-0.9,1.2-1.7,1.2
				c-1,0-1.8-0.8-1.8-1.8c0-1,0.8-1.9,1.8-1.9c1.1,0,1.8,0.9,1.8,1.8c0,0.2,0,0.3,0,0.4H239.5z M241.4,124.5
				c-0.1-0.6-0.5-0.8-0.9-0.8c-0.3,0-0.8,0.2-1,0.8H241.4z"/>
			<path fill="#FFFFFF" d="M242.9,123.8h-0.4V123h0.4v-1.1h0.8v1.1h0.5v0.7h-0.5v2.7h-0.8V123.8z"/>
			<path fill="#FFFFFF" d="M248.1,126.5h-0.8V126c-0.3,0.3-0.8,0.5-1.2,0.5c-0.9,0-1.7-0.7-1.7-1.9c0-1.1,0.8-1.8,1.7-1.8
				c0.7,0,1.1,0.5,1.1,0.6h0V123h0.8V126.5z M246.3,123.7c-0.7,0-1,0.6-1,1.1c0,0.6,0.4,1.1,1,1.1c0.6,0,1-0.4,1-1.1
				C247.3,124,246.8,123.7,246.3,123.7z"/>
			<path fill="#FFFFFF" d="M248.7,121.9h0.8v1.5c0.3-0.3,0.7-0.4,1.1-0.4c1,0,1.7,0.9,1.7,1.8c0,0.7-0.5,1.8-1.7,1.8
				c-0.7,0-1-0.3-1.2-0.5v0.4h-0.8V121.9z M250.5,125.8c0.5,0,1-0.4,1-1.1s-0.5-1.1-1-1.1c-0.6,0-1,0.5-1,1
				C249.5,125.5,250,125.8,250.5,125.8z"/>
			<path fill="#FFFFFF" d="M252.6,124.7c0-1,0.8-1.8,1.8-1.8c1,0,1.8,0.8,1.8,1.8c0,1.1-0.9,1.8-1.8,1.8
				C253.5,126.6,252.6,125.7,252.6,124.7z M255.5,124.8c0-0.6-0.5-1.1-1-1.1c-0.4,0-1,0.4-1,1.1c0,0.7,0.5,1.1,1,1.1
				C255.1,125.8,255.5,125.3,255.5,124.8z"/>
			<path fill="#FFFFFF" d="M256.8,121.9h0.8v4.6h-0.8V121.9z"/>
			<path fill="#FFFFFF" d="M258.3,121.9h0.8v0.8h-0.8V121.9z M258.3,123h0.8v3.4h-0.8V123z"/>
			<path fill="#FFFFFF" d="M263.2,125.3c-0.3,0.8-0.9,1.2-1.7,1.2c-0.9,0-1.8-0.7-1.8-1.8c0-1.1,0.9-1.8,1.8-1.8
				c0.4,0,1.4,0.2,1.7,1.3h-0.9c-0.1-0.2-0.3-0.5-0.8-0.5c-0.5,0-1,0.4-1,1.1c0,0.6,0.4,1.1,1,1.1c0.3,0,0.5-0.1,0.8-0.5H263.2z"/>
			<path fill="#FFFFFF" d="M265.4,123h0.8v0.4h0c0.4-0.5,1-0.5,1.1-0.5c1.1,0,1.7,1,1.7,1.8c0,1-0.7,1.8-1.7,1.8
				c-0.6,0-0.8-0.2-1.1-0.4v1.5h-0.8V123z M267.2,125.8c0.4,0,1-0.4,1-1.1c0-0.6-0.5-1.1-1-1.1c-0.5,0-1,0.4-1,1.1
				C266.2,125.5,266.8,125.8,267.2,125.8z"/>
			<path fill="#FFFFFF" d="M269.6,123h0.8v0.3h0c0.2-0.2,0.3-0.4,0.7-0.4h0.1v0.8c-0.7,0-0.7,0.6-0.7,0.8v1.9h-0.8V123z"/>
			<path fill="#FFFFFF" d="M271.3,124.7c0-1,0.8-1.8,1.8-1.8c1,0,1.8,0.8,1.8,1.8c0,1.1-0.9,1.8-1.8,1.8
				C272.1,126.6,271.3,125.7,271.3,124.7z M274.1,124.8c0-0.6-0.5-1.1-1-1.1c-0.4,0-1,0.4-1,1.1c0,0.7,0.5,1.1,1,1.1
				C273.7,125.8,274.1,125.3,274.1,124.8z"/>
			<path fill="#FFFFFF" d="M278.9,125.3c-0.3,0.8-0.9,1.2-1.7,1.2c-0.9,0-1.8-0.7-1.8-1.8c0-1.1,0.9-1.8,1.8-1.8
				c0.4,0,1.4,0.2,1.7,1.3h-0.9c-0.1-0.2-0.3-0.5-0.8-0.5c-0.5,0-1,0.4-1,1.1c0,0.6,0.4,1.1,1,1.1c0.3,0,0.5-0.1,0.8-0.5H278.9z"/>
			<path fill="#FFFFFF" d="M280.1,125.1c0,0.2,0.4,0.7,0.9,0.7c0.4,0,0.6-0.2,0.8-0.4h0.9c-0.2,0.6-0.9,1.2-1.7,1.2
				c-1,0-1.8-0.8-1.8-1.8c0-1,0.7-1.9,1.8-1.9c1.1,0,1.8,0.9,1.8,1.8c0,0.2,0,0.3,0,0.4H280.1z M282,124.5c-0.1-0.6-0.5-0.8-0.9-0.8
				c-0.3,0-0.8,0.2-1,0.8H282z"/>
			<path fill="#FFFFFF" d="M284.7,124c-0.1-0.3-0.2-0.3-0.3-0.3c-0.2,0-0.3,0.2-0.3,0.3c0,0.2,0.1,0.2,0.6,0.4c0.4,0.1,1,0.3,1,1
				c0,0.8-0.6,1.2-1.2,1.2c-0.3,0-0.8-0.1-1-0.5c-0.2-0.3-0.2-0.5-0.3-0.7h0.8c0,0.2,0.1,0.4,0.5,0.4c0.3,0,0.4-0.2,0.4-0.3
				c0-0.3-0.2-0.3-0.8-0.5c-0.4-0.1-0.8-0.4-0.8-1c0-0.7,0.6-1.1,1.2-1.1c0.5,0,1.1,0.4,1.1,1.1H284.7z"/>
			<path fill="#FFFFFF" d="M287.5,124c-0.1-0.3-0.2-0.3-0.3-0.3c-0.2,0-0.3,0.2-0.3,0.3c0,0.2,0.1,0.2,0.6,0.4c0.4,0.1,1,0.3,1,1
				c0,0.8-0.6,1.2-1.2,1.2c-0.3,0-0.8-0.1-1-0.5c-0.2-0.3-0.2-0.5-0.3-0.7h0.8c0,0.2,0.1,0.4,0.5,0.4c0.3,0,0.4-0.2,0.4-0.3
				c0-0.3-0.2-0.3-0.8-0.5c-0.4-0.1-0.8-0.4-0.8-1c0-0.7,0.6-1.1,1.2-1.1c0.5,0,1.1,0.4,1.1,1.1H287.5z"/>
			<path fill="#FFFFFF" d="M289.1,125.6h0.8v0.9c0,0.7-0.5,0.8-0.8,0.8v-0.4c0.1,0,0.4-0.1,0.4-0.4v-0.1h-0.4V125.6z"/>
			<path fill="#FFFFFF" d="M293.1,126.1l-1.3-3.1h0.9l0.8,2.2l0.8-2.2h0.9l-2,4.6h-0.9L293.1,126.1z"/>
			<path fill="#FFFFFF" d="M295.3,124.7c0-1,0.8-1.8,1.8-1.8c1,0,1.8,0.8,1.8,1.8c0,1.1-0.9,1.8-1.8,1.8
				C296.2,126.6,295.3,125.7,295.3,124.7z M298.2,124.8c0-0.6-0.5-1.1-1-1.1c-0.4,0-1,0.4-1,1.1c0,0.7,0.5,1.1,1,1.1
				C297.8,125.8,298.2,125.3,298.2,124.8z"/>
			<path fill="#FFFFFF" d="M302.5,123v3.4h-0.8v-0.3h0c-0.1,0.2-0.4,0.5-0.9,0.5c-0.6,0-1-0.3-1.2-0.5c-0.3-0.4-0.3-0.9-0.3-1.2V123
				h0.8v1.8c0,0.3,0,1,0.7,1c0.5,0,0.7-0.5,0.7-1V123H302.5z"/>
			<path fill="#FFFFFF" d="M303.3,123h0.8v0.3h0c0.2-0.2,0.3-0.4,0.7-0.4h0.1v0.8c-0.7,0-0.7,0.6-0.7,0.8v1.9h-0.8V123z"/>
			<path fill="#FFFFFF" d="M306.9,121.9h0.8v1.5c0.3-0.3,0.7-0.4,1.1-0.4c1,0,1.7,0.9,1.7,1.8c0,0.7-0.5,1.8-1.7,1.8
				c-0.7,0-1-0.3-1.2-0.5v0.4h-0.8V121.9z M308.7,125.8c0.5,0,1-0.4,1-1.1s-0.5-1.1-1-1.1c-0.6,0-1,0.5-1,1
				C307.7,125.5,308.2,125.8,308.7,125.8z"/>
			<path fill="#FFFFFF" d="M310.8,124.7c0-1,0.8-1.8,1.8-1.8c1,0,1.8,0.8,1.8,1.8c0,1.1-0.9,1.8-1.8,1.8
				C311.7,126.6,310.8,125.7,310.8,124.7z M313.7,124.8c0-0.6-0.5-1.1-1-1.1c-0.4,0-1,0.4-1,1.1c0,0.7,0.5,1.1,1,1.1
				C313.3,125.8,313.7,125.3,313.7,124.8z"/>
			<path fill="#FFFFFF" d="M318.5,126.5h-0.8V126h0c-0.2,0.2-0.5,0.5-1.1,0.5c-0.9,0-1.8-0.7-1.8-1.8c0-1.2,0.9-1.8,1.8-1.8
				c0.5,0,0.8,0.2,1,0.4v-1.4h0.8V126.5z M316.7,125.8c0.6,0,1-0.6,1-1.1c0-0.6-0.4-1.1-1-1.1c-0.6,0-1,0.6-1,1.1
				C315.7,125.4,316.2,125.8,316.7,125.8z"/>
			<path fill="#FFFFFF" d="M320.1,126.1l-1.3-3.1h0.9l0.8,2.2l0.8-2.2h0.9l-2,4.6h-0.9L320.1,126.1z"/>
			<path fill="#FFFFFF" d="M324.2,123h0.9l0.6,2.1h0l0.6-2.1h0.7l0.6,2.1h0l0.6-2.1h0.9l-1.3,3.4h-0.5l-0.6-2.2h0l-0.7,2.2h-0.5
				L324.2,123z"/>
			<path fill="#FFFFFF" d="M329,124.7c0-1,0.8-1.8,1.8-1.8c1,0,1.8,0.8,1.8,1.8c0,1.1-0.9,1.8-1.8,1.8
				C329.8,126.6,329,125.7,329,124.7z M331.8,124.8c0-0.6-0.5-1.1-1-1.1c-0.4,0-1,0.4-1,1.1c0,0.7,0.5,1.1,1,1.1
				C331.5,125.8,331.8,125.3,331.8,124.8z"/>
			<path fill="#FFFFFF" d="M333.2,123h0.8v0.3c0.1-0.1,0.4-0.4,0.9-0.4c0.3,0,0.7,0.1,1,0.5c0.3,0.4,0.3,1,0.3,1.2v1.9h-0.8v-1.7
				c0-0.3,0-1.1-0.7-1.1c-0.1,0-0.4,0.1-0.6,0.3c-0.1,0.2-0.1,0.6-0.1,0.9v1.6h-0.8V123z"/>
			<path fill="#FFFFFF" d="M337,121.9h0.8v0.9c0,0.7-0.5,0.8-0.8,0.8v-0.4c0.1,0,0.4-0.1,0.4-0.4v-0.1H337V121.9z"/>
			<path fill="#FFFFFF" d="M338.9,123.8h-0.4V123h0.4v-1.1h0.8v1.1h0.5v0.7h-0.5v2.7h-0.8V123.8z"/>
			<path fill="#FFFFFF" d="M233.5,130.5h0.8v0.3h0c0.1-0.1,0.3-0.4,0.9-0.4c0.2,0,0.7,0,1,0.5c0.4-0.5,0.9-0.5,1.1-0.5
				c0.7,0,1,0.4,1.1,0.5c0.1,0.2,0.3,0.5,0.3,1v2h-0.8V132c0-0.2,0-0.9-0.7-0.9c-0.2,0-0.5,0.1-0.6,0.3c-0.1,0.2-0.1,0.5-0.1,0.8
				v1.7h-0.8V132c0-0.5-0.2-0.9-0.7-0.9c-0.7,0-0.7,0.7-0.7,1.1v1.7h-0.8V130.5z"/>
			<path fill="#FFFFFF" d="M240.1,132.6c0,0.2,0.4,0.7,0.9,0.7c0.4,0,0.6-0.2,0.8-0.4h0.9c-0.2,0.6-0.9,1.2-1.7,1.2
				c-1,0-1.8-0.8-1.8-1.8c0-1,0.8-1.9,1.8-1.9c1.1,0,1.8,0.9,1.8,1.8c0,0.2,0,0.3,0,0.4H240.1z M241.9,131.9
				c-0.1-0.6-0.5-0.8-0.9-0.8c-0.3,0-0.8,0.2-1,0.8H241.9z"/>
			<path fill="#FFFFFF" d="M243.5,131.2h-0.4v-0.7h0.4v-1.1h0.8v1.1h0.5v0.7h-0.5v2.7h-0.8V131.2z"/>
			<path fill="#FFFFFF" d="M248.6,133.9h-0.8v-0.4c-0.3,0.3-0.8,0.5-1.2,0.5c-0.9,0-1.7-0.7-1.7-1.9c0-1.1,0.8-1.8,1.7-1.8
				c0.7,0,1.1,0.5,1.1,0.6h0v-0.4h0.8V133.9z M246.8,131.1c-0.7,0-1,0.6-1,1.1c0,0.6,0.4,1.1,1,1.1c0.6,0,1-0.4,1-1.1
				C247.9,131.5,247.3,131.1,246.8,131.1z"/>
			<path fill="#FFFFFF" d="M249.2,129.3h0.8v1.5c0.3-0.3,0.7-0.4,1.1-0.4c1,0,1.7,0.9,1.7,1.8c0,0.7-0.5,1.8-1.7,1.8
				c-0.7,0-1-0.3-1.2-0.5v0.4h-0.8V129.3z M251.1,133.3c0.5,0,1-0.4,1-1.1s-0.5-1.1-1-1.1c-0.6,0-1,0.5-1,1
				C250,132.9,250.6,133.3,251.1,133.3z"/>
			<path fill="#FFFFFF" d="M253.2,132.2c0-1,0.8-1.8,1.8-1.8c1,0,1.8,0.8,1.8,1.8c0,1.1-0.9,1.8-1.8,1.8
				C254,134,253.2,133.2,253.2,132.2z M256,132.2c0-0.6-0.5-1.1-1-1.1c-0.4,0-1,0.4-1,1.1c0,0.7,0.5,1.1,1,1.1
				C255.6,133.3,256,132.7,256,132.2z"/>
			<path fill="#FFFFFF" d="M257.4,129.3h0.8v4.6h-0.8V129.3z"/>
			<path fill="#FFFFFF" d="M258.8,129.3h0.8v0.8h-0.8V129.3z M258.8,130.5h0.8v3.4h-0.8V130.5z"/>
			<path fill="#FFFFFF" d="M260.1,133.1l1.5-1.9h-1.4v-0.8h2.3v0.8l-1.5,1.9h1.6v0.8h-2.6V133.1z"/>
			<path fill="#FFFFFF" d="M263.9,132.6c0,0.2,0.4,0.7,0.9,0.7c0.4,0,0.6-0.2,0.8-0.4h0.9c-0.2,0.6-0.9,1.2-1.7,1.2
				c-1,0-1.8-0.8-1.8-1.8c0-1,0.7-1.9,1.8-1.9c1.1,0,1.8,0.9,1.8,1.8c0,0.2,0,0.3,0,0.4H263.9z M265.8,131.9
				c-0.1-0.6-0.5-0.8-0.9-0.8c-0.3,0-0.8,0.2-1,0.8H265.8z"/>
			<path fill="#FFFFFF" d="M268.7,132.2c0-1,0.8-1.8,1.8-1.8c1,0,1.8,0.8,1.8,1.8c0,1.1-0.9,1.8-1.8,1.8
				C269.5,134,268.7,133.2,268.7,132.2z M271.5,132.2c0-0.6-0.5-1.1-1-1.1c-0.4,0-1,0.4-1,1.1c0,0.7,0.5,1.1,1,1.1
				C271.1,133.3,271.5,132.7,271.5,132.2z"/>
			<path fill="#FFFFFF" d="M273.1,131.2h-0.4v-0.7h0.4v-1.1h0.8v1.1h0.5v0.7h-0.5v2.7h-0.8V131.2z"/>
			<path fill="#FFFFFF" d="M274.7,129.3h0.8v1.4c0.1-0.1,0.4-0.4,0.9-0.4c0.4,0,0.8,0.2,1.1,0.5c0.3,0.3,0.3,0.8,0.3,1.1v1.9h-0.8
				v-1.8c0-0.4,0-1-0.7-1c-0.7,0-0.7,0.8-0.7,1.1v1.7h-0.8V129.3z"/>
			<path fill="#FFFFFF" d="M279.2,132.6c0,0.2,0.4,0.7,0.9,0.7c0.4,0,0.6-0.2,0.8-0.4h0.9c-0.2,0.6-0.9,1.2-1.7,1.2
				c-1,0-1.8-0.8-1.8-1.8c0-1,0.8-1.9,1.8-1.9c1.1,0,1.8,0.9,1.8,1.8c0,0.2,0,0.3,0,0.4H279.2z M281,131.9c-0.1-0.6-0.5-0.8-0.9-0.8
				c-0.3,0-0.8,0.2-1,0.8H281z"/>
			<path fill="#FFFFFF" d="M282.5,130.5h0.8v0.3h0c0.2-0.2,0.3-0.4,0.7-0.4h0.1v0.8c-0.7,0-0.7,0.6-0.7,0.8v1.9h-0.8V130.5z"/>
			<path fill="#FFFFFF" d="M286.2,131.2h-0.3v-0.7h0.3c0-0.2,0.1-0.7,0.4-1c0.2-0.2,0.5-0.3,0.7-0.3h0.2v0.8c-0.3,0-0.5,0-0.5,0.4
				h0.5v0.7H287v2.7h-0.8V131.2z"/>
			<path fill="#FFFFFF" d="M291.2,133.9h-0.8v-0.4c-0.3,0.3-0.8,0.5-1.2,0.5c-0.9,0-1.7-0.7-1.7-1.9c0-1.1,0.8-1.8,1.7-1.8
				c0.7,0,1.1,0.5,1.1,0.6h0v-0.4h0.8V133.9z M289.5,131.1c-0.7,0-1,0.6-1,1.1c0,0.6,0.4,1.1,1,1.1c0.6,0,1-0.4,1-1.1
				C290.5,131.5,289.9,131.1,289.5,131.1z"/>
			<path fill="#FFFFFF" d="M292.1,131.2h-0.4v-0.7h0.4v-1.1h0.8v1.1h0.5v0.7h-0.5v2.7h-0.8V131.2z"/>
			<path fill="#FFFFFF" d="M295.1,131.4c-0.1-0.3-0.2-0.3-0.3-0.3c-0.2,0-0.3,0.2-0.3,0.3c0,0.2,0.1,0.2,0.6,0.4c0.4,0.1,1,0.3,1,1
				c0,0.8-0.6,1.2-1.2,1.2c-0.3,0-0.8-0.1-1-0.5c-0.2-0.3-0.2-0.5-0.3-0.7h0.8c0,0.2,0.1,0.4,0.5,0.4c0.3,0,0.4-0.2,0.4-0.3
				c0-0.3-0.2-0.3-0.8-0.5c-0.4-0.1-0.8-0.4-0.8-1c0-0.7,0.6-1.1,1.2-1.1c0.5,0,1.1,0.4,1.1,1.1H295.1z"/>
			<path fill="#FFFFFF" d="M301.7,133.9h-0.8v-0.4c-0.3,0.3-0.8,0.5-1.2,0.5c-0.9,0-1.7-0.7-1.7-1.9c0-1.1,0.8-1.8,1.7-1.8
				c0.7,0,1.1,0.5,1.1,0.6h0v-0.4h0.8V133.9z M299.9,131.1c-0.7,0-1,0.6-1,1.1c0,0.6,0.4,1.1,1,1.1c0.6,0,1-0.4,1-1.1
				C300.9,131.5,300.4,131.1,299.9,131.1z"/>
			<path fill="#FFFFFF" d="M302.3,130.5h0.8v0.3c0.1-0.1,0.4-0.4,0.9-0.4c0.3,0,0.7,0.1,1,0.5c0.3,0.4,0.3,1,0.3,1.2v1.9h-0.8v-1.7
				c0-0.3,0-1.1-0.7-1.1c-0.1,0-0.4,0.1-0.6,0.3c-0.1,0.2-0.1,0.6-0.1,0.9v1.6h-0.8V130.5z"/>
			<path fill="#FFFFFF" d="M309.5,133.9h-0.8v-0.4h0c-0.2,0.2-0.5,0.5-1.1,0.5c-0.9,0-1.8-0.7-1.8-1.8c0-1.2,0.9-1.8,1.8-1.8
				c0.5,0,0.8,0.2,1,0.4v-1.4h0.8V133.9z M307.8,133.3c0.6,0,1-0.6,1-1.1c0-0.6-0.4-1.1-1-1.1c-0.6,0-1,0.6-1,1.1
				C306.7,132.8,307.2,133.3,307.8,133.3z"/>
			<path fill="#FFFFFF" d="M313.2,131.4c-0.1-0.3-0.2-0.3-0.3-0.3c-0.2,0-0.3,0.2-0.3,0.3c0,0.2,0.1,0.2,0.6,0.4c0.4,0.1,1,0.3,1,1
				c0,0.8-0.6,1.2-1.2,1.2c-0.3,0-0.8-0.1-1-0.5c-0.2-0.3-0.2-0.5-0.3-0.7h0.8c0,0.2,0.1,0.4,0.5,0.4c0.3,0,0.4-0.2,0.4-0.3
				c0-0.3-0.2-0.3-0.8-0.5c-0.4-0.1-0.8-0.4-0.8-1c0-0.7,0.6-1.1,1.2-1.1c0.5,0,1.1,0.4,1.1,1.1H313.2z"/>
			<path fill="#FFFFFF" d="M317.6,130.5v3.4h-0.8v-0.3h0c-0.1,0.2-0.4,0.5-0.9,0.5c-0.6,0-1-0.3-1.2-0.5c-0.3-0.4-0.3-0.9-0.3-1.2
				v-1.8h0.8v1.8c0,0.3,0,1,0.7,1c0.5,0,0.7-0.5,0.7-1v-1.8H317.6z"/>
			<path fill="#FFFFFF" d="M321.8,130.5v2.8c0,1.7-1.2,2-1.9,2c-0.7,0-1.4-0.4-1.7-1.1h0.9c0.3,0.4,0.7,0.4,0.8,0.4
				c0.5,0,1-0.3,1.1-1.1l0,0c-0.1,0.2-0.4,0.6-1.1,0.6c-0.8,0-1.8-0.7-1.8-1.9c0-1.1,0.9-1.8,1.8-1.8c0.7,0,1,0.4,1.1,0.5h0v-0.4
				H321.8z M320,131.1c-0.5,0-1,0.4-1,1.1c0,0.7,0.5,1.1,1,1.1c0.5,0,1-0.4,1-1.1C321,131.7,320.6,131.1,320,131.1z"/>
			<path fill="#FFFFFF" d="M326,133.9h-0.8v-0.4c-0.3,0.3-0.8,0.5-1.2,0.5c-0.9,0-1.7-0.7-1.7-1.9c0-1.1,0.8-1.8,1.7-1.8
				c0.7,0,1.1,0.5,1.1,0.6h0v-0.4h0.8V133.9z M324.2,131.1c-0.7,0-1,0.6-1,1.1c0,0.6,0.4,1.1,1,1.1c0.6,0,1-0.4,1-1.1
				C325.2,131.5,324.7,131.1,324.2,131.1z"/>
			<path fill="#FFFFFF" d="M326.6,130.5h0.8v0.3h0c0.2-0.2,0.3-0.4,0.7-0.4h0.1v0.8c-0.7,0-0.7,0.6-0.7,0.8v1.9h-0.8V130.5z"/>
			<path fill="#FFFFFF" d="M330.1,131.4c-0.1-0.3-0.2-0.3-0.3-0.3c-0.2,0-0.3,0.2-0.3,0.3c0,0.2,0.1,0.2,0.6,0.4c0.4,0.1,1,0.3,1,1
				c0,0.8-0.6,1.2-1.2,1.2c-0.3,0-0.8-0.1-1-0.5c-0.2-0.3-0.2-0.5-0.3-0.7h0.8c0,0.2,0.1,0.4,0.5,0.4c0.3,0,0.4-0.2,0.4-0.3
				c0-0.3-0.2-0.3-0.8-0.5c-0.4-0.1-0.8-0.4-0.8-1c0-0.7,0.6-1.1,1.2-1.1c0.5,0,1.1,0.4,1.1,1.1H330.1z"/>
			<path fill="#FFFFFF" d="M336.6,133.9h-0.8v-0.4c-0.3,0.3-0.8,0.5-1.2,0.5c-0.9,0-1.7-0.7-1.7-1.9c0-1.1,0.8-1.8,1.7-1.8
				c0.7,0,1.1,0.5,1.1,0.6h0v-0.4h0.8V133.9z M334.8,131.1c-0.7,0-1,0.6-1,1.1c0,0.6,0.4,1.1,1,1.1c0.6,0,1-0.4,1-1.1
				C335.8,131.5,335.3,131.1,334.8,131.1z"/>
			<path fill="#FFFFFF" d="M338.6,131.4c-0.1-0.3-0.2-0.3-0.3-0.3c-0.2,0-0.3,0.2-0.3,0.3c0,0.2,0.1,0.2,0.6,0.4c0.4,0.1,1,0.3,1,1
				c0,0.8-0.6,1.2-1.2,1.2c-0.3,0-0.8-0.1-1-0.5c-0.2-0.3-0.2-0.5-0.3-0.7h0.8c0,0.2,0.1,0.4,0.5,0.4c0.3,0,0.4-0.2,0.4-0.3
				c0-0.3-0.2-0.3-0.8-0.5c-0.4-0.1-0.8-0.4-0.8-1c0-0.7,0.6-1.1,1.2-1.1c0.5,0,1.1,0.4,1.1,1.1H338.6z"/>
			<path fill="#FFFFFF" d="M237.6,140c0,0.2,0.4,0.7,0.9,0.7c0.4,0,0.6-0.2,0.8-0.4h0.9c-0.2,0.6-0.9,1.2-1.7,1.2
				c-1,0-1.8-0.8-1.8-1.8c0-1,0.8-1.9,1.8-1.9c1.1,0,1.8,0.9,1.8,1.8c0,0.2,0,0.3,0,0.4H237.6z M239.5,139.3
				c-0.1-0.6-0.5-0.8-0.9-0.8c-0.3,0-0.8,0.2-1,0.8H239.5z"/>
			<path fill="#FFFFFF" d="M240.9,138.6h-0.3v-0.7h0.3c0-0.2,0.1-0.7,0.4-1c0.2-0.2,0.5-0.3,0.7-0.3h0.2v0.8c-0.3,0-0.5,0-0.5,0.4
				h0.5v0.7h-0.5v2.7h-0.8V138.6z"/>
			<path fill="#FFFFFF" d="M242.5,138.6h-0.3v-0.7h0.3c0-0.2,0.1-0.7,0.4-1c0.2-0.2,0.5-0.3,0.7-0.3h0.2v0.8c-0.3,0-0.5,0-0.5,0.4
				h0.5v0.7h-0.5v2.7h-0.8V138.6z"/>
			<path fill="#FFFFFF" d="M244.1,136.8h0.8v0.8h-0.8V136.8z M244.1,137.9h0.8v3.4h-0.8V137.9z"/>
			<path fill="#FFFFFF" d="M249.1,140.2c-0.3,0.8-0.9,1.2-1.7,1.2c-0.9,0-1.8-0.7-1.8-1.8c0-1.1,0.9-1.8,1.8-1.8
				c0.4,0,1.4,0.2,1.7,1.3h-0.9c-0.1-0.2-0.3-0.5-0.8-0.5c-0.5,0-1,0.4-1,1.1c0,0.6,0.4,1.1,1,1.1c0.3,0,0.5-0.1,0.8-0.5H249.1z"/>
			<path fill="#FFFFFF" d="M249.6,136.8h0.8v0.8h-0.8V136.8z M249.6,137.9h0.8v3.4h-0.8V137.9z"/>
			<path fill="#FFFFFF" d="M251.8,140c0,0.2,0.4,0.7,0.9,0.7c0.4,0,0.6-0.2,0.8-0.4h0.9c-0.2,0.6-0.9,1.2-1.7,1.2
				c-1,0-1.8-0.8-1.8-1.8c0-1,0.8-1.9,1.8-1.9c1.1,0,1.8,0.9,1.8,1.8c0,0.2,0,0.3,0,0.4H251.8z M253.7,139.3
				c-0.1-0.6-0.5-0.8-0.9-0.8c-0.3,0-0.8,0.2-1,0.8H253.7z"/>
			<path fill="#FFFFFF" d="M255.1,137.9h0.8v0.3c0.1-0.1,0.4-0.4,0.9-0.4c0.3,0,0.7,0.1,1,0.5c0.3,0.4,0.3,1,0.3,1.2v1.9h-0.8v-1.7
				c0-0.3,0-1.1-0.7-1.1c-0.1,0-0.4,0.1-0.6,0.3c-0.1,0.2-0.1,0.6-0.1,0.9v1.6h-0.8V137.9z"/>
			<path fill="#FFFFFF" d="M259,138.6h-0.4v-0.7h0.4v-1.1h0.8v1.1h0.5v0.7h-0.5v2.7H259V138.6z"/>
			<path fill="#FFFFFF" d="M260.6,136.8h0.8v4.6h-0.8V136.8z"/>
			<path fill="#FFFFFF" d="M263.1,141l-1.3-3.1h0.9l0.8,2.2l0.8-2.2h0.9l-2,4.6h-0.9L263.1,141z"/>
			<path fill="#FFFFFF" d="M265.2,140.5h0.8v0.9c0,0.7-0.5,0.8-0.8,0.8v-0.4c0.1,0,0.4-0.1,0.4-0.4v-0.1h-0.4V140.5z"/>
			<path fill="#FFFFFF" d="M271.3,137.9v3.4h-0.8V141h0c-0.1,0.2-0.4,0.5-0.9,0.5c-0.6,0-1-0.3-1.2-0.5c-0.3-0.4-0.3-0.9-0.3-1.2
				v-1.8h0.8v1.8c0,0.3,0,1,0.7,1c0.5,0,0.7-0.5,0.7-1v-1.8H271.3z"/>
			<path fill="#FFFFFF" d="M272,136.8h0.8v4.6H272V136.8z"/>
			<path fill="#FFFFFF" d="M273.7,138.6h-0.4v-0.7h0.4v-1.1h0.8v1.1h0.5v0.7h-0.5v2.7h-0.8V138.6z"/>
			<path fill="#FFFFFF" d="M275.3,136.8h0.8v0.8h-0.8V136.8z M275.3,137.9h0.8v3.4h-0.8V137.9z"/>
			<path fill="#FFFFFF" d="M276.8,137.9h0.8v0.3h0c0.1-0.1,0.3-0.4,0.9-0.4c0.2,0,0.7,0,1,0.5c0.4-0.5,0.9-0.5,1.1-0.5
				c0.7,0,1,0.4,1.1,0.5c0.1,0.2,0.3,0.5,0.3,1v2h-0.8v-1.9c0-0.2,0-0.9-0.7-0.9c-0.2,0-0.5,0.1-0.6,0.3c-0.1,0.2-0.1,0.5-0.1,0.8
				v1.7H279v-1.9c0-0.5-0.2-0.9-0.7-0.9c-0.7,0-0.7,0.7-0.7,1.1v1.7h-0.8V137.9z"/>
			<path fill="#FFFFFF" d="M286.1,141.3h-0.8v-0.4c-0.3,0.3-0.8,0.5-1.2,0.5c-0.9,0-1.7-0.7-1.7-1.9c0-1.1,0.8-1.8,1.7-1.8
				c0.7,0,1.1,0.5,1.1,0.6h0v-0.4h0.8V141.3z M284.3,138.5c-0.7,0-1,0.6-1,1.1c0,0.6,0.4,1.1,1,1.1c0.6,0,1-0.4,1-1.1
				C285.3,138.9,284.8,138.5,284.3,138.5z"/>
			<path fill="#FFFFFF" d="M287,138.6h-0.4v-0.7h0.4v-1.1h0.8v1.1h0.5v0.7h-0.5v2.7H287V138.6z"/>
			<path fill="#FFFFFF" d="M289.4,140c0,0.2,0.4,0.7,0.9,0.7c0.4,0,0.6-0.2,0.8-0.4h0.9c-0.2,0.6-0.9,1.2-1.7,1.2
				c-1,0-1.8-0.8-1.8-1.8c0-1,0.7-1.9,1.8-1.9c1.1,0,1.8,0.9,1.8,1.8c0,0.2,0,0.3,0,0.4H289.4z M291.2,139.3
				c-0.1-0.6-0.5-0.8-0.9-0.8c-0.3,0-0.8,0.2-1,0.8H291.2z"/>
			<path fill="#FFFFFF" d="M292.6,136.8h0.8v4.6h-0.8V136.8z"/>
			<path fill="#FFFFFF" d="M295.1,141l-1.3-3.1h0.9l0.8,2.2l0.8-2.2h0.9l-2,4.6h-0.9L295.1,141z"/>
			<path fill="#FFFFFF" d="M300.8,138.8c-0.1-0.3-0.2-0.3-0.3-0.3c-0.2,0-0.3,0.2-0.3,0.3c0,0.2,0.1,0.2,0.6,0.4c0.4,0.1,1,0.3,1,1
				c0,0.8-0.6,1.2-1.2,1.2c-0.3,0-0.8-0.1-1-0.5c-0.2-0.3-0.2-0.5-0.3-0.7h0.8c0,0.2,0.1,0.4,0.5,0.4c0.3,0,0.4-0.2,0.4-0.3
				c0-0.3-0.2-0.3-0.8-0.5c-0.4-0.1-0.8-0.4-0.8-1c0-0.7,0.6-1.1,1.2-1.1c0.5,0,1.1,0.4,1.1,1.1H300.8z"/>
			<path fill="#FFFFFF" d="M302.2,136.8h0.8v4.6h-0.8V136.8z"/>
			<path fill="#FFFFFF" d="M303.5,139.6c0-1,0.8-1.8,1.8-1.8c1,0,1.8,0.8,1.8,1.8c0,1.1-0.9,1.8-1.8,1.8
				C304.3,141.5,303.5,140.6,303.5,139.6z M306.3,139.6c0-0.6-0.5-1.1-1-1.1c-0.4,0-1,0.4-1,1.1c0,0.7,0.5,1.1,1,1.1
				C305.9,140.7,306.3,140.2,306.3,139.6z"/>
			<path fill="#FFFFFF" d="M307.2,137.9h0.9l0.6,2.1h0l0.6-2.1h0.7l0.6,2.1h0l0.6-2.1h0.9l-1.3,3.4h-0.5l-0.6-2.2h0l-0.7,2.2h-0.5
				L307.2,137.9z"/>
			<path fill="#FFFFFF" d="M312.4,136.8h0.8v0.8h-0.8V136.8z M312.4,137.9h0.8v3.4h-0.8V137.9z"/>
			<path fill="#FFFFFF" d="M313.9,137.9h0.8v0.3c0.1-0.1,0.4-0.4,0.9-0.4c0.3,0,0.7,0.1,1,0.5c0.3,0.4,0.3,1,0.3,1.2v1.9h-0.8v-1.7
				c0-0.3,0-1.1-0.7-1.1c-0.1,0-0.4,0.1-0.6,0.3c-0.1,0.2-0.1,0.6-0.1,0.9v1.6h-0.8V137.9z"/>
			<path fill="#FFFFFF" d="M321.2,137.9v2.8c0,1.7-1.2,2-1.9,2c-0.7,0-1.4-0.4-1.7-1.1h0.9c0.3,0.4,0.7,0.4,0.8,0.4
				c0.5,0,1-0.3,1.1-1.1l0,0c-0.1,0.2-0.4,0.6-1.1,0.6c-0.8,0-1.8-0.7-1.8-1.9c0-1.1,0.9-1.8,1.8-1.8c0.7,0,1,0.4,1.1,0.5h0v-0.4
				H321.2z M319.4,138.5c-0.5,0-1,0.4-1,1.1c0,0.7,0.5,1.1,1,1.1c0.5,0,1-0.4,1-1.1C320.4,139.1,320,138.5,319.4,138.5z"/>
			<path fill="#FFFFFF" d="M324.5,141l-1.3-3.1h0.9l0.8,2.2l0.8-2.2h0.9l-2,4.6h-0.9L324.5,141z"/>
			<path fill="#FFFFFF" d="M326.7,139.6c0-1,0.8-1.8,1.8-1.8c1,0,1.8,0.8,1.8,1.8c0,1.1-0.9,1.8-1.8,1.8
				C327.5,141.5,326.7,140.6,326.7,139.6z M329.6,139.6c0-0.6-0.5-1.1-1-1.1c-0.4,0-1,0.4-1,1.1c0,0.7,0.5,1.1,1,1.1
				C329.2,140.7,329.6,140.2,329.6,139.6z"/>
			<path fill="#FFFFFF" d="M333.9,137.9v3.4h-0.8V141h0c-0.1,0.2-0.4,0.5-0.9,0.5c-0.6,0-1-0.3-1.2-0.5c-0.3-0.4-0.3-0.9-0.3-1.2
				v-1.8h0.8v1.8c0,0.3,0,1,0.7,1c0.5,0,0.7-0.5,0.7-1v-1.8H333.9z"/>
			<path fill="#FFFFFF" d="M334.6,137.9h0.8v0.3h0c0.2-0.2,0.3-0.4,0.7-0.4h0.1v0.8c-0.7,0-0.7,0.6-0.7,0.8v1.9h-0.8V137.9z"/>
			<path fill="#FFFFFF" d="M245.2,145.4h0.8v0.3h0c0.1-0.1,0.3-0.4,0.9-0.4c0.2,0,0.7,0,1,0.5c0.4-0.5,0.9-0.5,1.1-0.5
				c0.7,0,1,0.4,1.1,0.5c0.1,0.2,0.3,0.5,0.3,1v2h-0.8v-1.9c0-0.2,0-0.9-0.7-0.9c-0.2,0-0.5,0.1-0.6,0.3c-0.1,0.2-0.1,0.5-0.1,0.8
				v1.7h-0.8v-1.9c0-0.5-0.2-0.9-0.7-0.9c-0.7,0-0.7,0.7-0.7,1.1v1.7h-0.8V145.4z"/>
			<path fill="#FFFFFF" d="M251.7,147.4c0,0.2,0.4,0.7,0.9,0.7c0.4,0,0.6-0.2,0.8-0.4h0.9c-0.2,0.6-0.9,1.2-1.7,1.2
				c-1,0-1.8-0.8-1.8-1.8c0-1,0.8-1.9,1.8-1.9c1.1,0,1.8,0.9,1.8,1.8c0,0.2,0,0.3,0,0.4H251.7z M253.6,146.8
				c-0.1-0.6-0.5-0.8-0.9-0.8c-0.3,0-0.8,0.2-1,0.8H253.6z"/>
			<path fill="#FFFFFF" d="M255.2,146.1h-0.4v-0.7h0.4v-1.1h0.8v1.1h0.5v0.7H256v2.7h-0.8V146.1z"/>
			<path fill="#FFFFFF" d="M260.3,148.8h-0.8v-0.4c-0.3,0.3-0.8,0.5-1.2,0.5c-0.9,0-1.7-0.7-1.7-1.9c0-1.1,0.8-1.8,1.7-1.8
				c0.7,0,1.1,0.5,1.1,0.6h0v-0.4h0.8V148.8z M258.5,146c-0.7,0-1,0.6-1,1.1c0,0.6,0.4,1.1,1,1.1c0.6,0,1-0.4,1-1.1
				C259.5,146.3,259,146,258.5,146z"/>
			<path fill="#FFFFFF" d="M260.9,144.2h0.8v1.5c0.3-0.3,0.7-0.4,1.1-0.4c1,0,1.7,0.9,1.7,1.8c0,0.7-0.5,1.8-1.7,1.8
				c-0.7,0-1-0.3-1.2-0.5v0.4h-0.8V144.2z M262.7,148.1c0.5,0,1-0.4,1-1.1s-0.5-1.1-1-1.1c-0.6,0-1,0.5-1,1
				C261.7,147.8,262.2,148.1,262.7,148.1z"/>
			<path fill="#FFFFFF" d="M264.9,147.1c0-1,0.8-1.8,1.8-1.8c1,0,1.8,0.8,1.8,1.8c0,1.1-0.9,1.8-1.8,1.8
				C265.7,148.9,264.9,148.1,264.9,147.1z M267.7,147.1c0-0.6-0.5-1.1-1-1.1c-0.4,0-1,0.4-1,1.1c0,0.7,0.5,1.1,1,1.1
				C267.3,148.1,267.7,147.6,267.7,147.1z"/>
			<path fill="#FFFFFF" d="M269,144.2h0.8v4.6H269V144.2z"/>
			<path fill="#FFFFFF" d="M270.5,144.2h0.8v0.8h-0.8V144.2z M270.5,145.4h0.8v3.4h-0.8V145.4z"/>
			<path fill="#FFFFFF" d="M273.4,146.3c-0.1-0.3-0.2-0.3-0.3-0.3c-0.2,0-0.3,0.2-0.3,0.3c0,0.2,0.1,0.2,0.6,0.4c0.4,0.1,1,0.3,1,1
				c0,0.8-0.6,1.2-1.2,1.2c-0.3,0-0.8-0.1-1-0.5c-0.2-0.3-0.2-0.5-0.3-0.7h0.8c0,0.2,0.1,0.4,0.5,0.4c0.3,0,0.4-0.2,0.4-0.3
				c0-0.3-0.2-0.3-0.8-0.5c-0.4-0.1-0.8-0.4-0.8-1c0-0.7,0.6-1.1,1.2-1.1c0.5,0,1.1,0.4,1.1,1.1H273.4z"/>
			<path fill="#FFFFFF" d="M274.7,145.4h0.8v0.3h0c0.1-0.1,0.3-0.4,0.9-0.4c0.2,0,0.7,0,1,0.5c0.4-0.5,0.9-0.5,1.1-0.5
				c0.7,0,1,0.4,1.1,0.5c0.1,0.2,0.3,0.5,0.3,1v2h-0.8v-1.9c0-0.2,0-0.9-0.7-0.9c-0.2,0-0.5,0.1-0.6,0.3c-0.1,0.2-0.1,0.5-0.1,0.8
				v1.7h-0.8v-1.9c0-0.5-0.2-0.9-0.7-0.9c-0.7,0-0.7,0.7-0.7,1.1v1.7h-0.8V145.4z"/>
			<path fill="#FFFFFF" d="M285.8,148.8H285v-0.4h0c-0.2,0.2-0.5,0.5-1.1,0.5c-0.9,0-1.8-0.7-1.8-1.8c0-1.2,0.9-1.8,1.8-1.8
				c0.5,0,0.8,0.2,1,0.4v-1.4h0.8V148.8z M284,148.1c0.6,0,1-0.6,1-1.1c0-0.6-0.4-1.1-1-1.1c-0.6,0-1,0.6-1,1.1
				C283,147.7,283.5,148.1,284,148.1z"/>
			<path fill="#FFFFFF" d="M286.2,147.1c0-1,0.8-1.8,1.8-1.8c1,0,1.8,0.8,1.8,1.8c0,1.1-0.9,1.8-1.8,1.8
				C287,148.9,286.2,148.1,286.2,147.1z M289,147.1c0-0.6-0.5-1.1-1-1.1c-0.4,0-1,0.4-1,1.1c0,0.7,0.5,1.1,1,1.1
				C288.6,148.1,289,147.6,289,147.1z"/>
			<path fill="#FFFFFF" d="M290,145.4h0.9l0.6,2.1h0l0.6-2.1h0.7l0.6,2.1h0l0.6-2.1h0.9l-1.3,3.4H293l-0.6-2.2h0l-0.7,2.2h-0.5
				L290,145.4z"/>
			<path fill="#FFFFFF" d="M295.2,145.4h0.8v0.3c0.1-0.1,0.4-0.4,0.9-0.4c0.3,0,0.7,0.1,1,0.5c0.3,0.4,0.3,1,0.3,1.2v1.9h-0.8v-1.7
				c0-0.3,0-1.1-0.7-1.1c-0.1,0-0.4,0.1-0.6,0.3c-0.1,0.2-0.1,0.6-0.1,0.9v1.6h-0.8V145.4z"/>
			<path fill="#FFFFFF" d="M300.5,147.1c0-1,0.8-1.8,1.8-1.8c1,0,1.8,0.8,1.8,1.8c0,1.1-0.9,1.8-1.8,1.8
				C301.3,148.9,300.5,148.1,300.5,147.1z M303.3,147.1c0-0.6-0.5-1.1-1-1.1c-0.4,0-1,0.4-1,1.1c0,0.7,0.5,1.1,1,1.1
				C302.9,148.1,303.3,147.6,303.3,147.1z"/>
			<path fill="#FFFFFF" d="M304.1,145.4h0.9l0.8,2.3h0l0.8-2.3h0.9l-1.4,3.4h-0.6L304.1,145.4z"/>
			<path fill="#FFFFFF" d="M308.5,147.4c0,0.2,0.4,0.7,0.9,0.7c0.4,0,0.6-0.2,0.8-0.4h0.9c-0.2,0.6-0.9,1.2-1.7,1.2
				c-1,0-1.8-0.8-1.8-1.8c0-1,0.8-1.9,1.8-1.9c1.1,0,1.8,0.9,1.8,1.8c0,0.2,0,0.3,0,0.4H308.5z M310.4,146.8
				c-0.1-0.6-0.5-0.8-0.9-0.8c-0.3,0-0.8,0.2-1,0.8H310.4z"/>
			<path fill="#FFFFFF" d="M311.8,145.4h0.8v0.3h0c0.2-0.2,0.3-0.4,0.7-0.4h0.1v0.8c-0.7,0-0.7,0.6-0.7,0.8v1.9h-0.8V145.4z"/>
			<path fill="#FFFFFF" d="M315.7,146.1h-0.4v-0.7h0.4v-1.1h0.8v1.1h0.5v0.7h-0.5v2.7h-0.8V146.1z"/>
			<path fill="#FFFFFF" d="M317.3,144.2h0.8v0.8h-0.8V144.2z M317.3,145.4h0.8v3.4h-0.8V145.4z"/>
			<path fill="#FFFFFF" d="M318.8,145.4h0.8v0.3h0c0.1-0.1,0.3-0.4,0.9-0.4c0.2,0,0.7,0,1,0.5c0.4-0.5,0.9-0.5,1.1-0.5
				c0.7,0,1,0.4,1.1,0.5c0.1,0.2,0.3,0.5,0.3,1v2h-0.8v-1.9c0-0.2,0-0.9-0.7-0.9c-0.2,0-0.5,0.1-0.6,0.3c-0.1,0.2-0.1,0.5-0.1,0.8
				v1.7H321v-1.9c0-0.5-0.2-0.9-0.7-0.9c-0.7,0-0.7,0.7-0.7,1.1v1.7h-0.8V145.4z"/>
			<path fill="#FFFFFF" d="M325.4,147.4c0,0.2,0.4,0.7,0.9,0.7c0.4,0,0.6-0.2,0.8-0.4h0.9c-0.2,0.6-0.9,1.2-1.7,1.2
				c-1,0-1.8-0.8-1.8-1.8c0-1,0.8-1.9,1.8-1.9c1.1,0,1.8,0.9,1.8,1.8c0,0.2,0,0.3,0,0.4H325.4z M327.3,146.8
				c-0.1-0.6-0.5-0.8-0.9-0.8c-0.3,0-0.8,0.2-1,0.8H327.3z"/>
			<path fill="#FFFFFF" d="M328.7,148h0.8v0.8h-0.8V148z"/>
		</g>
	</g>
	<path fill="#7FBB42" d="M137.4,87.4V89c0,0-2.4,1.3-1.3,3.8c0,0,0,0.4,3.7,2.7c0,0,1.5,1.7,1.7,2.9c0,0-0.6,1.2,0.6,3.6
		c0,0,0.5,5.5-0.3,5.8c0,0-5-2-10.5-0.7c0,0-17.5,0-18-1c0,0,1.1-12.6,3.6-15.7c0,0,1.6,0.2,2.3-0.4c0,0,1.6,0.3,2,1
		c0,0,2.3,0.8,2.1-2.2c0,0,4.9,0.5,5.2-1.3H137.4z"/>
</g>
<g>
</g>
<g>
</g>
<g>
</g>
<g>
</g>
<g>
</g>
<g>
</g>
</svg>
